<svg xmlns="http://www.w3.org/2000/svg" id="Layer_1" viewBox="0 0 240 65.9" width="240" height="65.9"><style>.st0{fill:#2997ff}.st1{fill:#505050}.st2{font-family:&apos;FiraSans-BoldItalic&apos;}.st3{font-size:30.7671px}</style><g id="f8a5ddee-3c06-43c6-91d8-a937678c1a05"><g id="ad374df9-a24c-48cf-9429-db368081ed61"><path d="M234.4 3c1.4 0 2.6 1.2 2.6 2.6v54.8c-.1 1.4-1.2 2.4-2.6 2.5H5.6c-1.4 0-2.6-1.2-2.6-2.6V5.6C3 4.2 4.2 3 5.6 3h228.8m0-3H5.6C2.5 0 0 2.5 0 5.6v54.7c0 3.1 2.5 5.6 5.6 5.6h228.8c3-.1 5.4-2.5 5.6-5.5V5.6c0-3.1-2.5-5.6-5.6-5.6z" class="st0"/><path d="M47.9 20.9v15c1.3 0 2.5 0 3.8.3V20.9c0-3.6-2.9-6.6-6.6-6.6H34v.8c0 1 0 2-.1 2.9H45c1.5 0 2.8 1.2 2.9 2.9 0-.1 0-.1 0 0zm-31 22.9c.2-.1.5-.2.7-.1V20.9c0-1.5 1.3-2.8 2.8-2.8h5.3c-.2-1.3-.2-2.5-.1-3.8h-5.2c-3.6 0-6.6 2.9-6.6 6.6v24.9c1-.8 2.1-1.4 3.1-2zm31 1.8c0 1.5-1.3 2.8-2.8 2.8H22.8c-.8 1.3-1.6 2.6-2.5 3.8h24.8c3.6 0 6.5-2.9 6.6-6.4-1.1-.1-2.4-.4-3.8-.7v.5z" class="st0"/><path d="M55.7 39.5c-1.7-1.7-6.6-2.2-13.3-1.4-1.4-.8-2.8-1.7-4.1-2.7-1.7-1.4-4.8-4.6-7-11.3.4-3 .7-6 .7-9v-1.4l.1-.8c.3-1 .2-2-.3-2.9-.4-.4-1-.6-1.5-.6h-1c-.8 0-1.4.6-1.7 1.7-.8 2.9-.4 8 1 12.7 0 .1.1.4.1.6-1.3 4.2-2.9 8.4-4.9 12.3-3.4 6.9-6.2 11.6-8.5 14.6-1.7 2-3.1 3.2-4.2 3.5.4-1.2 1-2.3 1.8-3.2 1.5-1.9 3.2-3.7 5.2-5.2l-.6-1c-5.6 3-8.1 6.5-8.5 8.6-.1.5-.1 1 .1 1.4l.1.1h.1l1.1.6c.4.2.7.3 1.1.3 2.7 0 6.4-4.1 11.1-12.2 5.9-2 12-3.3 18.1-3.9h.4c4.1 2.1 8.5 3.4 11.3 3.4.6 0 1.2-.1 1.8-.3.1 0 .1 0 .3-.1l.7-.6c.1-.2.2-.3.3-.6l.1-.4c.6-.6.6-1.5.1-2.1.1 0 .1-.1 0-.1zM30.1 11.3c0-.2.1-.4.3-.6.6.5 1 1.3 1 2.1l.1.7h-.1c-.1.6-.1 1.3-.3 2-.1 1-.3 2.2-.6 3.6-.8-3.3-1-6.2-.4-7.8zm-6.2 31.5c.8-1.4 1.5-2.9 2.4-4.5 1.7-3.1 3-6.4 4.1-9.8 1.3 3.3 3.5 6.3 6.1 8.7.6.5 1.2 1 1.8 1.4-4.9.9-9.7 2.3-14.4 4.2zm31.2-1.1c-1.3.6-4.6-.1-8.3-1.7 3.9-.1 6.9.3 8 1 .2.2.3.5.3.7z" class="st0"/></g></g><text class="st1 st2 st3" transform="translate(68.475 45.06)">Submit WIP</text></svg>