<svg xmlns="http://www.w3.org/2000/svg" id="Layer_1" viewBox="0 0 505.45 342.99" width="505.45" height="342.99"><defs><style>.cls-1{fill:#f26518}.cls-2{fill:#fff}.cls-3{fill:#2997ff}.cls-4{fill:#505050}.cls-5,.cls-6{stroke:#b3b3b3;stroke-width:8px;fill:none;stroke-linecap:round;stroke-linejoin:round}.cls-6{stroke:#f26518;stroke-width:3px}</style></defs><path d="M265.98 28.97v281m-140.5-140.5h281" class="cls-5"/><path d="M242.79 7.49c0 3.18-2.3 4.6-5.42 4.6h-1.62v4.82h-2.64V3.09h4.08c3.48 0 5.6 1.42 5.6 4.4zm-2.76 0c0-1.74-1.06-2.46-2.86-2.46h-1.42v5.08h1.42c1.76 0 2.86-.6 2.86-2.62zm13.1 4.12c0 3.34-1.86 5.6-4.98 5.6s-4.98-2.12-4.98-5.6 1.86-5.58 5-5.58 4.96 2.12 4.96 5.58zm-7.26 0c0 2.54.78 3.66 2.28 3.66s2.28-1.14 2.28-3.66-.78-3.64-2.26-3.64-2.3 1.14-2.3 3.64zm18.62-.02c0 3.24-1.5 5.62-4.18 5.62-1.08 0-2-.38-2.66-1.16v4.94l-2.56.28V6.33h2.24l.14 1.3c.84-1.1 1.96-1.6 3.1-1.6 2.76 0 3.92 2.18 3.92 5.56zm-2.68.02c0-2.68-.72-3.66-2-3.66-.9 0-1.66.62-2.16 1.44v4.76c.5.74 1.14 1.1 1.94 1.1 1.4 0 2.22-1.08 2.22-3.64zm13.08 5.3h-2.22l-.14-1.48c-.78 1.2-1.78 1.78-3.24 1.78-1.92 0-2.94-1.24-2.94-3.28v-7.6h2.56v7.28c0 1.24.4 1.66 1.28 1.66s1.6-.58 2.14-1.5V6.33h2.56v10.58zm2.48-2.42V2.09l2.56-.28v12.6c0 .5.16.74.6.74.22 0 .42-.04.58-.1l.56 1.8c-.44.2-1.06.36-1.72.36-1.62 0-2.58-.98-2.58-2.72zm14.16.98l-.54 1.7c-1.18-.1-1.94-.5-2.34-1.54-.76 1.12-1.9 1.58-3.18 1.58-2.1 0-3.4-1.34-3.4-3.26 0-2.3 1.72-3.54 4.8-3.54h1.34v-.6c0-1.38-.62-1.84-1.98-1.84-.72 0-1.74.2-2.82.56l-.58-1.74c1.3-.5 2.64-.76 3.82-.76 2.84 0 4.08 1.3 4.08 3.64v4.44c0 .86.28 1.16.8 1.36zm-3.32-1.42v-2.14h-1.06c-1.66 0-2.48.6-2.48 1.84 0 1.02.52 1.6 1.5 1.6.88 0 1.56-.46 2.04-1.3zm11.46-7.86l-.44 2.48c-.32-.08-.56-.12-.94-.12-1.28 0-1.94.94-2.34 2.72v5.64h-2.56V6.33h2.22l.24 2.08c.5-1.52 1.52-2.36 2.76-2.36.38 0 .72.04 1.06.14zm-68.68 325.2c0 2.78-1.78 4.82-5.16 4.82s-5.12-1.98-5.12-4.82v-9.3h2.64v9.16c0 1.94.78 2.9 2.48 2.9s2.5-.96 2.5-2.9v-9.16h2.66v9.3zm11.16-3.14v7.66h-2.56v-7.26c0-1.32-.5-1.7-1.3-1.7-.92 0-1.6.62-2.22 1.6v7.36h-2.56v-10.58h2.22l.2 1.38c.82-1.06 1.88-1.68 3.22-1.68 1.9 0 3 1.2 3 3.22zm11.88 2.34c0 3.24-1.5 5.62-4.18 5.62-1.08 0-2-.38-2.66-1.16v4.94l-2.56.28v-14.94h2.24l.14 1.3c.84-1.1 1.96-1.6 3.1-1.6 2.76 0 3.92 2.18 3.92 5.56zm-2.68.02c0-2.68-.72-3.66-2-3.66-.9 0-1.66.62-2.16 1.44v4.76c.5.74 1.14 1.1 1.94 1.1 1.4 0 2.22-1.08 2.22-3.64zm13.98 0c0 3.34-1.86 5.6-4.98 5.6s-4.98-2.12-4.98-5.6 1.86-5.58 5-5.58 4.96 2.12 4.96 5.58zm-7.26 0c0 2.54.78 3.66 2.28 3.66s2.28-1.14 2.28-3.66-.78-3.64-2.26-3.64-2.3 1.14-2.3 3.64zm18.62-.02c0 3.24-1.5 5.62-4.18 5.62-1.08 0-2-.38-2.66-1.16v4.94l-2.56.28v-14.94h2.24l.14 1.3c.84-1.1 1.96-1.6 3.1-1.6 2.76 0 3.92 2.18 3.92 5.56zm-2.68.02c0-2.68-.72-3.66-2-3.66-.9 0-1.66.62-2.16 1.44v4.76c.5.74 1.14 1.1 1.94 1.1 1.4 0 2.22-1.08 2.22-3.64zm13.08 5.3h-2.22l-.14-1.48c-.78 1.2-1.78 1.78-3.24 1.78-1.92 0-2.94-1.24-2.94-3.28v-7.6h2.56v7.28c0 1.24.4 1.66 1.28 1.66s1.6-.58 2.14-1.5v-7.44h2.56v10.58zm2.48-2.42v-12.4l2.56-.28v12.6c0 .5.16.74.6.74.22 0 .42-.04.58-.1l.56 1.8c-.44.2-1.06.36-1.72.36-1.62 0-2.58-.98-2.58-2.72zm14.16.98l-.54 1.7c-1.18-.1-1.94-.5-2.34-1.54-.76 1.12-1.9 1.58-3.18 1.58-2.1 0-3.4-1.34-3.4-3.26 0-2.3 1.72-3.54 4.8-3.54h1.34v-.6c0-1.38-.62-1.84-1.98-1.84-.72 0-1.74.2-2.82.56l-.58-1.74c1.3-.5 2.64-.76 3.82-.76 2.84 0 4.08 1.3 4.08 3.64v4.44c0 .86.28 1.16.8 1.36zm-3.32-1.42v-2.14h-1.06c-1.66 0-2.48.6-2.48 1.84 0 1.02.52 1.6 1.5 1.6.88 0 1.56-.46 2.04-1.3zm11.46-7.86l-.44 2.48c-.32-.08-.56-.12-.94-.12-1.28 0-1.94.94-2.34 2.72v5.64h-2.56v-10.58h2.22l.24 2.08c.5-1.52 1.52-2.36 2.76-2.36.38 0 .72.04 1.06.14zm119.32-159.25c0 3.18-2.3 4.6-5.42 4.6h-1.62v4.82h-2.64v-13.82h4.08c3.48 0 5.6 1.42 5.6 4.4zm-2.76 0c0-1.74-1.06-2.46-2.86-2.46h-1.42v5.08h1.42c1.76 0 2.86-.6 2.86-2.62zm10.26-1.3l-.44 2.48c-.32-.08-.56-.12-.94-.12-1.28 0-1.94.94-2.34 2.72v5.64h-2.56v-10.58h2.22l.24 2.08c.5-1.52 1.52-2.36 2.76-2.36.38 0 .72.04 1.06.14zm10.08 5.42c0 3.34-1.86 5.6-4.98 5.6s-4.98-2.12-4.98-5.6 1.86-5.58 5-5.58 4.96 2.12 4.96 5.58zm-7.26 0c0 2.54.78 3.66 2.28 3.66s2.28-1.14 2.28-3.66-.78-3.64-2.26-3.64-2.3 1.14-2.3 3.64zm16.8-9.04l-.78 1.7c-.64-.3-1.4-.5-2.24-.5-1.36 0-1.72.48-1.72 1.48v1.08h5.88v10.58h-2.56v-8.74h-3.32v8.74h-2.56v-8.74h-1.66v-1.84h1.66v-1.12c0-1.94 1.18-3.4 4.06-3.4 1.34 0 2.38.34 3.24.76zm9.84 13.84c-.76.54-1.72.8-2.66.8-2.08-.02-3.18-1.2-3.18-3.46v-5.58h-1.66v-1.84h1.66v-2.34l2.56-.3v2.64h2.46l-.26 1.84h-2.2v5.52c0 1.04.34 1.46 1.12 1.46.4 0 .8-.12 1.26-.38l.9 1.64zm9.54-.94l-.54 1.7c-1.18-.1-1.94-.5-2.34-1.54-.76 1.12-1.9 1.58-3.18 1.58-2.1 0-3.4-1.34-3.4-3.26 0-2.3 1.72-3.54 4.8-3.54h1.34v-.6c0-1.38-.62-1.84-1.98-1.84-.72 0-1.74.2-2.82.56l-.58-1.74c1.3-.5 2.64-.76 3.82-.76 2.84 0 4.08 1.3 4.08 3.64v4.44c0 .86.28 1.16.8 1.36zm-3.32-1.42v-2.14h-1.06c-1.66 0-2.48.6-2.48 1.84 0 1.02.52 1.6 1.5 1.6.88 0 1.56-.46 2.04-1.3zm14.58-2.44c0 3.3-1.58 5.6-4.18 5.6-1.16 0-2.12-.52-2.8-1.38l-.16 1.08h-2.26v-14.82l2.56-.28v5.72c.68-.94 1.7-1.5 2.92-1.5 2.46 0 3.92 2.04 3.92 5.58zm-2.68 0c0-2.82-.84-3.66-2.06-3.66-.92 0-1.6.62-2.1 1.44v4.68c.46.76 1.16 1.22 1.96 1.22 1.3 0 2.2-1.02 2.2-3.68zm4.54 2.88v-12.4l2.56-.28v12.6c0 .5.16.74.6.74.22 0 .42-.04.58-.1l.56 1.8c-.44.2-1.06.36-1.72.36-1.62 0-2.58-.98-2.58-2.72zm14.22-2.08h-6.64c.2 2.16 1.2 2.86 2.6 2.86.94 0 1.72-.3 2.64-.94l1.06 1.46c-1.04.84-2.32 1.42-3.92 1.42-3.28 0-5.04-2.18-5.04-5.52s1.7-5.66 4.7-5.66 4.66 2 4.66 5.34c0 .34-.04.76-.06 1.04zm-2.48-1.78c0-1.74-.62-2.78-2.06-2.78-1.2 0-1.96.8-2.1 2.9h4.16v-.12zM11.7 170.84c0 2.78-1.78 4.82-5.16 4.82s-5.12-1.98-5.12-4.82v-9.3h2.64v9.16c0 1.94.78 2.9 2.48 2.9s2.5-.96 2.5-2.9v-9.16h2.66v9.3zm11.16-3.14v7.66H20.3v-7.26c0-1.32-.5-1.7-1.3-1.7-.92 0-1.6.62-2.22 1.6v7.36h-2.56v-10.58h2.22l.2 1.38c.82-1.06 1.88-1.68 3.22-1.68 1.9 0 3 1.2 3 3.22zm11.88 2.34c0 3.24-1.5 5.62-4.18 5.62-1.08 0-2-.38-2.66-1.16v4.94l-2.56.28v-14.94h2.24l.14 1.3c.84-1.1 1.96-1.6 3.1-1.6 2.76 0 3.92 2.18 3.92 5.56zm-2.68.02c0-2.68-.72-3.66-2-3.66-.9 0-1.66.62-2.16 1.44v4.76c.5.74 1.14 1.1 1.94 1.1 1.4 0 2.22-1.08 2.22-3.64zM43 164.64l-.44 2.48c-.32-.08-.56-.12-.94-.12-1.28 0-1.94.94-2.34 2.72v5.64h-2.56v-10.58h2.22l.24 2.08c.5-1.52 1.52-2.36 2.76-2.36.38 0 .72.04 1.06.14zm10.08 5.42c0 3.34-1.86 5.6-4.98 5.6s-4.98-2.12-4.98-5.6 1.86-5.58 5-5.58 4.96 2.12 4.96 5.58zm-7.26 0c0 2.54.78 3.66 2.28 3.66s2.28-1.14 2.28-3.66-.78-3.64-2.26-3.64-2.3 1.14-2.3 3.64zm16.8-9.04l-.78 1.7c-.64-.3-1.4-.5-2.24-.5-1.36 0-1.72.48-1.72 1.48v1.08h5.88v10.58H61.2v-8.74h-3.32v8.74h-2.56v-8.74h-1.66v-1.84h1.66v-1.12c0-1.94 1.18-3.4 4.06-3.4 1.34 0 2.38.34 3.24.76zm9.84 13.84c-.76.54-1.72.8-2.66.8-2.08-.02-3.18-1.2-3.18-3.46v-5.58h-1.66v-1.84h1.66v-2.34l2.56-.3v2.64h2.46l-.26 1.84h-2.2v5.52c0 1.04.34 1.46 1.12 1.46.4 0 .8-.12 1.26-.38l.9 1.64zm9.54-.94l-.54 1.7c-1.18-.1-1.94-.5-2.34-1.54-.76 1.12-1.9 1.58-3.18 1.58-2.1 0-3.4-1.34-3.4-3.26 0-2.3 1.72-3.54 4.8-3.54h1.34v-.6c0-1.38-.62-1.84-1.98-1.84-.72 0-1.74.2-2.82.56l-.58-1.74c1.3-.5 2.64-.76 3.82-.76 2.84 0 4.08 1.3 4.08 3.64v4.44c0 .86.28 1.16.8 1.36zm-3.32-1.42v-2.14h-1.06c-1.66 0-2.48.6-2.48 1.84 0 1.02.52 1.6 1.5 1.6.88 0 1.56-.46 2.04-1.3zm14.58-2.44c0 3.3-1.58 5.6-4.18 5.6-1.16 0-2.12-.52-2.8-1.38l-.16 1.08h-2.26v-14.82l2.56-.28v5.72c.68-.94 1.7-1.5 2.92-1.5 2.46 0 3.92 2.04 3.92 5.58zm-2.68 0c0-2.82-.84-3.66-2.06-3.66-.92 0-1.6.62-2.1 1.44v4.68c.46.76 1.16 1.22 1.96 1.22 1.3 0 2.2-1.02 2.2-3.68zm4.54 2.88v-12.4l2.56-.28v12.6c0 .5.16.74.6.74.22 0 .42-.04.58-.1l.56 1.8c-.44.2-1.06.36-1.72.36-1.62 0-2.58-.98-2.58-2.72zm14.22-2.08h-6.64c.2 2.16 1.2 2.86 2.6 2.86.94 0 1.72-.3 2.64-.94l1.06 1.46c-1.04.84-2.32 1.42-3.92 1.42-3.28 0-5.04-2.18-5.04-5.52s1.7-5.66 4.7-5.66 4.66 2 4.66 5.34c0 .34-.04.76-.06 1.04zm-2.48-1.78c0-1.74-.62-2.78-2.06-2.78-1.2 0-1.96.8-2.1 2.9h4.16v-.12z" class="cls-4"/><path d="M175.6 265.83h-5.37l-2.76-5.97-2.7 5.97h-5.16l5.13-8.37-4.62-7.56h5.31l2.22 5.1 2.13-5.1h5.04l-4.35 7.41 5.13 8.52z" class="cls-1"/><path d="M138.49 88.7h-2.52v8.21h-1.86V88.7h-2.61v-1.47h7.19l-.2 1.47zm7.36 2.84v5.36h-1.79v-5.08c0-.92-.36-1.19-.91-1.19-.63 0-1.12.43-1.55 1.11v5.17h-1.79V86.54l1.79-.18v4.02c.57-.7 1.26-1.09 2.16-1.09 1.32 0 2.1.85 2.1 2.26zm8.08 2.22h-4.65c.14 1.51.84 2 1.82 2 .66 0 1.21-.21 1.85-.66l.74 1.02c-.73.59-1.62.99-2.75.99-2.3 0-3.53-1.53-3.53-3.87s1.19-3.96 3.29-3.96 3.26 1.4 3.26 3.74c0 .24-.03.53-.04.73zm-1.74-1.25c0-1.22-.43-1.95-1.44-1.95-.84 0-1.37.56-1.47 2.03h2.91v-.08zm8.36-2.34l-.7 1.05c-.62-.39-1.21-.6-1.86-.6-.71 0-1.12.29-1.12.74 0 .49.29.71 1.55 1.06 1.51.41 2.37 1.02 2.37 2.34 0 1.54-1.43 2.35-3.12 2.35-1.27 0-2.27-.43-2.96-1.05l.9-1.01c.57.43 1.26.73 2.02.73.8 0 1.32-.34 1.32-.9 0-.62-.29-.81-1.68-1.2-1.53-.42-2.2-1.15-2.2-2.24 0-1.23 1.13-2.16 2.86-2.16 1.06 0 1.93.34 2.63.88zm7.7 3.59h-4.65c.14 1.51.84 2 1.82 2 .66 0 1.2-.21 1.85-.66l.74 1.02c-.73.59-1.62.99-2.75.99-2.3 0-3.53-1.53-3.53-3.87s1.19-3.96 3.29-3.96 3.26 1.4 3.26 3.74c0 .24-.03.53-.04.73zm-1.74-1.25c0-1.22-.43-1.95-1.44-1.95-.84 0-1.37.56-1.47 2.03h2.91v-.08zm13.05-5.98v10.38h-1.58l-.13-.94c-.45.67-1.16 1.15-2.12 1.15-1.85 0-2.82-1.55-2.82-3.91s1.15-3.92 2.98-3.92c.78 0 1.4.34 1.86.8v-3.75l1.79.2zm-1.79 8.28v-3.39c-.39-.48-.81-.78-1.42-.78-.92 0-1.54.78-1.54 2.56 0 1.9.55 2.56 1.43 2.56.66 0 1.11-.32 1.53-.95zm8.29-5.41l-.31 1.74c-.22-.06-.39-.08-.66-.08-.9 0-1.36.66-1.64 1.9v3.95h-1.79V89.5h1.55l.17 1.46c.35-1.06 1.06-1.65 1.93-1.65.27 0 .5.03.74.1zm6.79 6.5l-.38 1.19c-.83-.07-1.36-.35-1.64-1.08-.53.78-1.33 1.11-2.23 1.11-1.47 0-2.38-.94-2.38-2.28 0-1.61 1.21-2.48 3.36-2.48h.94v-.42c0-.97-.43-1.29-1.39-1.29-.5 0-1.22.14-1.98.39l-.41-1.22c.91-.35 1.85-.53 2.68-.53 1.99 0 2.86.91 2.86 2.55v3.11c0 .6.2.81.56.95zm-2.33-.99v-1.5h-.74c-1.16 0-1.74.42-1.74 1.29 0 .71.36 1.12 1.05 1.12.62 0 1.09-.32 1.43-.91zm11.34 2h-2.24l-1.12-5.81-1.15 5.81h-2.2l-1.64-7.41h1.79l1.04 6.09 1.29-6.09h1.83l1.18 6.09 1.11-6.09h1.72l-1.61 7.41zm-60.83 8.05l-.8 1.08c-.49-.36-.94-.53-1.5-.53-1.04 0-1.67.76-1.67 2.54s.66 2.42 1.67 2.42c.56 0 .95-.18 1.5-.53l.8 1.13c-.67.55-1.44.85-2.4.85-2.14 0-3.47-1.48-3.47-3.85s1.33-3.98 3.46-3.98c.97 0 1.71.27 2.41.87zm7.03 6.75h-1.55l-.1-1.04c-.55.84-1.25 1.25-2.27 1.25-1.34 0-2.06-.87-2.06-2.3v-5.32h1.79v5.1c0 .87.28 1.16.9 1.16s1.12-.41 1.5-1.05v-5.21h1.79v7.41zm7.1-6.74l-.7 1.05c-.62-.39-1.21-.6-1.86-.6-.71 0-1.12.29-1.12.74 0 .49.29.71 1.55 1.06 1.51.41 2.37 1.02 2.37 2.34 0 1.54-1.43 2.35-3.12 2.35-1.27 0-2.27-.43-2.96-1.05l.9-1.01c.57.43 1.26.73 2.02.73.8 0 1.32-.34 1.32-.9 0-.62-.29-.81-1.68-1.2-1.53-.42-2.2-1.15-2.2-2.24 0-1.23 1.13-2.16 2.86-2.16 1.06 0 1.93.34 2.63.88zm5.91 6.39c-.53.38-1.2.56-1.86.56-1.46-.01-2.23-.84-2.23-2.42v-3.91h-1.16v-1.29h1.16v-1.64l1.79-.21v1.85h1.72l-.18 1.29h-1.54v3.87c0 .73.24 1.02.78 1.02.28 0 .56-.08.88-.27l.63 1.15zm7.26-3.36c0 2.34-1.3 3.92-3.49 3.92s-3.49-1.48-3.49-3.92 1.3-3.91 3.5-3.91 3.47 1.48 3.47 3.91zm-5.08 0c0 1.78.55 2.56 1.6 2.56s1.6-.8 1.6-2.56-.55-2.55-1.58-2.55-1.61.8-1.61 2.55zm16.55-1.66v5.36h-1.79v-5.08c0-.92-.36-1.19-.81-1.19-.62 0-.99.43-1.4 1.12v5.15h-1.79v-5.08c0-.92-.38-1.19-.81-1.19-.63 0-1.01.43-1.42 1.12v5.15h-1.79v-7.41h1.55l.14.97c.53-.74 1.2-1.18 2.14-1.18.87 0 1.51.46 1.79 1.25.56-.77 1.25-1.25 2.23-1.25 1.18 0 1.96.85 1.96 2.26zm8.08 2.22h-4.65c.14 1.51.84 2 1.82 2 .66 0 1.2-.21 1.85-.66l.74 1.02c-.73.59-1.62.99-2.75.99-2.3 0-3.53-1.53-3.53-3.87s1.19-3.96 3.29-3.96 3.26 1.4 3.26 3.74c0 .24-.03.53-.04.73zm-1.74-1.25c0-1.22-.43-1.95-1.44-1.95-.84 0-1.37.56-1.47 2.03h2.91v-.08zm7.76-3.11l-.31 1.74c-.22-.06-.39-.08-.66-.08-.9 0-1.36.66-1.64 1.9v3.95h-1.79v-7.41h1.55l.17 1.46c.35-1.06 1.06-1.65 1.93-1.65.27 0 .5.03.74.1zm5.91.77l-.7 1.05c-.62-.39-1.21-.6-1.86-.6-.71 0-1.12.29-1.12.74 0 .49.29.71 1.55 1.06 1.51.41 2.37 1.02 2.37 2.34 0 1.54-1.43 2.35-3.12 2.35-1.27 0-2.27-.43-2.96-1.05l.9-1.01c.57.43 1.26.73 2.02.73.8 0 1.32-.34 1.32-.9 0-.62-.29-.81-1.68-1.2-1.53-.42-2.2-1.15-2.2-2.24 0-1.23 1.13-2.16 2.86-2.16 1.06 0 1.93.34 2.63.88zm127.13 173.51c0 2.23-1.61 3.22-3.8 3.22h-1.13v3.38h-1.85v-9.68h2.86c2.44 0 3.92 1 3.92 3.08zm-1.93 0c0-1.22-.74-1.72-2-1.72h-.99v3.56h.99c1.23 0 2-.42 2-1.83zm7.46-.91l-.31 1.74c-.22-.06-.39-.08-.66-.08-.9 0-1.36.66-1.64 1.91v3.95h-1.79v-7.41h1.55l.17 1.46c.35-1.06 1.06-1.65 1.93-1.65.27 0 .5.03.74.1zm7.34 3.8c0 2.34-1.3 3.92-3.49 3.92s-3.49-1.49-3.49-3.92 1.3-3.91 3.5-3.91 3.47 1.48 3.47 3.91zm-5.08 0c0 1.78.55 2.56 1.6 2.56s1.6-.8 1.6-2.56-.55-2.55-1.58-2.55-1.61.8-1.61 2.55zm16.54-1.65v5.37h-1.79v-5.08c0-.92-.36-1.19-.81-1.19-.62 0-1 .43-1.4 1.12v5.16h-1.79v-5.08c0-.92-.38-1.19-.81-1.19-.63 0-1.01.43-1.41 1.12v5.16h-1.79v-7.41h1.55l.14.97c.53-.74 1.21-1.18 2.14-1.18.87 0 1.51.46 1.79 1.25.56-.77 1.25-1.25 2.23-1.25 1.18 0 1.96.85 1.96 2.25zm8.54 1.65c0 2.34-1.3 3.92-3.49 3.92s-3.49-1.49-3.49-3.92 1.3-3.91 3.5-3.91 3.47 1.48 3.47 3.91zm-5.08 0c0 1.78.55 2.56 1.6 2.56s1.6-.8 1.6-2.56-.55-2.55-1.58-2.55-1.61.8-1.61 2.55zm11 3.36c-.53.38-1.2.56-1.86.56-1.46-.01-2.23-.84-2.23-2.42v-3.91h-1.16v-1.29h1.16v-1.64l1.79-.21v1.85h1.72l-.18 1.29h-1.54v3.87c0 .73.24 1.02.78 1.02.28 0 .56-.08.88-.27l.63 1.15zm6.81-2.8h-4.65c.14 1.51.84 2 1.82 2 .66 0 1.21-.21 1.85-.66l.74 1.02c-.73.59-1.62.99-2.75.99-2.3 0-3.53-1.53-3.53-3.87s1.19-3.96 3.29-3.96 3.26 1.4 3.26 3.74c0 .24-.03.53-.04.73zm-1.74-1.25c0-1.22-.43-1.95-1.44-1.95-.84 0-1.37.56-1.47 2.03h2.91v-.08zm11.13 4.05c-.53.38-1.2.56-1.86.56-1.46-.01-2.23-.84-2.23-2.42v-3.91h-1.16v-1.29h1.16v-1.64l1.79-.21v1.85h1.72l-.18 1.29h-1.54v3.87c0 .73.24 1.02.78 1.02.28 0 .56-.08.88-.27l.63 1.15zm7.03-5.01v5.37h-1.79v-5.08c0-.92-.36-1.19-.91-1.19-.63 0-1.12.43-1.55 1.11v5.17h-1.79v-10.37l1.79-.18v4.02c.57-.7 1.26-1.09 2.16-1.09 1.32 0 2.1.85 2.1 2.25zm8.08 2.21h-4.65c.14 1.51.84 2 1.82 2 .66 0 1.2-.21 1.85-.66l.74 1.02c-.73.59-1.62.99-2.75.99-2.3 0-3.53-1.53-3.53-3.87s1.19-3.96 3.29-3.96 3.26 1.4 3.26 3.74c0 .24-.03.53-.04.73zm-1.74-1.25c0-1.22-.43-1.95-1.44-1.95-.84 0-1.37.56-1.47 2.03h2.91v-.08zm8.36-2.34l-.7 1.05c-.62-.39-1.21-.6-1.86-.6-.71 0-1.12.29-1.12.74 0 .49.29.71 1.55 1.06 1.51.41 2.37 1.02 2.37 2.34 0 1.54-1.43 2.35-3.12 2.35-1.27 0-2.27-.43-2.96-1.05l.9-1.01c.57.43 1.26.73 2.02.73.8 0 1.32-.34 1.32-.9 0-.62-.29-.81-1.68-1.2-1.53-.42-2.2-1.15-2.2-2.24 0-1.23 1.13-2.16 2.86-2.16 1.06 0 1.93.34 2.63.88zm7.7 3.59h-4.65c.14 1.51.84 2 1.82 2 .66 0 1.2-.21 1.85-.66l.74 1.02c-.73.59-1.62.99-2.75.99-2.3 0-3.53-1.53-3.53-3.87s1.19-3.96 3.29-3.96 3.26 1.4 3.26 3.74c0 .24-.03.53-.04.73zm-1.74-1.25c0-1.22-.43-1.95-1.44-1.95-.84 0-1.37.56-1.47 2.03h2.91v-.08zm-286.83 1.23c0 1.95-1.25 3.38-3.61 3.38s-3.59-1.39-3.59-3.38v-6.51h1.85v6.42c0 1.36.55 2.03 1.74 2.03s1.75-.67 1.75-2.03v-6.42h1.86v6.51zm6.97-3.57l-.7 1.05c-.62-.39-1.21-.6-1.86-.6-.71 0-1.12.29-1.12.74 0 .49.29.71 1.55 1.06 1.51.41 2.37 1.02 2.37 2.34 0 1.54-1.43 2.35-3.12 2.35-1.27 0-2.27-.43-2.96-1.05l.9-1.01c.57.43 1.26.73 2.02.73.8 0 1.32-.34 1.32-.9 0-.62-.29-.81-1.68-1.2-1.53-.42-2.2-1.15-2.2-2.24 0-1.23 1.13-2.16 2.86-2.16 1.06 0 1.93.34 2.63.88zm7.54 6.74h-1.55l-.1-1.04c-.55.84-1.25 1.25-2.27 1.25-1.34 0-2.06-.87-2.06-2.3v-5.32h1.79v5.1c0 .87.28 1.16.9 1.16s1.12-.41 1.5-1.05v-5.21h1.79v7.41zm8.12-1.01l-.38 1.19c-.83-.07-1.36-.35-1.64-1.08-.53.78-1.33 1.11-2.23 1.11-1.47 0-2.38-.94-2.38-2.28 0-1.61 1.21-2.48 3.36-2.48h.94v-.42c0-.97-.43-1.29-1.39-1.29-.5 0-1.22.14-1.98.39l-.41-1.22c.91-.35 1.85-.53 2.68-.53 1.99 0 2.86.91 2.86 2.55v3.11c0 .6.2.81.56.95zm-2.33-.99v-1.5h-.74c-1.16 0-1.74.42-1.74 1.29 0 .71.36 1.12 1.05 1.12.62 0 1.09-.32 1.43-.91zm3.72.31v-8.68l1.79-.2v8.83c0 .35.11.52.42.52.15 0 .29-.03.41-.07l.39 1.26c-.31.14-.74.25-1.21.25-1.13 0-1.81-.69-1.81-1.91zm4.16 0v-8.68l1.79-.2v8.83c0 .35.11.52.42.52.15 0 .29-.03.41-.07l.39 1.26c-.31.14-.74.25-1.21.25-1.13 0-1.81-.69-1.81-1.91zm7.72 1.72c-.56 1.74-1.65 2.86-3.85 3.03l-.18-1.3c1.47-.22 1.95-.7 2.37-1.75h-.62l-2.35-7.41h1.91l1.61 6.22 1.68-6.22h1.85l-2.41 7.44zm11.37-7.54l-.31 1.74c-.22-.06-.39-.08-.66-.08-.9 0-1.36.66-1.64 1.91v3.95h-1.79v-7.41h1.55l.17 1.46c.35-1.06 1.06-1.65 1.93-1.65.27 0 .5.03.74.1zm6.87 4.36h-4.65c.14 1.51.84 2 1.82 2 .66 0 1.2-.21 1.85-.66l.74 1.02c-.73.59-1.62.99-2.75.99-2.3 0-3.53-1.53-3.53-3.87s1.19-3.96 3.29-3.96 3.26 1.4 3.26 3.74c0 .24-.03.53-.04.73zm-1.74-1.25c0-1.22-.43-1.95-1.44-1.95-.84 0-1.37.56-1.47 2.03h2.91v-.08zm13.18-.96v5.37h-1.79v-5.08c0-.92-.36-1.19-.81-1.19-.62 0-.99.43-1.4 1.12v5.16h-1.79v-5.08c0-.92-.38-1.19-.81-1.19-.63 0-1.01.43-1.42 1.12v5.16h-1.79v-7.41h1.55l.14.97c.53-.74 1.2-1.18 2.14-1.18.87 0 1.51.46 1.79 1.25.56-.77 1.25-1.25 2.23-1.25 1.18 0 1.96.85 1.96 2.25zm8.54 1.65c0 2.34-1.3 3.92-3.49 3.92s-3.49-1.49-3.49-3.92 1.3-3.91 3.5-3.91 3.47 1.48 3.47 3.91zm-5.08 0c0 1.78.55 2.56 1.6 2.56s1.6-.8 1.6-2.56-.55-2.55-1.58-2.55-1.61.8-1.61 2.55zm10.2 3.71h-2.14l-2.45-7.41h1.95l1.58 5.97 1.62-5.97h1.85l-2.41 7.41zm9.47-3.15h-4.65c.14 1.51.84 2 1.82 2 .66 0 1.21-.21 1.85-.66l.74 1.02c-.73.59-1.62.99-2.75.99-2.3 0-3.53-1.53-3.53-3.87s1.19-3.96 3.29-3.96 3.26 1.4 3.26 3.74c0 .24-.03.53-.04.73zm-1.74-1.25c0-1.22-.43-1.95-1.44-1.95-.84 0-1.37.56-1.47 2.03h2.91v-.08zm9.55-5.98v10.38h-1.58l-.13-.94c-.45.67-1.16 1.15-2.12 1.15-1.85 0-2.82-1.55-2.82-3.91s1.15-3.92 2.98-3.92c.78 0 1.4.34 1.86.8v-3.75l1.79.2zm-1.79 8.28v-3.39c-.39-.48-.81-.78-1.41-.78-.92 0-1.54.78-1.54 2.56 0 1.9.55 2.56 1.43 2.56.66 0 1.11-.32 1.53-.95zM340.82 88.7h-2.52v8.21h-1.86V88.7h-2.61v-1.47h7.19l-.2 1.47zm7.36 2.84v5.36h-1.79v-5.08c0-.92-.36-1.19-.91-1.19-.63 0-1.12.43-1.55 1.11v5.17h-1.79V86.54l1.79-.18v4.02c.57-.7 1.26-1.09 2.16-1.09 1.32 0 2.1.85 2.1 2.26zm8.08 2.22h-4.65c.14 1.51.84 2 1.82 2 .66 0 1.21-.21 1.85-.66l.74 1.02c-.73.59-1.62.99-2.75.99-2.3 0-3.53-1.53-3.53-3.87s1.19-3.96 3.29-3.96 3.26 1.4 3.26 3.74c0 .24-.03.53-.04.73zm-1.74-1.25c0-1.22-.43-1.95-1.44-1.95-.84 0-1.37.56-1.47 2.03h2.91v-.08zm8.36-2.34l-.7 1.05c-.62-.39-1.21-.6-1.86-.6-.71 0-1.12.29-1.12.74 0 .49.29.71 1.55 1.06 1.51.41 2.37 1.02 2.37 2.34 0 1.54-1.43 2.35-3.12 2.35-1.27 0-2.27-.43-2.96-1.05l.9-1.01c.57.43 1.26.73 2.02.73.8 0 1.32-.34 1.32-.9 0-.62-.29-.81-1.68-1.2-1.53-.42-2.2-1.15-2.2-2.24 0-1.23 1.13-2.16 2.86-2.16 1.06 0 1.93.34 2.63.88zm7.7 3.59h-4.65c.14 1.51.84 2 1.82 2 .66 0 1.2-.21 1.85-.66l.74 1.02c-.73.59-1.62.99-2.75.99-2.3 0-3.53-1.53-3.53-3.87s1.19-3.96 3.29-3.96 3.26 1.4 3.26 3.74c0 .24-.03.53-.04.73zm-1.74-1.25c0-1.22-.43-1.95-1.44-1.95-.84 0-1.37.56-1.47 2.03h2.91v-.08zm11.86-2.34l-.7 1.05c-.62-.39-1.21-.6-1.86-.6-.71 0-1.12.29-1.12.74 0 .49.29.71 1.55 1.06 1.51.41 2.37 1.02 2.37 2.34 0 1.54-1.43 2.35-3.12 2.35-1.27 0-2.27-.43-2.96-1.05l.9-1.01c.57.43 1.26.73 2.02.73.8 0 1.32-.34 1.32-.9 0-.62-.29-.81-1.68-1.2-1.53-.42-2.2-1.15-2.2-2.24 0-1.23 1.13-2.16 2.86-2.16 1.06 0 1.93.34 2.63.88zm7.7 3.59h-4.65c.14 1.51.84 2 1.82 2 .66 0 1.21-.21 1.85-.66l.74 1.02c-.73.59-1.62.99-2.75.99-2.3 0-3.53-1.53-3.53-3.87s1.19-3.96 3.29-3.96 3.26 1.4 3.26 3.74c0 .24-.03.53-.04.73zm-1.74-1.25c0-1.22-.43-1.95-1.44-1.95-.84 0-1.37.56-1.47 2.03h2.91v-.08zm3.28 2.7v-8.68l1.79-.2v8.82c0 .35.11.52.42.52.15 0 .29-.03.41-.07l.39 1.26c-.31.14-.74.25-1.2.25-1.13 0-1.81-.69-1.81-1.9zm4.16 0v-8.68l1.79-.2v8.82c0 .35.11.52.42.52.15 0 .29-.03.41-.07l.39 1.26c-.31.14-.74.25-1.2.25-1.13 0-1.81-.69-1.81-1.9zm-59.53 16.15c-.53.38-1.2.56-1.86.56-1.46-.01-2.23-.84-2.23-2.42v-3.91h-1.16v-1.29h1.16v-1.64l1.79-.21v1.85h1.72l-.18 1.29h-1.54v3.87c0 .73.24 1.02.78 1.02.28 0 .56-.08.88-.27l.63 1.15zm7.03-5.02v5.36h-1.79v-5.08c0-.92-.36-1.19-.91-1.19-.63 0-1.12.43-1.55 1.11v5.17h-1.79v-10.37l1.79-.18v4.02c.57-.7 1.26-1.09 2.16-1.09 1.32 0 2.1.85 2.1 2.26zm8.07 2.22h-4.65c.14 1.51.84 2 1.82 2 .66 0 1.21-.21 1.85-.66l.74 1.02c-.73.59-1.62.99-2.75.99-2.3 0-3.53-1.53-3.53-3.87s1.19-3.96 3.29-3.96 3.26 1.4 3.26 3.74c0 .24-.03.53-.04.73zm-1.74-1.25c0-1.22-.43-1.95-1.44-1.95-.84 0-1.37.56-1.47 2.03h2.91v-.08zm13.18-.97v5.36h-1.79v-5.08c0-.92-.36-1.19-.81-1.19-.62 0-1 .43-1.4 1.12v5.15h-1.79v-5.08c0-.92-.38-1.19-.81-1.19-.63 0-1.01.43-1.41 1.12v5.15h-1.79v-7.41h1.55l.14.97c.53-.74 1.21-1.18 2.14-1.18.87 0 1.51.46 1.79 1.25.56-.77 1.25-1.25 2.23-1.25 1.18 0 1.96.85 1.96 2.26zm7.02-1.37l-.7 1.05c-.62-.39-1.21-.6-1.86-.6-.71 0-1.12.29-1.12.74 0 .49.29.71 1.55 1.06 1.51.41 2.37 1.02 2.37 2.34 0 1.54-1.43 2.35-3.12 2.35-1.27 0-2.27-.43-2.96-1.05l.9-1.01c.57.43 1.26.73 2.02.73.8 0 1.32-.34 1.32-.9 0-.62-.29-.81-1.68-1.2-1.53-.42-2.2-1.15-2.2-2.24 0-1.23 1.13-2.16 2.86-2.16 1.06 0 1.93.34 2.63.88zm7.7 3.59h-4.65c.14 1.51.84 2 1.82 2 .66 0 1.21-.21 1.85-.66l.74 1.02c-.73.59-1.62.99-2.75.99-2.3 0-3.53-1.53-3.53-3.87s1.19-3.96 3.29-3.96 3.26 1.4 3.26 3.74c0 .24-.03.53-.04.73zm-1.74-1.25c0-1.22-.43-1.95-1.44-1.95-.84 0-1.37.56-1.47 2.03h2.91v-.08zm3.27 2.7v-8.68l1.79-.2v8.82c0 .35.11.52.42.52.15 0 .29-.03.41-.07l.39 1.26c-.31.14-.74.25-1.2.25-1.13 0-1.81-.69-1.81-1.9zm7.68 1.7h-2.14l-2.45-7.41h1.95l1.58 5.97 1.62-5.97h1.85l-2.41 7.41zm9.46-3.15h-4.65c.14 1.51.84 2 1.82 2 .66 0 1.2-.21 1.85-.66l.74 1.02c-.73.59-1.62.99-2.75.99-2.3 0-3.53-1.53-3.53-3.87s1.19-3.96 3.29-3.96 3.26 1.4 3.26 3.74c0 .24-.03.53-.04.73zm-1.74-1.25c0-1.22-.43-1.95-1.44-1.95-.84 0-1.37.56-1.47 2.03h2.91v-.08zm8.36-2.34l-.7 1.05c-.62-.39-1.21-.6-1.86-.6-.71 0-1.12.29-1.12.74 0 .49.29.71 1.55 1.06 1.51.41 2.37 1.02 2.37 2.34 0 1.54-1.43 2.35-3.12 2.35-1.27 0-2.27-.43-2.96-1.05l.9-1.01c.57.43 1.26.73 2.02.73.8 0 1.32-.34 1.32-.9 0-.62-.29-.81-1.68-1.2-1.53-.42-2.2-1.15-2.2-2.24 0-1.23 1.13-2.16 2.86-2.16 1.06 0 1.93.34 2.63.88z" class="cls-3"/><path d="M365.48 59.08l2.59 7.99h8.41l-6.8 4.94 2.59 7.99-6.79-4.94-6.8 4.94 2.59-7.99-6.79-4.94h8.4l2.6-7.99zm0 192.35l4.6 4.6h3.4l-8-8-8 8h3.39l4.61-4.6z" class="cls-1"/><path d="M357.48 261.69h3.47v4.77H370v-4.77h3.48l-8-8-8 8z" class="cls-1"/><path d="M170.65 75.13v-20.1H156.3v20.1" class="cls-6"/><path d="M164.99 58.37l-8.69-3.34v20.1l7.97 3.07c.65.25 1.36-.23 1.36-.93V59.31c0-.41-.25-.78-.64-.93z" class="cls-1"/><ellipse cx="163.41" cy="67.59" class="cls-2" rx=".66" ry="1.08"/></svg>