<svg xmlns="http://www.w3.org/2000/svg" id="Layer_1" viewBox="0 0 292.78 167.86" width="292.78" height="167.86"><defs><style>.cls-1{fill:#b3b3b3}.cls-2{fill:#505050}</style></defs><path d="M251.5 24.36v143H.5v-143h251m.5-.5H0v144h252v-144z" class="cls-1"/><path d="M21.76 53.16c0 2.9-1.6 3.94-3.66 4.61l-.63-1.71c1.62-.63 1.89-1.42 1.89-2.99V42.54h2.4v10.62zm10.76-2.95c0 3.01-1.67 5.04-4.48 5.04s-4.48-1.91-4.48-5.04 1.67-5.02 4.5-5.02 4.47 1.91 4.47 5.02zm-6.54 0c0 2.29.7 3.29 2.05 3.29s2.05-1.03 2.05-3.29-.7-3.28-2.03-3.28-2.07 1.03-2.07 3.28zm16.08-2.12v6.9h-2.3v-6.54c0-1.19-.47-1.53-1.17-1.53-.81 0-1.44.56-2 1.42v6.64h-2.3V41.66l2.3-.23v5.17c.74-.9 1.62-1.4 2.77-1.4 1.69 0 2.7 1.1 2.7 2.9zm10.01 0v6.9h-2.3v-6.54c0-1.19-.45-1.53-1.17-1.53-.83 0-1.44.56-2 1.44v6.63h-2.3v-9.52h2l.18 1.24c.74-.95 1.69-1.51 2.9-1.51 1.71 0 2.7 1.08 2.7 2.9zm10.01 0v6.9h-2.3v-6.54c0-1.19-.45-1.53-1.17-1.53-.83 0-1.44.56-2 1.44v6.63h-2.3v-9.52h2l.18 1.24c.74-.95 1.69-1.51 2.9-1.51 1.71 0 2.7 1.08 2.7 2.9zm6.76 6.93c-.72 2.23-2.12 3.67-4.95 3.89l-.23-1.67c1.89-.29 2.5-.9 3.04-2.25h-.79l-3.02-9.52h2.45l2.07 7.99 2.16-7.99h2.38l-3.1 9.56zm14.17-2.92h-4.12l-.77 2.88h-2.47l3.87-12.44h2.93l3.85 12.44h-2.52l-.77-2.88zm-.47-1.8l-1.6-5.94-1.58 5.94h3.19zm13.14-.11c0 2.92-1.35 5.06-3.76 5.06-.97 0-1.8-.34-2.39-1.04v4.45l-2.3.25V45.46h2.02l.13 1.17c.76-.99 1.76-1.44 2.79-1.44 2.48 0 3.53 1.96 3.53 5.01zm-2.41.02c0-2.41-.65-3.29-1.8-3.29-.81 0-1.49.56-1.94 1.3v4.29c.45.67 1.03.99 1.75.99 1.26 0 2-.97 2-3.28zm12.66-.02c0 2.92-1.35 5.06-3.76 5.06-.97 0-1.8-.34-2.39-1.04v4.45l-2.3.25V45.46h2.02l.13 1.17c.76-.99 1.76-1.44 2.79-1.44 2.48 0 3.53 1.96 3.53 5.01zm-2.41.02c0-2.41-.65-3.29-1.8-3.29-.81 0-1.49.56-1.94 1.3v4.29c.45.67 1.03.99 1.75.99 1.26 0 2-.97 2-3.28zm4.08 2.59V41.64l2.3-.25v11.34c0 .45.14.67.54.67.2 0 .38-.04.52-.09l.5 1.62c-.4.18-.95.32-1.55.32-1.46 0-2.32-.88-2.32-2.45zm12.8-1.87h-5.98c.18 1.94 1.08 2.57 2.34 2.57.85 0 1.55-.27 2.38-.85l.95 1.31c-.94.76-2.09 1.28-3.53 1.28-2.95 0-4.54-1.96-4.54-4.97s1.53-5.1 4.23-5.1 4.2 1.8 4.2 4.81c0 .31-.04.68-.05.94zm-2.23-1.6c0-1.57-.56-2.5-1.85-2.5-1.08 0-1.76.72-1.89 2.61h3.75v-.11zm10.38-3.01l-.9 1.35c-.79-.5-1.55-.77-2.39-.77-.92 0-1.44.38-1.44.95 0 .63.38.92 2 1.37 1.95.52 3.04 1.31 3.04 3.01 0 1.98-1.84 3.03-4.01 3.03-1.64 0-2.92-.56-3.8-1.35l1.15-1.3c.74.56 1.62.94 2.59.94 1.03 0 1.69-.43 1.69-1.15 0-.79-.38-1.04-2.16-1.55-1.96-.54-2.83-1.48-2.83-2.88 0-1.58 1.46-2.77 3.67-2.77 1.37 0 2.48.43 3.38 1.13zm9.54 4.61h-5.98c.18 1.94 1.08 2.57 2.34 2.57.85 0 1.55-.27 2.38-.85l.95 1.31c-.94.76-2.09 1.28-3.53 1.28-2.95 0-4.54-1.96-4.54-4.97s1.53-5.1 4.23-5.1 4.2 1.8 4.2 4.81c0 .31-.04.68-.05.94zm-2.23-1.6c0-1.57-.56-2.5-1.85-2.5-1.08 0-1.76.72-1.89 2.61h3.75v-.11zm11.75 1.6h-5.98c.18 1.94 1.08 2.57 2.34 2.57.85 0 1.55-.27 2.38-.85l.95 1.31c-.94.76-2.09 1.28-3.53 1.28-2.95 0-4.54-1.96-4.54-4.97s1.53-5.1 4.23-5.1 4.2 1.8 4.2 4.81c0 .31-.04.68-.05.94zm-2.23-1.6c0-1.57-.56-2.5-1.85-2.5-1.08 0-1.76.72-1.89 2.61h3.75v-.11zm11.92-7.69v13.34h-2.03l-.16-1.21c-.58.86-1.49 1.48-2.72 1.48-2.38 0-3.62-2-3.62-5.02s1.48-5.04 3.83-5.04c1.01 0 1.8.43 2.39 1.03v-4.83l2.3.25zM155 52.28v-4.36c-.5-.61-1.04-1.01-1.82-1.01-1.19 0-1.98 1.01-1.98 3.29 0 2.45.7 3.29 1.84 3.29.85 0 1.42-.41 1.96-1.22zM22.57 70.26l-.27.85c-.59-.05-.97-.25-1.17-.77-.38.56-.95.79-1.59.79-1.05 0-1.7-.67-1.7-1.63 0-1.15.86-1.77 2.4-1.77h.67v-.3c0-.69-.31-.92-.99-.92-.36 0-.87.1-1.41.28l-.29-.87c.65-.25 1.32-.38 1.91-.38 1.42 0 2.04.65 2.04 1.82v2.22c0 .43.14.58.4.68zm-1.66-.71v-1.07h-.53c-.83 0-1.24.3-1.24.92 0 .51.26.8.75.8.44 0 .78-.23 1.02-.65zm7.49-1.23c0 1.62-.75 2.81-2.09 2.81-.54 0-1-.19-1.33-.58v2.47l-1.28.14v-7.47h1.12l.07.65c.42-.55.98-.8 1.55-.8 1.38 0 1.96 1.09 1.96 2.78zm-1.34 0c0-1.34-.36-1.83-1-1.83-.45 0-.83.31-1.08.72v2.38c.25.37.57.55.97.55.7 0 1.11-.54 1.11-1.82zm7.23 0c0 1.62-.75 2.81-2.09 2.81-.54 0-1-.19-1.33-.58v2.47l-1.28.14v-7.47h1.12l.07.65c.42-.55.98-.8 1.55-.8 1.38 0 1.96 1.09 1.96 2.78zm-1.34 0c0-1.34-.36-1.83-1-1.83-.45 0-.83.31-1.08.72v2.38c.25.37.57.55.97.55.7 0 1.11-.54 1.11-1.82zm2.48 1.45v-6.2l1.28-.14v6.3c0 .25.08.37.3.37.11 0 .21-.02.29-.05l.28.9c-.22.1-.53.18-.86.18-.81 0-1.29-.49-1.29-1.36zm7.54-2.15c0 2.25-.82 3.51-2.41 3.51s-2.41-1.26-2.41-3.51.83-3.49 2.41-3.49 2.41 1.25 2.41 3.49zm-3.5 0c0 1.88.35 2.54 1.09 2.54s1.09-.64 1.09-2.54-.35-2.52-1.09-2.52-1.09.66-1.09 2.52zm9.23 0c0 2.25-.82 3.51-2.41 3.51s-2.41-1.26-2.41-3.51.83-3.49 2.41-3.49 2.41 1.25 2.41 3.49zm-3.5 0c0 1.88.35 2.54 1.09 2.54s1.09-.64 1.09-2.54-.35-2.52-1.09-2.52-1.09.66-1.09 2.52zm9.23 0c0 2.25-.82 3.51-2.41 3.51s-2.41-1.26-2.41-3.51.83-3.49 2.41-3.49 2.41 1.25 2.41 3.49zm-3.5 0c0 1.88.35 2.54 1.09 2.54s1.09-.64 1.09-2.54-.35-2.52-1.09-2.52-1.09.66-1.09 2.52zm9.23 0c0 2.25-.82 3.51-2.41 3.51s-2.41-1.26-2.41-3.51.83-3.49 2.41-3.49 2.41 1.25 2.41 3.49zm-3.5 0c0 1.88.35 2.54 1.09 2.54s1.09-.64 1.09-2.54-.35-2.52-1.09-2.52-1.09.66-1.09 2.52zm13.58.24c0 1.73-.75 3.06-2.09 3.06-.81 0-1.2-.55-1.31-1.03-.23.53-.68 1-1.43 1-1.18 0-1.78-.93-1.78-2.23 0-1.68.87-2.66 2.26-2.66.54 0 1.1.13 1.66.43v2.52c0 .85.18 1.11.56 1.11.57 0 .93-.59.93-2.18 0-1.83-1.04-2.99-3.16-2.99s-3.48 1.54-3.48 3.68 1.23 3.61 3.49 3.61c.71 0 1.41-.16 1.94-.35l.32.92c-.64.24-1.4.41-2.27.41-2.81 0-4.68-1.79-4.68-4.59s1.93-4.65 4.68-4.65 4.36 1.87 4.36 3.94zm-3.8 1.51v-2.4c-.18-.08-.34-.12-.57-.12-.68 0-1.06.53-1.06 1.81 0 .96.25 1.38.76 1.38s.76-.39.87-.67zm9.43.89l-.27.85c-.59-.05-.97-.25-1.17-.77-.38.56-.95.79-1.59.79-1.05 0-1.7-.67-1.7-1.63 0-1.15.86-1.77 2.4-1.77h.67v-.3c0-.69-.31-.92-.99-.92-.36 0-.87.1-1.41.28l-.29-.87c.65-.25 1.32-.38 1.91-.38 1.42 0 2.04.65 2.04 1.82v2.22c0 .43.14.58.4.68zm-1.66-.71v-1.07h-.53c-.83 0-1.24.3-1.24.92 0 .51.26.8.75.8.44 0 .78-.23 1.02-.65zm2.66.22v-6.2l1.28-.14v6.3c0 .25.08.37.3.37.11 0 .21-.02.29-.05l.28.9c-.22.1-.53.18-.86.18-.81 0-1.29-.49-1.29-1.36zm7.65-3.79c-.4.14-.9.18-1.53.18.64.29.96.7.96 1.36 0 1.03-.8 1.78-2.13 1.78-.23 0-.43-.02-.63-.08a.48.48 0 0 0-.22.39c0 .19.11.37.64.37h.81c1.17 0 1.93.63 1.93 1.5 0 1.06-.91 1.69-2.64 1.69-1.88 0-2.41-.6-2.41-1.66h1.15c0 .53.23.76 1.28.76s1.33-.28 1.33-.7c0-.39-.31-.63-.9-.63h-.8c-1.06 0-1.51-.47-1.51-1.02 0-.37.23-.74.62-.98-.65-.34-.93-.81-.93-1.49 0-1.15.91-1.9 2.19-1.9 1.25.03 1.83-.25 2.47-.59l.32 1.02zm-3.69 1.45c0 .64.35 1.04.94 1.04s.94-.38.94-1.05-.32-1-.96-1c-.58 0-.92.4-.92 1.01zm9.05.9c0 1.67-.93 2.8-2.49 2.8s-2.49-1.06-2.49-2.8.93-2.79 2.5-2.79 2.48 1.06 2.48 2.79zm-3.63 0c0 1.27.39 1.83 1.14 1.83s1.14-.57 1.14-1.83-.39-1.82-1.13-1.82-1.15.57-1.15 1.82zm9.13-1.18v3.83H94.1v-3.63c0-.66-.25-.85-.65-.85-.46 0-.8.31-1.11.8v3.68h-1.28v-5.29h1.11l.1.69c.41-.53.94-.84 1.61-.84.95 0 1.5.6 1.5 1.61zm5.86-1.45v7.47l-1.28-.14v-2.64c-.33.45-.81.75-1.45.75-1.32 0-2.01-1.11-2.01-2.79s.82-2.8 2.13-2.8c.6 0 1.06.25 1.43.67l.07-.52h1.11zm-1.28 3.79v-2.42c-.28-.34-.57-.56-1-.56-.67 0-1.11.56-1.11 1.83 0 1.36.39 1.83 1.02 1.83.47 0 .79-.23 1.09-.68zm6.99 1.49h-1.11l-.07-.74c-.39.6-.89.89-1.62.89-.96 0-1.47-.62-1.47-1.64v-3.8h1.28v3.64c0 .62.2.83.64.83s.8-.29 1.07-.75v-3.72h1.28v5.29zm2.94-7.18c0 .43-.33.77-.81.77s-.8-.34-.8-.77.33-.78.8-.78.81.34.81.78zm-.16 7.19h-1.28V65.7h1.28v5.29zm5.82-3.84v3.83h-1.28v-3.63c0-.66-.25-.85-.65-.85-.46 0-.8.31-1.11.8v3.68h-1.28v-5.29h1.11l.1.69c.41-.53.94-.84 1.61-.84.95 0 1.5.6 1.5 1.61zm1.39 2.62v-6.2l1.28-.14v6.3c0 .25.08.37.3.37.11 0 .21-.02.29-.05l.28.9c-.22.1-.53.18-.86.18-.81 0-1.29-.49-1.29-1.36zm4.46-5.97c0 .43-.33.77-.81.77s-.8-.34-.8-.77.33-.78.8-.78.81.34.81.78zm-.16 7.19h-1.28V65.7h1.28v5.29zm4.05-.01h-1.53l-1.75-5.29h1.39l1.13 4.26 1.16-4.26h1.32l-1.72 5.29zm6.76-2.25h-3.32c.1 1.08.6 1.43 1.3 1.43.47 0 .86-.15 1.32-.47l.53.73c-.52.42-1.16.71-1.96.71-1.64 0-2.52-1.09-2.52-2.76s.85-2.83 2.35-2.83 2.33 1 2.33 2.67c0 .17-.02.38-.03.52zm-1.24-.89c0-.87-.31-1.39-1.03-1.39-.6 0-.98.4-1.05 1.45h2.08v-.06zm3.56 2.48c0 .44-.36.81-.82.81s-.8-.37-.8-.81.35-.81.8-.81.82.36.82.81zm4.91-4.15l-.57.77c-.35-.26-.67-.38-1.07-.38-.74 0-1.19.54-1.19 1.81s.47 1.73 1.19 1.73c.4 0 .68-.13 1.07-.38l.57.81c-.48.39-1.03.61-1.71.61-1.53 0-2.48-1.06-2.48-2.75s.95-2.84 2.47-2.84c.69 0 1.22.19 1.72.62zm5.42 2.16c0 1.67-.93 2.8-2.49 2.8s-2.49-1.06-2.49-2.8.93-2.79 2.5-2.79 2.48 1.06 2.48 2.79zm-3.63 0c0 1.27.39 1.83 1.14 1.83s1.14-.57 1.14-1.83-.39-1.82-1.13-1.82-1.15.57-1.15 1.82zm11.82-1.18v3.83h-1.28v-3.63c0-.66-.26-.85-.58-.85-.44 0-.71.31-1 .8v3.68h-1.28v-3.63c0-.66-.27-.85-.58-.85-.45 0-.72.31-1.01.8v3.68h-1.28v-5.29h1.11l.1.69c.38-.53.86-.84 1.53-.84.62 0 1.08.33 1.28.89.4-.55.89-.89 1.59-.89.84 0 1.4.61 1.4 1.61z" class="cls-2"/><path d="M122.58 5.96c0 1.51-.94 2.47-2.36 2.84 1.51.14 2.75 1.08 2.75 2.95 0 2.07-1.62 3.73-4.39 3.73-1.66 0-2.99-.61-3.93-1.75l1.28-1.22c.81.81 1.57 1.17 2.52 1.17 1.3 0 2.14-.77 2.14-2.04 0-1.44-.81-1.94-2.18-1.94h-.95l.27-1.64h.65c1.13 0 1.94-.65 1.94-1.84 0-.99-.7-1.58-1.78-1.58-.94 0-1.67.34-2.43 1.06l-1.17-1.28c1.08-1.03 2.34-1.55 3.8-1.55 2.5 0 3.83 1.4 3.83 3.08zm4.78 8.07c0 .79-.65 1.46-1.48 1.46s-1.44-.67-1.44-1.46.63-1.46 1.44-1.46 1.48.65 1.48 1.46zm8.79-9.22h-4.54v3.01c.61-.31 1.24-.45 1.84-.45 2.02 0 3.48 1.44 3.48 3.91s-1.78 4.21-4.52 4.21c-1.69 0-2.88-.68-3.82-1.71l1.31-1.22c.67.74 1.44 1.15 2.45 1.15 1.35 0 2.2-.86 2.2-2.43 0-1.67-.83-2.25-1.94-2.25-.56 0-1.01.13-1.57.42h-1.64V3.1h7.02l-.27 1.71zm1.87-2.03h2.21l-.31 4.88h-1.58l-.32-4.88zm3.46 0h2.21l-.32 4.88h-1.58l-.31-4.88zM270 92.25c0 2.05-1.17 3.55-4.92 7.11h5.19l-.25 1.82h-7.54v-1.69c4.14-4.21 5.15-5.35 5.15-7.06 0-1.12-.7-1.76-1.75-1.76-.95 0-1.58.4-2.34 1.28l-1.4-1.12c.97-1.26 2.25-1.98 3.93-1.98 2.5 0 3.94 1.51 3.94 3.4zm4.6 7.74c0 .79-.65 1.46-1.48 1.46s-1.44-.67-1.44-1.46.63-1.46 1.44-1.46 1.48.65 1.48 1.46zm9.96-4.86c0 4.05-1.48 6.32-4.34 6.32s-4.34-2.27-4.34-6.32 1.49-6.28 4.34-6.28 4.34 2.25 4.34 6.28zm-6.3 0c0 3.38.63 4.57 1.96 4.57s1.96-1.15 1.96-4.57-.63-4.54-1.96-4.54-1.96 1.19-1.96 4.54zm7.9-6.39h2.21l-.31 4.88h-1.58l-.32-4.88zm3.46 0h2.21l-.32 4.88h-1.58l-.31-4.88z" class="cls-1"/><path d="M131.89 135.15c0 2.8-1.71 3.49-3.36 3.49h-1.88v-6.91h1.7c1.82 0 3.54.56 3.54 3.42zm-3.92-2.43v4.93h.65c1.03 0 1.88-.46 1.88-2.5s-.9-2.43-1.92-2.43h-.61zm9.43-.29l-.65.75c-.5-.41-.98-.59-1.55-.59-.62 0-1.07.28-1.07.82 0 .5.27.72 1.42 1.08 1.21.38 2.05.88 2.05 2.18s-.97 2.12-2.62 2.12c-1.1 0-1.92-.39-2.49-.95l.68-.76c.51.43 1.06.69 1.78.69s1.27-.36 1.27-1.03c0-.58-.29-.84-1.37-1.17-1.45-.45-2.08-1.03-2.08-2.08 0-1.15.99-1.91 2.35-1.91 1.01 0 1.68.3 2.28.85zm6.43 6.21h-1.71l-2.37-5.59c.07.61.18 1.49.18 2.77v2.82h-1.2v-6.91h1.67l2.41 5.6c-.06-.38-.18-1.38-.18-2.36v-3.24h1.2v6.91zm4.36 0h-1.26v-5.44l-1.5.91-.56-.86 2.19-1.34h1.13v6.73zm5.34-5.78h-2.52v1.67c.34-.17.69-.25 1.02-.25 1.12 0 1.93.8 1.93 2.17s-.99 2.34-2.51 2.34c-.94 0-1.6-.38-2.12-.95l.73-.68c.37.41.8.64 1.36.64.75 0 1.22-.48 1.22-1.35 0-.93-.46-1.25-1.08-1.25-.31 0-.56.07-.87.23h-.91v-3.52h3.9l-.15.95zm5.18.64c0 .84-.52 1.37-1.31 1.58.84.08 1.53.6 1.53 1.64 0 1.15-.9 2.07-2.44 2.07-.92 0-1.66-.34-2.18-.97l.71-.68c.45.45.87.65 1.4.65.72 0 1.19-.43 1.19-1.13 0-.8-.45-1.08-1.21-1.08h-.53l.15-.91h.36c.63 0 1.08-.36 1.08-1.02 0-.55-.39-.88-.99-.88-.52 0-.93.19-1.35.59l-.65-.71c.6-.57 1.3-.86 2.11-.86 1.39 0 2.13.78 2.13 1.71zm5.87 3.6h-.81v1.54h-1.25v-1.54h-2.86v-.88l1.96-4.44 1.09.41-1.72 3.93h1.54l.13-1.69h1.11v1.69h.81v.98zm7.86-4.32h-1.8v5.86h-1.33v-5.86h-1.86v-1.05h5.13l-.14 1.05z" class="cls-2"/><path d="M175.56 138.66c-.4 1.24-1.18 2.04-2.75 2.16l-.13-.93c1.05-.16 1.39-.5 1.69-1.25h-.44l-1.68-5.29h1.36l1.15 4.44 1.2-4.44h1.32l-1.72 5.31zm7.18-2.68c0 1.62-.75 2.81-2.09 2.81-.54 0-1-.19-1.33-.58v2.47l-1.28.14v-7.47h1.12l.07.65c.42-.55.98-.8 1.55-.8 1.38 0 1.96 1.09 1.96 2.78zm-1.34 0c0-1.34-.36-1.83-1-1.83-.45 0-.83.31-1.08.72v2.38c.25.37.57.55.97.55.7 0 1.11-.54 1.11-1.82zm7.19.01c0 1.67-.93 2.8-2.49 2.8s-2.49-1.06-2.49-2.8.93-2.79 2.5-2.79 2.48 1.06 2.48 2.79zm-3.63 0c0 1.27.39 1.83 1.14 1.83s1.14-.57 1.14-1.83-.39-1.82-1.13-1.82-1.15.57-1.15 1.82zm9.43-2.36c-.4.14-.9.18-1.53.18.64.29.96.7.96 1.36 0 1.03-.8 1.78-2.13 1.78-.23 0-.43-.02-.63-.08a.48.48 0 0 0-.22.39c0 .19.11.37.64.37h.81c1.17 0 1.93.63 1.93 1.5 0 1.06-.91 1.69-2.64 1.69-1.88 0-2.41-.6-2.41-1.66h1.15c0 .53.23.76 1.28.76s1.33-.28 1.33-.7c0-.39-.31-.63-.9-.63h-.8c-1.06 0-1.51-.47-1.51-1.02 0-.37.23-.74.62-.98-.65-.34-.93-.81-.93-1.49 0-1.15.91-1.9 2.19-1.9 1.25.03 1.83-.25 2.47-.59l.32 1.02zm-3.69 1.45c0 .64.35 1.04.94 1.04s.94-.38.94-1.05-.32-1-.96-1c-.58 0-.92.4-.92 1.01zm7.58-1.8l-.22 1.24c-.16-.04-.28-.06-.47-.06-.64 0-.97.47-1.17 1.36v2.82h-1.28v-5.29h1.11l.12 1.04c.25-.76.76-1.18 1.38-1.18.19 0 .36.02.53.07zm4.85 4.64l-.27.85c-.59-.05-.97-.25-1.17-.77-.38.56-.95.79-1.59.79-1.05 0-1.7-.67-1.7-1.63 0-1.15.86-1.77 2.4-1.77h.67v-.3c0-.69-.31-.92-.99-.92-.36 0-.87.1-1.41.28l-.29-.87c.65-.25 1.32-.38 1.91-.38 1.42 0 2.04.65 2.04 1.82v2.22c0 .43.14.58.4.68zm-1.66-.71v-1.07h-.53c-.83 0-1.24.3-1.24.92 0 .51.26.8.75.8.44 0 .78-.23 1.02-.65zm7.49-1.23c0 1.62-.75 2.81-2.09 2.81-.54 0-1-.19-1.33-.58v2.47l-1.28.14v-7.47h1.12l.07.65c.42-.55.98-.8 1.55-.8 1.38 0 1.96 1.09 1.96 2.78zm-1.34 0c0-1.34-.36-1.83-1-1.83-.45 0-.83.31-1.08.72v2.38c.25.37.57.55.97.55.7 0 1.11-.54 1.11-1.82zm6.85-1.17v3.83h-1.28v-3.63c0-.66-.26-.85-.65-.85-.45 0-.8.31-1.11.79v3.69h-1.28v-7.4l1.28-.13v2.87c.41-.5.9-.78 1.54-.78.94 0 1.5.61 1.5 1.61zm3.96 3.85c-.4 1.24-1.18 2.04-2.75 2.16l-.13-.93c1.05-.16 1.39-.5 1.69-1.25h-.44l-1.68-5.29h1.36l1.15 4.44 1.2-4.44h1.32l-1.72 5.31zm8.68-5.16c0 .84-.52 1.37-1.31 1.58.84.08 1.53.6 1.53 1.64 0 1.15-.9 2.07-2.44 2.07-.92 0-1.66-.34-2.18-.97l.71-.68c.45.45.87.65 1.4.65.72 0 1.19-.43 1.19-1.13 0-.8-.45-1.08-1.21-1.08h-.53l.15-.91h.36c.63 0 1.08-.36 1.08-1.02 0-.55-.39-.88-.99-.88-.52 0-.93.19-1.35.59l-.65-.71c.6-.57 1.3-.86 2.11-.86 1.39 0 2.13.78 2.13 1.71zm-96.19 14.93l-.65.75c-.5-.41-.98-.59-1.55-.59-.62 0-1.07.28-1.07.82 0 .5.27.72 1.42 1.08 1.21.38 2.05.88 2.05 2.18s-.97 2.12-2.62 2.12c-1.1 0-1.92-.39-2.49-.95l.68-.76c.51.43 1.06.69 1.78.69s1.27-.36 1.27-1.03c0-.58-.29-.84-1.37-1.17-1.45-.45-2.08-1.03-2.08-2.08 0-1.15.99-1.91 2.35-1.91 1.01 0 1.68.3 2.28.85zm5.6 3.96h-3.32c.1 1.08.6 1.43 1.3 1.43.47 0 .86-.15 1.32-.47l.53.73c-.52.42-1.16.71-1.96.71-1.64 0-2.52-1.09-2.52-2.76s.85-2.83 2.35-2.83 2.33 1 2.33 2.67c0 .17-.02.38-.03.52zm-1.24-.89c0-.87-.31-1.39-1.03-1.39-.6 0-.98.4-1.05 1.45h2.08v-.06zm6.27-1.68l-.57.77c-.35-.26-.67-.38-1.07-.38-.74 0-1.19.54-1.19 1.81s.47 1.73 1.19 1.73c.4 0 .68-.13 1.07-.38l.57.81c-.48.39-1.03.61-1.71.61-1.53 0-2.48-1.06-2.48-2.75s.95-2.84 2.47-2.84c.69 0 1.22.19 1.72.62zm3.96 4.57c-.38.27-.86.4-1.33.4-1.04-.01-1.59-.6-1.59-1.73v-2.79h-.83v-.92h.83v-1.17l1.28-.15v1.32h1.23l-.13.92h-1.1v2.76c0 .52.17.73.56.73.2 0 .4-.06.63-.19l.45.82zm2.14-6.94c0 .43-.33.77-.81.77s-.8-.34-.8-.77.33-.78.8-.78.81.34.81.78zm-.16 7.19h-1.28v-5.29h1.28v5.29zm6.16-2.65c0 1.67-.93 2.8-2.49 2.8s-2.49-1.06-2.49-2.8.93-2.79 2.5-2.79 2.48 1.06 2.48 2.79zm-3.63 0c0 1.27.39 1.83 1.14 1.83s1.14-.57 1.14-1.83-.39-1.82-1.13-1.82-1.15.57-1.15 1.82zm9.13-1.18v3.83h-1.28v-3.63c0-.66-.25-.85-.65-.85-.46 0-.8.31-1.11.8v3.68h-1.28v-5.29h1.11l.1.69c.41-.53.94-.84 1.61-.84.95 0 1.5.6 1.5 1.61zm9.67.37c0 2.28-1.17 3.61-3.02 3.61s-3.03-1.29-3.03-3.6 1.18-3.61 3.03-3.61 3.02 1.29 3.02 3.6zm-4.66 0c0 1.86.63 2.59 1.64 2.59s1.63-.73 1.63-2.6-.59-2.59-1.63-2.59-1.64.74-1.64 2.6zm10.16-.37v3.83h-1.28v-3.63c0-.66-.25-.85-.65-.85-.46 0-.8.31-1.11.8v3.68H170v-5.29h1.11l.1.69c.41-.53.94-.84 1.61-.84.95 0 1.5.6 1.5 1.61zm5.77 1.58h-3.32c.1 1.08.6 1.43 1.3 1.43.47 0 .86-.15 1.32-.47l.53.73c-.52.42-1.16.71-1.96.71-1.64 0-2.52-1.09-2.52-2.76s.85-2.83 2.35-2.83 2.33 1 2.33 2.67c0 .17-.02.38-.03.52zm-1.24-.89c0-.87-.31-1.39-1.03-1.39-.6 0-.98.4-1.05 1.45h2.08v-.06z" class="cls-2"/></svg>