<svg xmlns="http://www.w3.org/2000/svg" id="Layer_1" viewBox="0 0 32.45 66.04" width="32.45" height="66.04"><defs><style>.cls-1{fill:#8dc63f}</style></defs><path d="M8.12 3.08l-.99 1.04c-.66-.52-1.2-.77-2.03-.77-1.37 0-2.55 1.04-2.55 3.64s.78 3.64 2.3 3.64c.55 0 1.08-.11 1.54-.38V7.73H4.93l-.2-1.37H8.2v4.73c-.97.59-2.12.95-3.33.95C2.11 12.04.6 10.3.6 6.98s2.02-5.03 4.44-5.03c1.34 0 2.27.45 3.08 1.13zm8.11 5.04c0 2.34-1.3 3.92-3.49 3.92s-3.49-1.48-3.49-3.92 1.3-3.91 3.5-3.91 3.47 1.49 3.47 3.91zm-5.08 0c0 1.78.55 2.56 1.6 2.56s1.6-.8 1.6-2.56-.55-2.55-1.58-2.55-1.61.8-1.61 2.55zm12.98 0c0 2.34-1.3 3.92-3.49 3.92s-3.49-1.48-3.49-3.92 1.3-3.91 3.5-3.91 3.47 1.49 3.47 3.91zm-5.08 0c0 1.78.55 2.56 1.6 2.56s1.6-.8 1.6-2.56-.55-2.55-1.58-2.55-1.61.8-1.61 2.55zm12.64-6.66v10.38h-1.58l-.13-.94c-.45.67-1.16 1.15-2.12 1.15-1.85 0-2.82-1.55-2.82-3.91s1.15-3.92 2.98-3.92c.78 0 1.4.34 1.86.8V1.26l1.79.2zM29.9 9.74V6.35c-.39-.48-.81-.78-1.41-.78-.92 0-1.54.78-1.54 2.56 0 1.91.55 2.56 1.43 2.56.66 0 1.11-.32 1.53-.95zM26.36 36.2c0 5.47-4.36 7.16-10.4 7.16H8.47V18.49h6.52c6.41 0 10.29 1.8 10.29 6.34 0 3.1-2.23 4.86-4.61 5.36 2.84.54 5.69 1.87 5.69 6.01zM13.22 21.98v6.73h2.92c2.59 0 4.28-1.15 4.28-3.49 0-2.52-1.73-3.24-4.97-3.24h-2.23zm8.17 14.04c0-2.99-2.12-4-4.9-4h-3.28v7.77h2.77c3.13 0 5.4-.65 5.4-3.78zM6.56 52.91l-3.49 8.35-1.64-.53 3.28-7.69H.73v-1.39h5.83v1.26zm7.26 3.46c0 3.15-1.15 4.92-3.38 4.92s-3.38-1.76-3.38-4.92 1.16-4.89 3.38-4.89 3.38 1.75 3.38 4.89zm-4.9 0c0 2.63.49 3.56 1.53 3.56s1.53-.9 1.53-3.56-.49-3.53-1.53-3.53-1.53.92-1.53 3.53zm5.99-.39h4.23v1.43h-4.23v-1.43zm9.9-3.07l-3.49 8.35-1.64-.53 3.28-7.69h-3.98v-1.39h5.83v1.26zm6.9 2.23c0 3.88-1.71 5.39-5.49 6.29l-.38-1.28c2.35-.62 3.7-1.53 3.95-3.39-.45.57-1.11.98-2.02.98-1.46 0-2.65-1.16-2.65-3.07s1.46-3.19 3.28-3.19c2.19 0 3.31 1.49 3.31 3.66zm-1.83.34c.03-1.95-.42-2.66-1.47-2.66-.91 0-1.48.63-1.48 1.83 0 1.29.59 1.79 1.34 1.79.64 0 1.19-.35 1.61-.97z" class="cls-1"/></svg>