<svg xmlns="http://www.w3.org/2000/svg" id="Layer_1" viewBox="0 0 48.43 66.04" width="48.43" height="66.04"><defs><style>.cls-1{fill:#fdb913}</style></defs><path d="M10.31 11.84H8.5l-.25-4.05c-.08-1.43-.15-2.93-.13-3.95l-1.77 6.95H4.6L2.72 3.83c.06 1.3.03 2.63-.06 4.02l-.24 3.99H.64l.78-9.68H3.8l1.72 6.78 1.62-6.78h2.41l.76 9.68zm3.43-10.07c0 .6-.46 1.08-1.13 1.08s-1.12-.48-1.12-1.08.46-1.09 1.12-1.09 1.13.48 1.13 1.09zm-.22 10.07h-1.79V4.43h1.79v7.41zm7.86-5.37v5.36h-1.79V6.75c0-.92-.35-1.19-.91-1.19-.64 0-1.12.43-1.55 1.12v5.15h-1.79V4.42h1.55l.14.97c.57-.74 1.32-1.18 2.25-1.18 1.33 0 2.1.84 2.1 2.26zm3.75-4.7c0 .6-.46 1.08-1.13 1.08s-1.12-.48-1.12-1.08S23.34.68 24 .68s1.13.48 1.13 1.09zm-.22 10.07h-1.79V4.43h1.79v7.41zm11.64-5.37v5.36h-1.79V6.75c0-.92-.36-1.19-.81-1.19-.62 0-.99.43-1.4 1.12v5.15h-1.79V6.75c0-.92-.38-1.19-.81-1.19-.63 0-1.01.43-1.42 1.12v5.15h-1.79V4.42h1.55l.14.97c.53-.74 1.2-1.18 2.14-1.18.87 0 1.51.46 1.79 1.25.56-.77 1.25-1.25 2.23-1.25 1.18 0 1.96.85 1.96 2.26zm7.75 4.36l-.38 1.19c-.83-.07-1.36-.35-1.64-1.08-.53.78-1.33 1.11-2.23 1.11-1.47 0-2.38-.94-2.38-2.28 0-1.61 1.21-2.48 3.36-2.48h.94v-.42c0-.97-.43-1.29-1.39-1.29-.5 0-1.22.14-1.98.39l-.41-1.22c.91-.35 1.85-.53 2.68-.53 1.99 0 2.86.91 2.86 2.55v3.11c0 .6.2.81.56.95zm-2.33-.99v-1.5h-.74c-1.16 0-1.74.42-1.74 1.29 0 .71.36 1.12 1.05 1.12.62 0 1.09-.32 1.43-.91zm3.45.3V1.46l1.79-.2v8.82c0 .35.11.52.42.52.15 0 .29-.03.41-.07l.39 1.26c-.31.14-.74.25-1.2.25-1.13 0-1.81-.69-1.81-1.91zM34.69 30.8c0 10.08-6.16 12.56-12.09 12.56h-6.77V18.49h6.12c6.55 0 12.74 2.02 12.74 12.31zm-14.11-8.75V39.8h2.34c3.71 0 6.77-1.66 6.77-9s-3.24-8.75-6.91-8.75h-2.2zm-7.33 30.93H9.72v2.34c.48-.24.97-.35 1.43-.35 1.57 0 2.7 1.12 2.7 3.04s-1.39 3.28-3.52 3.28c-1.32 0-2.24-.53-2.97-1.33l1.02-.95c.52.57 1.12.9 1.91.9 1.05 0 1.71-.67 1.71-1.89 0-1.3-.64-1.75-1.51-1.75-.43 0-.78.1-1.22.32H8v-4.93h5.46l-.21 1.33zm8.24 3.39c0 3.15-1.15 4.92-3.38 4.92s-3.38-1.76-3.38-4.92 1.16-4.89 3.38-4.89 3.38 1.75 3.38 4.89zm-4.9 0c0 2.63.49 3.56 1.53 3.56s1.53-.9 1.53-3.56-.49-3.53-1.53-3.53-1.53.92-1.53 3.53zm5.99-.39h4.23v1.43h-4.23v-1.43zm10.67-3h-3.53v2.34c.48-.24.97-.35 1.43-.35 1.57 0 2.7 1.12 2.7 3.04s-1.39 3.28-3.52 3.28c-1.32 0-2.24-.53-2.97-1.33l1.02-.95c.52.57 1.12.9 1.91.9 1.05 0 1.71-.67 1.71-1.89 0-1.3-.64-1.75-1.51-1.75-.43 0-.78.1-1.22.32h-1.28v-4.93h5.46l-.21 1.33zm7.71 2.16c0 3.88-1.71 5.39-5.49 6.29l-.38-1.28c2.35-.62 3.7-1.53 3.95-3.39-.45.57-1.11.98-2.02.98-1.46 0-2.65-1.16-2.65-3.07s1.46-3.19 3.28-3.19c2.18 0 3.31 1.49 3.31 3.66zm-1.83.34c.03-1.95-.42-2.66-1.47-2.66-.91 0-1.49.63-1.49 1.83 0 1.29.59 1.79 1.34 1.79.64 0 1.19-.35 1.61-.97z" class="cls-1"/></svg>