<svg xmlns="http://www.w3.org/2000/svg" id="Layer_1" viewBox="0 0 89.56 66.04" width="89.56" height="66.04"><defs><style>.cls-1{fill:#f15a22}</style></defs><path d="M8.19 8.67c0 1.95-1.25 3.38-3.61 3.38S.99 10.66.99 8.67V2.16h1.85v6.42c0 1.36.55 2.03 1.74 2.03s1.75-.67 1.75-2.03V2.16h1.86v6.51zm7.82-2.2v5.36h-1.79V6.75c0-.92-.35-1.19-.91-1.19-.64 0-1.12.43-1.55 1.12v5.15H9.97V4.42h1.55l.14.97c.57-.74 1.32-1.18 2.25-1.18 1.33 0 2.1.84 2.1 2.26zm7.15-1.38l-.8 1.08c-.49-.36-.94-.53-1.5-.53-1.04 0-1.67.76-1.67 2.54s.66 2.42 1.67 2.42c.56 0 .95-.18 1.5-.53l.8 1.13c-.67.55-1.44.85-2.4.85-2.14 0-3.47-1.48-3.47-3.85s1.33-3.98 3.46-3.98c.97 0 1.71.27 2.41.87zm6.94 5.74l-.38 1.19c-.83-.07-1.36-.35-1.64-1.08-.53.78-1.33 1.11-2.23 1.11-1.47 0-2.38-.94-2.38-2.28 0-1.61 1.2-2.48 3.36-2.48h.94v-.42c0-.97-.43-1.29-1.39-1.29-.5 0-1.22.14-1.97.39L24 4.75c.91-.35 1.85-.53 2.67-.53 1.99 0 2.86.91 2.86 2.55v3.11c0 .6.2.81.56.95zm-2.33-.99v-1.5h-.74c-1.16 0-1.74.42-1.74 1.29 0 .71.36 1.12 1.05 1.12.62 0 1.09-.32 1.43-.91zm9.05-4.75l-.8 1.08c-.49-.36-.94-.53-1.5-.53-1.04 0-1.67.76-1.67 2.54s.66 2.42 1.67 2.42c.56 0 .95-.18 1.5-.53l.8 1.13c-.67.55-1.44.85-2.4.85-2.14 0-3.47-1.48-3.47-3.85s1.33-3.98 3.46-3.98c.97 0 1.71.27 2.41.87zm6.21 0l-.8 1.08c-.49-.36-.94-.53-1.5-.53-1.04 0-1.67.76-1.67 2.54s.66 2.42 1.67 2.42c.56 0 .95-.18 1.5-.53l.8 1.13c-.67.55-1.44.85-2.4.85-2.14 0-3.47-1.48-3.47-3.85s1.33-3.98 3.46-3.98c.97 0 1.71.27 2.41.87zm6.84 3.6h-4.65c.14 1.51.84 2 1.82 2 .66 0 1.21-.21 1.85-.66l.74 1.02c-.73.59-1.62.99-2.75.99-2.3 0-3.53-1.53-3.53-3.87s1.19-3.96 3.29-3.96 3.26 1.4 3.26 3.74c0 .24-.03.53-.04.73zm-1.74-1.25c0-1.22-.43-1.95-1.44-1.95-.84 0-1.37.56-1.47 2.03h2.91v-.08zm9.67.67c0 2.27-1.05 3.94-2.93 3.94-.76 0-1.4-.27-1.86-.81v3.46l-1.79.2V4.43h1.57l.1.91c.59-.77 1.37-1.12 2.17-1.12 1.93 0 2.75 1.53 2.75 3.89zm-1.88.01c0-1.88-.5-2.56-1.4-2.56-.63 0-1.16.43-1.51 1.01V9.9c.35.52.8.77 1.36.77.98 0 1.55-.76 1.55-2.55zm7.53 3.37c-.53.38-1.2.56-1.86.56-1.46-.01-2.23-.84-2.23-2.42V5.72H58.2V4.43h1.16V2.79l1.79-.21v1.85h1.72l-.18 1.29h-1.54v3.87c0 .73.24 1.02.78 1.02.28 0 .56-.08.88-.27l.63 1.15zm6.68-.66l-.38 1.19c-.83-.07-1.36-.35-1.64-1.08-.53.78-1.33 1.11-2.23 1.11-1.47 0-2.38-.94-2.38-2.28 0-1.61 1.21-2.48 3.36-2.48h.94v-.42c0-.97-.43-1.29-1.39-1.29-.5 0-1.22.14-1.98.39l-.41-1.22c.91-.35 1.85-.53 2.68-.53 1.99 0 2.86.91 2.86 2.55v3.11c0 .6.2.81.56.95zm-2.33-.99v-1.5h-.74c-1.16 0-1.74.42-1.74 1.29 0 .71.36 1.12 1.05 1.12.62 0 1.09-.32 1.43-.91zm10.21-1.72c0 2.31-1.11 3.92-2.93 3.92-.81 0-1.48-.36-1.96-.97l-.11.76h-1.58V1.46l1.79-.2v4.01c.48-.66 1.19-1.05 2.04-1.05 1.72 0 2.75 1.43 2.75 3.91zm-1.88 0c0-1.97-.59-2.56-1.44-2.56-.64 0-1.12.43-1.47 1.01v3.28c.32.53.81.85 1.37.85.91 0 1.54-.71 1.54-2.58zm3.18 2.02V1.46l1.79-.2v8.82c0 .35.11.52.42.52.15 0 .29-.03.41-.07l.39 1.26c-.31.14-.74.25-1.2.25-1.13 0-1.81-.69-1.81-1.91zm9.96-1.45h-4.65c.14 1.51.84 2 1.82 2 .66 0 1.21-.21 1.85-.66l.74 1.02c-.73.59-1.62.99-2.75.99-2.3 0-3.53-1.53-3.53-3.87s1.19-3.96 3.29-3.96 3.26 1.4 3.26 3.74c0 .24-.03.53-.04.73zm-1.74-1.25c0-1.22-.43-1.95-1.44-1.95-.84 0-1.37.56-1.47 2.03h2.91v-.08zm-49.1 48.93c0 3.15-1.15 4.92-3.38 4.92s-3.38-1.76-3.38-4.92 1.16-4.89 3.38-4.89 3.38 1.75 3.38 4.89zm-4.9 0c0 2.63.49 3.56 1.53 3.56s1.53-.9 1.53-3.56-.49-3.53-1.53-3.53-1.53.92-1.53 3.53zm5.99-.39h4.23v1.43h-4.23v-1.43zm11.87 2.94h-1.13v2.16h-1.75v-2.16H44.5v-1.23l2.75-6.22 1.53.57-2.41 5.5h2.16l.18-2.37h1.55v2.37h1.13v1.37zm6.86-3.78c0 3.88-1.71 5.39-5.49 6.29l-.38-1.28c2.35-.62 3.7-1.53 3.95-3.39-.45.57-1.11.98-2.02.98-1.46 0-2.65-1.16-2.65-3.07s1.46-3.19 3.28-3.19c2.18 0 3.31 1.49 3.31 3.66zm-1.83.34c.03-1.95-.42-2.66-1.47-2.66-.91 0-1.49.63-1.49 1.83 0 1.29.59 1.79 1.34 1.79.64 0 1.19-.35 1.61-.97zM39.2 18.49h14.07l-.5 3.53h-8.82v7.45h7.67V33h-7.67v10.37H39.2V18.5z" class="cls-1"/></svg>