<svg xmlns="http://www.w3.org/2000/svg" id="Layer_1" viewBox="0 0 55.55 66.04" width="55.55" height="66.04"><defs><style>.cls-1{fill:#008c44}</style></defs><path d="M6.56 3.53H2.99v2.7H6.1V7.6H2.99v2.84h3.82v1.39H1.13V2.16h5.62l-.2 1.37zm7.63 8.31h-2.07L10.59 8.9l-1.51 2.94H7.1l2.47-3.91-2.21-3.5h2.05l1.26 2.52 1.25-2.52h1.95l-2.14 3.45 2.48 3.96zm6.03-6.75l-.8 1.08c-.49-.36-.94-.53-1.5-.53-1.04 0-1.67.76-1.67 2.54s.66 2.42 1.67 2.42c.56 0 .95-.18 1.5-.53l.8 1.13c-.67.55-1.44.85-2.4.85-2.14 0-3.47-1.48-3.47-3.85s1.33-3.98 3.46-3.98c.97 0 1.71.27 2.41.87zm6.85 3.6h-4.65c.14 1.51.84 2 1.82 2 .66 0 1.2-.21 1.85-.66l.74 1.02c-.73.59-1.62.99-2.75.99-2.3 0-3.53-1.53-3.53-3.87s1.19-3.96 3.29-3.96 3.26 1.4 3.26 3.74c0 .24-.03.53-.04.73zm-1.74-1.25c0-1.22-.43-1.95-1.44-1.95-.84 0-1.37.56-1.47 2.03h2.91v-.08zm2.99 2.7V1.46l1.79-.2v8.82c0 .35.11.52.42.52.15 0 .29-.03.41-.07l.39 1.26c-.31.14-.74.25-1.2.25-1.13 0-1.81-.69-1.81-1.91zm3.88 0V1.46l1.79-.2v8.82c0 .35.11.52.42.52.15 0 .29-.03.41-.07l.39 1.26c-.31.14-.74.25-1.2.25-1.13 0-1.81-.69-1.81-1.91zm9.96-1.45h-4.65c.14 1.51.84 2 1.82 2 .66 0 1.2-.21 1.85-.66l.74 1.02c-.73.59-1.62.99-2.75.99-2.3 0-3.53-1.53-3.53-3.87s1.19-3.96 3.29-3.96 3.26 1.4 3.26 3.74c0 .24-.03.53-.04.73zm-1.74-1.25c0-1.22-.43-1.95-1.44-1.95-.84 0-1.37.56-1.47 2.03h2.91v-.08zm9.13-.97v5.36h-1.79V6.75c0-.92-.35-1.19-.91-1.19-.64 0-1.12.43-1.55 1.12v5.15h-1.79V4.42h1.55l.14.97c.57-.74 1.32-1.18 2.25-1.18 1.33 0 2.1.84 2.1 2.26zm6 5.02c-.53.38-1.2.56-1.86.56-1.46-.01-2.23-.84-2.23-2.42V5.72H50.3V4.43h1.16V2.79l1.79-.21v1.85h1.72l-.18 1.29h-1.54v3.87c0 .73.24 1.02.78 1.02.28 0 .56-.08.88-.27l.63 1.15zM31.84 37.6H23.6l-1.55 5.76h-4.93l7.74-24.87h5.87l7.7 24.87h-5.04l-1.55-5.76zM30.9 34l-3.2-11.88L24.53 34h6.37zM14.38 58.54c0 1.54-1.36 2.75-3.5 2.75s-3.42-1.19-3.42-2.72c0-1.15.67-1.91 1.79-2.38-1.01-.55-1.41-1.3-1.41-2.23 0-1.54 1.4-2.48 3.08-2.48s3.08.84 3.08 2.41c0 .87-.49 1.58-1.55 2.13 1.29.57 1.93 1.4 1.93 2.52zm-1.82 0c0-.88-.46-1.28-1.72-1.74l-.43-.15c-.76.41-1.13 1.01-1.13 1.86 0 .9.64 1.44 1.65 1.44s1.64-.6 1.64-1.41zm-2.98-4.55c0 .8.5 1.15 1.42 1.48l.27.1c.74-.46 1.01-.92 1.01-1.6 0-.74-.46-1.23-1.34-1.23-.81 0-1.34.42-1.34 1.25zm12.4 2.38c0 3.15-1.15 4.92-3.38 4.92s-3.38-1.76-3.38-4.92 1.16-4.89 3.38-4.89 3.38 1.75 3.38 4.89zm-4.9 0c0 2.63.49 3.56 1.53 3.56s1.53-.9 1.53-3.56-.49-3.53-1.53-3.53-1.53.92-1.53 3.53zm5.99-.39h4.23v1.43h-4.23v-1.43zm8.66 5.1h-1.77v-7.62l-2.1 1.27-.78-1.21 3.07-1.88h1.58v9.43zm8.43-4.71c0 3.15-1.15 4.92-3.38 4.92s-3.38-1.76-3.38-4.92 1.16-4.89 3.38-4.89 3.38 1.75 3.38 4.89zm-4.9 0c0 2.63.49 3.56 1.53 3.56s1.53-.9 1.53-3.56-.49-3.53-1.53-3.53-1.53.92-1.53 3.53zm12.64 0c0 3.15-1.15 4.92-3.38 4.92s-3.38-1.76-3.38-4.92 1.16-4.89 3.38-4.89 3.38 1.75 3.38 4.89zm-4.9 0c0 2.63.49 3.56 1.53 3.56s1.53-.9 1.53-3.56-.49-3.53-1.53-3.53-1.53.92-1.53 3.53z" class="cls-1"/></svg>