<svg xmlns="http://www.w3.org/2000/svg" id="Layer_1" viewBox="0 0 700.33 611.32" width="700.33" height="611.32"><defs><style>.cls-1{stroke:#f7941d}.cls-1,.cls-2,.cls-3{stroke-width:3px}.cls-1,.cls-2,.cls-3,.cls-4{stroke-linecap:round}.cls-1,.cls-2,.cls-3,.cls-4,.cls-5,.cls-6{fill:none}.cls-1,.cls-2,.cls-3,.cls-5,.cls-6{stroke-miterlimit:10}.cls-2{stroke:#ec008c}.cls-3{stroke:#00aeef}.cls-7{fill:#e6e6e6}.cls-8{fill:#b3b3b3}.cls-9{fill:#2997ff}.cls-4{stroke:#fff;stroke-linejoin:round;stroke-width:5px}.cls-5{stroke:#505050}.cls-6{stroke:#2997ff}</style></defs><path d="M49.96 50.92h317.48v544.25H49.96zm317.48 0h317.48v544.25H367.44z" class="cls-5"/><path d="M83.98 110.45h238.11v425.2H83.98zm328.82 0h238.11v425.2H412.8z" class="cls-7"/><path d="M194.99 24.36v1.06h-5v-1.06H192v-5.84l-1.82 1.12-.58-.94 2.54-1.56h1.19v7.22h1.65zm6.73-5.05c0 1.45-.91 2.63-3.56 5.02h3.75l-.14 1.08h-5.15v-1.02c2.96-2.85 3.72-3.79 3.72-5 0-.83-.5-1.34-1.34-1.34-.74 0-1.19.26-1.68.86l-.86-.67c.64-.82 1.44-1.27 2.64-1.27 1.68 0 2.63 1.04 2.63 2.34zm7 4.61l.61.86c-.55.47-1.38.78-2.22.78-1.96 0-3.08-1.31-3.08-3.29s1.15-3.37 3.11-3.37c.86 0 1.58.26 2.2.77l-.62.84c-.49-.34-1.01-.53-1.55-.53-1.01 0-1.7.71-1.7 2.29s.72 2.18 1.7 2.18c.59 0 1.09-.23 1.56-.54zm8.21-3.21v4.7h-1.19v-4.52c0-.66-.05-.94-.42-.94-.31 0-.62.18-.94.64v4.82h-1.09v-4.52c0-.66-.05-.94-.42-.94-.32 0-.62.18-.94.64v4.82h-1.2v-6.33h1.01l.1.68c.36-.5.74-.85 1.36-.85.48 0 .9.2 1.08.8.36-.48.78-.8 1.39-.8.72 0 1.26.4 1.26 1.8zm139.3-2.9l-.72.86c-.5-.41-1.07-.61-1.71-.61-1.24 0-2.28.86-2.28 3.2s.98 3.18 2.29 3.18c.89 0 1.42-.35 1.87-.71l.67.85c-.55.54-1.38.98-2.59.98-2.11 0-3.69-1.5-3.69-4.31s1.66-4.29 3.67-4.29c1.13 0 1.82.3 2.5.84zm4.01 7.76c-2.08 0-3.14-1.68-3.14-4.28s1.07-4.32 3.14-4.32 3.14 1.7 3.14 4.31-1.07 4.29-3.14 4.29zm0-7.51c-1.22 0-1.72 1.08-1.72 3.23s.53 3.2 1.72 3.2 1.71-1.08 1.71-3.21-.49-3.21-1.71-3.21zm9.21-.92h1.42l-2.63 8.28h-1.58l-2.63-8.28h1.49l1.96 6.96 1.98-6.96zm4.34 3.55h3v1.04h-3v2.63h3.66v1.06h-5.05v-8.28h4.98l-.16 1.06h-3.43v2.49zm9.12 1.12l2.35 3.6h-1.62L381.55 22h-.9v3.41h-1.39v-8.28h2.3c2.12 0 3.23.79 3.23 2.4 0 1.21-.82 1.96-1.88 2.28zm-1.26-3.65h-1v2.82h1.03c1.06 0 1.66-.41 1.66-1.45 0-.97-.55-1.37-1.69-1.37zm142.16 6.2v1.06h-5v-1.06h2.01v-5.84L519 19.64l-.58-.94 2.54-1.56h1.19v7.22h1.65zm6.73-5.05c0 1.45-.91 2.63-3.56 5.02h3.75l-.14 1.08h-5.15v-1.02c2.96-2.85 3.72-3.79 3.72-5 0-.83-.5-1.34-1.34-1.34-.74 0-1.19.26-1.68.86l-.86-.67c.64-.82 1.44-1.27 2.64-1.27 1.68 0 2.63 1.04 2.63 2.34zm7 4.61l.61.86c-.55.47-1.38.78-2.22.78-1.95 0-3.08-1.31-3.08-3.29s1.15-3.37 3.11-3.37c.86 0 1.58.26 2.19.77l-.62.84c-.49-.34-1.01-.53-1.55-.53-1.01 0-1.7.71-1.7 2.29s.72 2.18 1.7 2.18c.59 0 1.09-.23 1.56-.54zm8.21-3.21v4.7h-1.19v-4.52c0-.66-.05-.94-.42-.94-.31 0-.62.18-.94.64v4.82h-1.09v-4.52c0-.66-.05-.94-.42-.94-.32 0-.62.18-.94.64v4.82h-1.2v-6.33h1.01l.1.68c.36-.5.74-.85 1.36-.85.48 0 .9.2 1.08.8.36-.48.78-.8 1.39-.8.72 0 1.26.4 1.26 1.8z" class="cls-8"/><path d="M194.99 69.34v1.06h-5v-1.06H192V63.5l-1.82 1.12-.58-.94 2.54-1.56h1.19v7.22h1.65zm7.2 0v1.06h-5v-1.06h2.01V63.5l-1.82 1.12-.58-.94 2.54-1.56h1.19v7.22h1.66zm6.53-.43l.61.86c-.55.47-1.38.78-2.22.78-1.96 0-3.08-1.31-3.08-3.29s1.15-3.37 3.11-3.37c.86 0 1.58.26 2.2.77l-.62.84c-.49-.34-1.01-.53-1.55-.53-1.01 0-1.7.71-1.7 2.29s.72 2.18 1.7 2.18c.59 0 1.09-.23 1.56-.54zm8.21-3.22v4.7h-1.19v-4.52c0-.66-.05-.94-.42-.94-.31 0-.62.18-.94.64v4.82h-1.09v-4.52c0-.66-.05-.94-.42-.94-.32 0-.62.18-.94.64v4.82h-1.2v-6.33h1.01l.1.68c.36-.5.74-.85 1.36-.85.48 0 .9.2 1.08.8.36-.48.78-.8 1.39-.8.72 0 1.26.4 1.26 1.8zM68.44 322.35h1.06v5h-1.06v-2.01H62.6l1.12 1.82-.94.58-1.56-2.54v-1.19h7.22v-1.65zm-4.14-7.18c3.39 0 4.68 1.42 5.48 4.65l-.97.3c-.56-2.12-1.44-3.37-3.17-3.54.5.44.88 1.04.89 1.86 0 1.35-1.02 2.36-2.65 2.36-1.79 0-2.82-1.22-2.82-2.81 0-1.91 1.27-2.83 3.24-2.83zm.37 1.39c-1.88-.04-2.59.37-2.59 1.45 0 .92.6 1.43 1.8 1.43s1.64-.53 1.64-1.33c-.01-.65-.34-1.13-.85-1.55zm3.34-7.94l.86-.61c.47.55.78 1.38.78 2.22 0 1.95-1.31 3.08-3.29 3.08s-3.37-1.15-3.37-3.11c0-.86.26-1.58.77-2.19l.84.62c-.34.49-.53 1.01-.53 1.55 0 1.01.71 1.7 2.29 1.7s2.18-.72 2.18-1.7c0-.59-.23-1.09-.54-1.56zm-3.22-8.21h4.7v1.19h-4.52c-.66 0-.94.05-.94.42 0 .31.18.62.64.94h4.82v1.09h-4.52c-.66 0-.94.05-.94.42 0 .32.18.62.64.94h4.82v1.2h-6.33v-1.01l.68-.1c-.5-.36-.85-.74-.85-1.36 0-.48.2-.9.8-1.08-.48-.36-.8-.78-.8-1.39 0-.72.4-1.26 1.8-1.26zm603.83 5.85h-1.06v-5h1.06v2.01h5.84l-1.12-1.82.94-.58 1.56 2.54v1.19h-7.22v1.65zm4.13 7.18c-3.39 0-4.68-1.42-5.48-4.65l.97-.3c.56 2.12 1.44 3.37 3.17 3.54-.5-.44-.88-1.04-.89-1.86 0-1.35 1.02-2.36 2.65-2.36 1.79 0 2.82 1.22 2.82 2.81 0 1.91-1.27 2.83-3.24 2.83zm-.37-1.39c1.88.04 2.59-.37 2.59-1.45 0-.92-.6-1.43-1.8-1.43s-1.64.53-1.64 1.33c.01.65.34 1.13.85 1.55zm-3.33 7.94l-.86.61c-.47-.55-.78-1.38-.78-2.22 0-1.95 1.31-3.08 3.29-3.08s3.37 1.15 3.37 3.11c0 .86-.26 1.58-.77 2.19l-.84-.62c.33-.49.53-1.01.53-1.55 0-1.01-.71-1.7-2.29-1.7s-2.18.72-2.18 1.7c0 .59.23 1.09.54 1.56zm3.21 8.21h-4.7v-1.19h4.52c.66 0 .94-.05.94-.42 0-.31-.18-.62-.64-.94h-4.82v-1.09h4.52c.66 0 .94-.05.94-.42 0-.32-.18-.62-.64-.94h-4.82V322h6.33v1.01l-.68.1c.5.36.85.74.85 1.36 0 .48-.2.9-.8 1.08.48.36.8.78.8 1.39 0 .72-.4 1.26-1.8 1.26zM523.81 69.34v1.06h-5v-1.06h2.01V63.5L519 64.62l-.58-.94 2.54-1.56h1.19v7.22h1.65zm7.2 0v1.06h-5v-1.06h2.01V63.5l-1.82 1.12-.58-.94 2.54-1.56h1.19v7.22h1.66zm6.53-.43l.61.86c-.55.47-1.38.78-2.22.78-1.95 0-3.08-1.31-3.08-3.29s1.15-3.37 3.11-3.37c.86 0 1.58.26 2.19.77l-.62.84c-.49-.34-1.01-.53-1.55-.53-1.01 0-1.7.71-1.7 2.29s.72 2.18 1.7 2.18c.59 0 1.09-.23 1.56-.54zm8.21-3.22v4.7h-1.19v-4.52c0-.66-.05-.94-.42-.94-.31 0-.62.18-.94.64v4.82h-1.09v-4.52c0-.66-.05-.94-.42-.94-.32 0-.62.18-.94.64v4.82h-1.2v-6.33h1.01l.1.68c.36-.5.74-.85 1.36-.85.48 0 .9.2 1.08.8.36-.48.78-.8 1.39-.8.72 0 1.26.4 1.26 1.8z" class="cls-9"/><path d="M18.35 322.26c1.45 0 2.63.91 5.02 3.56v-3.75l1.08.14v5.15h-1.02c-2.85-2.96-3.79-3.72-5-3.72-.83 0-1.34.5-1.34 1.34 0 .74.26 1.19.86 1.68l-.67.86c-.82-.64-1.27-1.44-1.27-2.64 0-1.68 1.04-2.63 2.34-2.63zm1.95-7.73c2.75 0 4.31.96 4.31 2.82s-1.56 2.82-4.31 2.82-4.29-.96-4.29-2.82 1.56-2.82 4.29-2.82zm0 4.28c2.38 0 3.29-.54 3.29-1.46s-.92-1.46-3.29-1.46-3.26.53-3.26 1.46.94 1.46 3.26 1.46zm.01-2.25c.44 0 .79.34.79.79s-.35.78-.79.78-.78-.34-.78-.78.35-.79.78-.79zm2.65-8.5l.86-.61c.47.55.78 1.38.78 2.22 0 1.95-1.31 3.08-3.29 3.08s-3.37-1.15-3.37-3.11c0-.86.26-1.58.77-2.19l.84.62c-.34.49-.53 1.01-.53 1.55 0 1.01.71 1.7 2.29 1.7s2.18-.72 2.18-1.7c0-.59-.23-1.09-.54-1.56zm-3.21-8.2h4.7v1.19h-4.52c-.66 0-.94.05-.94.42 0 .31.18.62.64.94h4.82v1.09h-4.52c-.66 0-.94.05-.94.42 0 .32.18.62.64.94h4.82v1.2h-6.33v-1.01l.68-.1c-.5-.36-.85-.74-.85-1.36 0-.48.2-.9.8-1.08-.48-.36-.8-.78-.8-1.39 0-.72.4-1.26 1.8-1.26z" class="cls-8"/><path d="M38.62 39.58h657.64v566.93H38.62z" class="cls-6"/><path d="M83.98 322.95v-17.29" class="cls-2"/><path d="M322.09 322.95v-17.29m45.35 17.29v-17.29m0 17.29v-17.29m45.36 17.29v-17.29" class="cls-3"/><path d="M49.96 322.95v-17.29m634.96 17.29v-17.29" class="cls-2"/><path d="M540.5 110.45h-17.29m17.29 425.2h-17.29m-311.53-425.2h-17.29M540.5 50.92h-17.29m-311.53 0h-17.29M540.5 595.17h-17.29m-311.53 0h-17.29m17.29-59.52h-17.29" class="cls-1"/><path d="M650.91 322.95v-17.29" class="cls-2"/><path d="M352.98 67.44h-1.01v2.95h-1.38v-8.28h2.29c2.09 0 3.32.84 3.32 2.6 0 1.93-1.33 2.72-3.23 2.72zm0-4.28h-1.01v3.23h1.02c1.04 0 1.76-.41 1.76-1.67 0-1.13-.71-1.56-1.77-1.56zm5.76 5.24l-.58 1.99h-1.43l2.64-8.28h1.73l2.64 8.28h-1.48l-.58-1.99h-2.95zm2.66-1.08l-1.19-4.13-1.19 4.13h2.38zm2.89-1.08c0-2.84 1.68-4.29 3.61-4.29 1.13 0 1.81.35 2.46.96l-.78.8c-.5-.46-1-.67-1.64-.67-1.16 0-2.19.84-2.19 3.2s.67 3.23 1.98 3.23c.5 0 .97-.12 1.37-.35v-2.28h-1.4l-.14-1.07h2.9v4.02c-.78.44-1.63.76-2.78.76-2.11 0-3.37-1.45-3.37-4.31zm9.5-.57h3v1.04h-3v2.63h3.66v1.06h-5.05v-8.28h4.98l-.16 1.06h-3.43v2.49zm7.87 4.88c-1.34 0-2.35-.42-3.05-1.1l.77-.85c.59.54 1.31.86 2.28.86s1.72-.44 1.72-1.33c0-.73-.37-1.08-1.69-1.48-1.76-.52-2.67-1.18-2.67-2.46 0-1.35 1.21-2.24 2.84-2.24 1.19 0 2.06.36 2.77 1l-.73.83c-.59-.5-1.27-.73-1.96-.73-.85 0-1.5.35-1.5 1.07 0 .65.46.95 1.93 1.38 1.4.42 2.46 1.01 2.46 2.57 0 1.48-1.16 2.49-3.17 2.49z" class="cls-4"/><path d="M352.98 67.44h-1.01v2.95h-1.38v-8.28h2.29c2.09 0 3.32.84 3.32 2.6 0 1.93-1.33 2.72-3.23 2.72zm0-4.28h-1.01v3.23h1.02c1.04 0 1.76-.41 1.76-1.67 0-1.13-.71-1.56-1.77-1.56zm5.76 5.24l-.58 1.99h-1.43l2.64-8.28h1.73l2.64 8.28h-1.48l-.58-1.99h-2.95zm2.66-1.08l-1.19-4.13-1.19 4.13h2.38zm2.89-1.08c0-2.84 1.68-4.29 3.61-4.29 1.13 0 1.81.35 2.46.96l-.78.8c-.5-.46-1-.67-1.64-.67-1.16 0-2.19.84-2.19 3.2s.67 3.23 1.98 3.23c.5 0 .97-.12 1.37-.35v-2.28h-1.4l-.14-1.07h2.9v4.02c-.78.44-1.63.76-2.78.76-2.11 0-3.37-1.45-3.37-4.31zm9.5-.57h3v1.04h-3v2.63h3.66v1.06h-5.05v-8.28h4.98l-.16 1.06h-3.43v2.49zm7.87 4.88c-1.34 0-2.35-.42-3.05-1.1l.77-.85c.59.54 1.31.86 2.28.86s1.72-.44 1.72-1.33c0-.73-.37-1.08-1.69-1.48-1.76-.52-2.67-1.18-2.67-2.46 0-1.35 1.21-2.24 2.84-2.24 1.19 0 2.06.36 2.77 1l-.73.83c-.59-.5-1.27-.73-1.96-.73-.85 0-1.5.35-1.5 1.07 0 .65.46.95 1.93 1.38 1.4.42 2.46 1.01 2.46 2.57 0 1.48-1.16 2.49-3.17 2.49z" class="cls-9"/></svg>