<svg xmlns="http://www.w3.org/2000/svg" id="Layer_1" width="307" height="415.6" viewBox="0 0 307 415.6"><defs><style>.cls-1{fill:#00aeef}.cls-2{fill:#e6e7e8}.cls-3{fill:#505050}.cls-4{stroke:#231f20;stroke-miterlimit:10}.cls-4,.cls-5,.cls-6{fill:none}.cls-5{stroke:#00aeef}.cls-6{stroke:#000}</style></defs><path d="M45.5 55.1h216v324h-216v-324z" class="cls-4"/><path d="M225.5 86.09v252.3h-144V86.09h144z" class="cls-2"/><path d="M45.38 27.97v18m-27 9h18m-18 324.25h18m9 27v-18M261.62 27.97v18m27 9h-18m18 324.25h-18m-9 27v-18" class="cls-6"/><path d="M.5 19.1h306v396H.5v-396z" class="cls-5"/><path d="M103.9 11.85h3.32l-.18 1.3h-4.73V4.86h1.58v6.99h.01zm9.31-1.4h-3.98c.12 1.3.72 1.72 1.56 1.72.56 0 1.03-.18 1.58-.56l.64.88c-.62.5-1.39.85-2.35.85-1.97 0-3.02-1.31-3.02-3.31s1.02-3.39 2.82-3.39 2.79 1.2 2.79 3.2c0 .2-.02.46-.04.62zm-1.49-1.07c0-1.04-.37-1.67-1.24-1.67-.72 0-1.18.48-1.26 1.74h2.49v-.07h.01zm6.54 3.47c-.46.32-1.03.48-1.6.48-1.25-.01-1.91-.72-1.91-2.07V7.91h-1v-1.1h1v-1.4l1.54-.18v1.58h1.48l-.16 1.1h-1.32v3.31c0 .62.2.88.67.88.24 0 .48-.07.76-.23l.54.98zm4.5 0c-.46.32-1.03.48-1.6.48-1.25-.01-1.91-.72-1.91-2.07V7.91h-1v-1.1h1v-1.4l1.54-.18v1.58h1.48l-.16 1.1h-1.32v3.31c0 .62.2.88.67.88.24 0 .48-.07.76-.23l.54.98zm5.83-2.4h-3.98c.12 1.3.72 1.72 1.56 1.72.56 0 1.03-.18 1.58-.56l.64.88c-.62.5-1.39.85-2.35.85-1.97 0-3.02-1.31-3.02-3.31s1.02-3.39 2.82-3.39 2.79 1.2 2.79 3.2c0 .2-.02.46-.04.62zm-1.49-1.07c0-1.04-.37-1.67-1.24-1.67-.72 0-1.18.48-1.26 1.74h2.49v-.07h.01zm6.65-2.66l-.26 1.49c-.19-.05-.34-.07-.56-.07-.77 0-1.16.56-1.4 1.63v3.38h-1.54V6.8h1.33l.14 1.25c.3-.91.91-1.42 1.66-1.42.23 0 .43.02.64.08h-.01zm9.82.78c0 1.91-1.38 2.76-3.25 2.76h-.97v2.89h-1.58V4.86h2.45c2.09 0 3.36.85 3.36 2.64zm-1.66 0c0-1.04-.64-1.48-1.71-1.48h-.85v3.05h.85c1.06 0 1.71-.36 1.71-1.57zm6.4-.78l-.26 1.49c-.19-.05-.34-.07-.56-.07-.77 0-1.16.56-1.4 1.63v3.38h-1.54V6.8h1.33l.14 1.25c.3-.91.91-1.42 1.66-1.42.23 0 .43.02.64.08h-.01zm2.66-2.2c0 .52-.4.92-.97.92s-.96-.41-.96-.92.4-.94.96-.94.97.41.97.94zm-.19 8.62h-1.54V6.8h1.54v6.34zm6.98-4.59v4.59h-1.54V8.79c0-.79-.3-1.02-.78-1.02-.55 0-.96.37-1.33.96v4.41h-1.54V6.8h1.33l.12.83c.49-.64 1.13-1.01 1.93-1.01 1.14 0 1.8.72 1.8 1.93zm5.39 4.3c-.46.32-1.03.48-1.6.48-1.25-.01-1.91-.72-1.91-2.07V7.91h-1v-1.1h1v-1.4l1.54-.18v1.58h1.47l-.16 1.1h-1.32v3.31c0 .62.2.88.67.88.24 0 .48-.07.75-.23l.54.98h.02zm5.83-2.4H165c.12 1.3.72 1.72 1.56 1.72.56 0 1.03-.18 1.58-.56l.64.88c-.62.5-1.39.85-2.35.85-1.97 0-3.02-1.31-3.02-3.31s1.02-3.39 2.82-3.39 2.79 1.2 2.79 3.2c0 .2-.02.46-.04.62zm-1.49-1.07c0-1.04-.37-1.67-1.24-1.67-.72 0-1.17.48-1.26 1.74h2.5v-.07zm8.19-5.12v8.89h-1.36l-.11-.8c-.38.58-.99.98-1.81.98-1.58 0-2.41-1.33-2.41-3.35s.98-3.36 2.55-3.36c.67 0 1.2.29 1.59.68V4.09l1.54.17h.01zm-1.54 7.09v-2.9c-.34-.41-.7-.67-1.21-.67-.79 0-1.32.67-1.32 2.19 0 1.63.47 2.19 1.22 2.19.56 0 .95-.28 1.31-.82zm12.22-3.85c0 1.91-1.38 2.76-3.25 2.76h-.97v2.89h-1.58V4.86h2.45c2.09 0 3.36.85 3.36 2.64zm-1.66 0c0-1.04-.64-1.48-1.71-1.48h-.85v3.05h.85c1.05 0 1.71-.36 1.71-1.57zm7.55 4.78l-.32 1.02c-.71-.06-1.16-.3-1.4-.92-.46.67-1.14.95-1.91.95-1.26 0-2.04-.8-2.04-1.95 0-1.38 1.03-2.12 2.88-2.12h.8V8.9c0-.83-.37-1.1-1.19-1.1-.43 0-1.04.12-1.69.34l-.35-1.04c.78-.3 1.58-.46 2.29-.46 1.7 0 2.45.78 2.45 2.18v2.66c0 .52.17.7.48.82v-.02zm-1.99-.85v-1.28h-.64c-1 0-1.49.36-1.49 1.1 0 .61.31.96.9.96.53 0 .94-.28 1.22-.78h.01zm8.87-4.29c-.48.17-1.08.22-1.84.22.77.35 1.15.84 1.15 1.63 0 1.24-.96 2.13-2.55 2.13-.28 0-.52-.02-.76-.1-.16.11-.26.28-.26.47 0 .23.13.44.77.44h.97c1.4 0 2.31.76 2.31 1.8 0 1.27-1.09 2.03-3.17 2.03-2.25 0-2.89-.72-2.89-1.99h1.38c0 .64.28.91 1.54.91s1.59-.34 1.59-.84c0-.47-.37-.76-1.08-.76h-.96c-1.27 0-1.81-.56-1.81-1.22 0-.44.28-.89.74-1.18-.78-.41-1.12-.97-1.12-1.79 0-1.38 1.09-2.28 2.63-2.28 1.5.04 2.19-.3 2.96-.71l.38 1.22.02.02zm-4.43 1.74c0 .77.42 1.25 1.13 1.25s1.13-.46 1.13-1.26-.38-1.2-1.15-1.2c-.7 0-1.1.48-1.1 1.21h-.01zm10.46 1.57h-3.98c.12 1.3.72 1.72 1.56 1.72.56 0 1.03-.18 1.58-.56l.64.88c-.62.5-1.39.85-2.35.85-1.97 0-3.02-1.31-3.02-3.31s1.02-3.39 2.82-3.39 2.79 1.2 2.79 3.2c0 .2-.03.46-.04.62zm-1.49-1.07c0-1.04-.37-1.67-1.24-1.67-.72 0-1.18.48-1.26 1.74h2.49v-.07z" class="cls-1"/><path d="M144.52 49.54h-1.51v-6.52l-1.8 1.09-.67-1.03 2.63-1.61h1.36v8.07zm5.2 0h-1.51v-6.52l-1.8 1.09-.67-1.03 2.63-1.61h1.36v8.07zm6.69-5.78l-.68.92c-.42-.31-.8-.46-1.28-.46-.89 0-1.43.65-1.43 2.17s.56 2.07 1.43 2.07c.48 0 .82-.16 1.28-.46l.68.97c-.58.47-1.24.73-2.05.73-1.84 0-2.98-1.27-2.98-3.3s1.14-3.41 2.96-3.41c.83 0 1.46.23 2.06.74zm9.5 1.18v4.59h-1.54v-4.35c0-.79-.31-1.02-.7-1.02-.53 0-.85.37-1.2.96v4.41h-1.54v-4.35c0-.79-.32-1.02-.7-1.02-.54 0-.86.37-1.21.96v4.41h-1.54v-6.34h1.33l.12.83c.46-.64 1.03-1.01 1.83-1.01.74 0 1.3.4 1.54 1.07.48-.66 1.07-1.07 1.91-1.07 1.01 0 1.68.73 1.68 1.93zM269.98 217.1h-1.51v-6.52l-1.8 1.09-.67-1.03 2.63-1.61h1.36v8.07zm7.2-5.09c0 3.32-1.46 4.62-4.7 5.38l-.32-1.09c2.01-.53 3.17-1.31 3.38-2.9-.38.49-.95.84-1.73.84-1.25 0-2.27-1-2.27-2.63s1.25-2.73 2.81-2.73c1.87 0 2.83 1.27 2.83 3.13zm-1.57.29c.02-1.67-.36-2.28-1.26-2.28-.78 0-1.27.54-1.27 1.57 0 1.1.5 1.54 1.15 1.54.55 0 1.02-.3 1.38-.83zm7.58-.98l-.68.92c-.42-.31-.8-.46-1.28-.46-.89 0-1.43.65-1.43 2.17s.56 2.07 1.43 2.07c.48 0 .82-.16 1.28-.46l.68.97c-.58.47-1.24.73-2.05.73-1.83 0-2.97-1.27-2.97-3.3s1.14-3.41 2.96-3.41c.83 0 1.46.23 2.06.74zm9.5 1.19v4.59h-1.54v-4.35c0-.79-.31-1.02-.7-1.02-.53 0-.85.37-1.2.96v4.41h-1.54v-4.35c0-.79-.32-1.02-.7-1.02-.54 0-.86.37-1.21.96v4.41h-1.54v-6.34h1.33l.12.83c.46-.64 1.03-1.01 1.83-1.01.74 0 1.3.4 1.54 1.07.48-.66 1.07-1.07 1.91-1.07 1.01 0 1.68.73 1.68 1.93zM56.31 386.56c0 1.27-.92 1.84-2.17 1.84h-.65v1.93h-1.06v-5.53h1.63c1.39 0 2.24.57 2.24 1.76zm-1.1 0c0-.7-.42-.98-1.14-.98h-.57v2.03h.57c.7 0 1.14-.24 1.14-1.05zm5.03 3.19l-.22.68c-.47-.04-.78-.2-.94-.62-.3.45-.76.63-1.27.63-.84 0-1.36-.54-1.36-1.3 0-.92.69-1.42 1.92-1.42h.54v-.24c0-.55-.25-.74-.79-.74-.29 0-.7.08-1.13.22l-.23-.7c.52-.2 1.06-.3 1.53-.3 1.14 0 1.63.52 1.63 1.46v1.78c0 .34.11.46.32.54zm-1.33-.57v-.86h-.42c-.66 0-.99.24-.99.74 0 .41.21.64.6.64.35 0 .62-.18.82-.52zm4.74-3.14l-.18.99c-.13-.03-.22-.05-.38-.05-.51 0-.78.38-.94 1.09v2.25h-1.02v-4.23h.89l.1.83c.2-.61.61-.94 1.1-.94.15 0 .29.02.42.06zm3.88 3.71l-.22.68c-.47-.04-.78-.2-.94-.62-.3.45-.76.63-1.27.63-.84 0-1.36-.54-1.36-1.3 0-.92.69-1.42 1.92-1.42h.54v-.24c0-.55-.25-.74-.79-.74-.29 0-.7.08-1.13.22l-.23-.7c.52-.2 1.06-.3 1.53-.3 1.14 0 1.63.52 1.63 1.46v1.78c0 .34.11.46.32.54zm-1.33-.57v-.86h-.42c-.66 0-.99.24-.99.74 0 .41.21.64.6.64.35 0 .62-.18.82-.52zm5.77-4.78v5.92h-.9l-.07-.54c-.26.38-.66.66-1.21.66-1.06 0-1.61-.89-1.61-2.23s.66-2.24 1.7-2.24c.45 0 .8.19 1.06.46v-2.14l1.02.11zm-1.02 4.73v-1.94c-.22-.27-.46-.45-.81-.45-.53 0-.88.45-.88 1.46 0 1.09.31 1.46.82 1.46.38 0 .63-.18.87-.54zm3.38-4.56c0 .34-.26.62-.65.62s-.64-.27-.64-.62.26-.62.64-.62.65.27.65.62zm-.13 5.75h-1.02v-4.23h1.02v4.23zm4.05-3.84l-.4.6c-.35-.22-.69-.34-1.06-.34-.41 0-.64.17-.64.42 0 .28.17.41.89.61.86.23 1.35.58 1.35 1.33 0 .88-.82 1.34-1.78 1.34-.73 0-1.29-.25-1.69-.6l.51-.58c.33.25.72.42 1.15.42.46 0 .75-.19.75-.51 0-.35-.17-.46-.96-.69-.87-.24-1.25-.66-1.25-1.28 0-.7.65-1.23 1.63-1.23.61 0 1.1.19 1.5.5zm.68.93h2.41v.82h-2.41v-.82zm5.97 1.63h-1.83l-.34 1.28h-1.1l1.72-5.53h1.3l1.71 5.53h-1.12l-.34-1.28zm-.21-.8l-.71-2.64-.7 2.64h1.42zm2.2 1.11v-4.96l1.02-.11v5.04c0 .2.06.3.24.3.09 0 .17-.02.23-.04l.22.72c-.18.08-.42.14-.69.14-.65 0-1.03-.39-1.03-1.09zm5.82.4l-.22.68c-.47-.04-.78-.2-.94-.62-.3.45-.76.63-1.27.63-.84 0-1.36-.54-1.36-1.3 0-.92.69-1.42 1.92-1.42h.54v-.24c0-.55-.25-.74-.79-.74-.29 0-.7.08-1.13.22l-.23-.7c.52-.2 1.06-.3 1.53-.3 1.14 0 1.63.52 1.63 1.46v1.78c0 .34.11.46.32.54zm-1.33-.57v-.86h-.42c-.66 0-.99.24-.99.74 0 .41.21.64.6.64.35 0 .62-.18.82-.52zm3.39-4.61c0 .34-.26.62-.65.62s-.64-.27-.64-.62.26-.62.64-.62.65.27.65.62zm-.13 5.75h-1.02v-4.23h1.02v4.23zm4.65-3.06v3.06h-1.02v-2.9c0-.53-.2-.68-.52-.68-.37 0-.64.25-.89.64v2.94h-1.02v-4.23h.89l.08.55c.33-.42.75-.67 1.29-.67.76 0 1.2.48 1.2 1.29zm.97.15h2.41v.82h-2.41v-.82zm7.46-2.08l-.57.59c-.38-.3-.69-.44-1.16-.44-.78 0-1.46.59-1.46 2.08s.45 2.08 1.31 2.08c.31 0 .62-.06.88-.22v-1.44h-.83l-.11-.78h1.98v2.7c-.55.34-1.21.54-1.9.54-1.58 0-2.44-.99-2.44-2.89s1.15-2.88 2.53-2.88c.77 0 1.3.26 1.76.65zm3.58.71l-.18.99c-.13-.03-.22-.05-.38-.05-.51 0-.78.38-.94 1.09v2.25h-1.02v-4.23h.89l.1.83c.2-.61.61-.94 1.1-.94.15 0 .29.02.42.06zm1.78-1.47c0 .34-.26.62-.65.62s-.64-.27-.64-.62.26-.62.64-.62.65.27.65.62zm-.13 5.75h-1.02v-4.23h1.02v4.23zm6.81-3.06v3.06h-1.02v-2.9c0-.53-.21-.68-.46-.68-.35 0-.57.25-.8.64v2.94h-1.02v-2.9c0-.53-.22-.68-.46-.68-.36 0-.58.25-.81.64v2.94h-1.02v-4.23h.89l.08.55c.3-.42.69-.67 1.22-.67.5 0 .86.26 1.02.71.32-.44.71-.71 1.27-.71.67 0 1.12.49 1.12 1.29zm6.76 0v3.06h-1.02v-2.9c0-.53-.21-.68-.46-.68-.35 0-.57.25-.8.64v2.94h-1.02v-2.9c0-.53-.22-.68-.46-.68-.36 0-.58.25-.81.64v2.94h-1.02v-4.23h.89l.08.55c.3-.42.69-.67 1.22-.67.5 0 .86.26 1.02.71.32-.44.71-.71 1.27-.71.67 0 1.12.49 1.12 1.29zm4-.78l-.4.6c-.35-.22-.69-.34-1.06-.34-.41 0-.64.17-.64.42 0 .28.17.41.89.61.86.23 1.35.58 1.35 1.33 0 .88-.82 1.34-1.78 1.34-.73 0-1.29-.25-1.69-.6l.51-.58c.33.25.72.42 1.15.42.46 0 .75-.19.75-.51 0-.35-.17-.46-.96-.69-.87-.24-1.25-.66-1.25-1.28 0-.7.65-1.23 1.63-1.23.61 0 1.1.19 1.5.5zm.68.93h2.41v.82h-2.41v-.82zm7.34-.85c0 1.27-.92 1.84-2.17 1.84h-.65v1.93h-1.06v-5.53h1.63c1.39 0 2.24.57 2.24 1.76zm-1.1 0c0-.7-.42-.98-1.14-.98h-.57v2.03h.57c.7 0 1.14-.24 1.14-1.05zm5.03 3.19l-.22.68c-.47-.04-.78-.2-.94-.62-.3.45-.76.63-1.27.63-.84 0-1.36-.54-1.36-1.3 0-.92.69-1.42 1.92-1.42h.54v-.24c0-.55-.25-.74-.79-.74-.29 0-.7.08-1.13.22l-.23-.7c.52-.2 1.06-.3 1.53-.3 1.14 0 1.63.52 1.63 1.46v1.78c0 .34.11.46.32.54zm-1.33-.57v-.86h-.42c-.66 0-.99.24-.99.74 0 .41.21.64.6.64.35 0 .62-.18.82-.52zm5.91-2.86c-.32.11-.72.14-1.22.14.51.23.77.56.77 1.09 0 .82-.64 1.42-1.7 1.42-.18 0-.34-.02-.5-.06a.39.39 0 0 0-.18.31c0 .15.09.3.51.3h.65c.94 0 1.54.5 1.54 1.2 0 .85-.73 1.35-2.11 1.35-1.5 0-1.93-.48-1.93-1.33h.92c0 .42.18.61 1.02.61s1.06-.22 1.06-.56c0-.31-.25-.5-.72-.5h-.64c-.85 0-1.21-.38-1.21-.82 0-.3.18-.59.5-.78-.52-.27-.74-.65-.74-1.19 0-.92.73-1.52 1.75-1.52 1 .02 1.46-.2 1.98-.47l.26.82zm-2.95 1.16c0 .51.28.83.75.83s.75-.3.75-.84-.26-.8-.77-.8c-.46 0-.74.32-.74.81zm6.98 1.04h-2.65c.08.86.48 1.14 1.04 1.14.38 0 .69-.12 1.06-.38l.42.58c-.42.33-.93.57-1.57.57-1.31 0-2.01-.87-2.01-2.21s.68-2.26 1.88-2.26 1.86.8 1.86 2.13c0 .14-.02.3-.02.42zm-.99-.71c0-.7-.25-1.11-.82-1.11-.48 0-.78.32-.84 1.16h1.66v-.05zm4.77-1.33l-.4.6c-.35-.22-.69-.34-1.06-.34-.41 0-.64.17-.64.42 0 .28.17.41.89.61.86.23 1.35.58 1.35 1.33 0 .88-.82 1.34-1.78 1.34-.73 0-1.29-.25-1.69-.6l.51-.58c.33.25.72.42 1.15.42.46 0 .75-.19.75-.51 0-.35-.17-.46-.96-.69-.87-.24-1.25-.66-1.25-1.28 0-.7.65-1.23 1.63-1.23.61 0 1.1.19 1.5.5zm1.95 3.31c0 .35-.29.65-.66.65s-.64-.3-.64-.65.28-.65.64-.65.66.29.66.65zm4.67-1.59c0 1.29-.6 2.25-1.67 2.25-.43 0-.8-.15-1.06-.46v1.97l-1.02.11v-5.97h.9l.06.52c.34-.44.78-.64 1.24-.64 1.1 0 1.57.87 1.57 2.22zm-1.07 0c0-1.07-.29-1.46-.8-1.46-.36 0-.66.25-.86.58v1.9c.2.3.46.44.78.44.56 0 .89-.43.89-1.46zm5.55-3.8v5.92h-.9l-.07-.54c-.26.38-.66.66-1.21.66-1.06 0-1.61-.89-1.61-2.23s.66-2.24 1.7-2.24c.45 0 .8.19 1.06.46v-2.14l1.02.11zm-1.02 4.73v-1.94c-.22-.27-.46-.45-.81-.45-.53 0-.88.45-.88 1.46 0 1.09.31 1.46.82 1.46.38 0 .63-.18.87-.54zm3.39-3.49v.45h1.02l-.11.74h-.9v3.49h-1.02v-3.49h-.69v-.74h.69v-.46c0-.77.51-1.34 1.49-1.34.42 0 .77.1 1.1.25l-.3.69c-.26-.12-.5-.16-.7-.16-.42 0-.57.18-.57.58z" class="cls-3"/></svg>