<svg xmlns="http://www.w3.org/2000/svg" id="Layer_1" viewBox="0 0 813.75 260" width="813.75" height="260"><defs><style>.cls-1{fill:#dcdcdc}.cls-2{fill:#2997ff}.cls-3,.cls-4{stroke:#2997ff;stroke-width:2px;fill:none;stroke-linecap:round;stroke-linejoin:round}.cls-4{stroke:#b3b3b3;stroke-width:.5px}</style></defs><path d="M59.86 170.51h687.2" class="cls-4"/><path d="M35.55 50.98l-1.21 1.4c-.72-.58-1.46-.88-2.3-.88-1.73 0-3.06 1.26-3.06 4.63s1.3 4.61 3.06 4.61c1.08 0 1.82-.47 2.54-1.01l1.12 1.4c-.76.77-2.05 1.51-3.75 1.51-3.22 0-5.47-2.29-5.47-6.52s2.38-6.46 5.44-6.46c1.58 0 2.61.47 3.64 1.31zm8.93 10.11l-.49 1.53c-1.06-.09-1.75-.45-2.11-1.39-.68 1.01-1.71 1.42-2.86 1.42-1.89 0-3.06-1.21-3.06-2.93 0-2.07 1.55-3.19 4.32-3.19h1.21v-.54c0-1.24-.56-1.66-1.78-1.66-.65 0-1.57.18-2.54.5l-.52-1.57c1.17-.45 2.38-.68 3.44-.68 2.56 0 3.67 1.17 3.67 3.28v4c0 .77.25 1.04.72 1.22zm-2.99-1.28v-1.93h-.95c-1.49 0-2.23.54-2.23 1.66 0 .92.47 1.44 1.35 1.44.79 0 1.4-.41 1.84-1.17zm13.12-2.22c0 2.92-1.35 5.06-3.76 5.06-.97 0-1.8-.34-2.39-1.04v4.45l-2.3.25V52.86h2.02l.13 1.17c.76-.99 1.76-1.44 2.79-1.44 2.48 0 3.53 1.96 3.53 5.01zm-2.41.02c0-2.41-.65-3.29-1.8-3.29-.81 0-1.49.56-1.94 1.3v4.29c.45.67 1.03.99 1.75.99 1.26 0 2-.97 2-3.28zm16.11-2.12v6.9h-2.3v-6.54c0-1.19-.47-1.53-1.17-1.53-.81 0-1.44.56-2 1.42v6.64h-2.3V49.06l2.3-.23V54c.74-.9 1.62-1.4 2.77-1.4 1.69 0 2.7 1.1 2.7 2.9zm10.03 2.84h-5.98c.18 1.94 1.08 2.57 2.34 2.57.85 0 1.55-.27 2.38-.85l.95 1.31c-.94.76-2.09 1.28-3.53 1.28-2.95 0-4.54-1.96-4.54-4.97s1.53-5.1 4.23-5.1 4.2 1.8 4.2 4.81c0 .31-.04.68-.05.94zm-2.23-1.6c0-1.57-.56-2.5-1.85-2.5-1.08 0-1.76.72-1.89 2.61h3.75v-.11zm6.54-7.29c0 .77-.59 1.39-1.46 1.39s-1.44-.61-1.44-1.39.59-1.4 1.44-1.4 1.46.61 1.46 1.4zm-.29 12.95h-2.3v-9.52h2.3v9.52zm10.66-9.03c-.72.25-1.62.32-2.75.32 1.15.52 1.73 1.26 1.73 2.45 0 1.85-1.44 3.21-3.83 3.21-.41 0-.77-.04-1.13-.14-.23.16-.4.41-.4.7 0 .34.2.67 1.15.67h1.46c2.11 0 3.48 1.13 3.48 2.7 0 1.91-1.64 3.04-4.75 3.04-3.38 0-4.34-1.08-4.34-2.99h2.07c0 .95.41 1.37 2.3 1.37s2.39-.5 2.39-1.26c0-.7-.56-1.13-1.62-1.13h-1.44c-1.91 0-2.72-.85-2.72-1.84 0-.67.41-1.33 1.12-1.76-1.17-.61-1.67-1.46-1.67-2.68 0-2.07 1.64-3.42 3.94-3.42 2.25.05 3.29-.45 4.45-1.06l.58 1.84zm-6.64 2.61c0 1.15.63 1.87 1.69 1.87s1.69-.68 1.69-1.89-.58-1.8-1.73-1.8c-1.04 0-1.66.72-1.66 1.82zm15.41-.48v6.9h-2.3v-6.54c0-1.19-.47-1.53-1.17-1.53-.81 0-1.44.56-2 1.42v6.64h-2.3V49.06l2.3-.23V54c.74-.9 1.62-1.4 2.77-1.4 1.69 0 2.7 1.1 2.7 2.9zm7.72 6.44c-.68.49-1.55.72-2.4.72-1.87-.02-2.86-1.08-2.86-3.11v-5.02h-1.49v-1.66h1.49v-2.11l2.3-.27v2.38h2.21l-.23 1.66h-1.98v4.97c0 .94.31 1.31 1.01 1.31.36 0 .72-.11 1.13-.34l.81 1.48zm-7.92 129.24c0 2.74-2.18 3.58-5.2 3.58h-3.75v-12.44h3.26c3.21 0 5.15.9 5.15 3.17 0 1.55-1.12 2.43-2.3 2.68 1.42.27 2.85.94 2.85 3.01zm-6.57-7.11v3.37h1.46c1.3 0 2.14-.58 2.14-1.75 0-1.26-.86-1.62-2.48-1.62h-1.12zm4.09 7.02c0-1.49-1.06-2-2.45-2h-1.64v3.89h1.39c1.57 0 2.7-.32 2.7-1.89zm11.84 2.37l-.49 1.53c-1.06-.09-1.75-.45-2.11-1.39-.68 1.01-1.71 1.42-2.86 1.42-1.89 0-3.06-1.21-3.06-2.93 0-2.07 1.55-3.19 4.32-3.19h1.21v-.54c0-1.24-.56-1.66-1.78-1.66-.65 0-1.57.18-2.54.5l-.52-1.57c1.17-.45 2.38-.68 3.44-.68 2.56 0 3.67 1.17 3.67 3.28v4c0 .77.25 1.04.72 1.22zm-2.99-1.28v-1.93h-.95c-1.49 0-2.23.54-2.23 1.66 0 .92.47 1.44 1.35 1.44.79 0 1.4-.41 1.84-1.17zm11.09-6.08l-.9 1.35c-.79-.5-1.55-.77-2.39-.77-.92 0-1.44.38-1.44.95 0 .63.38.92 2 1.37 1.94.52 3.04 1.31 3.04 3.01 0 1.98-1.84 3.03-4.02 3.03-1.64 0-2.92-.56-3.8-1.35l1.15-1.3c.74.56 1.62.94 2.59.94 1.03 0 1.69-.43 1.69-1.15 0-.79-.38-1.04-2.16-1.55-1.96-.54-2.83-1.48-2.83-2.88 0-1.58 1.46-2.77 3.67-2.77 1.37 0 2.48.43 3.39 1.13zm9.54 4.61h-5.98c.18 1.94 1.08 2.57 2.34 2.57.85 0 1.55-.27 2.38-.85l.95 1.31c-.94.76-2.09 1.28-3.53 1.28-2.95 0-4.54-1.96-4.54-4.97s1.53-5.1 4.23-5.1 4.2 1.8 4.2 4.81c0 .31-.04.68-.05.94zm-2.23-1.6c0-1.57-.56-2.5-1.85-2.5-1.08 0-1.76.72-1.89 2.61h3.75v-.11zm3.85 3.47v-11.16l2.3-.25v11.34c0 .45.14.67.54.67.2 0 .38-.04.52-.09l.5 1.62c-.4.18-.95.32-1.55.32-1.46 0-2.32-.88-2.32-2.45zm7.69-10.77c0 .77-.59 1.39-1.46 1.39s-1.44-.61-1.44-1.39.59-1.4 1.44-1.4 1.46.61 1.46 1.4zm-.29 12.95h-2.3v-9.52h2.3v9.52zm10.11-6.9v6.9h-2.3v-6.54c0-1.19-.45-1.53-1.17-1.53-.83 0-1.44.56-2 1.44v6.63h-2.3v-9.52h2l.18 1.24c.74-.95 1.69-1.51 2.9-1.51 1.71 0 2.7 1.08 2.7 2.9zm10.03 2.85h-5.98c.18 1.94 1.08 2.57 2.34 2.57.85 0 1.55-.27 2.38-.85l.95 1.31c-.94.76-2.09 1.28-3.53 1.28-2.95 0-4.54-1.96-4.54-4.97s1.53-5.1 4.23-5.1 4.2 1.8 4.2 4.81c0 .31-.04.68-.05.94zm-2.23-1.6c0-1.57-.56-2.5-1.85-2.5-1.08 0-1.76.72-1.89 2.61h3.75v-.11zm568.52-89.25h-2.65l-2.48-5.1-2.47 5.1h-2.54l3.6-6.63-3.31-5.82h2.65l2.11 4.3 2.2-4.3h2.54l-3.33 5.73 3.69 6.72zm-.09-6.55h5.44v1.84h-5.44V93.3zm15.12-.34v6.9h-2.3v-6.54c0-1.19-.47-1.53-1.17-1.53-.81 0-1.44.56-2 1.42v6.64h-2.3V86.53l2.3-.23v5.17c.74-.9 1.62-1.4 2.77-1.4 1.69 0 2.7 1.1 2.7 2.9zm10.03 2.84h-5.98c.18 1.94 1.08 2.57 2.34 2.57.85 0 1.55-.27 2.38-.85l.95 1.31c-.94.76-2.09 1.28-3.53 1.28-2.95 0-4.54-1.96-4.54-4.97s1.53-5.1 4.23-5.1 4.2 1.8 4.2 4.81c0 .31-.04.68-.05.94zm-2.23-1.6c0-1.57-.56-2.5-1.85-2.5-1.08 0-1.76.72-1.89 2.61h3.75v-.11zm6.55-7.29c0 .77-.59 1.39-1.46 1.39s-1.44-.61-1.44-1.39.59-1.4 1.44-1.4 1.46.61 1.46 1.4zm-.29 12.95h-2.3v-9.52h2.3v9.52zm10.65-9.03c-.72.25-1.62.32-2.75.32 1.15.52 1.73 1.26 1.73 2.45 0 1.85-1.44 3.21-3.83 3.21-.41 0-.77-.04-1.13-.14-.23.16-.4.41-.4.7 0 .34.2.67 1.15.67h1.46c2.11 0 3.48 1.13 3.48 2.7 0 1.91-1.64 3.04-4.75 3.04-3.38 0-4.34-1.08-4.34-2.99h2.07c0 .95.41 1.37 2.3 1.37s2.39-.5 2.39-1.26c0-.7-.56-1.13-1.62-1.13h-1.44c-1.91 0-2.72-.85-2.72-1.84 0-.67.41-1.33 1.12-1.76-1.17-.61-1.67-1.46-1.67-2.68 0-2.07 1.64-3.42 3.94-3.42 2.25.05 3.29-.45 4.45-1.06l.58 1.84zm-6.64 2.61c0 1.15.63 1.87 1.69 1.87s1.69-.68 1.69-1.89-.58-1.8-1.73-1.8c-1.04 0-1.66.72-1.66 1.82zm15.41-.48v6.9h-2.3v-6.54c0-1.19-.47-1.53-1.17-1.53-.81 0-1.44.56-2 1.42v6.64h-2.3V86.53l2.3-.23v5.17c.74-.9 1.62-1.4 2.77-1.4 1.69 0 2.7 1.1 2.7 2.9zm7.72 6.44c-.68.49-1.55.72-2.39.72-1.87-.02-2.86-1.08-2.86-3.11v-5.02h-1.5v-1.66h1.5v-2.11l2.3-.27v2.38h2.21l-.23 1.66h-1.98v4.97c0 .94.31 1.31 1.01 1.31.36 0 .72-.11 1.13-.34l.81 1.48zm-185.5 88.8c0 5.04-3.08 6.28-6.05 6.28h-3.38v-12.44h3.06c3.28 0 6.37 1.01 6.37 6.16zm-7.06-4.38v8.88h1.17c1.85 0 3.38-.83 3.38-4.5s-1.62-4.38-3.46-4.38h-1.1zm16.62 6.61h-5.98c.18 1.95 1.08 2.58 2.34 2.58.85 0 1.55-.27 2.38-.85l.95 1.31c-.94.76-2.09 1.28-3.53 1.28-2.95 0-4.54-1.96-4.54-4.97s1.53-5.1 4.23-5.1 4.2 1.8 4.2 4.81c0 .31-.04.68-.05.94zm-2.23-1.6c0-1.57-.56-2.5-1.85-2.5-1.08 0-1.76.72-1.89 2.61h3.75v-.11zm10.38-3.01l-.9 1.35c-.79-.5-1.55-.77-2.39-.77-.92 0-1.44.38-1.44.95 0 .63.38.92 2 1.37 1.94.52 3.04 1.31 3.04 3.01 0 1.98-1.84 3.02-4.01 3.02-1.64 0-2.92-.56-3.8-1.35l1.15-1.3c.74.56 1.62.94 2.59.94 1.03 0 1.69-.43 1.69-1.15 0-.79-.38-1.04-2.16-1.55-1.96-.54-2.83-1.48-2.83-2.88 0-1.58 1.46-2.77 3.67-2.77 1.37 0 2.49.43 3.39 1.13zm8.71-.02l-1.03 1.39c-.63-.47-1.21-.68-1.93-.68-1.33 0-2.14.97-2.14 3.26s.85 3.12 2.14 3.12c.72 0 1.22-.23 1.93-.68l1.03 1.46c-.86.7-1.85 1.1-3.08 1.1-2.75 0-4.47-1.91-4.47-4.95s1.71-5.11 4.45-5.11c1.24 0 2.2.34 3.1 1.12zm8.8 4.63h-5.98c.18 1.95 1.08 2.58 2.34 2.58.85 0 1.55-.27 2.38-.85l.95 1.31c-.94.76-2.09 1.28-3.53 1.28-2.95 0-4.54-1.96-4.54-4.97s1.53-5.1 4.23-5.1 4.2 1.8 4.2 4.81c0 .31-.04.68-.05.94zm-2.23-1.6c0-1.57-.56-2.5-1.85-2.5-1.08 0-1.76.72-1.89 2.61h3.75v-.11zm11.74-1.25v6.9h-2.3v-6.54c0-1.19-.45-1.53-1.17-1.53-.83 0-1.44.56-2 1.44v6.63h-2.3v-9.53h2l.18 1.24c.74-.95 1.69-1.51 2.9-1.51 1.71 0 2.7 1.08 2.7 2.9zm10.19-6.44v13.34h-2.04l-.16-1.21c-.58.86-1.5 1.48-2.72 1.48-2.38 0-3.62-2-3.62-5.02s1.48-5.04 3.83-5.04c1.01 0 1.8.43 2.39 1.03v-4.83l2.3.25zm-2.3 10.64v-4.36c-.5-.61-1.04-1.01-1.82-1.01-1.19 0-1.98 1.01-1.98 3.29 0 2.45.7 3.29 1.84 3.29.85 0 1.42-.41 1.96-1.22zm12.43-1.35h-5.98c.18 1.95 1.08 2.58 2.34 2.58.85 0 1.55-.27 2.38-.85l.96 1.31c-.94.76-2.09 1.28-3.53 1.28-2.95 0-4.54-1.96-4.54-4.97s1.53-5.1 4.23-5.1 4.2 1.8 4.2 4.81c0 .31-.04.68-.05.94zm-2.23-1.6c0-1.57-.56-2.5-1.85-2.5-1.08 0-1.76.72-1.89 2.61h3.75v-.11zm9.61-4l-.4 2.23c-.29-.07-.5-.11-.85-.11-1.15 0-1.75.85-2.11 2.45v5.08h-2.3v-9.53h2l.22 1.87c.45-1.37 1.37-2.12 2.48-2.12.34 0 .65.04.95.13z" class="cls-2"/><path d="M59.86 110.87h687.2" class="cls-4"/><path d="M76.18 95.63l.59-23.83h95.6l.59 23.83h-3.26c-3.4-17.46-7.25-21.16-22.2-20.42h-15.84v69.56c-.15 20.42.89 22.2 12.58 22.35h4.74v3.4H99.85v-3.4h5.03c11.69-.15 12.88-1.92 12.58-22.35V75.21h-14.65c-16.13-.74-19.68 2.37-23.38 20.42h-3.26z" class="cls-1"/><path d="M206.56 126.12q3.11-6.96 3.11-8.14c0-2.07-2.81-3.7-6.96-3.7h-1.18v-3.4h21.02v3.4h-.74c-6.07.59-7.99 2.66-11.99 13.02l-26.64 64.08c-4.88 11.84-8.14 15.84-13.02 15.84-2.81 0-4.74-1.78-4.74-4.29 0-3.55 2.07-5.92 7.55-8.44 5.92-2.66 6.66-3.26 8.88-8.29l5.62-14.21-22.5-48.1c-3.7-7.99-5.03-9.32-10.36-9.62h-1.18v-3.4h27.38v3.4h-.74c-4.59.15-6.51 1.04-6.51 2.96q0 1.04 2.81 7.1l16.43 34.93 13.76-33.15z" class="cls-1"/><path d="M236.9 108.51c.74 2.07 1.48 7.1 1.33 9.77 6.07-6.36 13.47-9.77 21.31-9.77 16.87 0 28.86 13.02 28.86 31.38 0 19.39-12.43 33-30.04 33-7.84 0-13.32-2.37-20.13-8.88v22.79c-.3 15.98.15 16.87 8.88 17.02h.89v3.4h-31.23v-3.4h2.07c8.73-.15 9.03-.89 8.88-17.02v-54.17c.3-16.13-.15-16.87-8.88-17.17h-2.07v-3.4c4.29-.44 10.95-1.78 18.2-3.55h1.92zm1.33 50.76c5.48 6.66 11.1 9.77 17.61 9.77 5.03 0 10.06-2.37 13.91-6.51 4.29-4.74 6.51-12.58 6.51-22.94s-2.66-18.06-8.58-22.64c-3.4-2.81-7.25-4.14-11.4-4.14-6.81 0-12.28 3.11-18.06 10.21v36.26zm118.55-18.5c0 18.5-13.47 32.11-31.67 32.11-7.25 0-15.69-2.81-20.87-7.1-6.96-5.77-10.95-14.95-10.95-25.6 0-17.91 13.91-31.67 31.82-31.67s31.67 13.76 31.67 32.26zm-51.35 0c0 19.98 5.92 28.86 19.54 28.86s19.68-8.88 19.68-28.42-6.22-29.3-19.54-29.3-19.68 9.32-19.68 28.86zm113.66-31.67c4.29 0 7.4 2.66 7.4 6.07 0 2.66-1.92 4.74-4.29 4.74-1.63 0-3.11-1.04-4.14-2.96-1.48-2.22-1.92-2.66-3.4-2.66-1.78 0-4 1.33-6.22 3.7 2.52 4 3.85 8.14 3.85 12.58 0 8.44-4.29 15.69-11.54 19.39-4.44 2.37-8.29 3.26-15.84 3.4-10.66.44-15.39 2.37-15.39 6.36 0 2.22 1.63 3.4 5.48 4.29 2.37.59 4 .74 14.8 1.33 11.54.59 17.76 1.92 22.2 4.74 5.03 3.4 8.14 9.18 8.14 15.69 0 13.32-11.54 21.46-30.34 21.46s-30.04-7.55-30.04-18.5c0-6.22 3.55-10.06 9.03-10.06.74 0 1.18 0 2.07.3-3.26 3.7-4.59 6.81-4.59 10.51 0 9.03 9.32 14.8 23.98 14.8 13.76 0 22.5-5.92 22.5-15.24 0-5.33-2.52-9.18-7.4-11.25-3.85-1.63-6.66-2.07-16.87-2.52-18.06-.74-24.86-4-24.86-11.84 0-6.22 4.74-10.51 13.32-11.99-9.18-5.48-13.91-12.73-13.91-21.16 0-12.14 10.8-21.76 24.27-21.76 7.7 0 14.8 2.81 19.39 7.55 4-4.59 8.29-6.96 12.43-6.96zm-45.14 22.35c0 12.14 4.74 18.65 13.62 18.65s13.47-6.81 13.47-19.09c0-5.48-.74-9.47-2.22-12.14-2.37-4.29-6.81-6.96-11.54-6.96-8.58 0-13.32 6.96-13.32 19.54zm53.43-18.65c3.85-.44 11.84-2.37 17.91-4.29 1.33 3.4 2.22 8.88 2.37 15.24 3.55-8.88 11.54-15.24 19.09-15.24 5.48 0 10.21 4.14 10.21 9.03 0 2.96-2.22 5.18-4.88 5.18s-4.14-1.48-5.62-5.33c-.89-2.66-2.07-3.7-3.85-3.7-2.96 0-7.55 3.4-10.51 7.84-3.26 5.03-3.85 7.84-3.85 17.91v10.66c-.3 15.98.15 16.87 8.73 17.02h2.07v3.4h-31.67v-3.4h1.48c8.73-.15 9.03-.89 8.88-17.02v-16.87c.3-15.98-.15-16.87-8.88-17.17h-1.48v-3.26zm113.36 46.76c-.3 7.7-4.88 12.43-12.28 12.43-6.51 0-10.21-3.26-11.54-10.36-10.21 7.25-17.46 10.36-23.97 10.36-8.58 0-14.8-5.33-14.8-12.73 0-8.88 7.99-15.98 27.53-23.98l11.25-4.59v-2.96c0-6.07-.15-7.7-1.18-9.77-2.07-4.14-6.51-6.36-12.43-6.36-4.74 0-8.88 1.18-10.51 3.26-1.18 1.33-1.33 1.78-1.92 4.88-.59 4.29-2.81 6.66-5.92 6.66-2.66 0-4.44-1.78-4.44-4.29 0-2.66 1.92-5.62 5.18-8.29 4.59-3.55 10.95-5.33 19.09-5.33 10.06 0 16.87 2.96 20.57 8.73 1.78 2.96 2.07 4.88 2.07 12.14v24.12q0 8.44.59 10.06c.74 2.07 2.22 3.11 4 3.11 3.11 0 5.33-2.52 6.07-7.1h2.66zm-31.82-22.2c-12.28 5.03-18.65 11.4-18.65 19.09 0 6.07 3.55 10.21 8.58 10.21 4.44 0 10.95-3.26 18.05-9.03V134.1l-7.99 3.26z" class="cls-1"/><path d="M556.72 108.51c.74 2.07 1.48 7.1 1.33 9.77 6.07-6.36 13.47-9.77 21.31-9.77 16.87 0 28.86 13.02 28.86 31.38 0 19.39-12.43 33-30.04 33-7.84 0-13.32-2.37-20.13-8.88v22.79c-.3 15.98.15 16.87 8.88 17.02h.89v3.4h-31.23v-3.4h2.07c8.73-.15 9.03-.89 8.88-17.02v-54.17c.3-16.13-.15-16.87-8.88-17.17h-2.07v-3.4c4.29-.44 10.95-1.78 18.2-3.55h1.92zm1.33 50.76c5.48 6.66 11.1 9.77 17.61 9.77 5.03 0 10.06-2.37 13.91-6.51 4.29-4.74 6.51-12.58 6.51-22.94s-2.66-18.06-8.58-22.64c-3.4-2.81-7.25-4.14-11.4-4.14-6.81 0-12.28 3.11-18.06 10.21v36.26zm71.04-38.63c6.07-8.29 13.02-12.14 21.61-12.14 7.7 0 14.06 2.81 17.32 7.99 2.07 3.26 2.66 7.25 2.66 17.17v16.43c-.3 15.98.15 16.87 8.88 17.02h1.18v3.4h-30.78v-3.4h1.33c8.73-.15 9.03-.89 8.88-17.02v-17.91c0-8.29-.59-11.69-2.22-14.21-2.22-3.26-6.07-5.03-10.8-5.03-7.25 0-13.76 4.74-18.06 13.17v23.98c-.3 15.98.15 16.87 8.88 17.02h.59v3.4h-30.34v-3.4h1.48c4.44.15 6.51-.74 7.84-2.81.74-1.18.89-2.07.89-4.88.15-.74.15-2.22.15-4.74V90.6c.3-11.25-1.33-13.76-8.88-13.76h-1.04v-3.4c4.88.15 16.28-1.63 18.94-3.11h1.48v50.32z" class="cls-1"/><path d="M724.1 126.12q3.11-6.96 3.11-8.14c0-2.07-2.81-3.7-6.96-3.7h-1.18v-3.4h21.02v3.4h-.74c-6.07.59-7.99 2.66-11.99 13.02l-26.64 64.08c-4.88 11.84-8.14 15.84-13.02 15.84-2.81 0-4.74-1.78-4.74-4.29 0-3.55 2.07-5.92 7.55-8.44 5.92-2.66 6.66-3.26 8.88-8.29l5.62-14.21-22.5-48.1c-3.7-7.99-5.03-9.32-10.36-9.62h-1.18v-3.4h27.38v3.4h-.74c-4.59.15-6.51 1.04-6.51 2.96q0 1.04 2.81 7.1l16.43 34.93 13.76-33.15z" class="cls-1"/><path d="M59.86 71.25h687.2M181.77 56.8h166.85M181.77 222.79h166.85M59.86 207.22h687.2" class="cls-4"/><path d="M67.6 71.25v99.26" class="cls-3"/><circle cx="67.6" cy="71.25" r="2.26" class="cls-2"/><path d="M65.35 170.51c0 1.25 1.01 2.26 2.26 2.26s2.26-1.01 2.26-2.26-1.01-2.26-2.26-2.26-2.26 1.01-2.26 2.26z" class="cls-2"/><path d="M747.06 110.87v59.64" class="cls-3"/><circle cx="747.06" cy="110.87" r="2.26" class="cls-2"/><path d="M744.8 170.51c0 1.25 1.01 2.26 2.26 2.26s2.26-1.01 2.26-2.26-1.01-2.26-2.26-2.26-2.26 1.01-2.26 2.26z" class="cls-2"/><path d="M575.23 170.52v36.7" class="cls-3"/><circle cx="575.23" cy="170.52" r="2.26" class="cls-2"/><path d="M572.97 207.22c0 1.25 1.01 2.26 2.26 2.26s2.26-1.01 2.26-2.26-1.01-2.26-2.26-2.26-2.26 1.01-2.26 2.26z" class="cls-2"/><path d="M83.23 170.52v24.5" class="cls-3"/><circle cx="83.23" cy="170.52" r="2.26" class="cls-2"/><path d="M291.43 56.8v165.99" class="cls-3"/><circle cx="291.43" cy="56.8" r="2.26" class="cls-2"/><path d="M289.17 222.79c0 1.25 1.01 2.26 2.26 2.26s2.26-1.01 2.26-2.26-1.01-2.26-2.26-2.26-2.26 1.01-2.26 2.26zM529.92 94.71h-4.12l-.77 2.88h-2.47l3.87-12.44h2.93l3.85 12.44h-2.52l-.77-2.88zm-.47-1.8l-1.6-5.94-1.58 5.94h3.19zm11.11-3.98l-.9 1.35c-.79-.5-1.55-.77-2.39-.77-.92 0-1.44.38-1.44.95 0 .63.38.92 2 1.37 1.94.52 3.04 1.31 3.04 3.01 0 1.98-1.84 3.02-4.01 3.02-1.64 0-2.92-.56-3.8-1.35l1.15-1.3c.74.56 1.62.94 2.59.94 1.03 0 1.69-.43 1.69-1.15 0-.79-.38-1.04-2.16-1.55-1.96-.54-2.83-1.48-2.83-2.88 0-1.58 1.46-2.77 3.67-2.77 1.37 0 2.49.43 3.39 1.13zm8.71-.02l-1.03 1.39c-.63-.47-1.21-.68-1.93-.68-1.33 0-2.14.97-2.14 3.26s.85 3.11 2.14 3.11c.72 0 1.22-.23 1.93-.68l1.03 1.46c-.86.7-1.85 1.1-3.08 1.1-2.75 0-4.46-1.91-4.46-4.95s1.71-5.11 4.45-5.11c1.24 0 2.2.34 3.1 1.12zm8.8 4.63h-5.98c.18 1.94 1.08 2.57 2.34 2.57.85 0 1.55-.27 2.38-.85l.95 1.31c-.94.76-2.09 1.28-3.53 1.28-2.95 0-4.54-1.96-4.54-4.97s1.53-5.1 4.23-5.1 4.2 1.8 4.2 4.81c0 .31-.04.68-.05.94zm-2.23-1.6c0-1.57-.56-2.5-1.85-2.5-1.08 0-1.76.72-1.89 2.61h3.75v-.11zm11.74-1.24v6.9h-2.3v-6.54c0-1.19-.45-1.53-1.17-1.53-.83 0-1.44.56-2 1.44v6.63h-2.3v-9.52h2l.18 1.24c.74-.95 1.69-1.51 2.9-1.51 1.71 0 2.7 1.08 2.7 2.9zm10.18-6.45v13.34h-2.04l-.16-1.21c-.58.86-1.5 1.48-2.72 1.48-2.38 0-3.62-2-3.62-5.02s1.48-5.04 3.83-5.04c1.01 0 1.8.43 2.39 1.03V84l2.3.25zm-2.3 10.64v-4.36c-.5-.61-1.04-1.01-1.82-1.01-1.19 0-1.98 1.01-1.98 3.29 0 2.45.7 3.29 1.84 3.29.85 0 1.42-.41 1.96-1.22zm12.44-1.35h-5.98c.18 1.94 1.08 2.57 2.34 2.57.85 0 1.55-.27 2.38-.85l.96 1.31c-.94.76-2.09 1.28-3.53 1.28-2.95 0-4.54-1.96-4.54-4.97s1.53-5.1 4.23-5.1 4.2 1.8 4.2 4.81c0 .31-.04.68-.05.94zm-2.23-1.6c0-1.57-.56-2.5-1.85-2.5-1.08 0-1.76.72-1.89 2.61h3.75v-.11zm9.61-4l-.4 2.23c-.29-.07-.5-.11-.85-.11-1.15 0-1.75.85-2.11 2.45v5.08h-2.3v-9.52h2l.22 1.87c.45-1.37 1.37-2.12 2.48-2.12.34 0 .65.04.95.13zM308.4 89.11c0 2.86-2.07 4.14-4.88 4.14h-1.46v4.34h-2.38V85.15h3.67c3.13 0 5.04 1.28 5.04 3.96zm-2.48 0c0-1.57-.95-2.21-2.58-2.21h-1.28v4.57h1.28c1.58 0 2.58-.54 2.58-2.36zm11.79 3.71c0 3.01-1.67 5.04-4.48 5.04s-4.48-1.91-4.48-5.04 1.67-5.02 4.5-5.02 4.47 1.91 4.47 5.02zm-6.54 0c0 2.29.7 3.29 2.05 3.29s2.05-1.03 2.05-3.29-.7-3.28-2.03-3.28-2.07 1.03-2.07 3.28zm10.89-8.17c0 .77-.59 1.39-1.46 1.39s-1.44-.61-1.44-1.39.59-1.4 1.44-1.4 1.46.61 1.46 1.4zm-.29 12.95h-2.3v-9.52h2.3v9.52zm10.12-6.9v6.9h-2.3v-6.54c0-1.19-.45-1.53-1.17-1.53-.83 0-1.44.56-2 1.44v6.63h-2.3v-9.52h2l.18 1.24c.74-.95 1.69-1.51 2.9-1.51 1.71 0 2.7 1.08 2.7 2.9zm7.72 6.44c-.68.49-1.55.72-2.4.72-1.87-.02-2.86-1.08-2.86-3.11v-5.02h-1.49v-1.66h1.49v-2.11l2.3-.27v2.38h2.21l-.23 1.66h-1.98v4.97c0 .94.31 1.31 1.01 1.31.36 0 .72-.11 1.13-.34l.81 1.48zm11.47-8.21l-.9 1.35c-.79-.5-1.55-.77-2.39-.77-.92 0-1.44.38-1.44.95 0 .63.38.92 2 1.37 1.94.52 3.04 1.31 3.04 3.01 0 1.98-1.84 3.02-4.02 3.02-1.64 0-2.92-.56-3.8-1.35l1.15-1.3c.74.56 1.62.94 2.59.94 1.03 0 1.69-.43 1.69-1.15 0-.79-.38-1.04-2.16-1.55-1.96-.54-2.83-1.48-2.83-2.88 0-1.58 1.46-2.77 3.67-2.77 1.37 0 2.48.43 3.39 1.13zm4.34-4.28c0 .77-.59 1.39-1.46 1.39s-1.44-.61-1.44-1.39.59-1.4 1.44-1.4 1.46.61 1.46 1.4zm-.29 12.95h-2.3v-9.52h2.3v9.52zm8.57-7.88l-4.61 6.07h4.7l-.23 1.8h-7.11v-1.66l4.63-6.07h-4.23v-1.8h6.86v1.66zm9.07 3.82h-5.98c.18 1.94 1.08 2.57 2.34 2.57.85 0 1.55-.27 2.38-.85l.95 1.31c-.94.76-2.09 1.28-3.53 1.28-2.95 0-4.54-1.96-4.54-4.97s1.53-5.1 4.23-5.1 4.2 1.8 4.2 4.81c0 .31-.04.68-.05.94zm-2.23-1.6c0-1.57-.56-2.5-1.85-2.5-1.08 0-1.76.72-1.89 2.61h3.75v-.11z" class="cls-2"/><path d="M600.66 71.47v38.86" class="cls-3"/><path d="M598.4 71.47c0-1.25 1.01-2.26 2.26-2.26s2.26 1.01 2.26 2.26-1.01 2.26-2.26 2.26-2.26-1.01-2.26-2.26zm0 38.86c0 1.25 1.01 2.26 2.26 2.26s2.26-1.01 2.26-2.26-1.01-2.26-2.26-2.26-2.26 1.01-2.26 2.26z" class="cls-2"/></svg>