<svg xmlns="http://www.w3.org/2000/svg" id="Layer_1" viewBox="0 0 1627.77 1228.28" width="1627.77" height="1228.28"><defs><style>.cls-1{fill:#ec1c24}.cls-2{fill:#00a651}.cls-3{fill:#231f20}.cls-4{fill:#2997ff}.cls-5{stroke:#fff;stroke-linecap:round;stroke-linejoin:round;stroke-width:10px}.cls-5,.cls-6,.cls-7,.cls-8{fill:none}.cls-6{stroke:#00a651;stroke-width:2px}.cls-6,.cls-7,.cls-8{stroke-miterlimit:10}.cls-7{stroke:#000}.cls-8{stroke:#ed1c24}</style></defs><path d="M821.72 299.36h810v630h-810z" class="cls-8" transform="rotate(90 1226.72 614.36)"/><path d="M920.72 218.36h612v792h-612z" class="cls-6"/><path d="M1161.39 258.53c0 4.62-4.07 8.23-10.5 8.23s-10.25-3.57-10.25-8.15c0-3.44 2.02-5.71 5.38-7.14-3.03-1.64-4.24-3.91-4.24-6.68 0-4.62 4.2-7.44 9.24-7.44s9.24 2.52 9.24 7.23c0 2.6-1.47 4.75-4.66 6.39 3.87 1.72 5.8 4.2 5.8 7.56zm-5.46 0c0-2.65-1.39-3.82-5.17-5.21l-1.3-.46c-2.27 1.22-3.4 3.02-3.4 5.59 0 2.69 1.93 4.33 4.96 4.33s4.92-1.81 4.92-4.24zm-8.95-13.65c0 2.39 1.51 3.44 4.24 4.45l.8.29c2.23-1.39 3.02-2.77 3.02-4.79 0-2.23-1.39-3.7-4.03-3.7-2.44 0-4.03 1.26-4.03 3.74zm24.36 18.48c0 1.85-1.51 3.4-3.44 3.4s-3.36-1.55-3.36-3.4 1.47-3.4 3.36-3.4 3.44 1.51 3.44 3.4zm20.5-21.51h-10.59v7.02c1.43-.71 2.9-1.05 4.29-1.05 4.7 0 8.11 3.36 8.11 9.12s-4.16 9.83-10.54 9.83c-3.95 0-6.72-1.6-8.91-3.99l3.07-2.86c1.55 1.72 3.36 2.69 5.71 2.69 3.15 0 5.12-2.02 5.12-5.67 0-3.91-1.93-5.25-4.54-5.25-1.3 0-2.35.29-3.66.97h-3.82v-14.79h16.38l-.63 3.99zm7.85-4.75h5.17l-4.92 11.38h-3.74l3.49-11.38zm7.31 0h5.17l-4.96 11.38h-3.7l3.49-11.38zm36.67 11.13l-4.96 4.91 4.96 5.08-3.07 3.07-4.92-5.12-5.08 5.12-3.07-3.07 4.96-4.87-4.96-5.12 3.07-3.07 4.92 5.17 5.08-5.17 3.07 3.07zm28.05 17.9h-5.29v-22.85l-6.3 3.82-2.35-3.61 9.2-5.63h4.75v28.27zm18.23 0h-5.29v-22.85l-6.3 3.82-2.35-3.61 9.2-5.63h4.75v28.27zm9.7-29.03h5.17l-4.92 11.38h-3.74l3.49-11.38zm7.31 0h5.17l-4.96 11.38h-3.7l3.49-11.38z" class="cls-2"/><path d="M1387.33 192.33c0 6.3-2.3 9.83-6.75 9.83s-6.75-3.53-6.75-9.83 2.32-9.77 6.75-9.77 6.75 3.5 6.75 9.77zm-9.8 0c0 5.26.98 7.11 3.05 7.11s3.05-1.79 3.05-7.11-.98-7.06-3.05-7.06-3.05 1.85-3.05 7.06zm16.35 7.56c0 1.23-1.01 2.27-2.3 2.27s-2.24-1.04-2.24-2.27.98-2.27 2.24-2.27 2.3 1.01 2.3 2.27zm8.23 1.85h-3.53v-15.23l-4.2 2.55-1.57-2.41 6.13-3.75h3.16v18.84zm15.32-13.89c0 3.19-1.82 5.52-7.64 11.06h8.06l-.39 2.83h-11.73v-2.63c6.44-6.55 8.01-8.32 8.01-10.98 0-1.74-1.09-2.74-2.72-2.74-1.48 0-2.46.62-3.64 1.99l-2.18-1.74c1.51-1.96 3.5-3.08 6.1-3.08 3.89 0 6.13 2.35 6.13 5.29zm13.83-2.29h-7.06v4.68c.95-.48 1.93-.7 2.86-.7 3.14 0 5.4 2.24 5.4 6.08s-2.77 6.55-7.03 6.55c-2.63 0-4.48-1.06-5.94-2.66l2.04-1.9c1.04 1.15 2.24 1.79 3.81 1.79 2.1 0 3.42-1.34 3.42-3.78 0-2.6-1.29-3.5-3.02-3.5-.87 0-1.57.2-2.44.64h-2.55v-9.86h10.92l-.42 2.66zm5.23-3.17h3.44l-3.28 7.59h-2.49l2.32-7.59zm4.87 0h3.44l-3.3 7.59h-2.46l2.32-7.59zm28.12 13.78c0 4.26-3.39 5.57-8.09 5.57h-5.82v-19.35h5.07c4.98 0 8.01 1.4 8.01 4.93 0 2.41-1.74 3.78-3.58 4.17 2.21.42 4.42 1.46 4.42 4.68zm-10.22-11.06v5.24h2.27c2.02 0 3.33-.9 3.33-2.72 0-1.96-1.34-2.52-3.86-2.52h-1.74zm6.36 10.92c0-2.32-1.65-3.11-3.81-3.11h-2.55v6.05h2.16c2.44 0 4.2-.5 4.2-2.94zm6.77 2.32v-17.36l3.58-.39v17.64c0 .7.22 1.04.84 1.04.31 0 .59-.06.81-.14l.78 2.52c-.62.28-1.48.5-2.41.5-2.27 0-3.61-1.37-3.61-3.81zm20.47-2.91h-9.3c.28 3.02 1.68 4 3.64 4 1.32 0 2.41-.42 3.7-1.32l1.48 2.04c-1.46 1.18-3.25 1.99-5.49 1.99-4.59 0-7.06-3.05-7.06-7.73s2.38-7.92 6.58-7.92 6.52 2.8 6.52 7.48c0 .48-.06 1.06-.08 1.46zm-3.47-2.49c0-2.44-.87-3.89-2.88-3.89-1.68 0-2.74 1.12-2.94 4.06h5.82v-.17zm18.84 2.49h-9.3c.28 3.02 1.68 4 3.64 4 1.32 0 2.41-.42 3.7-1.32l1.48 2.04c-1.46 1.18-3.25 1.99-5.49 1.99-4.59 0-7.06-3.05-7.06-7.73s2.38-7.92 6.58-7.92 6.52 2.8 6.52 7.48c0 .48-.06 1.06-.08 1.46zm-3.47-2.49c0-2.44-.87-3.89-2.88-3.89-1.68 0-2.74 1.12-2.94 4.06h5.82v-.17zm19.09-11.96v20.75h-3.16l-.25-1.88c-.9 1.34-2.32 2.3-4.23 2.3-3.7 0-5.63-3.11-5.63-7.81s2.3-7.84 5.96-7.84c1.57 0 2.8.67 3.72 1.6v-7.5l3.58.39zm-3.58 16.55v-6.78c-.78-.95-1.62-1.57-2.83-1.57-1.85 0-3.08 1.57-3.08 5.12 0 3.81 1.09 5.12 2.86 5.12 1.32 0 2.21-.64 3.05-1.9z" class="cls-1"/><path d="M938.5 196.95c0 2.92-1.35 5.06-3.76 5.06-.97 0-1.8-.34-2.39-1.04v4.45l-2.3.25v-13.45h2.02l.13 1.17c.76-.99 1.76-1.44 2.79-1.44 2.48 0 3.53 1.96 3.53 5.01zm-2.41.02c0-2.41-.65-3.29-1.8-3.29-.81 0-1.49.56-1.94 1.3v4.29c.45.67 1.03.99 1.75.99 1.26 0 2-.97 2-3.28zm12.16 3.47l-.49 1.53c-1.06-.09-1.75-.45-2.11-1.39-.68 1.01-1.71 1.42-2.86 1.42-1.89 0-3.06-1.21-3.06-2.94 0-2.07 1.55-3.19 4.32-3.19h1.21v-.54c0-1.24-.56-1.66-1.78-1.66-.65 0-1.57.18-2.54.5l-.52-1.57c1.17-.45 2.38-.68 3.44-.68 2.56 0 3.67 1.17 3.67 3.28v4c0 .77.25 1.04.72 1.22zm-2.99-1.28v-1.93h-.95c-1.49 0-2.23.54-2.23 1.66 0 .92.47 1.44 1.35 1.44.79 0 1.4-.41 1.84-1.17zm10.68-7.07l-.4 2.23c-.29-.07-.5-.11-.85-.11-1.15 0-1.75.85-2.11 2.45v5.08h-2.3v-9.52h2l.22 1.87c.45-1.37 1.37-2.12 2.48-2.12.34 0 .65.04.95.13zm8.73 8.35l-.49 1.53c-1.06-.09-1.75-.45-2.11-1.39-.68 1.01-1.71 1.42-2.86 1.42-1.89 0-3.06-1.21-3.06-2.94 0-2.07 1.55-3.19 4.32-3.19h1.21v-.54c0-1.24-.56-1.66-1.78-1.66-.65 0-1.57.18-2.54.5l-.52-1.57c1.17-.45 2.38-.68 3.44-.68 2.56 0 3.67 1.17 3.67 3.28v4c0 .77.25 1.04.72 1.22zm-2.99-1.28v-1.93h-.95c-1.49 0-2.23.54-2.23 1.66 0 .92.47 1.44 1.35 1.44.79 0 1.4-.41 1.84-1.17zm12.98-10.76v13.34h-2.03l-.16-1.21c-.58.86-1.49 1.48-2.72 1.48-2.38 0-3.62-2-3.62-5.02s1.48-5.04 3.83-5.04c1.01 0 1.8.43 2.39 1.03v-4.83l2.3.25zm-2.3 10.64v-4.36c-.5-.61-1.04-1.01-1.82-1.01-1.19 0-1.98 1.01-1.98 3.29 0 2.45.7 3.29 1.84 3.29.85 0 1.42-.41 1.96-1.22zm7.59-10.25c0 .77-.59 1.39-1.46 1.39s-1.44-.61-1.44-1.39.59-1.4 1.44-1.4 1.46.61 1.46 1.4zm-.29 12.95h-2.3v-9.52h2.3v9.52zm9.13-8.66l-.9 1.35c-.79-.5-1.55-.77-2.39-.77-.92 0-1.44.38-1.44.95 0 .63.38.92 2 1.37 1.94.52 3.04 1.31 3.04 3.01 0 1.98-1.84 3.02-4.01 3.02-1.64 0-2.92-.56-3.8-1.35l1.15-1.3c.74.56 1.62.94 2.59.94 1.03 0 1.69-.43 1.69-1.15 0-.79-.38-1.04-2.16-1.55-1.96-.54-2.83-1.48-2.83-2.88 0-1.58 1.46-2.77 3.67-2.77 1.37 0 2.48.43 3.38 1.13zm1.51 2.11h5.44v1.84h-5.44v-1.84zm15.17 5.25l-.49 1.53c-1.06-.09-1.75-.45-2.11-1.39-.68 1.01-1.71 1.42-2.86 1.42-1.89 0-3.06-1.21-3.06-2.94 0-2.07 1.55-3.19 4.32-3.19h1.21v-.54c0-1.24-.56-1.66-1.78-1.66-.65 0-1.57.18-2.54.5l-.52-1.57c1.17-.45 2.38-.68 3.44-.68 2.56 0 3.67 1.17 3.67 3.28v4c0 .77.25 1.04.72 1.22zm-2.99-1.28v-1.93h-.95c-1.49 0-2.23.54-2.23 1.66 0 .92.47 1.44 1.35 1.44.79 0 1.4-.41 1.84-1.17zm4.79.4V188.4l2.3-.25v11.34c0 .45.14.67.54.67.2 0 .38-.04.52-.09l.5 1.62c-.4.18-.95.32-1.55.32-1.46 0-2.32-.88-2.32-2.45zm13.11.88l-.49 1.53c-1.06-.09-1.75-.45-2.11-1.39-.68 1.01-1.71 1.42-2.86 1.42-1.89 0-3.06-1.21-3.06-2.94 0-2.07 1.55-3.19 4.32-3.19h1.21v-.54c0-1.24-.56-1.66-1.78-1.66-.65 0-1.57.18-2.54.5l-.52-1.57c1.17-.45 2.38-.68 3.44-.68 2.56 0 3.67 1.17 3.67 3.28v4c0 .77.25 1.04.72 1.22zm-2.99-1.28v-1.93h-.95c-1.49 0-2.23.54-2.23 1.66 0 .92.47 1.44 1.35 1.44.79 0 1.4-.41 1.84-1.17zm7.61-10.37c0 .77-.59 1.39-1.46 1.39s-1.44-.61-1.44-1.39.59-1.4 1.44-1.4 1.46.61 1.46 1.4zm-.29 12.95h-2.3v-9.52h2.3v9.52zm10.48-6.9v6.9h-2.3v-6.54c0-1.19-.45-1.53-1.17-1.53-.83 0-1.44.56-2 1.44v6.63h-2.3v-9.52h2l.18 1.24c.74-.95 1.69-1.51 2.9-1.51 1.71 0 2.7 1.08 2.7 2.9zm2.18.35h5.44v1.84h-5.44v-1.84zm15.84.5c0 4.05-1.48 6.32-4.34 6.32s-4.34-2.27-4.34-6.32 1.49-6.28 4.34-6.28 4.34 2.25 4.34 6.28zm-6.3 0c0 3.38.63 4.57 1.96 4.57s1.96-1.15 1.96-4.57-.63-4.54-1.96-4.54-1.96 1.19-1.96 4.54zm13.1 6.05h-2.27v-9.79l-2.7 1.64-1.01-1.55 3.94-2.41h2.03v12.12zm11.2-6.05c0 4.05-1.48 6.32-4.34 6.32s-4.34-2.27-4.34-6.32 1.49-6.28 4.34-6.28 4.34 2.25 4.34 6.28zm-6.3 0c0 3.38.63 4.57 1.96 4.57s1.96-1.15 1.96-4.57-.63-4.54-1.96-4.54-1.96 1.19-1.96 4.54zm8.06-.5h5.44v1.84h-5.44v-1.84zm14.13-2.11l-.9 1.35c-.79-.5-1.55-.77-2.39-.77-.92 0-1.44.38-1.44.95 0 .63.38.92 2 1.37 1.95.52 3.04 1.31 3.04 3.01 0 1.98-1.84 3.02-4.01 3.02-1.64 0-2.92-.56-3.8-1.35l1.15-1.3c.74.56 1.62.94 2.59.94 1.03 0 1.69-.43 1.69-1.15 0-.79-.38-1.04-2.16-1.55-1.96-.54-2.83-1.48-2.83-2.88 0-1.58 1.46-2.77 3.67-2.77 1.37 0 2.48.43 3.38 1.13zm9.9 4.61h-5.98c.18 1.94 1.08 2.57 2.34 2.57.85 0 1.55-.27 2.38-.85l.95 1.31c-.94.76-2.09 1.28-3.53 1.28-2.95 0-4.54-1.96-4.54-4.97s1.53-5.1 4.23-5.1 4.2 1.8 4.2 4.81c0 .31-.04.68-.05.94zm-2.23-1.6c0-1.57-.56-2.5-1.85-2.5-1.08 0-1.76.72-1.89 2.61h3.75v-.11zm4.21 3.47V188.4l2.3-.25v11.34c0 .45.14.67.54.67.2 0 .38-.04.52-.09l.5 1.62c-.4.18-.95.32-1.55.32-1.46 0-2.32-.88-2.32-2.45zm5.35 0V188.4l2.3-.25v11.34c0 .45.14.67.54.67.2 0 .38-.04.52-.09l.5 1.62c-.4.18-.95.32-1.55.32-1.46 0-2.32-.88-2.32-2.45zm4.86-4.37h5.44v1.84h-5.44v-1.84zm14.13-2.11l-.9 1.35c-.79-.5-1.55-.77-2.39-.77-.92 0-1.44.38-1.44.95 0 .63.38.92 2 1.37 1.95.52 3.04 1.31 3.04 3.01 0 1.98-1.84 3.02-4.01 3.02-1.64 0-2.92-.56-3.8-1.35l1.15-1.3c.74.56 1.62.94 2.59.94 1.03 0 1.69-.43 1.69-1.15 0-.79-.38-1.04-2.16-1.55-1.96-.54-2.83-1.48-2.83-2.88 0-1.58 1.46-2.77 3.67-2.77 1.37 0 2.48.43 3.38 1.13zm9.88 1.76v6.9h-2.3v-6.54c0-1.19-.47-1.53-1.17-1.53-.81 0-1.44.56-2 1.42v6.64h-2.3v-13.32l2.3-.23v5.17c.74-.9 1.62-1.4 2.77-1.4 1.69 0 2.7 1.1 2.7 2.9zm10.39 2.85h-5.98c.18 1.94 1.08 2.57 2.34 2.57.85 0 1.55-.27 2.38-.85l.95 1.31c-.94.76-2.09 1.28-3.53 1.28-2.95 0-4.54-1.96-4.54-4.97s1.53-5.1 4.23-5.1 4.2 1.8 4.2 4.81c0 .31-.04.68-.05.94zm-2.23-1.6c0-1.57-.56-2.5-1.85-2.5-1.08 0-1.76.72-1.89 2.61h3.75v-.11zm12.11 1.6h-5.98c.18 1.94 1.08 2.57 2.34 2.57.85 0 1.55-.27 2.38-.85l.95 1.31c-.94.76-2.09 1.28-3.53 1.28-2.95 0-4.54-1.96-4.54-4.97s1.53-5.1 4.23-5.1 4.2 1.8 4.2 4.81c0 .31-.04.68-.05.94zm-2.23-1.6c0-1.57-.56-2.5-1.85-2.5-1.08 0-1.76.72-1.89 2.61h3.75v-.11zm9.81 5.2c-.68.49-1.55.72-2.39.72-1.87-.02-2.86-1.08-2.86-3.11v-5.02h-1.5v-1.66h1.5v-2.11l2.3-.27v2.38h2.21l-.23 1.66h-1.98v4.97c0 .94.31 1.31 1.01 1.31.36 0 .72-.11 1.13-.34l.81 1.48zm3.63-.74c0 .79-.65 1.46-1.48 1.46s-1.44-.67-1.44-1.46.63-1.46 1.44-1.46 1.48.65 1.48 1.46zm10.51-3.6c0 2.92-1.35 5.06-3.76 5.06-.97 0-1.8-.34-2.39-1.04v4.45l-2.3.25v-13.45h2.02l.13 1.17c.76-.99 1.76-1.44 2.79-1.44 2.48 0 3.53 1.96 3.53 5.01zm-2.41.02c0-2.41-.65-3.29-1.8-3.29-.81 0-1.49.56-1.94 1.3v4.29c.45.67 1.03.99 1.75.99 1.26 0 2-.97 2-3.28zm12.51-8.57v13.34h-2.03l-.16-1.21c-.58.86-1.49 1.48-2.72 1.48-2.38 0-3.62-2-3.62-5.02s1.48-5.04 3.83-5.04c1.01 0 1.8.43 2.39 1.03v-4.83l2.3.25zm-2.3 10.64v-4.36c-.5-.61-1.04-1.01-1.82-1.01-1.19 0-1.98 1.01-1.98 3.29 0 2.45.7 3.29 1.84 3.29.85 0 1.42-.41 1.96-1.22zm7.61-7.83v1.01h2.29l-.25 1.66h-2.04v7.87h-2.3v-7.87h-1.55v-1.66h1.55v-1.04c0-1.73 1.15-3.02 3.35-3.02.95 0 1.73.22 2.47.56l-.67 1.55a3.71 3.71 0 0 0-1.57-.36c-.94 0-1.28.41-1.28 1.31z" class="cls-3"/><path d="M1205.51 52.25c0 6.39-5.08 8.36-12.14 8.36h-8.74V31.58h7.6c7.48 0 12.01 2.1 12.01 7.39 0 3.61-2.6 5.67-5.38 6.26 3.32.63 6.64 2.18 6.64 7.02zm-15.33-16.59v7.86h3.4c3.02 0 5-1.34 5-4.07 0-2.94-2.02-3.78-5.8-3.78h-2.6zm9.54 16.38c0-3.49-2.48-4.66-5.71-4.66h-3.82v9.07h3.24c3.65 0 6.3-.76 6.3-4.41zm28.47 5.55l-1.13 3.57c-2.48-.21-4.07-1.05-4.91-3.23-1.6 2.35-3.99 3.32-6.68 3.32-4.41 0-7.14-2.81-7.14-6.85 0-4.83 3.61-7.44 10.08-7.44h2.81V45.7c0-2.9-1.3-3.86-4.16-3.86-1.51 0-3.66.42-5.92 1.18l-1.22-3.65c2.73-1.05 5.54-1.6 8.02-1.6 5.96 0 8.57 2.73 8.57 7.65v9.33c0 1.81.59 2.44 1.68 2.86zm-6.97-2.98v-4.5h-2.23c-3.49 0-5.21 1.26-5.21 3.86 0 2.14 1.09 3.36 3.15 3.36 1.85 0 3.28-.97 4.28-2.73zm27.97-14.25l-2.39 3.23c-1.47-1.09-2.81-1.6-4.49-1.6-3.11 0-5 2.27-5 7.6s1.97 7.27 5 7.27c1.68 0 2.86-.55 4.49-1.6l2.39 3.4c-2.02 1.64-4.33 2.56-7.18 2.56-6.43 0-10.42-4.45-10.42-11.55s3.99-11.93 10.38-11.93c2.9 0 5.12.8 7.22 2.6zm9.2 20.25h-5.38V29.48l5.38-.59v31.72zm5.92-12.43l8.11 12.43h-6.17l-7.65-12.14 7.44-10.08h5.67l-7.39 9.79z" class="cls-4"/><path d="M920.72 209.36v-46.22m-9 55.22H865.5m46.22 792H865.5m722.44-792h-46.22m46.22 792h-46.22m-9-801v-46.22m-612 902.44v-46.22m612 46.22v-46.22" class="cls-7"/><path d="M1623.58 4.36v1220h-788V4.36h788m2-2h-792v1224h792V2.36z" class="cls-4"/><path d="M-10.3 299.36h810v630h-810z" class="cls-8" transform="rotate(90 394.7 614.36)"/><path d="M88.7 218.36h612v792h-612z" class="cls-6"/><path d="M329.37 258.53c0 4.62-4.07 8.23-10.5 8.23s-10.25-3.57-10.25-8.15c0-3.44 2.02-5.71 5.38-7.14-3.03-1.64-4.24-3.91-4.24-6.68 0-4.62 4.2-7.44 9.24-7.44s9.24 2.52 9.24 7.23c0 2.6-1.47 4.75-4.66 6.39 3.87 1.72 5.8 4.2 5.8 7.56zm-5.46 0c0-2.65-1.39-3.82-5.17-5.21l-1.3-.46c-2.27 1.22-3.4 3.02-3.4 5.59 0 2.69 1.93 4.33 4.96 4.33s4.92-1.81 4.92-4.24zm-8.95-13.65c0 2.39 1.51 3.44 4.24 4.45l.8.29c2.23-1.39 3.02-2.77 3.02-4.79 0-2.23-1.39-3.7-4.03-3.7-2.44 0-4.03 1.26-4.03 3.74zm24.36 18.48c0 1.85-1.51 3.4-3.44 3.4s-3.36-1.55-3.36-3.4 1.47-3.4 3.36-3.4 3.44 1.51 3.44 3.4zm20.5-21.51h-10.59v7.02c1.43-.71 2.9-1.05 4.29-1.05 4.7 0 8.11 3.36 8.11 9.12s-4.16 9.83-10.54 9.83c-3.95 0-6.72-1.6-8.91-3.99l3.07-2.86c1.55 1.72 3.36 2.69 5.71 2.69 3.15 0 5.12-2.02 5.12-5.67 0-3.91-1.93-5.25-4.54-5.25-1.3 0-2.35.29-3.66.97h-3.82v-14.79h16.38l-.63 3.99zm7.85-4.75h5.17l-4.92 11.38h-3.74l3.49-11.38zm7.31 0h5.17l-4.96 11.38h-3.7l3.49-11.38zm36.67 11.13l-4.96 4.91 4.96 5.08-3.07 3.07-4.92-5.12-5.08 5.12-3.07-3.07 4.96-4.87-4.96-5.12 3.07-3.07 4.92 5.17 5.08-5.17 3.07 3.07zm28.05 17.9h-5.29v-22.85l-6.3 3.82-2.35-3.61 9.2-5.63h4.75v28.27zm18.23 0h-5.29v-22.85l-6.3 3.82-2.35-3.61 9.2-5.63h4.75v28.27zm9.7-29.03h5.17l-4.92 11.38h-3.74l3.49-11.38zm7.31 0h5.17l-4.96 11.38h-3.7l3.49-11.38z" class="cls-2"/><path d="M555.31 192.33c0 6.3-2.3 9.83-6.75 9.83s-6.75-3.53-6.75-9.83 2.32-9.77 6.75-9.77 6.75 3.5 6.75 9.77zm-9.8 0c0 5.26.98 7.11 3.05 7.11s3.05-1.79 3.05-7.11-.98-7.06-3.05-7.06-3.05 1.85-3.05 7.06zm16.35 7.56c0 1.23-1.01 2.27-2.3 2.27s-2.24-1.04-2.24-2.27.98-2.27 2.24-2.27 2.3 1.01 2.3 2.27zm8.23 1.85h-3.53v-15.23l-4.2 2.55-1.57-2.41 6.13-3.75h3.16v18.84zm15.32-13.89c0 3.19-1.82 5.52-7.64 11.06h8.06l-.39 2.83h-11.73v-2.63c6.44-6.55 8.01-8.32 8.01-10.98 0-1.74-1.09-2.74-2.72-2.74-1.48 0-2.46.62-3.64 1.99l-2.18-1.74c1.51-1.96 3.5-3.08 6.1-3.08 3.89 0 6.13 2.35 6.13 5.29zm13.83-2.29h-7.06v4.68c.95-.48 1.93-.7 2.86-.7 3.14 0 5.4 2.24 5.4 6.08s-2.77 6.55-7.03 6.55c-2.63 0-4.48-1.06-5.94-2.66l2.04-1.9c1.04 1.15 2.24 1.79 3.81 1.79 2.1 0 3.42-1.34 3.42-3.78 0-2.6-1.29-3.5-3.02-3.5-.87 0-1.57.2-2.44.64h-2.55v-9.86h10.92l-.42 2.66zm5.23-3.17h3.44l-3.28 7.59h-2.49l2.32-7.59zm4.87 0h3.44l-3.3 7.59h-2.46l2.32-7.59zm28.12 13.78c0 4.26-3.39 5.57-8.09 5.57h-5.82v-19.35h5.07c4.98 0 8.01 1.4 8.01 4.93 0 2.41-1.74 3.78-3.58 4.17 2.21.42 4.42 1.46 4.42 4.68zm-10.22-11.06v5.24h2.27c2.02 0 3.33-.9 3.33-2.72 0-1.96-1.34-2.52-3.86-2.52h-1.74zm6.36 10.92c0-2.32-1.65-3.11-3.81-3.11h-2.55v6.05h2.16c2.44 0 4.2-.5 4.2-2.94zm6.77 2.32v-17.36l3.58-.39v17.64c0 .7.22 1.04.84 1.04.31 0 .59-.06.81-.14l.78 2.52c-.62.28-1.48.5-2.41.5-2.27 0-3.61-1.37-3.61-3.81zm20.47-2.91h-9.3c.28 3.02 1.68 4 3.64 4 1.32 0 2.41-.42 3.7-1.32l1.48 2.04c-1.46 1.18-3.25 1.99-5.49 1.99-4.59 0-7.06-3.05-7.06-7.73s2.38-7.92 6.58-7.92 6.52 2.8 6.52 7.48c0 .48-.06 1.06-.08 1.46zm-3.47-2.49c0-2.44-.87-3.89-2.88-3.89-1.68 0-2.74 1.12-2.94 4.06h5.82v-.17zm18.84 2.49h-9.3c.28 3.02 1.68 4 3.64 4 1.32 0 2.41-.42 3.7-1.32l1.48 2.04c-1.46 1.18-3.25 1.99-5.49 1.99-4.59 0-7.06-3.05-7.06-7.73s2.38-7.92 6.58-7.92 6.52 2.8 6.52 7.48c0 .48-.06 1.06-.08 1.46zm-3.47-2.49c0-2.44-.87-3.89-2.88-3.89-1.68 0-2.74 1.12-2.94 4.06h5.82v-.17zm19.1-11.96v20.75h-3.16l-.25-1.88c-.9 1.34-2.32 2.3-4.23 2.3-3.7 0-5.63-3.11-5.63-7.81s2.3-7.84 5.96-7.84c1.57 0 2.8.67 3.72 1.6v-7.5l3.58.39zm-3.58 16.55v-6.78c-.78-.95-1.62-1.57-2.83-1.57-1.85 0-3.08 1.57-3.08 5.12 0 3.81 1.09 5.12 2.86 5.12 1.32 0 2.21-.64 3.05-1.9z" class="cls-1"/><path d="M106.48 1032.04c0 2.92-1.35 5.06-3.76 5.06-.97 0-1.8-.34-2.39-1.04v4.45l-2.3.25v-13.45h2.02l.13 1.17c.76-.99 1.76-1.44 2.79-1.44 2.48 0 3.53 1.96 3.53 5.01zm-2.41.02c0-2.41-.65-3.29-1.8-3.29-.81 0-1.49.56-1.94 1.3v4.29c.45.67 1.03.99 1.75.99 1.26 0 2-.97 2-3.28zm12.16 3.47l-.49 1.53c-1.06-.09-1.75-.45-2.11-1.39-.68 1.01-1.71 1.42-2.86 1.42-1.89 0-3.06-1.21-3.06-2.94 0-2.07 1.55-3.19 4.32-3.19h1.21v-.54c0-1.24-.56-1.66-1.78-1.66-.65 0-1.57.18-2.54.5l-.52-1.57c1.17-.45 2.38-.68 3.44-.68 2.56 0 3.67 1.17 3.67 3.28v4c0 .77.25 1.04.72 1.22zm-2.99-1.28v-1.93h-.95c-1.49 0-2.23.54-2.23 1.66 0 .92.47 1.44 1.35 1.44.79 0 1.4-.41 1.84-1.17zm10.68-7.07l-.4 2.23c-.29-.07-.5-.11-.85-.11-1.15 0-1.75.85-2.11 2.45v5.08h-2.3v-9.52h2l.22 1.87c.45-1.37 1.37-2.12 2.48-2.12.34 0 .65.04.95.13zm8.73 8.35l-.49 1.53c-1.06-.09-1.75-.45-2.11-1.39-.68 1.01-1.71 1.42-2.86 1.42-1.89 0-3.06-1.21-3.06-2.94 0-2.07 1.55-3.19 4.32-3.19h1.21v-.54c0-1.24-.56-1.66-1.78-1.66-.65 0-1.57.18-2.54.5l-.52-1.57c1.17-.45 2.38-.68 3.44-.68 2.56 0 3.67 1.17 3.67 3.28v4c0 .77.25 1.04.72 1.22zm-2.99-1.28v-1.93h-.95c-1.49 0-2.23.54-2.23 1.66 0 .92.47 1.44 1.35 1.44.79 0 1.4-.41 1.84-1.17zm12.98-10.76v13.34h-2.03l-.16-1.21c-.58.86-1.49 1.48-2.72 1.48-2.38 0-3.62-2-3.62-5.02s1.48-5.04 3.83-5.04c1.01 0 1.8.43 2.39 1.03v-4.83l2.3.25zm-2.3 10.64v-4.36c-.5-.61-1.04-1.01-1.82-1.01-1.19 0-1.98 1.01-1.98 3.29 0 2.45.7 3.29 1.84 3.29.85 0 1.42-.41 1.96-1.22zm7.59-10.25c0 .77-.59 1.39-1.46 1.39s-1.44-.61-1.44-1.39.59-1.4 1.44-1.4 1.46.61 1.46 1.4zm-.29 12.95h-2.3v-9.52h2.3v9.52zm9.13-8.66l-.9 1.35c-.79-.5-1.55-.77-2.39-.77-.92 0-1.44.38-1.44.95 0 .63.38.92 2 1.37 1.94.52 3.04 1.31 3.04 3.01 0 1.98-1.84 3.03-4.01 3.03-1.64 0-2.92-.56-3.8-1.35l1.15-1.3c.74.56 1.62.94 2.59.94 1.03 0 1.69-.43 1.69-1.15 0-.79-.38-1.04-2.16-1.55-1.96-.54-2.83-1.48-2.83-2.88 0-1.58 1.46-2.77 3.67-2.77 1.37 0 2.48.43 3.38 1.13zm1.51 2.11h5.44v1.84h-5.44v-1.84zm15.18 5.25l-.49 1.53c-1.06-.09-1.75-.45-2.11-1.39-.68 1.01-1.71 1.42-2.86 1.42-1.89 0-3.06-1.21-3.06-2.94 0-2.07 1.55-3.19 4.32-3.19h1.21v-.54c0-1.24-.56-1.66-1.78-1.66-.65 0-1.57.18-2.54.5l-.52-1.57c1.17-.45 2.38-.68 3.44-.68 2.56 0 3.67 1.17 3.67 3.28v4c0 .77.25 1.04.72 1.22zm-2.99-1.28v-1.93h-.95c-1.49 0-2.23.54-2.23 1.66 0 .92.47 1.44 1.35 1.44.79 0 1.4-.41 1.84-1.17zm4.78.4v-11.16l2.3-.25v11.34c0 .45.14.67.54.67.2 0 .38-.04.52-.09l.5 1.62c-.4.18-.95.32-1.55.32-1.46 0-2.32-.88-2.32-2.45zm13.11.88l-.49 1.53c-1.06-.09-1.75-.45-2.11-1.39-.68 1.01-1.71 1.42-2.86 1.42-1.89 0-3.06-1.21-3.06-2.94 0-2.07 1.55-3.19 4.32-3.19h1.21v-.54c0-1.24-.56-1.66-1.78-1.66-.65 0-1.57.18-2.54.5l-.52-1.57c1.17-.45 2.38-.68 3.44-.68 2.56 0 3.67 1.17 3.67 3.28v4c0 .77.25 1.04.72 1.22zm-2.99-1.28v-1.93h-.95c-1.49 0-2.23.54-2.23 1.66 0 .92.47 1.44 1.35 1.44.79 0 1.4-.41 1.84-1.17zm7.61-10.37c0 .77-.59 1.39-1.46 1.39s-1.44-.61-1.44-1.39.59-1.4 1.44-1.4 1.46.61 1.46 1.4zm-.29 12.95h-2.3v-9.52h2.3v9.52zm10.48-6.9v6.9h-2.3v-6.54c0-1.19-.45-1.53-1.17-1.53-.83 0-1.44.56-2 1.44v6.63h-2.3v-9.52h2l.18 1.24c.74-.95 1.69-1.51 2.9-1.51 1.71 0 2.7 1.08 2.7 2.9zm2.18.35h5.44v1.84h-5.44v-1.84zm15.84.5c0 4.05-1.48 6.32-4.34 6.32s-4.34-2.27-4.34-6.32 1.49-6.28 4.34-6.28 4.34 2.25 4.34 6.28zm-6.3 0c0 3.38.63 4.57 1.96 4.57s1.96-1.15 1.96-4.57-.63-4.54-1.96-4.54-1.96 1.19-1.96 4.54zm13.11 6.05h-2.27v-9.79l-2.7 1.64-1.01-1.55 3.94-2.41h2.03v12.12zm11.19-6.05c0 4.05-1.48 6.32-4.34 6.32s-4.34-2.27-4.34-6.32 1.49-6.28 4.34-6.28 4.34 2.25 4.34 6.28zm-6.3 0c0 3.38.63 4.57 1.96 4.57s1.96-1.15 1.96-4.57-.63-4.54-1.96-4.54-1.96 1.19-1.96 4.54zm8.06-.5h5.44v1.84h-5.44v-1.84zm14.14-2.11l-.9 1.35c-.79-.5-1.55-.77-2.39-.77-.92 0-1.44.38-1.44.95 0 .63.38.92 2 1.37 1.95.52 3.04 1.31 3.04 3.01 0 1.98-1.84 3.03-4.01 3.03-1.64 0-2.92-.56-3.8-1.35l1.15-1.3c.74.56 1.62.94 2.59.94 1.03 0 1.69-.43 1.69-1.15 0-.79-.38-1.04-2.16-1.55-1.96-.54-2.83-1.48-2.83-2.88 0-1.58 1.46-2.77 3.67-2.77 1.37 0 2.48.43 3.38 1.13zm9.9 4.61h-5.98c.18 1.94 1.08 2.57 2.34 2.57.85 0 1.55-.27 2.38-.85l.95 1.31c-.94.76-2.09 1.28-3.53 1.28-2.95 0-4.54-1.96-4.54-4.97s1.53-5.1 4.23-5.1 4.2 1.8 4.2 4.81c0 .31-.04.68-.05.94zm-2.23-1.6c0-1.57-.56-2.5-1.85-2.5-1.08 0-1.76.72-1.89 2.61h3.75v-.11zm4.2 3.47v-11.16l2.3-.25v11.34c0 .45.14.67.54.67.2 0 .38-.04.52-.09l.5 1.62c-.4.18-.95.32-1.55.32-1.46 0-2.32-.88-2.32-2.45zm5.35 0v-11.16l2.3-.25v11.34c0 .45.14.67.54.67.2 0 .38-.04.52-.09l.5 1.62c-.4.18-.95.32-1.55.32-1.46 0-2.32-.88-2.32-2.45zm4.86-4.37h5.44v1.84h-5.44v-1.84zm14.13-2.11l-.9 1.35c-.79-.5-1.55-.77-2.39-.77-.92 0-1.44.38-1.44.95 0 .63.38.92 2 1.37 1.95.52 3.04 1.31 3.04 3.01 0 1.98-1.84 3.03-4.01 3.03-1.64 0-2.92-.56-3.8-1.35l1.15-1.3c.74.56 1.62.94 2.59.94 1.03 0 1.69-.43 1.69-1.15 0-.79-.38-1.04-2.16-1.55-1.96-.54-2.83-1.48-2.83-2.88 0-1.58 1.46-2.77 3.67-2.77 1.37 0 2.48.43 3.38 1.13zm9.88 1.76v6.9h-2.3v-6.54c0-1.19-.47-1.53-1.17-1.53-.81 0-1.44.56-2 1.42v6.64h-2.3v-13.32l2.3-.23v5.17c.74-.9 1.62-1.4 2.77-1.4 1.69 0 2.7 1.1 2.7 2.9zm10.39 2.85h-5.98c.18 1.94 1.08 2.57 2.34 2.57.85 0 1.55-.27 2.38-.85l.95 1.31c-.94.76-2.09 1.28-3.53 1.28-2.95 0-4.54-1.96-4.54-4.97s1.53-5.1 4.23-5.1 4.2 1.8 4.2 4.81c0 .31-.04.68-.05.94zm-2.23-1.6c0-1.57-.56-2.5-1.85-2.5-1.08 0-1.76.72-1.89 2.61h3.75v-.11zm12.11 1.6h-5.98c.18 1.94 1.08 2.57 2.34 2.57.85 0 1.55-.27 2.38-.85l.95 1.31c-.94.76-2.09 1.28-3.53 1.28-2.95 0-4.54-1.96-4.54-4.97s1.53-5.1 4.23-5.1 4.2 1.8 4.2 4.81c0 .31-.04.68-.05.94zm-2.23-1.6c0-1.57-.56-2.5-1.85-2.5-1.08 0-1.76.72-1.89 2.61h3.75v-.11zm9.81 5.2c-.68.49-1.55.72-2.39.72-1.87-.02-2.86-1.08-2.86-3.12v-5.02h-1.5v-1.66h1.5v-2.11l2.3-.27v2.38h2.21l-.23 1.66h-1.98v4.97c0 .94.31 1.31 1.01 1.31.36 0 .72-.11 1.13-.34l.81 1.48zm3.63-.74c0 .79-.65 1.46-1.48 1.46s-1.44-.67-1.44-1.46.63-1.46 1.44-1.46 1.48.65 1.48 1.46zm10.52-3.6c0 2.92-1.35 5.06-3.76 5.06-.97 0-1.8-.34-2.39-1.04v4.45l-2.3.25v-13.45h2.02l.13 1.17c.76-.99 1.76-1.44 2.79-1.44 2.48 0 3.53 1.96 3.53 5.01zm-2.41.02c0-2.41-.65-3.29-1.8-3.29-.81 0-1.49.56-1.94 1.3v4.29c.45.67 1.03.99 1.75.99 1.26 0 2-.97 2-3.28zm12.5-8.57v13.34h-2.03l-.16-1.21c-.58.86-1.49 1.48-2.72 1.48-2.38 0-3.62-2-3.62-5.02s1.48-5.04 3.83-5.04c1.01 0 1.8.43 2.39 1.03v-4.83l2.3.25zm-2.3 10.64v-4.36c-.5-.61-1.04-1.01-1.82-1.01-1.19 0-1.98 1.01-1.98 3.29 0 2.45.7 3.29 1.84 3.29.85 0 1.42-.41 1.96-1.22zm7.61-7.83v1.01h2.29l-.25 1.66h-2.04v7.87h-2.3v-7.87h-1.55v-1.66h1.55v-1.04c0-1.73 1.15-3.02 3.35-3.02.95 0 1.73.22 2.47.56l-.67 1.55a3.71 3.71 0 0 0-1.57-.36c-.94 0-1.28.41-1.28 1.31z" class="cls-3"/><path d="M348.52 31.58h16.42l-.59 4.12h-10.29v8.7h8.95v4.12h-8.95v12.1h-5.54V31.59zm32.01 6.51l-.92 5.21c-.67-.17-1.18-.25-1.97-.25-2.69 0-4.08 1.97-4.92 5.71v11.85h-5.38V38.39H372l.5 4.37c1.05-3.19 3.19-4.96 5.8-4.96.8 0 1.51.08 2.23.29zm22.01 11.39c0 7.02-3.91 11.76-10.46 11.76s-10.46-4.45-10.46-11.76 3.91-11.72 10.5-11.72 10.42 4.45 10.42 11.72zm-15.25 0c0 5.33 1.64 7.69 4.79 7.69s4.79-2.39 4.79-7.69-1.64-7.65-4.75-7.65-4.83 2.39-4.83 7.65zm38.35-4.96v16.09h-5.38V45.36c0-2.77-1.05-3.57-2.73-3.57-1.93 0-3.36 1.3-4.66 3.36v15.46h-5.38V38.39h4.66l.42 2.9c1.72-2.23 3.95-3.53 6.76-3.53 3.99 0 6.3 2.52 6.3 6.76zm18.85 15.04c-1.6 1.13-3.61 1.68-5.59 1.68-4.37-.04-6.68-2.52-6.68-7.27V42.25h-3.49v-3.86h3.49v-4.91l5.38-.63v5.54h5.17l-.55 3.86h-4.62v11.59c0 2.18.71 3.07 2.35 3.07.84 0 1.68-.25 2.65-.8l1.89 3.44z" class="cls-4"/><path d="M572.79 1152.04c0 6.68-4.83 9.66-11.38 9.66h-3.4v10.12h-5.54v-29.03h8.57c7.31 0 11.76 2.98 11.76 9.24zm-5.8 0c0-3.65-2.23-5.17-6.01-5.17H558v10.67h2.98c3.7 0 6.01-1.26 6.01-5.5zm22.39-2.73l-.92 5.21c-.67-.17-1.18-.25-1.97-.25-2.69 0-4.08 1.97-4.92 5.71v11.85h-5.38v-22.22h4.66l.5 4.37c1.05-3.19 3.19-4.96 5.8-4.96.8 0 1.51.08 2.23.29zm9.32-7.68c0 1.81-1.39 3.23-3.4 3.23s-3.36-1.43-3.36-3.23 1.39-3.28 3.36-3.28 3.4 1.43 3.4 3.28zm-.67 30.2h-5.38v-22.22h5.38v22.22zm24.44-16.09v16.09h-5.38v-15.25c0-2.77-1.05-3.57-2.73-3.57-1.93 0-3.36 1.3-4.66 3.36v15.46h-5.38v-22.22h4.66l.42 2.9c1.72-2.23 3.95-3.53 6.76-3.53 3.99 0 6.3 2.52 6.3 6.76zm18.86 15.04c-1.6 1.13-3.61 1.68-5.59 1.68-4.37-.04-6.68-2.52-6.68-7.27v-11.72h-3.49v-3.86h3.49v-4.92l5.38-.63v5.54h5.17l-.55 3.86h-4.62v11.59c0 2.18.71 3.07 2.35 3.07.84 0 1.68-.25 2.65-.8l1.89 3.44zm33.01-10.08c0 7.02-3.91 11.76-10.46 11.76s-10.46-4.45-10.46-11.76 3.91-11.72 10.5-11.72 10.42 4.45 10.42 11.72zm-15.25 0c0 5.33 1.64 7.69 4.79 7.69s4.79-2.39 4.79-7.69-1.64-7.65-4.75-7.65-4.83 2.39-4.83 7.65zm38.35-4.96v16.09h-5.38v-15.25c0-2.77-1.05-3.57-2.73-3.57-1.93 0-3.36 1.3-4.66 3.36v15.46h-5.38v-22.22h4.66l.42 2.9c1.72-2.23 3.95-3.53 6.76-3.53 3.99 0 6.3 2.52 6.3 6.76zm28.31 16.09h-5.29v-22.85l-6.3 3.82-2.35-3.61 9.2-5.63h4.75v28.27zm18.23 0h-5.29v-22.85l-6.3 3.82-2.35-3.61 9.2-5.63h4.75v28.27zm9.7-29.03h5.17l-4.92 11.38h-3.74l3.49-11.38zm7.31 0h5.17l-4.96 11.38h-3.7l3.49-11.38zm36.66 11.13l-4.96 4.91 4.96 5.08-3.07 3.07-4.92-5.12-5.08 5.12-3.07-3.07 4.96-4.87-4.96-5.12 3.07-3.07 4.92 5.17 5.08-5.17 3.07 3.07zm28.06 17.9h-5.29v-22.85l-6.3 3.82-2.35-3.61 9.2-5.63h4.75v28.27zm22.22-24.49l-10.46 25.04-4.92-1.6 9.83-23.06h-11.93v-4.16h17.48v3.78zm7.22-4.54h5.17l-4.92 11.38h-3.74l3.49-11.38zm7.31 0h5.17l-4.96 11.38h-3.7l3.49-11.38zm11.63 26.26c0 1.09-.34 2.1-1.09 3.78l-2.73 6.22h-3.28l1.72-7.23c-.92-.63-1.43-1.64-1.43-2.81 0-1.89 1.47-3.36 3.36-3.36s3.44 1.47 3.44 3.4zm28.1 1.72c-1.6 1.13-3.61 1.68-5.59 1.68-4.37-.04-6.68-2.52-6.68-7.27v-11.72h-3.49v-3.86h3.49v-4.92l5.38-.63v5.54h5.17l-.55 3.86h-4.62v11.59c0 2.18.71 3.07 2.35 3.07.84 0 1.68-.25 2.65-.8l1.89 3.44zm25.33 1.05h-6.72l-3.36-17.43-3.45 17.43h-6.59l-4.92-22.22h5.38l3.11 18.27 3.87-18.27h5.5l3.53 18.27 3.32-18.27h5.17l-4.83 22.22zm28.01-11.13c0 7.02-3.91 11.76-10.46 11.76s-10.46-4.45-10.46-11.76 3.91-11.72 10.5-11.72 10.42 4.45 10.42 11.72zm-15.25 0c0 5.33 1.64 7.69 4.79 7.69s4.79-2.39 4.79-7.69-1.64-7.65-4.75-7.65-4.83 2.39-4.83 7.65zm19.24-4.16h12.69v4.28h-12.69v-4.28zm32.97-4.92l-2.1 3.15c-1.85-1.18-3.61-1.81-5.59-1.81-2.14 0-3.36.88-3.36 2.23 0 1.47.88 2.14 4.66 3.19 4.54 1.22 7.1 3.07 7.1 7.02 0 4.62-4.29 7.06-9.37 7.06-3.82 0-6.81-1.3-8.86-3.15l2.69-3.02c1.72 1.3 3.78 2.18 6.05 2.18 2.39 0 3.95-1.01 3.95-2.69 0-1.85-.88-2.44-5.04-3.61-4.58-1.26-6.59-3.45-6.59-6.72 0-3.7 3.4-6.47 8.57-6.47 3.19 0 5.8 1.01 7.9 2.65zm10.96-9.99c0 1.81-1.39 3.23-3.4 3.23s-3.36-1.43-3.36-3.23 1.39-3.28 3.36-3.28 3.4 1.43 3.4 3.28zm-.67 30.2h-5.38v-22.22h5.38v22.22zm24.86-31.13v31.13h-4.75l-.38-2.81c-1.34 2.02-3.49 3.44-6.34 3.44-5.54 0-8.44-4.66-8.44-11.72s3.44-11.76 8.95-11.76c2.35 0 4.2 1.01 5.59 2.39v-11.26l5.38.59zm-5.38 24.83v-10.17c-1.18-1.43-2.44-2.35-4.24-2.35-2.77 0-4.62 2.35-4.62 7.69 0 5.71 1.64 7.69 4.28 7.69 1.97 0 3.32-.97 4.58-2.86zm29.87-3.15h-13.95c.42 4.54 2.52 6.01 5.46 6.01 1.97 0 3.61-.63 5.54-1.97l2.23 3.07c-2.18 1.76-4.87 2.98-8.23 2.98-6.89 0-10.59-4.58-10.59-11.59s3.57-11.89 9.87-11.89 9.79 4.2 9.79 11.22c0 .71-.08 1.6-.13 2.18zm-5.21-3.74c0-3.65-1.3-5.84-4.33-5.84-2.52 0-4.12 1.68-4.41 6.09h8.74v-.25zm28.65-17.94v31.13h-4.75l-.38-2.81c-1.34 2.02-3.49 3.44-6.34 3.44-5.54 0-8.44-4.66-8.44-11.72s3.44-11.76 8.95-11.76c2.35 0 4.2 1.01 5.59 2.39v-11.26l5.38.59zm-5.38 24.83v-10.17c-1.18-1.43-2.44-2.35-4.24-2.35-2.77 0-4.62 2.35-4.62 7.69 0 5.71 1.64 7.69 4.28 7.69 1.97 0 3.32-.97 4.58-2.86z" class="cls-5"/><path d="M572.79 1152.04c0 6.68-4.83 9.66-11.38 9.66h-3.4v10.12h-5.54v-29.03h8.57c7.31 0 11.76 2.98 11.76 9.24zm-5.8 0c0-3.65-2.23-5.17-6.01-5.17H558v10.67h2.98c3.7 0 6.01-1.26 6.01-5.5zm22.39-2.73l-.92 5.21c-.67-.17-1.18-.25-1.97-.25-2.69 0-4.08 1.97-4.92 5.71v11.85h-5.38v-22.22h4.66l.5 4.37c1.05-3.19 3.19-4.96 5.8-4.96.8 0 1.51.08 2.23.29zm9.32-7.68c0 1.81-1.39 3.23-3.4 3.23s-3.36-1.43-3.36-3.23 1.39-3.28 3.36-3.28 3.4 1.43 3.4 3.28zm-.67 30.2h-5.38v-22.22h5.38v22.22zm24.44-16.09v16.09h-5.38v-15.25c0-2.77-1.05-3.57-2.73-3.57-1.93 0-3.36 1.3-4.66 3.36v15.46h-5.38v-22.22h4.66l.42 2.9c1.72-2.23 3.95-3.53 6.76-3.53 3.99 0 6.3 2.52 6.3 6.76zm18.86 15.04c-1.6 1.13-3.61 1.68-5.59 1.68-4.37-.04-6.68-2.52-6.68-7.27v-11.72h-3.49v-3.86h3.49v-4.92l5.38-.63v5.54h5.17l-.55 3.86h-4.62v11.59c0 2.18.71 3.07 2.35 3.07.84 0 1.68-.25 2.65-.8l1.89 3.44zm33.01-10.08c0 7.02-3.91 11.76-10.46 11.76s-10.46-4.45-10.46-11.76 3.91-11.72 10.5-11.72 10.42 4.45 10.42 11.72zm-15.25 0c0 5.33 1.64 7.69 4.79 7.69s4.79-2.39 4.79-7.69-1.64-7.65-4.75-7.65-4.83 2.39-4.83 7.65zm38.35-4.96v16.09h-5.38v-15.25c0-2.77-1.05-3.57-2.73-3.57-1.93 0-3.36 1.3-4.66 3.36v15.46h-5.38v-22.22h4.66l.42 2.9c1.72-2.23 3.95-3.53 6.76-3.53 3.99 0 6.3 2.52 6.3 6.76zm28.31 16.09h-5.29v-22.85l-6.3 3.82-2.35-3.61 9.2-5.63h4.75v28.27zm18.23 0h-5.29v-22.85l-6.3 3.82-2.35-3.61 9.2-5.63h4.75v28.27zm9.7-29.03h5.17l-4.92 11.38h-3.74l3.49-11.38zm7.31 0h5.17l-4.96 11.38h-3.7l3.49-11.38zm36.66 11.13l-4.96 4.91 4.96 5.08-3.07 3.07-4.92-5.12-5.08 5.12-3.07-3.07 4.96-4.87-4.96-5.12 3.07-3.07 4.92 5.17 5.08-5.17 3.07 3.07zm28.06 17.9h-5.29v-22.85l-6.3 3.82-2.35-3.61 9.2-5.63h4.75v28.27zm22.22-24.49l-10.46 25.04-4.92-1.6 9.83-23.06h-11.93v-4.16h17.48v3.78zm7.22-4.54h5.17l-4.92 11.38h-3.74l3.49-11.38zm7.31 0h5.17l-4.96 11.38h-3.7l3.49-11.38zm11.63 26.26c0 1.09-.34 2.1-1.09 3.78l-2.73 6.22h-3.28l1.72-7.23c-.92-.63-1.43-1.64-1.43-2.81 0-1.89 1.47-3.36 3.36-3.36s3.44 1.47 3.44 3.4zm28.1 1.72c-1.6 1.13-3.61 1.68-5.59 1.68-4.37-.04-6.68-2.52-6.68-7.27v-11.72h-3.49v-3.86h3.49v-4.92l5.38-.63v5.54h5.17l-.55 3.86h-4.62v11.59c0 2.18.71 3.07 2.35 3.07.84 0 1.68-.25 2.65-.8l1.89 3.44zm25.33 1.05h-6.72l-3.36-17.43-3.45 17.43h-6.59l-4.92-22.22h5.38l3.11 18.27 3.87-18.27h5.5l3.53 18.27 3.32-18.27h5.17l-4.83 22.22zm28.01-11.13c0 7.02-3.91 11.76-10.46 11.76s-10.46-4.45-10.46-11.76 3.91-11.72 10.5-11.72 10.42 4.45 10.42 11.72zm-15.25 0c0 5.33 1.64 7.69 4.79 7.69s4.79-2.39 4.79-7.69-1.64-7.65-4.75-7.65-4.83 2.39-4.83 7.65zm19.24-4.16h12.69v4.28h-12.69v-4.28zm32.97-4.92l-2.1 3.15c-1.85-1.18-3.61-1.81-5.59-1.81-2.14 0-3.36.88-3.36 2.23 0 1.47.88 2.14 4.66 3.19 4.54 1.22 7.1 3.07 7.1 7.02 0 4.62-4.29 7.06-9.37 7.06-3.82 0-6.81-1.3-8.86-3.15l2.69-3.02c1.72 1.3 3.78 2.18 6.05 2.18 2.39 0 3.95-1.01 3.95-2.69 0-1.85-.88-2.44-5.04-3.61-4.58-1.26-6.59-3.45-6.59-6.72 0-3.7 3.4-6.47 8.57-6.47 3.19 0 5.8 1.01 7.9 2.65zm10.96-9.99c0 1.81-1.39 3.23-3.4 3.23s-3.36-1.43-3.36-3.23 1.39-3.28 3.36-3.28 3.4 1.43 3.4 3.28zm-.67 30.2h-5.38v-22.22h5.38v22.22zm24.86-31.13v31.13h-4.75l-.38-2.81c-1.34 2.02-3.49 3.44-6.34 3.44-5.54 0-8.44-4.66-8.44-11.72s3.44-11.76 8.95-11.76c2.35 0 4.2 1.01 5.59 2.39v-11.26l5.38.59zm-5.38 24.83v-10.17c-1.18-1.43-2.44-2.35-4.24-2.35-2.77 0-4.62 2.35-4.62 7.69 0 5.71 1.64 7.69 4.28 7.69 1.97 0 3.32-.97 4.58-2.86zm29.87-3.15h-13.95c.42 4.54 2.52 6.01 5.46 6.01 1.97 0 3.61-.63 5.54-1.97l2.23 3.07c-2.18 1.76-4.87 2.98-8.23 2.98-6.89 0-10.59-4.58-10.59-11.59s3.57-11.89 9.87-11.89 9.79 4.2 9.79 11.22c0 .71-.08 1.6-.13 2.18zm-5.21-3.74c0-3.65-1.3-5.84-4.33-5.84-2.52 0-4.12 1.68-4.41 6.09h8.74v-.25zm28.65-17.94v31.13h-4.75l-.38-2.81c-1.34 2.02-3.49 3.44-6.34 3.44-5.54 0-8.44-4.66-8.44-11.72s3.44-11.76 8.95-11.76c2.35 0 4.2 1.01 5.59 2.39v-11.26l5.38.59zm-5.38 24.83v-10.17c-1.18-1.43-2.44-2.35-4.24-2.35-2.77 0-4.62 2.35-4.62 7.69 0 5.71 1.64 7.69 4.28 7.69 1.97 0 3.32-.97 4.58-2.86z" class="cls-4"/><path d="M88.7 209.36v-46.22m-9 55.22H33.48m46.22 792H33.48m722.44-792H709.7m46.22 792H709.7m-9-801v-46.22m-612 902.44v-46.22m612 46.22v-46.22" class="cls-7"/><path d="M791.56 4.36v1220h-788V4.36h788m2-2h-792v1224h792V2.36z" class="cls-4"/></svg>