<svg xmlns="http://www.w3.org/2000/svg" id="Layer_1" viewBox="0 0 330.91 148.65" width="330.91" height="148.65"><defs><style>.cls-1{fill:#518dcb}.cls-2{fill:#505150}</style></defs><path d="M46.12 118.92c-9.59 0-17.78-3.89-23.2-11.95h-.28v10.42H9.86V21.53h13.2v40.15h.28c4.72-7.22 12.64-11.53 23.06-11.53 19.31 0 31.82 14.73 31.82 34.18s-12.5 34.59-32.09 34.59zm-2.5-57.93c-13.2 0-21.12 10-21.12 23.2s7.92 23.34 21.12 23.34S64.6 97.39 64.6 84.19s-7.78-23.2-20.98-23.2z" class="cls-1"/><path d="M143.23 117.39v-10.56h-.28c-5.42 8.06-13.62 12.09-23.2 12.09-19.59 0-32.09-15-32.09-34.59s12.5-34.18 31.82-34.18c10.7 0 18.48 4.72 23.06 11.53h.28V21.53h13.2v95.86h-12.78zm-20.98-56.41c-13.2 0-20.98 10-20.98 23.2s7.78 23.34 20.98 23.34 20.98-10.14 20.98-23.34-7.78-23.2-20.98-23.2zm89.61 57.94c-10.42 0-18.06-4.45-22.78-11.81l-.14-.14v36.26H175.6V51.4h12.78v10.42h.28c5.83-7.78 13.75-11.67 23.48-11.67 19.45 0 31.82 14.59 31.82 34.18s-12.5 34.59-32.09 34.59zm-2.5-57.93c-13.2 0-20.98 10-20.98 23.2s7.78 23.34 20.98 23.34 20.98-10.14 20.98-23.34-7.78-23.2-20.98-23.2zm99.19 82.24v-36.12h-.28c-4.86 7.36-12.37 11.81-22.79 11.81-19.59 0-32.09-15-32.09-34.59s12.5-34.18 31.82-34.18c9.86 0 17.78 3.89 23.48 11.67h.42l-.14-10.42h12.78v91.83h-13.2zm-20.56-82.25c-13.2 0-20.98 10-20.98 23.2s7.78 23.34 20.98 23.34 20.98-10.14 20.98-23.34-7.78-23.2-20.98-23.2z" class="cls-2"/></svg>