<svg xmlns="http://www.w3.org/2000/svg" id="Layer_1" width="400" height="200" viewBox="0 0 400 200"><defs><style>.cls-1{fill:#f16722}.cls-2{fill:#b3b4b4}</style></defs><path d="M107.03 48.63c0-14.95 14.95-29.21 22.77-34.04 1.15-.69 2.99-1.15 5.98-.46.46 0 .92.69.69.92-6.21 8.05-11.5 15.41-11.5 22.77 0 3.91 1.61 6.44 4.83 9.2 1.15.92 1.15 1.84.92 2.99-.23 1.38-.92 2.3-2.3 2.76-3.68 1.38-6.21 4.83-8.05 8.05-1.38 1.61-2.07 2.07-3.22 2.07-5.29 0-10.12-7.13-10.12-14.26z" class="cls-1"/><path d="M149.81 179.04c-.69-1.38-1.15-4.37-1.38-8.28-.46-11.73-2.07-23-3.91-34.04-.46-1.61-.23-2.07.92-2.3 1.38-.23 3.45-.69 5.06-.69.92 0 1.61.46 2.3 2.76.92 3.45 2.53 9.2 6.67 14.72 7.36 10.81 22.77 19.78 37.95 19.78 20.47 0 34.73-13.34 34.73-32.2 0-8.05-3.91-14.72-10.35-19.32-4.6-3.68-10.58-6.9-28.75-13.8-15.87-5.98-27.14-11.27-34.5-20.01-4.6-5.06-8.51-14.95-8.51-23 0-16.79 8.28-26.91 19.32-33.12 5.52-2.99 18.86-7.59 33.81-7.59 6.44 0 17.94 1.15 22.08 1.84 2.99.69 5.06.69 6.44.69 1.61 0 3.68-1.84 5.75-4.6 2.07-.23 5.06 0 5.52.23-.69 12.65 0 23.92 2.07 36.11.23 1.38 0 2.3-.92 2.76-.69.69-3.45 2.07-5.29 2.3-.69.23-.92 0-1.15-1.15-2.53-8.05-4.6-15.87-11.04-21.39-4.83-4.6-16.33-8.51-28.06-8.51-17.48 0-28.75 11.27-28.75 26.45 0 7.36 2.99 13.11 6.21 16.79 5.75 5.75 12.19 9.66 29.44 15.87 16.56 5.98 27.37 11.5 34.5 17.94 9.2 8.28 12.19 17.02 12.19 28.06 0 16.56-8.51 28.98-20.24 35.42-10.35 5.75-30.36 8.28-38.18 8.28-10.12 0-20.01-1.61-29.67-3.45-1.84-.46-2.99 0-4.14.46-1.38.69-2.99 1.84-4.6 2.99-1.38 1.15-2.07 1.38-2.99 1.38-.69 0-1.38-.23-2.53-1.38zM290.34 70.48c0 2.99-1.15 14.95-1.15 17.25 11.04 0 24.61-1.15 32.66-1.15 2.3 0 2.53.46 2.53 2.53 0 1.84-.46 4.37-1.38 7.82-.46 1.84-1.61 2.07-3.45 2.07-6.67.23-17.48.23-29.67.69-.69 0-1.15.46-1.38 3.22-.69 10.35-.46 34.27-.46 46.92 0 10.35 6.67 15.87 17.02 15.87 5.52 0 8.97-1.84 14.49-5.29 1.15-.69 1.61-.69 1.84.23.46 1.61.69 2.76.69 4.37 0 1.15-.69 2.07-1.61 2.53-8.74 5.06-17.71 10.12-28.75 10.12-4.14 0-12.65-1.61-17.48-7.36-2.99-3.68-3.68-8.05-3.22-16.79.46-12.42.46-44.16.92-50.6.23-1.38-.92-2.99-2.07-3.22-3.22 0-7.82 0-9.43-.23-.69 0-1.84-1.84-1.15-2.3 8.51-7.59 22.77-21.39 27.83-26.68.92-.92 2.07-1.38 2.53-1.38s.69.46.69 1.38zm-209.3 93.84c-.23-.92-1.38-.69-2.53-.46-2.53 1.15-7.82 3.22-10.35 3.22-1.38 0-2.53-.46-3.22-3.45-.92-5.52-1.15-16.79-1.15-24.38v-27.83c0-26.68 1.15-73.83 1.38-94.53 0-1.84-.69-3.45-1.61-3.68-.69-.23-2.3.23-2.99.46-8.74 5.29-16.33 8.51-26.91 12.88-.69.46-.69.92-.46 1.84l.46 1.61c.23.92.69 1.61 1.84 1.84 10.35 1.61 10.81 2.53 11.04 5.75.46 4.83.92 11.96.69 31.05 0 8.28-.23 12.88-.46 16.1 0 1.15-1.61 2.07-2.3 1.84-2.99-1.15-10.81-2.3-16.33-2.3-8.21 0-19.6 4.91-28.14 10.5v9.03c.54-.66 1.11-1.27 1.69-1.82 4.83-5.06 12.42-7.13 16.33-7.13 9.2 0 17.71 2.3 24.38 6.67 3.22 2.3 3.45 3.45 3.68 5.75 1.15 8.28 1.38 37.49.23 47.38-.23 1.61-.69 2.07-2.99 3.45-3.68 2.53-14.03 5.06-18.4 5.06-5.75 0-11.73-.69-18.86-6.9-2.47-2.23-4.45-4.7-6.06-7.27v25.18c3.92 1.79 8.3 3.02 12.73 3.02 2.99 0 16.79-5.06 34.04-13.8 0 2.99.23 8.28.46 11.73.46 2.53 2.76 4.6 4.37 4.6 2.3 0 20.7-4.14 27.6-6.21 1.61-.46 2.99-.69 2.99-2.53s-.46-4.37-1.15-6.67zM400 151.89c-1.88 5.77-4.78 9.9-7.78 12.89-2.99 2.76-8.28 3.91-11.27 3.91-5.75 0-13.8-2.07-21.62-10.35-5.29-5.98-11.27-15.87-11.27-30.82s2.76-24.15 8.74-30.59c3.22-3.22 7.82-5.29 11.96-5.29 7.59 0 15.18 4.14 19.55 8.05 5.77 5.22 9.56 12.67 11.68 20.8V90c-7.22-4.6-15.04-6.87-21.34-6.87-6.9 0-18.17 2.99-25.99 7.36-6.21 3.22-10.81 7.13-15.41 13.11-5.52 7.13-9.2 18.17-9.2 27.37 0 8.28 2.76 20.7 9.66 29.67 8.97 11.73 26.45 16.79 34.96 16.79s18.24-2.89 27.32-7.87v-17.67z" class="cls-2"/></svg>