<svg xmlns="http://www.w3.org/2000/svg" id="Layer_1" width="400" height="200" viewBox="0 0 400 200"><defs><style>.cls-1{fill:#f16722}.cls-2{fill:#b3b4b4}</style></defs><path d="M7.21 60.1c0-15.02 15.02-29.34 22.87-34.19 1.15-.69 3-1.16 6.01-.46.46 0 .92.69.69.92-6.24 8.08-11.55 15.48-11.55 22.87 0 3.93 1.62 6.47 4.85 9.24 1.15.92 1.15 1.85.92 3-.23 1.39-.92 2.31-2.31 2.77-3.7 1.39-6.24 4.85-8.08 8.08-1.39 1.62-2.08 2.08-3.23 2.08-5.31 0-10.16-7.16-10.16-14.32zm36.04-.46c0-14.32 14.55-28.88 22.41-33.96 1.16-.46 3.47-.92 6.24-.23.46 0 .92.69.46.92-6.24 8.32-11.55 15.94-11.55 23.33.23 3.47 2.08 6.24 5.08 8.78.92.92.92 2.08.92 3.23-.23 1.16-.92 2.08-2.31 2.54-3.93 1.39-6.24 4.85-8.32 8.08-1.15 1.62-1.85 2.08-3.23 2.08-5.08 0-9.7-6.47-9.7-14.78z" class="cls-1"/><path d="M141.19 95.91c0-42.04-.23-50.13-1.15-50.13h-18.71c-21.71 0-31.88 3.7-33.73 4.85-2.77 1.85-4.39 6.47-7.62 15.94 0 .69-.92.69-2.08.23-1.85-1.15-5.08-3.93-5.54-4.85 3-6.47 7.62-16.86 12.94-34.19.92-.46 2.54-.23 4.39.46 1.62.46 1.85.46 2.08 1.62 0 4.39.46 6.01 2.31 6.47s5.08.92 10.4.92c6.93.23 15.02.23 37.19.23 25.18 0 46.43 0 78.08-1.39 6.01-.23 13.86-5.54 20.56-10.16 1.16-.46 2.54-.46 3.23.23.46.46.46 1.15.46 2.54 0 12.71-.69 27.95-.69 44.12v34.19c0 .46.92 1.62 1.62 1.39 4.62-2.08 18.25-8.55 24.26-10.63 4.85-1.39 8.78-2.31 12.71-2.31 20.79 0 25.41 17.56 25.41 36.96 0 6.93-.46 22.64-.69 37.42 0 7.62.92 8.32 9.93 11.09 2.08.46 2.31.46 2.31 1.39v3.7c0 1.39-.23 1.62-1.62 1.62h-16.4c-11.09 0-20.79 1.16-23.33 1.39-.92 0-1.15-.46-1.15-3-.46-3-.23-3.47.46-3.93s4.39-1.39 6.47-2.54c4.16-2.08 5.08-3.47 5.77-9.24 1.16-10.16.92-17.09.92-25.87 0-21.71-3.93-27.49-8.78-31.42-5.31-3.93-9.47-4.39-13.86-4.39-6.7 0-15.48 2.77-21.71 6.24-2.08.92-2.77 2.54-2.77 6.93v24.72c0 12.24.46 19.17 1.39 25.18.69 5.54 1.62 6.7 12.01 7.85.92 0 1.15.69 1.39 5.77 0 1.62-.23 1.85-1.15 1.85-18.48 0-30.95 0-41.12 1.62-1.39.23-1.85.23-2.08-.46l-1.39-3.7c-.46-1.15-.23-1.62.46-2.08 12.24-5.54 12.94-6.24 12.94-28.18V62.18c0-12.01-1.62-14.09-13.17-15.02-8.55-.69-18.48-1.39-32.57-1.39h-15.02c-2.08 0-3 1.62-3 6.24-.23 3.7-.92 15.25-.92 45.97v23.33c0 33.03.92 42.97 1.62 47.12.92 3.93 2.31 6.93 5.31 8.32 3.93 2.31 12.71 3.7 17.33 4.16 1.39 0 1.62.23 1.39.92l-.92 4.62c-.23.92-.46 1.39-2.08 1.39-2.77 0-20.33-.69-31.65-.69-12.01 0-30.26.92-32.11.92s-2.77-.69-3-1.85l-.69-5.08c3.7-.46 9.93-1.39 13.4-1.85 6.01-1.16 9.01-2.54 9.93-7.85.46-3.23 2.08-18.94 2.08-52.21V95.9zM400 167.95c-6.81 4.91-14.45 7.88-23.19 7.88-15.48 0-27.49-9.7-28.18-32.34 0-2.54.46-3.93 1.62-4.16 8.85-2.68 33.26-7.36 49.76-10.97v-15.01a39.347 39.347 0 0 0-6.79-9.83c-3.93-3.93-12.01-8.08-19.64-8.08-6.24 0-14.55 3-20.56 7.16-12.24 9.01-24.02 24.26-24.02 44.58 0 15.02 6.7 25.18 10.16 29.11 3 3.23 13.17 12.94 29.57 12.94 2.31 0 5.54-.23 8.55-1.16 6.14-1.86 14.52-5.22 22.73-10.79v-9.33zm-39.83-61.65c2.08-1.39 4.39-2.08 5.77-2.08 9.47 0 18.25 10.63 18.25 17.09 0 2.54-1.15 3.47-2.54 3.7-10.39 2.77-21.02 4.39-31.88 7.39-.23-9.7 3.46-21.25 10.4-26.1z" class="cls-2"/></svg>