<svg xmlns="http://www.w3.org/2000/svg" id="Layer_1" width="400" height="200" viewBox="0 0 400 200"><defs><style>.cls-1{fill:#f16722}.cls-2{fill:#b3b4b4}</style></defs><path d="M82.08 76.4c1.38-4.83 4.37-11.5 7.36-14.95 2.99-.69 5.75-.92 9.2-.92 5.75 0 11.73 1.15 16.1 2.53-3.45 17.25-14.49 43.01-21.39 54.28-3.91-1.15-8.97-3.91-11.04-5.98 3.45-9.66 7.59-23.46 8.97-32.66l-9.2-2.3z" class="cls-1"/><path d="M171.77 84.68c-3.22-1.38-8.51-2.76-13.57-2.76-11.96 0-18.86 5.52-18.86 14.03 0 25.76 53.59 17.94 53.59 57.96 0 23.92-20.01 33.12-41.4 33.12-13.11 0-25.3-2.99-35.19-8.74-.69-2.53-1.15-7.36-1.15-11.04 0-5.75 1.15-12.19 2.3-16.33 5.06 0 11.73.69 16.56 2.07v15.87c5.29 3.45 12.42 5.29 19.32 5.29 11.5 0 19.32-6.9 19.32-17.25 0-27.37-54.05-17.48-54.05-58.19 0-16.79 15.41-28.75 38.18-28.75 10.58 0 22.08 1.84 32.43 5.98.46 2.07.46 4.6.46 7.13 0 6.44-1.15 13.57-2.53 18.63-5.06 0-11.5-1.15-15.41-3.45V84.68zm159.62-46.46c-5.52-3.22-13.8-5.06-21.62-5.06-19.09 0-30.82 10.35-30.82 23.46 0 40.25 75.9 27.83 75.9 83.26 0 35.88-27.6 47.84-57.5 47.84-16.1 0-33.35-3.45-45.77-8.74 0-11.5.92-28.29 2.53-38.64 4.14 0 12.65.92 17.02 2.3v23.46c8.28 4.6 19.55 6.9 29.67 6.9 21.85 0 32.66-10.81 32.66-29.21 0-42.32-76.36-26.45-76.36-83.72 0-24.38 19.09-41.17 50.37-41.17 13.34 0 30.13 2.99 42.55 7.82 0 9.66-1.15 25.07-3.22 34.04-4.6 0-11.73-1.38-15.41-3.22V38.22z" class="cls-2"/><path d="M362.9 35.69c1.38-4.83 4.37-11.5 7.36-14.95 2.99-.69 5.75-.92 9.2-.92 5.75 0 11.73 1.15 16.1 2.53-3.45 17.25-14.49 43.01-21.39 54.28-3.91-1.15-8.97-3.91-11.04-5.98 3.45-9.66 7.59-23.46 8.97-32.66l-9.2-2.3z" class="cls-1"/><path d="M0 167.18l7.79 20.31c-1.94 4.41-4.53 8.61-7.72 12.52h18.21c.98-1.75 1.94-3.53 2.86-5.39 8.51-17.02 19.55-48.99 25.99-67.85l13.11-38.18c2.99-.23 8.05-1.15 10.81-2.07 1.15-3.22 2.3-9.2 2.3-12.65H29.41c0 3.91.69 8.28 1.84 11.73 3.45 1.38 9.66 2.53 13.8 2.99-2.76 5.29-6.44 15.64-8.51 22.31l-11.5 36.57c-1.84 5.52-4.83 17.48-6.21 23h-1.61c-.92-5.75-3.22-17.25-5.06-22.31L0 114.38v52.79zm0-80.02c2.35-.42 4.52-.87 6.18-1.33.92-3.22 1.84-8.28 1.84-11.96H0v13.3z" class="cls-2"/></svg>