<svg xmlns="http://www.w3.org/2000/svg" id="Layer_1" width="502.26" height="40.14" viewBox="0 0 502.26 40.14"><defs><style>.cls-1{fill:#f16722}.cls-2{fill:#b3b4b4}</style></defs><path d="M5.29 10.26l1.44.36c-.14.61-.86 1.87-1.37 2.41-1.33-.14-2.59-.58-3.53-1.15.72-2.59 2.02-5.44 3.13-7.24.43-.11 1.51-.25 2.23-.25-.68 1.66-1.58 4.39-1.91 5.87zm6.41 0l1.44.36c-.14.61-.86 1.87-1.37 2.41-1.33-.14-2.59-.58-3.53-1.15.72-2.59 2.02-5.44 3.13-7.24.43-.11 1.51-.25 2.23-.25-.68 1.66-1.58 4.39-1.91 5.87zm14.9 17.1c1.12.07 2.48.18 3.46.36.14.43.18 1.55.11 1.98H19.8c.04-.54.29-1.4.47-1.91.72-.18 2.16-.4 3.02-.47V6.91h-5.83c-.07.83-.32 2.41-.47 3.06-.54.14-1.51.22-2.16.22V4.72h20.23v5.62c-.72 0-1.62-.11-2.2-.25-.18-.79-.4-2.27-.47-3.17H26.6v20.45zm15.19.14c.86.07 1.98.25 2.63.47.11.43.14 1.22.07 1.73h-8.64c.07-.54.25-1.15.5-1.62.58-.25 1.58-.54 2.3-.68V5.8h-2.59c.04-.61.29-1.37.65-1.91.86-.32 2.09-.5 3.24-.5.65 0 1.3.07 1.84.22v6.95c0 1.48-.07 3.02-.18 4.5h.36c.58-1.4 2.45-3.06 5.65-3.06 2.88 0 5.44.9 5.44 6.48 0 3.02-.07 6.01-.22 9.04.97.07 2.2.25 2.92.47.07.29.11.72.11 1.12 0 .22 0 .4-.04.61H47.3c.07-.54.25-1.15.5-1.62.54-.25 1.44-.54 2.05-.68V19c0-2.77-.9-4.54-3.46-4.54-1.87 0-3.85 1.3-4.61 2.3v10.76zm19.09-5.94c.07 3.85 2.48 6.23 5.87 6.23 1.55 0 3.71-.5 5.04-1.01.07.54-.14 1.51-.47 2.05-1.3.72-3.46 1.48-5.69 1.48-5.15 0-8.1-3.85-8.1-8.82 0-5.29 3.28-9.5 8.31-9.5 4.32 0 6.16 3.13 6.16 7.67 0 .61-.04 1.26-.11 1.91H60.88zm7.92-2.09c.25-2.48-.47-5.51-3.49-5.51-2.56 0-4.21 2.23-4.43 5.51h7.92zM82.55 5.8h-2.59c.04-.61.29-1.37.65-1.91.86-.29 2.05-.5 3.24-.5.65 0 1.3.07 1.84.22v6.95c0 1.4-.07 2.81-.18 4.21h.36c.58-1.51 2.23-2.77 5.11-2.77 3.13 0 6.7 2.16 6.7 8.68 0 5.79-3.56 9.65-8.71 9.65-2.12 0-4.46-.47-6.41-1.44V5.8zm3.1 21.92c.86.29 1.91.47 2.99.47 3.96 0 5.76-2.84 5.76-7.02s-1.94-6.73-4.64-6.73c-2.09 0-3.35 1.04-4.1 2.16v11.12zm31.2-6.84c0 6.01-3.2 9.43-8.17 9.43-5.26 0-8.21-3.24-8.21-9.43 0-5.51 3.53-8.89 8.21-8.89s8.17 3.17 8.17 8.89zm-8.17 7.27c3.31 0 4.9-2.81 4.9-7.27 0-3.85-1.91-6.77-4.9-6.77-3.2 0-4.93 2.7-4.93 6.77 0 4.39 1.87 7.27 4.93 7.27zm18.69-.43c.22-.86.68-2.74.97-3.6l1.8-5.72c.32-1.04.9-2.66 1.33-3.49-.65-.07-1.62-.25-2.16-.47-.18-.54-.29-1.22-.29-1.84h6.88c0 .54-.18 1.48-.36 1.98-.43.14-1.22.29-1.69.32l-2.05 5.98c-1.01 2.95-2.74 7.96-4.07 10.62-1.69 3.42-4.03 5.69-7.27 6.84-.54-.5-1.22-1.62-1.33-2.66 3.24-.9 5.47-2.92 6.52-5.29l-5.87-15.3c-.65-.14-1.37-.36-1.87-.61-.18-.5-.32-1.3-.36-1.87h8.14c0 .58-.14 1.37-.29 1.87-.65.18-1.8.36-2.63.43.43.79.94 2.02 1.3 3.02l2.27 6.3c.29.79.65 2.59.79 3.49h.25z" class="cls-2"/><path d="M137.27 13c.22-.76.68-1.8 1.15-2.34.47-.11.9-.14 1.44-.14.9 0 1.84.18 2.52.4-.54 2.7-2.27 6.73-3.35 8.49-.61-.18-1.4-.61-1.73-.94.54-1.51 1.19-3.67 1.4-5.11l-1.44-.36z" class="cls-1"/><path d="M154.19 14.29a5.72 5.72 0 0 0-2.12-.43c-1.87 0-2.95.86-2.95 2.2 0 4.03 8.39 2.81 8.39 9.07 0 3.74-3.13 5.18-6.48 5.18-2.05 0-3.96-.47-5.51-1.37-.11-.4-.18-1.15-.18-1.73 0-.9.18-1.91.36-2.56.79 0 1.84.11 2.59.32v2.48c.83.54 1.94.83 3.02.83 1.8 0 3.02-1.08 3.02-2.7 0-4.28-8.46-2.74-8.46-9.11 0-2.63 2.41-4.5 5.98-4.5 1.66 0 3.46.29 5.08.94.07.32.07.72.07 1.12 0 1.01-.18 2.12-.4 2.92-.79 0-1.8-.18-2.41-.54v-2.12zm18.03 13.21c.9.07 1.98.25 2.63.47.11.43.14 1.22.07 1.73h-8.64c.07-.54.25-1.15.5-1.62.58-.25 1.58-.54 2.3-.68V14.62h-2.63c.04-.61.29-1.37.65-1.91.76-.29 1.91-.5 2.99-.5.61 0 1.19.07 1.69.22v2.63h.36c.65-1.22 2.52-3.06 5.69-3.06 2.2 0 4.1.61 4.79 3.28h.18c.61-1.33 2.56-3.28 5.79-3.28 2.81 0 5.29.9 5.29 6.48 0 3.06-.07 6.08-.22 9.04.97.07 2.2.25 2.92.47.07.29.11.72.11 1.12 0 .22 0 .4-.04.61h-8.53c.07-.54.25-1.15.5-1.62.54-.25 1.44-.54 2.05-.68V19c0-2.77-.83-4.54-3.31-4.54-1.84 0-3.64 1.33-4.39 2.3v10.73c.9.07 1.98.29 2.63.5.11.43.14 1.22.07 1.73h-8.31c.07-.54.25-1.15.5-1.62.54-.25 1.44-.54 2.05-.68V19c0-2.77-.83-4.54-3.31-4.54-1.8 0-3.64 1.3-4.39 2.3v10.76zm42.51-6.62c0 6.01-3.2 9.43-8.17 9.43-5.26 0-8.21-3.24-8.21-9.43 0-5.51 3.53-8.89 8.21-8.89s8.17 3.17 8.17 8.89zm-8.17 7.27c3.31 0 4.9-2.81 4.9-7.27 0-3.85-1.91-6.77-4.9-6.77-3.2 0-4.93 2.7-4.93 6.77 0 4.39 1.87 7.27 4.93 7.27zm13.18-19.94c.54-.29 1.69-.58 2.41-.58v4.97h5.22c.07.36.18 1.51.11 2.09h-5.33v9.9c0 2.34.32 3.35 2.34 3.35 1.01 0 2.23-.18 3.35-.47.04.14.04.4.04.47 0 .5-.18 1.08-.36 1.4-1.44.61-2.99.97-4.43.97-2.77 0-4.18-1.51-4.18-5.22 0-2.12.04-6.77.18-10.4h-2.48c0-.5.22-1.4.43-1.87.58-.25 1.4-.5 2.09-.65l.61-3.96zm14.94 19.29c.86.07 1.98.25 2.63.47.11.43.14 1.22.07 1.73h-8.64c.07-.54.25-1.15.5-1.62.58-.25 1.58-.54 2.3-.68V5.8h-2.59c.04-.61.29-1.37.65-1.91.86-.32 2.09-.5 3.24-.5.65 0 1.3.07 1.84.22v6.95c0 1.48-.07 3.02-.18 4.5h.36c.58-1.4 2.45-3.06 5.65-3.06 2.88 0 5.44.9 5.44 6.48 0 3.02-.07 6.01-.22 9.04.97.07 2.2.25 2.92.47.07.29.11.72.11 1.12 0 .22 0 .4-.04.61h-8.53c.07-.54.25-1.15.5-1.62.54-.25 1.44-.54 2.05-.68V19c0-2.77-.9-4.54-3.46-4.54-1.87 0-3.85 1.3-4.61 2.3v10.76zm19.08-5.94c.07 3.85 2.48 6.23 5.87 6.23 1.55 0 3.71-.5 5.04-1.01.07.54-.14 1.51-.47 2.05-1.3.72-3.46 1.48-5.69 1.48-5.15 0-8.1-3.85-8.1-8.82 0-5.29 3.28-9.5 8.31-9.5 4.32 0 6.16 3.13 6.16 7.67 0 .61-.04 1.26-.11 1.91h-11.01zm7.92-2.09c.25-2.48-.47-5.51-3.49-5.51-2.56 0-4.21 2.23-4.43 5.51h7.92zm11.34-3.63c.5-2.2 2.34-3.85 4.68-3.85.43 0 1.19.11 1.62.29.25.43.47 1.26.47 2.16 0 .36-.04.68-.11.97-.65-.4-1.58-.61-2.45-.61-1.66 0-3.24.9-4.14 2.95v9.65c1.01.07 2.74.36 3.56.65.11.43.14 1.15.07 1.66h-9.57c.07-.54.25-1.15.5-1.62.58-.25 1.58-.54 2.3-.68V14.63h-2.63c.04-.61.29-1.37.65-1.91.79-.29 1.94-.5 2.99-.5.61 0 1.19.07 1.69.22v3.42h.36zm23.11 11.88c.22-.86.68-2.74.97-3.6l1.8-5.72c.32-1.04.9-2.66 1.33-3.49-.65-.07-1.62-.25-2.16-.47-.18-.54-.29-1.22-.29-1.84h6.88c0 .54-.18 1.48-.36 1.98-.43.14-1.22.29-1.69.32l-2.05 5.98c-1.01 2.95-2.74 7.96-4.07 10.62-1.69 3.42-4.03 5.69-7.27 6.84-.54-.5-1.22-1.62-1.33-2.66 3.24-.9 5.47-2.92 6.52-5.29l-5.87-15.3c-.65-.14-1.37-.36-1.87-.61-.18-.5-.32-1.3-.36-1.87h8.14c0 .58-.14 1.37-.29 1.87-.65.18-1.8.36-2.63.43.43.79.94 2.02 1.3 3.02l2.27 6.3c.29.79.65 2.59.79 3.49h.25zm12.1-6.16c.07 3.85 2.48 6.23 5.87 6.23 1.55 0 3.71-.5 5.04-1.01.07.54-.14 1.51-.47 2.05-1.3.72-3.46 1.48-5.69 1.48-5.15 0-8.1-3.85-8.1-8.82 0-5.29 3.28-9.5 8.31-9.5 4.32 0 6.16 3.13 6.16 7.67 0 .61-.04 1.26-.11 1.91h-11.01zm7.92-2.09c.25-2.48-.47-5.51-3.49-5.51-2.56 0-4.21 2.23-4.43 5.51h7.92zm5.33-13.67c.04-.61.29-1.37.65-1.91.83-.29 2.05-.5 3.24-.5.65 0 1.3.07 1.84.22v23.87c.9.07 2.16.29 2.92.5.07.29.11.72.11 1.12 0 .22 0 .4-.04.61h-8.93c.07-.54.25-1.15.5-1.62.58-.25 1.58-.54 2.3-.68V5.8h-2.59zm9.93 0c.04-.61.29-1.37.65-1.91.83-.29 2.05-.5 3.24-.5.65 0 1.3.07 1.84.22v23.87c.9.07 2.16.29 2.92.5.07.29.11.72.11 1.12 0 .22 0 .4-.04.61h-8.93c.07-.54.25-1.15.5-1.62.58-.25 1.58-.54 2.3-.68V5.8h-2.59zm13.86 15.76c.07 3.85 2.48 6.23 5.87 6.23 1.55 0 3.71-.5 5.04-1.01.07.54-.14 1.51-.47 2.05-1.3.72-3.46 1.48-5.69 1.48-5.15 0-8.1-3.85-8.1-8.82 0-5.29 3.28-9.5 8.32-9.5 4.32 0 6.16 3.13 6.16 7.67 0 .61-.04 1.26-.11 1.91h-11.01zm7.92-2.09c.25-2.48-.47-5.51-3.49-5.51-2.56 0-4.21 2.23-4.43 5.51h7.92zM371.08 5.8h-2.59c.04-.61.29-1.37.65-1.91.83-.29 2.05-.5 3.24-.5.65 0 1.3.07 1.84.22v21.35c0 .83.07 1.84.29 2.56h2.7c.04.14.04.36.04.47 0 .47-.14 1.08-.29 1.44-1.26.43-3.78.72-4.86.72-.4-.72-.65-1.62-.72-2.59h-.18c-.94 1.44-2.38 2.77-5.4 2.77s-6.7-2.16-6.7-8.67c0-5.8 3.56-9.65 8.71-9.65 1.15 0 2.52.32 3.28.86V5.82zm.04 8.85c-.86-.29-1.91-.5-2.99-.5-3.96 0-5.76 2.81-5.76 6.98s1.94 6.73 4.64 6.73c2.09 0 3.35-1.04 4.1-2.16V14.65zm18.18-4.39l1.44.36c-.14.61-.86 1.87-1.37 2.41-1.33-.14-2.7-.58-3.63-1.15.72-2.59 2.02-5.44 3.13-7.24.43-.11 1.62-.25 2.34-.25-.68 1.66-1.58 4.39-1.91 5.87zm16.99-3.24c-.86-.5-2.16-.79-3.38-.79-2.99 0-4.82 1.62-4.82 3.67 0 6.3 11.88 4.36 11.88 13.03 0 5.62-4.32 7.49-9 7.49-2.52 0-5.22-.54-7.16-1.37 0-1.8.14-4.43.4-6.05.65 0 1.98.14 2.66.36v3.67c1.3.72 3.06 1.08 4.64 1.08 3.42 0 5.11-1.69 5.11-4.57 0-6.62-11.95-4.14-11.95-13.1 0-3.82 2.99-6.44 7.88-6.44 2.09 0 4.72.47 6.66 1.22 0 1.51-.18 3.92-.5 5.33-.72 0-1.84-.22-2.41-.5V7.03zm8.35 1.19c.54-.29 1.69-.58 2.41-.58v4.97h5.22c.07.36.18 1.51.11 2.09h-5.33v9.9c0 2.34.32 3.35 2.34 3.35 1.01 0 2.23-.18 3.35-.47.04.14.04.4.04.47 0 .5-.18 1.08-.36 1.4-1.44.61-2.99.97-4.43.97-2.77 0-4.17-1.51-4.17-5.22 0-2.12.04-6.77.18-10.4h-2.48c0-.5.22-1.4.43-1.87.58-.25 1.4-.5 2.09-.65l.61-3.96zm25.34 12.67c0 6.01-3.2 9.43-8.17 9.43-5.25 0-8.21-3.24-8.21-9.43 0-5.51 3.53-8.89 8.21-8.89s8.17 3.17 8.17 8.89zm-8.17 7.27c3.31 0 4.9-2.81 4.9-7.27 0-3.85-1.91-6.77-4.9-6.77-3.2 0-4.93 2.7-4.93 6.77 0 4.39 1.87 7.27 4.93 7.27zm15.81 7.56c.97.07 2.63.4 3.42.65.11.43.14 1.15.07 1.66h-9.43c.07-.54.25-1.15.5-1.62.58-.25 1.58-.54 2.3-.68v-21.1h-2.66c.04-.61.29-1.37.65-1.91.79-.29 1.94-.5 2.99-.5.61 0 1.19.07 1.69.22v2.34h.36c.9-1.44 2.27-2.77 5.29-2.77s6.8 2.16 6.8 8.68c0 5.79-3.63 9.65-8.82 9.65-1.04 0-2.41-.32-3.17-.86v6.26zm-.04-8.06c.86.29 1.91.5 2.99.5 3.96 0 5.76-2.84 5.76-7.02s-1.94-6.77-4.64-6.77c-2.09 0-3.35 1.08-4.1 2.2v11.09zm21.2.07c0 1.55-.94 2.41-2.3 2.41-1.51 0-2.34-.83-2.34-2.41 0-1.37 1.01-2.27 2.34-2.27s2.3.83 2.3 2.27zm-1.08-5.58c-.29.07-.72.11-1.15.11s-.9-.04-1.19-.11l-1.04-17.13c.68-.22 1.83-.4 2.92-.4.4 0 .79 0 1.15.07l-.68 17.46z" class="cls-2"/><path d="M473.39 6.63c.22-.76.68-1.8 1.15-2.34.47-.11.9-.14 1.44-.14.9 0 1.83.18 2.52.4-.54 2.7-2.27 6.73-3.35 8.49-.61-.18-1.4-.61-1.73-.94.54-1.51 1.19-3.67 1.4-5.11l-1.44-.36z" class="cls-1"/><path d="M484.95 27.76c0 1.55-.94 2.38-2.23 2.38-1.51 0-2.3-.79-2.3-2.38 0-1.3.97-2.2 2.3-2.2s2.23.79 2.23 2.2zm2.95-21.13c.22-.76.68-1.8 1.15-2.34.47-.11.86-.14 1.4-.14.9 0 1.76.18 2.45.4-.54 2.7-2.27 6.73-3.35 8.49-.61-.18-1.3-.61-1.62-.94.54-1.51 1.19-3.67 1.4-5.11l-1.44-.36zm6.41 0c.22-.76.68-1.8 1.15-2.34.47-.11.86-.14 1.4-.14.9 0 1.76.18 2.45.4-.54 2.7-2.27 6.73-3.35 8.49-.61-.18-1.3-.61-1.62-.94.54-1.51 1.19-3.67 1.4-5.11l-1.44-.36z" class="cls-2"/></svg>