<svg xmlns="http://www.w3.org/2000/svg" id="Layer_1" width="400" height="200" viewBox="0 0 400 200"><defs><style>.cls-1{fill:#f16722}.cls-2{fill:#b3b4b4}</style></defs><path d="M96.82 180.7c0 1.15-.92 2.07-1.61 2.3-5.29.46-16.56.69-17.94.69-.92 0-1.61-.46-1.61-2.99 0-1.84 1.61-40.71 1.61-45.77 0-.69-.69-1.38-1.61-1.38-2.07.23-37.49 1.15-50.6 1.15h-9.43c-1.84-.23-2.53-.92-2.53-2.07 0-1.61 2.99-8.05 3.68-9.66 7.59-13.11 30.82-43.47 53.59-71.53 6.67-7.59 13.8-14.72 18.63-17.02 2.07-1.15 4.37-1.84 5.75-1.84 1.84 0 2.3 3.68 2.3 11.96l.23 76.82c14.03-.23 19.32-.46 22.77-.46.69 0 .46 2.3-.69 8.05-.46 2.76-1.15 3.91-2.76 3.91-4.37 0-16.1.46-19.55.69l-.23 47.15zM78.65 54.43c-15.18 18.4-34.96 44.39-47.84 65.78-.92 1.38.23 2.99 1.38 2.99 15.87 0 34.04-.46 45.31-1.15.46-12.42 2.76-61.41 2.76-64.4 0-3.68-1.15-4.14-1.61-3.22z" class="cls-2"/><path d="M144.19 22.7c0 9.2-4.83 31.28-7.59 41.4-.23.92-1.38 1.61-6.67 2.99-1.15.46-1.84.23-2.07-1.84 0-14.03-.46-29.9-2.07-39.56 0-.92.69-1.84 5.06-3.91 4.83-2.07 8.51-2.76 9.89-2.76 2.07 0 3.45 1.15 3.45 3.68z" class="cls-1"/><path d="M191.11 46.62c13.8-10.58 34.04-17.94 48.53-17.94 3.45 0 5.75 3.91 6.67 5.29.23.46-.46 1.15-1.15 1.15-18.17 2.76-39.79 12.19-53.13 29.9-10.58 13.8-14.26 31.97-14.49 36.57 3.22-1.15 20.47-9.66 27.83-12.42 2.76-.92 5.29-1.38 7.13-1.38 10.12 0 20.7 4.6 27.83 12.65 6.9 7.13 11.5 18.63 11.5 30.59 0 19.09-9.43 31.28-16.56 36.8-8.28 6.9-23.92 14.03-34.96 14.03-9.66 0-19.78-2.99-28.75-10.81-9.89-8.97-17.25-26.22-17.25-47.84 0-31.97 12.88-57.73 36.8-76.59zM221.7 167.6c3.68-2.53 12.42-12.42 12.42-28.98 0-6.9-1.84-16.1-7.36-23.46-6.44-8.51-14.72-13.57-25.53-13.57-8.05 0-18.17 5.06-24.84 8.97-.69.92-2.07 4.14-2.07 9.43 0 20.24 5.75 34.96 12.19 41.86 5.75 6.44 13.57 10.35 20.7 10.35 5.52 0 11.04-2.07 14.49-4.6z" class="cls-2"/><path d="M280.12 22.7c0 9.2-4.83 31.28-7.59 41.4-.23.92-1.38 1.61-6.67 2.99-1.15.46-1.84.23-2.07-1.84 0-14.03-.46-29.9-2.07-39.56 0-.92.69-1.84 5.06-3.91 4.83-2.07 8.51-2.76 9.89-2.76 2.07 0 3.45 1.15 3.45 3.68zm31.28 0c0 7.82-4.14 27.83-7.59 40.25-.46 1.15-1.38 1.84-6.9 4.14-.92.23-1.84.23-1.84-1.61 0-13.57-.69-30.13-2.07-40.02 0-.69.46-1.61 4.83-3.91 5.52-1.84 8.74-2.53 10.35-2.53 1.84 0 3.22 1.15 3.22 3.68z" class="cls-1"/><path d="M400 167.42c-4.54-2.52-7.18-7.11-7.18-13.63 0-12.65-.23-36.57.46-46.92.23-2.76.69-3.22 1.38-3.22 1.82-.07 3.6-.13 5.34-.18V91.59c-2.06.06-4.09.1-6.03.1 0-2.3 1.15-14.26 1.15-17.25 0-.92-.23-1.38-.69-1.38s-1.61.46-2.53 1.38c-5.06 5.29-19.32 19.09-27.83 26.68-.69.46.46 2.3 1.15 2.3 1.61.23 6.21.23 9.43.23 1.15.23 2.3 1.84 2.07 3.22-.46 6.44-.46 38.18-.92 50.6-.46 8.74.23 13.11 3.22 16.79 4.83 5.75 13.34 7.36 17.48 7.36 1.19 0 2.36-.07 3.5-.18v-14.02z" class="cls-2"/></svg>