<svg xmlns="http://www.w3.org/2000/svg" id="Layer_1" viewBox="0 0 571.29 343.35" width="571.29" height="343.35"><defs><style>.cls-1{fill:#505150}</style></defs><path d="M2.51 33.05h1.47c.61 0 .91-.35.95-.95L7.01 6.23h4.46l7.18 16.18c.74 1.64 1.51 3.85 1.51 3.85h.09s.78-2.21 1.51-3.85l7.18-16.18h4.46l2.08 25.87c.04.61.35.95.95.95h1.43v3.72h-3.85c-1.95 0-2.64-.82-2.77-2.77l-1.25-16.14c-.13-1.82-.09-4.5-.09-4.5h-.09s-.87 2.85-1.6 4.5l-6.19 13.41h-3.63L12.2 17.86c-.74-1.6-1.64-4.54-1.64-4.54h-.09s.04 2.73-.09 4.54L9.17 34c-.13 1.95-.82 2.77-2.81 2.77H2.51v-3.72zm39.97-13.62c0-.65-.35-.95-.95-.95h-1.77v-3.59h4.11c1.99 0 2.81.82 2.81 2.68v10.38c0 3.03.61 5.45 4.07 5.45 4.5 0 7.14-3.94 7.14-8.26V14.89h4.2v17.35c0 .65.35.95.95.95h1.77v3.59h-4.02c-1.86 0-2.77-.87-2.77-2.42v-.82c0-.69.04-1.25.04-1.25h-.09c-.91 2.16-3.72 5.02-8.05 5.02-4.93 0-7.44-2.6-7.44-8.39v-9.47zm26.61 11.2s2.6 3.24 6.62 3.24c2.03 0 3.81-.91 3.81-2.81 0-3.94-11.94-3.5-11.94-10.56 0-4.2 3.68-6.14 8.13-6.14 2.64 0 7.18.91 7.18 4.24v2.08h-3.76V19.6c0-1.3-1.95-1.86-3.29-1.86-2.47 0-4.07.87-4.07 2.6 0 4.15 11.94 3.24 11.94 10.56 0 3.89-3.46 6.4-8.05 6.4-5.84 0-8.74-3.85-8.74-3.85l2.16-2.81zm28.86-16.26c6.14 0 9.43 4.59 9.43 10.25 0 .56-.13 1.73-.13 1.73H91.29c.26 4.67 3.63 7.31 7.53 7.31s6.4-2.55 6.4-2.55l1.82 2.98s-3.24 3.2-8.44 3.2c-6.92 0-11.64-4.97-11.64-11.46 0-6.96 4.76-11.46 10.99-11.46zm5.1 8.91c-.13-3.63-2.42-5.58-5.15-5.58-3.2 0-5.8 1.95-6.45 5.58h11.59zm19.56-8.91c6.53 0 11.81 4.8 11.81 11.42s-5.28 11.51-11.81 11.51-11.77-4.84-11.77-11.51 5.23-11.42 11.77-11.42zm0 19.29c4.15 0 7.53-3.29 7.53-7.87S126.77 18 122.61 18s-7.48 3.24-7.48 7.79 3.37 7.87 7.48 7.87zM5.67 55.37h4.5l7.01 16.52c.69 1.69 1.51 4.11 1.51 4.11h.09s.82-2.42 1.51-4.11l7.01-16.52h4.5l2.47 30.54h-4.24l-1.51-19.25c-.13-1.86-.04-4.5-.04-4.5h-.09s-.91 2.81-1.64 4.5l-6.1 13.76h-3.81l-6.06-13.76c-.69-1.64-1.64-4.59-1.64-4.59h-.09s.04 2.73-.09 4.59L7.49 85.91H3.2l2.47-30.54zm34.78 8.66h4.2v13.06c0 3.03.61 5.45 4.11 5.45 4.46 0 7.09-3.94 7.09-8.26V64.03h4.2v21.89h-4.07v-2.9c0-.91.09-1.6.09-1.6h-.09c-.91 2.16-3.76 5.02-8.05 5.02-4.93 0-7.48-2.6-7.48-8.39V64.03zm26.44 16.22s2.47 2.55 6.27 2.55c1.82 0 3.63-.95 3.63-2.73 0-4.02-11.25-3.2-11.25-10.34 0-3.98 3.55-6.23 7.92-6.23 4.8 0 7.05 2.42 7.05 2.42l-1.69 3.16s-1.95-1.95-5.41-1.95c-1.82 0-3.59.78-3.59 2.68 0 3.94 11.25 3.07 11.25 10.25 0 3.63-3.11 6.36-7.92 6.36-5.36 0-8.31-3.2-8.31-3.2l2.03-2.98zm28.55-16.74c6.19 0 9.47 4.59 9.47 10.25 0 .56-.13 1.82-.13 1.82H88.82c.22 4.8 3.63 7.22 7.53 7.22s6.49-2.55 6.49-2.55l1.73 3.07s-3.24 3.11-8.48 3.11c-6.88 0-11.59-4.97-11.59-11.46 0-6.96 4.72-11.46 10.94-11.46zm5.19 8.91c-.13-3.76-2.47-5.58-5.28-5.58-3.2 0-5.8 1.99-6.4 5.58h11.68zm19.6-8.91c6.53 0 11.81 4.8 11.81 11.42s-5.28 11.51-11.81 11.51-11.81-4.84-11.81-11.51 5.28-11.42 11.81-11.42zm0 19.29c4.15 0 7.53-3.29 7.53-7.87s-3.37-7.79-7.53-7.79-7.53 3.24-7.53 7.79 3.42 7.87 7.53 7.87zm28.85-3.63s3.24 3.29 7.79 3.29c2.85 0 5.28-1.6 5.28-4.5 0-6.62-14.79-5.19-14.79-14.58 0-4.76 4.11-8.52 9.86-8.52s8.65 3.07 8.65 3.07l-1.95 3.55s-2.81-2.64-6.71-2.64c-3.24 0-5.54 2.03-5.54 4.46 0 6.32 14.79 4.63 14.79 14.54 0 4.72-3.63 8.61-9.69 8.61-6.49 0-10.12-4.02-10.12-4.02l2.42-3.24zm34.09-6.93h.95v-.39c0-3.59-2.03-4.8-4.8-4.8-3.37 0-6.1 2.12-6.1 2.12l-1.73-3.07s3.16-2.6 8.18-2.6c5.54 0 8.65 3.03 8.65 8.57v13.84h-3.89v-2.08c0-.99.09-1.73.09-1.73h-.09s-1.77 4.33-7.01 4.33c-3.76 0-7.44-2.29-7.44-6.66 0-7.22 9.52-7.53 13.19-7.53zm-4.85 10.81c3.55 0 5.84-3.72 5.84-6.96v-.69h-1.08c-3.16 0-8.87.22-8.87 4.15 0 1.77 1.38 3.5 4.11 3.5zm16.28-19.02h4.07v2.9c0 .87-.09 1.6-.09 1.6h.09c.87-1.9 3.46-5.02 8.22-5.02 5.15 0 7.53 2.81 7.53 8.39v14.02h-4.2V72.86c0-3.07-.65-5.49-4.15-5.49s-6.01 2.21-6.92 5.36c-.26.87-.35 1.86-.35 2.94v10.25h-4.2V64.03zm26.35 16.22s2.47 2.55 6.27 2.55c1.82 0 3.63-.95 3.63-2.73 0-4.02-11.25-3.2-11.25-10.34 0-3.98 3.55-6.23 7.92-6.23 4.8 0 7.05 2.42 7.05 2.42l-1.69 3.16s-1.95-1.95-5.41-1.95c-1.82 0-3.59.78-3.59 2.68 0 3.94 11.25 3.07 11.25 10.25 0 3.63-3.11 6.36-7.92 6.36-5.36 0-8.31-3.2-8.31-3.2l2.03-2.98zM1.64 131.68h3.81l1.95-23.84H3.51v-3.33h8.65l7.83 18.6c.48 1.25.69 2.21.69 2.21h.09s.22-.95.69-2.21l7.83-18.6h8.65v3.33h-3.89L36 131.68h3.81v3.37H28.04v-3.37h3.68l-1.38-18.26c-.04-.95.13-2.51.13-2.51h-.13s-.35 1.47-.69 2.34l-7.01 16.05h-3.81l-7.01-16.05c-.35-.87-.69-2.34-.69-2.34H11s.17 1.56.13 2.51l-1.38 18.26h3.68v3.37H1.64v-3.37zm43.57-15.27h-3.68v-3.24h7.87v13.15c0 3.03.61 5.45 4.11 5.45 4.37 0 7.09-4.2 7.09-8.52v-6.83h-3.68v-3.24h7.87v17.74c0 .61.35.95.95.95h2.29v3.2h-4.54c-1.9 0-2.77-.87-2.77-2.42v-.95c0-.74.09-1.3.09-1.3h-.09c-.43 1.17-2.9 5.19-8.35 5.19-4.72 0-7.18-2.6-7.18-8.39v-10.77zM71.17 128h3.68v1.43c0 1.86 2.6 2.73 5.02 2.73s4.41-.99 4.41-2.81c0-2.21-2.42-2.9-5.45-3.98-3.24-1.21-6.83-2.68-6.83-6.66 0-4.33 4.28-6.06 8.09-6.06 3.07 0 7.57 1.21 7.57 4.41v2.64h-3.68v-1.43c0-1.34-1.73-2.25-3.85-2.25s-3.89.87-3.89 2.64c0 2.08 2.42 2.94 5.06 3.85 3.37 1.12 7.22 2.55 7.22 6.62s-3.81 6.45-8.78 6.45c-3.98 0-8.56-1.77-8.56-5.23v-2.34zm31.8-15.35c6.23 0 9.47 4.59 9.47 10.25 0 .56-.13 1.6-.13 1.6H96.3c.26 4.85 3.68 7.44 7.57 7.44s6.53-2.47 6.53-2.47l1.73 3.07s-3.29 3.03-8.52 3.03c-6.88 0-11.59-4.97-11.59-11.46 0-6.96 4.72-11.46 10.94-11.46zm5.15 9.17c-.13-3.85-2.47-5.84-5.23-5.84-3.2 0-5.8 2.16-6.4 5.84h11.64zm19.68-9.17c6.53 0 11.81 4.8 11.81 11.42s-5.28 11.51-11.81 11.51-11.81-4.84-11.81-11.51 5.28-11.42 11.81-11.42zm0 19.29c4.11 0 7.53-3.29 7.53-7.87s-3.42-7.79-7.53-7.79-7.53 3.24-7.53 7.79 3.37 7.87 7.53 7.87zm30.63-6.06v2.25c0 2.25 2.9 3.59 6.1 3.59 3.5 0 6.06-1.64 6.06-4.67 0-3.55-3.59-4.72-7.35-6.19-4.02-1.51-8.13-3.24-8.13-8.65 0-5.75 4.63-8.22 9.78-8.22 4.59 0 9.26 1.73 9.26 5.06v3.59h-4.02v-2.12c0-1.77-2.73-2.73-5.23-2.73-2.98 0-5.36 1.38-5.36 4.2 0 3.24 3.07 4.33 6.49 5.62 4.5 1.69 8.95 3.42 8.95 9.08s-4.76 8.87-10.43 8.87c-4.76 0-10.08-2.12-10.08-6.49v-3.2h3.98zm22.41-18.12h-3.63v-3.24h7.83v24.05c0 1.86.43 3.11 2.34 3.11.69 0 1.17-.04 1.17-.04l-.04 3.46s-.87.09-1.86.09c-3.11 0-5.8-1.25-5.8-6.36v-21.07zm23.19 13.84h1.38v-.82c0-3.46-1.99-4.67-4.67-4.67-3.46 0-6.27 2.12-6.27 2.12l-1.69-2.98s3.2-2.6 8.31-2.6c5.58 0 8.52 2.9 8.52 8.44v9.78c0 .65.35.95.95.95h2.21v3.24h-4.37c-1.95 0-2.73-.95-2.73-2.38v-.3c0-.87.17-1.43.17-1.43h-.09s-1.9 4.63-7.22 4.63c-3.63 0-7.27-2.12-7.27-6.62 0-6.88 9.13-7.35 12.76-7.35zm-4.59 10.73c3.72 0 6.01-3.81 6.01-7.09v-.91h-1.08c-1.99 0-8.87.09-8.87 4.28 0 1.95 1.43 3.72 3.94 3.72zm18.09-24.57h-3.68v-3.24h7.87v10.12c0 1.04-.13 1.82-.13 1.82h.09s1.95-3.81 7.05-3.81c5.93 0 9.65 4.67 9.65 11.46s-4.2 11.46-9.99 11.46c-5.06 0-6.92-3.98-6.92-3.98h-.09s.13.78.13 1.73v1.73h-3.98v-27.3zm10.3 24.18c3.42 0 6.27-2.81 6.27-7.79s-2.55-7.83-6.19-7.83c-3.24 0-6.32 2.29-6.32 7.87 0 3.89 2.03 7.74 6.23 7.74zM27.51 232.09l-2.34-6.83H13.1l-2.29 6.83 3.5.39v2.34H4.37v-2.29l1.86-.48c.69-.17.91-.3 1.08-.82l9.52-27.73h5.02l9.69 27.77c.17.52.52.61 1.04.74l1.95.48v2.34H23.97v-2.34l3.55-.39zm-3.29-9.99l-5.02-15.23-5.1 15.23h10.12zm28.08 9.82c-1.99 1.9-4.24 3.42-7.61 3.42-4.93 0-8.18-3.2-8.18-11.16 0-8.52 3.85-12.03 9.04-12.03 2.6 0 4.93.87 6.62 2.08v-8.09c0-.43-.17-.74-.56-.87l-2.6-.82.39-2.29h6.62v29.16c0 .69.04.78.69.87l2.21.3v2.34h-6.1l-.35-2.86-.17-.04zm-6.14-16.53c-4.07 0-5.67 3.55-5.67 8.7 0 6.01 2.03 7.96 5.06 7.96 2.55 0 4.63-1.69 6.53-3.59v-10.73c-1.3-1.08-3.63-2.34-5.93-2.34zm26.09 19.95c-7.83 0-10.38-5.15-10.38-11.59 0-7.92 4.41-11.59 9.86-11.59s8.91 2.86 8.91 10.34c0 .56-.04 1.43-.09 2.16H66.02c.13 4.37 1.9 7.35 6.62 7.35 2.42 0 3.94-.43 6.23-1.56l1.25 2.94c-2.16 1.21-4.76 1.95-7.87 1.95zm-.52-20.03c-2.9 0-5.32 1.56-5.67 6.36H76.7c-.09-4.93-2.34-6.36-4.97-6.36zm14.49 16.87c.61-.04.69-.22.69-.87v-25.13c0-.48-.13-.78-.56-.91l-2.6-.82.39-2.29h6.71v29.16c0 .69.04.78.69.87l2.6.3v2.34h-10.6v-2.38l2.68-.26zm12.85 0c.61-.04.69-.22.69-.87v-25.13c0-.48-.13-.78-.56-.91l-2.6-.82.39-2.29h6.71v29.16c0 .69.04.78.69.87l2.6.3v2.34h-10.6v-2.38l2.68-.26zm20.98 3.16c-7.83 0-10.38-5.15-10.38-11.59 0-7.92 4.41-11.59 9.86-11.59s8.91 2.86 8.91 10.34c0 .56-.04 1.43-.09 2.16h-14.53c.13 4.37 1.9 7.35 6.62 7.35 2.42 0 3.94-.43 6.23-1.56l1.25 2.94c-2.16 1.21-4.76 1.95-7.87 1.95zm-.52-20.03c-2.9 0-5.32 1.56-5.67 6.36h10.64c-.09-4.93-2.34-6.36-4.97-6.36zm-88.95 68.65h-4.37l-3.16-9.3H11.02l-3.07 9.3H3.94l10.56-31.32h5.19l10.9 31.32zM17 256.27l-5.02 14.97h10.08l-5.02-14.97H17zm33.01 27.69l-.3-2.38-.04-.04c-1.9 1.73-4.15 2.94-7.35 2.94-5.06 0-8.48-3.2-8.48-11.29 0-8.78 4.46-11.94 9.39-11.94 2.55 0 4.67.82 6.23 2.08V251.3h3.85v32.66h-3.29zm-6.27-19.34c-4.28 0-5.84 3.42-5.84 8.56 0 5.41 1.69 8 5.58 8 2.29 0 4.54-1.34 5.93-2.72v-11.9c-1.04-.78-3.11-1.95-5.67-1.95zm15.01 8.26c0-8.13 4.76-11.64 10.47-11.64 6.23 0 8.82 4.11 8.82 9.6 0 .87-.04 1.86-.17 2.9H62.9c.17 5.67 2.68 7.44 6.23 7.44 3.16 0 4.63-1.43 5.23-3.94l3.46.78c-.91 4.33-4.37 6.45-8.82 6.45-7.87 0-10.25-5.49-10.25-11.59zm10.21-8.44c-2.94 0-5.8 1.77-6.01 6.19h11.03c0-3.98-1.51-6.19-5.02-6.19zm14.8 19.52V251.3h3.94v32.66h-3.94zm10.77 0V251.3h3.94v32.66h-3.94zm9.39-11.08c0-8.13 4.76-11.64 10.47-11.64 6.23 0 8.82 4.11 8.82 9.6 0 .87-.04 1.86-.17 2.9h-14.97c.17 5.67 2.68 7.44 6.23 7.44 3.16 0 4.63-1.43 5.23-3.94l3.46.78c-.91 4.33-4.37 6.45-8.82 6.45-7.87 0-10.25-5.49-10.25-11.59zm10.21-8.44c-2.94 0-5.8 1.77-6.01 6.19h11.03c0-3.98-1.51-6.19-5.02-6.19zm27.21-4.1c0 3.81 3.55 4.89 7.48 6.06 4.59 1.34 9.56 2.81 9.56 8.87 0 6.62-5.28 9.21-11.07 9.21-6.53 0-10.6-2.6-11.42-9.04l3.81-.56c.74 3.33 2.29 6.23 7.66 6.23 3.37 0 6.96-1.12 6.96-5.28 0-3.89-3.5-4.93-7.35-6.01-4.67-1.3-9.69-2.64-9.69-9.08 0-5.36 4.5-8.65 10.56-8.65 5.49 0 9.65 2.12 10.3 8.83l-3.72.43c-.48-2.98-1.69-5.88-6.53-5.88s-6.53 2.12-6.53 4.89zm39.93 21.15c.39 0 .78-.09 1.34-.26l.17 2.46c-.87.43-1.99.69-3.07.69-2.21 0-3.2-1.21-3.42-2.64-1.73 1.73-4.02 2.73-7.14 2.73-5.62 0-6.58-3.81-6.58-5.97 0-5.93 5.23-7.57 11.51-7.57.69 0 1.34.04 1.95.09v-2.16c0-2.81-.78-4.54-4.41-4.54-3.07 0-4.24 1.21-4.71 3.68l-3.46-.65c.69-4.15 3.37-6.1 8.52-6.1 5.49 0 7.96 2.12 7.96 7.66v10.86c0 1.21.22 1.73 1.34 1.73zm-7.44-7.74c-3.07 0-7.18.3-7.18 4.11 0 1.9.69 3.55 3.72 3.55 2.29 0 4.5-1.21 5.71-2.51v-5.02c-.61-.09-1.43-.13-2.25-.13zm27.99 10.21v-14.49c0-3.07-1.12-4.76-4.15-4.76-2.55 0-5.32 1.64-6.49 2.68v16.57h-3.94v-22.23h3.46l.22 2.64c2.16-1.73 4.93-3.12 8-3.12 4.76 0 6.83 2.6 6.83 7.61v15.1h-3.94zm25.96-16.27l-3.55.78c-.52-2.55-1.38-4.11-4.63-4.11s-4.28 1.43-4.28 3.11c0 2.29 1.82 2.94 4.93 3.59 4.07.87 7.92 1.69 7.92 6.66 0 4.24-3.29 6.75-8.69 6.75-5.1 0-8.18-1.99-8.87-6.45l3.5-.95c.61 2.38 1.6 4.28 5.54 4.28 2.68 0 4.63-.82 4.63-3.2s-1.82-2.9-4.85-3.5c-3.63-.74-8-1.51-8-6.71 0-4.5 3.72-6.71 8.22-6.71 5.28 0 7.44 2.51 8.13 6.45zM23.79 333.1l-2.85-9.43H10.3l-2.86 9.43H3.42l9.73-31.32h4.97l10.04 31.32h-4.37zm-12.67-12.72h8.95l-4.46-14.75h-.04l-4.46 14.75zm20.68 2.12c0-8.65 4.02-12.07 9.47-12.07 2.85 0 4.63 1.17 6.36 2.42l.3-.09v-12.33h3.94v32.66h-3.33l-.26-2.25-.26-.09c-2.25 1.73-4.46 2.85-7.05 2.85-5.58 0-9.17-2.98-9.17-11.12zm16.14 5.1v-11.72c-1.12-.87-3.24-2.29-6.1-2.29-4.67 0-5.97 3.68-5.97 8.87 0 5.8 1.99 7.96 5.58 7.96 2.94 0 5.19-1.6 6.49-2.81zm11.16-5.66c0-7.79 4.46-11.51 10.73-11.51s9.86 2.86 9.86 10.34c0 .56 0 1.21-.09 2.12H63.25c.13 4.41 1.9 7.4 7.57 7.4 3.24 0 4.93-.65 7.14-1.82l1.21 2.94c-2.03 1.25-4.8 2.21-8.74 2.21-8.82 0-11.33-5.15-11.33-11.68zm16.61-1.86c-.09-4.89-2.38-6.49-5.84-6.49-3.72 0-6.23 1.64-6.58 6.49h12.42zm30.46 10.12v2.9H86.18v-2.9h8.35v-26.82h-8.35v-2.94h12.29v29.76h7.7zm26.82 0v2.9H113v-2.9h8.35v-26.82H113v-2.94h12.29v29.76h7.7zm6.58-8.26c0-7.79 4.46-11.51 10.73-11.51s9.86 2.86 9.86 10.34c0 .56 0 1.21-.09 2.12h-16.35c.13 4.41 1.9 7.4 7.57 7.4 3.24 0 4.93-.65 7.14-1.82l1.21 2.94c-2.03 1.25-4.8 2.21-8.74 2.21-8.82 0-11.33-5.15-11.33-11.68zm16.61-1.86c-.09-4.89-2.38-6.49-5.84-6.49-3.72 0-6.23 1.64-6.58 6.49h12.42zm35.78-18.3h5.36l6.32 16.52h.17l5.97-16.52h5.36v31.32h-3.76l.22-26.21-.17-.09-6.19 16.35h-3.2l-6.36-16.39-.17.04.17 26.3h-3.72v-31.32zm27.86 20.12c0-6.79 3.42-11.46 10.86-11.46s10.25 4.72 10.25 11.2c0 7.27-3.29 11.98-10.69 11.98s-10.43-4.84-10.43-11.72zm17.04 0c0-5.67-2.03-8.31-6.27-8.31s-6.71 2.64-6.71 8.35 2.21 8.61 6.49 8.61 6.49-2.72 6.49-8.65zm11.12 11.2v-22.24h3.55v3.2l.3.09c1.82-2.08 4.07-3.72 7.83-3.72 5.06 0 6.75 3.03 6.75 8.05v14.62h-3.94v-13.58c0-3.94-.69-5.71-4.02-5.71-2.94 0-5.36 1.9-6.53 3.03v16.27h-3.94zm25.49-11.2c0-6.79 3.42-11.46 10.86-11.46s10.25 4.72 10.25 11.2c0 7.27-3.29 11.98-10.68 11.98s-10.42-4.84-10.42-11.72zm17.04 0c0-5.67-2.03-8.31-6.27-8.31s-6.71 2.64-6.71 8.35 2.21 8.61 6.49 8.61 6.49-2.72 6.49-8.65zm71.42-88.34c.09-2.55.43-4.97 1.04-7.44.82-.22 1.56-.09 2.29.17.09 1.6.26 3.37.61 5.28 1.56.52 3.37.78 5.84.78 2.08 0 3.94-.87 4.15-1.08 1-.95 1.47-2.38 1.47-4.41 0-2.25-2.12-3.89-4.33-4.71l-3.16-1.21c-3.2-1.21-7.35-3.16-7.35-7.53 0-6.06 5.36-8.22 9.78-8.22 2.6 0 5.93.56 8.35 1.51a26.24 26.24 0 0 1-.95 6.58c-.87.22-1.64.17-2.25-.17-.13-1.47-.3-2.86-.65-4.24-1.43-.39-3.16-.56-4.97-.56-2.03 0-3.85.48-4.11.69-.74.65-1.25 1.56-1.25 3.07 0 2.55 2.47 4.15 4.5 4.89l3.72 1.34c3.24 1.17 6.71 3.38 6.71 7.44 0 5.41-3.76 9.73-9.91 9.73-3.76 0-7.35-.74-9.52-1.9zm22.24-.64c1.21-.13 2.59-.43 3.46-.74.13-.95.17-1.56.17-2.42v-24.18c-1.08-.3-2.29-.56-3.42-.69-.17-.56-.26-1.12-.17-1.69 1.73-.65 4.67-1.3 7.05-1.51l.35.35c-.13 4.33-.17 7.7-.17 12.46v8.87c1.34-.48 2.6-1.04 3.5-1.51l3.98-4.8-2.68-.65c0-.69.13-1.47.3-1.95 1.38 0 3.38.09 5.28.09 1.04 0 2.38-.04 3.63-.09.17.39.26 1.25.26 1.9-.95.39-1.95.69-2.9.82l-5.54 5.93c1.38 2.68 3.37 6.06 4.8 7.7 1.17 1.3 1.99 1.86 3.59 1.86.43 0 .95-.04 1.38-.13.39.43.61 1.12.48 1.69-.78.43-3.59 1.04-5.41 1.04-3.03 0-5.88-5.28-7.53-10.43l-3.16.87v3.2c0 1.17.04 2.21.13 3.24 1.17.13 2.47.43 3.25.78 0 .65-.09 1.56-.26 1.95-1.17-.04-3.81-.09-4.84-.09-1.77 0-3.59.09-5.23.09-.17-.35-.3-1.25-.3-1.95zm24.62-7.92c0-5.23 3.55-11.12 9.6-11.12s9.13 4.5 9.13 10.43c0 5.23-3.55 11.12-9.6 11.12s-9.13-4.37-9.13-10.43zm12.89 6.71c1.21-1.3 2.16-3.59 2.16-6.19 0-3.68-1.6-8.74-6.23-8.74-.91 0-2.47.3-2.99.82-1.21 1.3-2.16 3.59-2.16 6.19 0 3.68 1.6 8.74 6.23 8.74.91 0 2.47-.3 2.99-.82zm8.35 1.21c1.21-.13 2.6-.43 3.46-.74.13-.95.17-1.56.17-2.42v-24.18c-1.12-.3-2.29-.56-3.42-.69-.17-.56-.26-1.12-.17-1.69 1.73-.65 4.67-1.3 7.05-1.51l.35.35c-.13 4.33-.17 7.7-.17 12.46v14.41c0 1.17.04 2.21.13 3.24 1.17.13 2.47.43 3.24.78 0 .65-.09 1.56-.26 1.95-1.17-.04-3.81-.09-4.84-.09-1.77 0-3.59.09-5.23.09-.17-.35-.3-1.25-.3-1.95zm13.2-2.64c0-4.85 6.27-7.14 11.81-8.13 0-3.33-.69-5.54-3.63-5.54-1.12 0-2.29.09-3.42.35-.26 1.12-.3 2.29-.3 3.5-.82.39-1.69.56-2.51.3-.65-1.34-1.04-3.11-1.04-4.63 2.08-1.25 4.71-2.21 7.7-2.21 2.55 0 6.83.95 6.83 6.83v8.13c0 1.17.04 2.47.22 3.42.95-.13 1.95-.43 2.77-.69.39.39.65.95.65 1.6-1.34 1.17-3.42 2.21-4.93 2.21-.87 0-1.69-1.43-2.12-3.46-2.42 2.16-5.19 3.46-7.14 3.46-2.85 0-4.89-1.95-4.89-5.15zm7.09 1.86c1.3 0 3.37-1.04 4.72-2.25v-5.1c-3.42.39-6.58 1.3-7.09 1.82-.52.52-.87 1.69-.87 2.6 0 1.6.95 2.94 3.24 2.94zm13.8.78c1.21-.13 2.6-.43 3.46-.74.13-.95.17-1.56.17-2.42v-11.81c-1.12-.35-2.29-.56-3.42-.69-.17-.56-.26-1.17-.17-1.69 1.6-.65 3.94-1.34 6.14-1.56l.35.3c.22.74.61 2.68.74 3.76 1.34-2.12 3.37-4.07 6.01-4.07 1.3 0 2.55.22 3.5.56 0 3.07-.22 4.97-.78 7.44-.78.26-1.51.26-2.25 0-.09-1.47-.26-3.55-.52-4.8-.3-.04-.65-.09-1.12-.09-1.64 0-3.07.52-4.85 3.37v8.39c0 1.17.04 2.21.13 3.24 1.9.13 4.02.43 5.1.78 0 .65-.09 1.56-.26 1.95-1.6-.04-5.28-.09-6.71-.09-1.77 0-3.59.09-5.23.09-.17-.35-.3-1.25-.3-1.95zm-92.88 21.45c2.59 0 5.32.69 7.31 1.69l-1.04 2.68c-1.73-.65-4.11-1.21-6.45-1.21-2.9 0-6.45 1.04-6.45 4.67 0 3.2 2.9 4.37 6.23 5.58 4.15 1.6 8.61 3.16 8.61 8.44 0 5.67-4.84 8.35-10.34 8.35-3.42 0-6.96-1.12-9.08-2.68l1.34-2.68c2.29 1.38 4.97 2.21 7.83 2.21 3.24 0 6.66-1.34 6.66-4.89s-3.29-4.54-6.83-5.84c-3.94-1.51-8-3.16-8-8.18 0-5.71 5.15-8.13 10.21-8.13zm30.02 9.39c-.09.52-.43 1.08-.99 1.64l-6.58 7.44 7.14 9.26c.48.61.87 1.3 1.04 1.86h-3.72l-6.62-8.78-3.16 3.37v5.41h-3.42v-32.4l3.42-.09v22.84l9.43-10.55h3.46zm12.16-.61c5.45 0 8.74 4.41 8.74 10.38 0 5.45-3.03 11.03-9.26 11.03-5.41 0-8.74-4.33-8.74-10.34 0-5.36 3.03-11.07 9.26-11.07zm-.35 2.94c-1.56 0-2.73.61-3.5 1.34-1.17 1.3-1.95 3.42-1.95 6.32 0 4.63 1.95 7.87 5.62 7.87 1.6 0 2.77-.61 3.5-1.38 1.21-1.3 1.9-3.5 1.9-6.19 0-4.63-1.9-7.96-5.58-7.96zm18.13-14.62v28.08c0 1.38.39 1.95 1.25 1.95.43 0 1-.09 1.6-.3l.74 2.55a8.85 8.85 0 0 1-3.42.69c-2.29 0-3.55-1.38-3.55-3.98v-28.9l3.37-.09zm15.36 11.81c4.33 0 6.23 2.34 6.23 7.66v5.19c0 1.56.04 3.33.35 7.61l-2.86.43-.56-2.77c-2.16 1.9-4.58 3.03-7.05 3.03-3.24 0-5.28-1.95-5.28-5.06 0-2.08 1.08-3.81 2.77-4.89 1.73-1.12 4.58-1.77 9.26-2.16v-.3c0-4.28-.95-5.75-3.46-5.75-2.03 0-4.33.95-6.45 2.42l-1.25-2.12c2.25-1.95 5.1-3.29 8.31-3.29zm2.85 15.62v-4.07c-4.41.35-6.36.87-7.4 1.51-.69.52-1.3 1.34-1.3 2.64 0 1.77.99 2.73 2.64 2.73 1.77 0 3.94-.95 6.06-2.81zm12.72-15.45l.69 3.81c1.43-2.55 3.29-3.98 5.58-3.98 1.17 0 2.12.35 2.81.78l-.69 3.11c-.78-.22-1.47-.3-2.34-.3-1.95 0-3.76 1.08-5.15 3.55v13.54h-3.42v-12.29c0-1.56-.04-3.46-.35-7.83l2.86-.39zm31.2-9.08c2.6 0 5.32.69 7.31 1.69l-1.04 2.68c-1.73-.65-4.11-1.21-6.45-1.21-2.9 0-6.45 1.04-6.45 4.67 0 3.2 2.9 4.37 6.23 5.58 4.15 1.6 8.61 3.16 8.61 8.44 0 5.67-4.85 8.35-10.34 8.35-3.42 0-6.96-1.12-9.08-2.68l1.34-2.68c2.29 1.38 4.98 2.21 7.83 2.21 3.24 0 6.66-1.34 6.66-4.89s-3.29-4.54-6.83-5.84c-3.94-1.51-8-3.16-8-8.18 0-5.71 5.15-8.13 10.21-8.13zm21.24 8.91c4.33 0 6.23 2.34 6.23 7.66v5.19c0 1.56.04 3.33.35 7.61l-2.85.43-.56-2.77c-2.16 1.9-4.59 3.03-7.05 3.03-3.24 0-5.28-1.95-5.28-5.06 0-2.08 1.08-3.81 2.77-4.89 1.73-1.12 4.59-1.77 9.26-2.16v-.3c0-4.28-.95-5.75-3.46-5.75-2.03 0-4.33.95-6.45 2.42l-1.25-2.12c2.25-1.95 5.1-3.29 8.31-3.29zm2.86 15.62v-4.07c-4.41.35-6.36.87-7.4 1.51-.69.52-1.3 1.34-1.3 2.64 0 1.77 1 2.73 2.64 2.73 1.77 0 3.94-.95 6.06-2.81zm12.71-15.45l.56 2.81c2.12-2.03 4.41-3.12 7.18-3.12 4.46 0 6.01 2.55 6.01 7.05v13.76h-3.42v-12.46c0-3.63-.69-5.41-3.37-5.41-2.16 0-4.2 1.04-6.06 2.59v15.27h-3.42v-12.29c0-1.56-.04-3.55-.35-7.83l2.86-.39zm26.87-.17c2.51 0 4.59.91 6.14 2.16l-1.47 2.21c-1.47-.95-3.03-1.51-4.71-1.51-2.21 0-3.63 1.04-3.63 2.6 0 1.9 1.99 2.68 4.33 3.59 3.24 1.21 6.14 2.47 6.14 6.01s-3.07 6.1-7.66 6.1c-2.81 0-5.19-.95-7.14-2.42l1.43-2.29c1.73 1.12 3.55 1.86 5.62 1.86 2.42 0 4.2-1.04 4.2-2.9 0-2.12-2.42-2.9-5.02-3.94-2.94-1.12-5.32-2.47-5.36-5.58-.09-3.68 3.24-5.88 7.14-5.88zM380.06 27.04c-.26 6.45-3.85 10.3-9.56 10.3-6.88 0-11.46-5.97-11.46-14.92s4.54-15.01 11.59-15.01c2.86 0 4.8.74 6.79 2.55l1.51-2.47h.78v8.48h-1c-1.21-4.89-3.63-7.18-7.57-7.18-5.28 0-8.22 4.8-8.22 13.45s2.94 13.15 8.13 13.15c4.37 0 7.14-3.07 7.44-8.35h1.56zm21.29-.39c0 6.14-3.55 10.6-8.44 10.6s-8.44-4.37-8.44-10.64 3.55-10.77 8.61-10.77 8.26 4.33 8.26 10.81zm-13.24-.09c0 6.36 1.6 9.56 4.76 9.56s4.84-3.29 4.84-9.43c0-6.49-1.56-9.73-4.71-9.73s-4.89 3.37-4.89 9.6zm16.22-9.86c2.29-.22 4.15-.56 5.71-1.04.26 1.69.35 2.38.39 4.11.99-2.51 2.81-3.94 5.02-3.94s3.76 1.47 3.76 3.5c0 1.25-.69 2.08-1.77 2.08s-1.77-.61-1.77-1.43q0-.22.13-.91c.04-.13.04-.26.04-.39 0-.61-.56-1.04-1.3-1.04-2.25 0-3.68 2.73-3.68 7.01v9.04c0 1.86.43 2.21 3.07 2.34v.87c-2.25-.22-3.33-.26-4.8-.26s-2.6.04-4.85.26v-.87c2.64-.13 3.12-.48 3.12-2.34V20.24c0-2.68-.04-2.77-3.07-2.81v-.74zm17.09-.04c2.64-.22 3.68-.35 5.67-.78.3 1.08.43 1.73.56 3.63 1.38-2.47 3.03-3.55 5.49-3.55 4.76 0 8.18 4.41 8.18 10.6s-3.33 10.6-8.05 10.6c-2.38 0-3.68-.82-5.28-3.37v8.44c0 1.9.43 2.21 3.07 2.34v.87c-2.25-.22-3.33-.26-4.8-.26s-2.6.04-4.85.26v-.87c2.68-.13 3.12-.43 3.12-2.34V20.04c0-2.08-.43-2.51-2.51-2.6h-.61v-.78zm6.53 9.56c0 6.45 1.69 9.73 4.97 9.73s4.76-3.11 4.76-9.3-1.73-9.47-4.93-9.47-4.8 3.11-4.8 9.04zm33.66.43c0 6.14-3.55 10.6-8.43 10.6s-8.44-4.37-8.44-10.64 3.55-10.77 8.61-10.77 8.26 4.33 8.26 10.81zm-13.24-.09c0 6.36 1.6 9.56 4.76 9.56s4.84-3.29 4.84-9.43c0-6.49-1.56-9.73-4.71-9.73s-4.89 3.37-4.89 9.6zm16.23-9.86c2.29-.22 4.15-.56 5.71-1.04.26 1.69.35 2.38.39 4.11 1-2.51 2.81-3.94 5.02-3.94s3.76 1.47 3.76 3.5c0 1.25-.69 2.08-1.77 2.08s-1.77-.61-1.77-1.43q0-.22.13-.91c.04-.13.04-.26.04-.39 0-.61-.56-1.04-1.3-1.04-2.25 0-3.68 2.73-3.68 7.01v9.04c0 1.86.43 2.21 3.07 2.34v.87c-2.25-.22-3.33-.26-4.8-.26s-2.6.04-4.84.26v-.87c2.64-.13 3.11-.48 3.11-2.34V20.24c0-2.68-.04-2.77-3.07-2.81v-.74zm34.56 20.07c-1.08.22-1.64.3-2.38.3-2.12 0-3.07-1.08-3.33-3.68-1.56 2.77-3.07 3.76-5.84 3.76-3.55 0-6.01-2.29-6.01-5.58 0-2.64 1.56-4.54 4.93-5.93 1.99-.82 3.85-1.3 6.4-1.6v-2.6c0-1.6-.17-2.42-.65-3.07-.61-.78-1.64-1.25-2.94-1.25-2.12 0-3.59 1.04-3.59 2.55v.35c.04.3.04.52.04.69 0 1.21-.61 1.86-1.77 1.86-.91 0-1.43-.52-1.43-1.47 0-2.77 3.29-5.15 7.09-5.15 2.38 0 4.54.95 5.67 2.47.74 1.04 1.04 2.34 1.04 4.67v8.83c0 2.94.39 3.85 1.69 3.85.3 0 .56-.04 1.08-.13v1.12zm-6.23-11.59c-5.45.95-7.83 2.81-7.83 6.19 0 2.47 1.34 3.94 3.59 3.94 2.98 0 4.24-1.9 4.24-6.4v-3.72zm19.99 10.64c-1.51.95-2.73 1.34-4.24 1.34-2.08 0-3.55-.82-4.28-2.42-.39-.87-.52-1.95-.52-3.89v-.78l.22-12.11h-2.81v-1.34c2.73-.09 4.37-2.12 5.19-6.45h1.08v6.19h5.02v1.6h-5.06v12.59c0 3.76.61 4.93 2.6 4.93.82 0 1.51-.22 2.81-.91v1.25zm18.04-5.71c-.52 4.46-3.37 7.09-7.7 7.09-5.32 0-8.69-4.11-8.69-10.69s3.42-10.6 8.48-10.6 7.74 3.68 7.87 10.17h-12.85c.09 3.11.26 4.63.78 6.01.87 2.47 2.51 3.68 4.93 3.68 3.03 0 4.97-1.99 5.49-5.67h1.69zm-3.5-5.58c-.22-5.06-1.69-7.48-4.46-7.48s-4.41 2.51-4.85 7.48h9.3zm23.75 3.89l-1.43 4.07c-.39 1.21-.52 1.64-.52 2.03 0 .91.69 1.21 2.86 1.34v1.04c-1.82-.17-2.81-.22-4.11-.22s-2.29.04-4.11.22v-1.04c2.64-.17 3.2-.56 4.15-3.07l9.86-25.78 8.91 26.26c.69 1.99 1.3 2.38 4.02 2.6v1.04c-2.25-.26-3.5-.35-5.28-.35s-3.03.09-5.28.35v-1.04c2.03-.17 2.77-.52 2.77-1.3 0-.22-.17-1.12-.26-1.47l-1.47-4.67H551.2zm9.69-1.34l-4.24-13.24-4.93 13.24h9.17zM375.78 65.06c-.82-3.81-3.03-5.67-6.58-5.67-5.15 0-8.39 4.67-8.39 12.11s3.2 12.07 8.44 12.07c4.02 0 6.49-2.6 6.96-7.44h3.07c-.52 6.58-4.11 10.3-9.91 10.3-7.35 0-12.03-5.75-12.03-14.84s4.67-15.05 11.9-15.05c5.36 0 8.83 3.11 9.56 8.52h-3.03zM401 75.66c0 6.32-3.68 10.77-8.95 10.77s-8.96-4.41-8.96-10.94c0-6.19 3.72-10.64 8.96-10.64S401 69.26 401 75.66zm-14.79-.13c0 5.02 2.29 8.31 5.84 8.31s5.84-3.29 5.84-8.22-2.34-8.18-5.84-8.18-5.84 3.29-5.84 8.09zm22.49-10.12c.26 1.04.39 2.12.39 3.16l-.04 1.25c1.43-3.42 3.07-4.97 5.28-4.97.78 0 1.6.22 2.47.65v3.03c-1.38-.65-1.95-.82-2.73-.82-1.6 0-3.03 1.17-3.94 3.16-.65 1.43-.91 3.16-.91 5.88v9.17h-3.07V72.47c0-4.71-.04-5.06-.35-7.05h2.9zm11.99 6.1c0-3.55-.09-4.63-.39-6.1h2.99c.26.91.3 1.34.35 3.03 1.47-2.51 3.2-3.59 5.8-3.59 4.89 0 8.13 4.37 8.13 10.86s-3.16 10.73-7.92 10.73c-2.59 0-4.41-1.04-5.93-3.37v11.38h-3.03V71.52zm2.98 4.15c0 4.85 2.25 8.13 5.54 8.13s5.23-3.03 5.23-8-2.03-8.31-5.23-8.31-5.54 3.24-5.54 8.18zm35.69 0c0 6.32-3.68 10.77-8.96 10.77s-8.95-4.41-8.95-10.94c0-6.19 3.72-10.64 8.95-10.64s8.96 4.41 8.96 10.81zm-14.79-.13c0 5.02 2.29 8.31 5.84 8.31s5.84-3.29 5.84-8.22-2.34-8.18-5.84-8.18-5.84 3.29-5.84 8.09zm22.5-10.12c.26 1.04.39 2.12.39 3.16l-.04 1.25c1.43-3.42 3.07-4.97 5.28-4.97.78 0 1.6.22 2.47.65v3.03c-1.38-.65-1.95-.82-2.73-.82-1.6 0-3.03 1.17-3.94 3.16-.65 1.43-.91 3.16-.91 5.88v9.17h-3.07V72.47c0-4.71-.04-5.06-.35-7.05h2.9zm11.42 5.36c.43-3.85 3.12-5.93 7.66-5.93 3.33 0 5.8 1.25 6.58 3.37.39 1.04.48 2.03.48 4.59v7.7c0 3.33.09 3.98.56 5.41h-2.9c-.3-.95-.35-1.43-.48-2.77-1.21 2.21-3.2 3.29-6.01 3.29-4.02 0-6.62-2.34-6.62-5.93 0-2.85 1.64-4.98 4.76-6.14 1.99-.74 3.89-1.17 7.7-1.82v-.87c0-3.07-1.17-4.24-4.2-4.24-2.64 0-4.11 1.04-4.54 3.33h-2.99zm11.72 4.02c-6.92 1.21-9.34 2.68-9.34 5.49 0 2.12 1.6 3.59 3.98 3.59 1.95 0 3.63-.91 4.54-2.42.56-1 .82-2.42.82-4.63v-2.03zm18.34-9.38v2.47h-4.89l-.22 10.38v2.12c0 2.6.48 3.33 2.29 3.33.91 0 2.03-.26 2.94-.74v2.68c-1.38.52-2.38.69-3.63.69-1.99 0-3.5-.65-4.2-1.86-.43-.69-.56-1.47-.56-2.98 0-.39 0-1.08.04-1.73.04-.87.04-1.43.04-1.6l.26-10.3h-3.07V65.4h3.16l.13-5.93h2.94l-.09 5.93h4.84zm5.85 10.77c.13 4.98 2.21 7.66 5.93 7.66 2.25 0 3.59-.86 4.76-3.11l2.81.35c-1.25 3.55-3.85 5.36-7.61 5.36-5.49 0-9-4.11-9-10.56s3.46-11.03 8.82-11.03c5.06 0 8.31 4.11 8.31 10.47 0 .13 0 .48-.04.86h-13.97zm10.86-2.38c-.35-4.15-2.21-6.4-5.28-6.4s-4.89 2.21-5.49 6.4h10.77zm33.22-9.26c-.3-3.29-2.34-5.15-5.62-5.15-3.03 0-5.28 1.86-5.28 4.41 0 1.21.61 2.29 1.73 3.03q.95.65 5.15 2.55c3.72 1.64 5.23 2.6 6.27 3.81 1.12 1.34 1.73 3.07 1.73 4.98 0 4.93-3.81 8.22-9.43 8.22-3.38 0-6.14-1.17-7.79-3.33-1.21-1.56-1.69-3.2-1.86-5.93h3.16c.3 4.15 2.6 6.4 6.62 6.4 3.5 0 5.97-2.08 5.97-4.97 0-1.43-.56-2.55-1.73-3.55-.91-.78-1.64-1.17-4.5-2.42-2.99-1.34-4.89-2.38-5.88-3.16-1.77-1.38-2.68-3.2-2.68-5.36 0-4.37 3.63-7.53 8.7-7.53 3.07 0 5.62 1.17 7.14 3.29.95 1.3 1.34 2.6 1.47 4.72h-3.16zM378.2 106.11v8.22h-2.68c-.22-1.64-.48-2.51-1-3.42-1-1.6-3.11-2.6-5.54-2.6-5.41 0-8.48 4.5-8.48 12.42s2.99 12.2 8.05 12.2c2.77 0 5.1-1.47 6.14-3.81.52-1.17.74-2.12.87-3.89h2.77c0 6.53-3.72 10.43-9.95 10.43-7.27 0-11.55-5.54-11.55-14.92s4.54-15.14 11.68-15.14c2.94 0 5.15.87 7.09 2.81v-2.29h2.59zm18.17 10.69c1.69 1.82 2.55 4.59 2.55 8.05s-.86 6.19-2.55 8.05c-1.51 1.69-3.76 2.68-6.1 2.68s-4.58-1-6.1-2.68c-1.73-1.86-2.55-4.54-2.55-8.22 0-3.29.91-6.1 2.55-7.87 1.51-1.69 3.76-2.68 6.1-2.68s4.54.95 6.1 2.68zm-11.42 7.92c0 5.45 1.86 8.35 5.32 8.35s5.32-2.94 5.32-8.22-1.9-8.26-5.32-8.26-5.32 2.94-5.32 8.13zm22.93-6.97c1.25-2.34 2.77-3.37 4.84-3.37 1.6 0 2.68.61 3.72 2.08v4.2h-2.51c-.09-1.3-.17-1.95-.35-2.42-.3-.78-.99-1.21-1.9-1.21-1.38 0-2.68 1.17-3.16 2.86-.35 1.25-.43 2.68-.43 6.19v6.66h3.55v2.34h-9.86v-2.34h3.07v-15.75h-3.07v-2.34h6.1v3.11zm17.05 0c1.3-2.38 3.16-3.55 5.58-3.55 4.59 0 8 4.54 8 10.64s-3.42 10.64-7.96 10.64c-2.47 0-4.33-1.17-5.62-3.55v9.3h3.2v2.34h-9.39v-2.34h3.07v-24.27h-3.07v-2.34h6.19v3.11zm0 6.96c0 5.32 1.86 8.31 5.19 8.31s5.15-3.03 5.15-8.18-1.9-8.18-5.19-8.18-5.15 3.03-5.15 8.05zm31.53-7.91c1.69 1.82 2.55 4.59 2.55 8.05s-.87 6.19-2.55 8.05c-1.51 1.69-3.76 2.68-6.1 2.68s-4.59-1-6.1-2.68c-1.73-1.86-2.55-4.54-2.55-8.22 0-3.29.91-6.1 2.55-7.87 1.51-1.69 3.76-2.68 6.1-2.68s4.54.95 6.1 2.68zm-11.42 7.92c0 5.45 1.86 8.35 5.32 8.35s5.32-2.94 5.32-8.22-1.9-8.26-5.32-8.26-5.32 2.94-5.32 8.13zm22.93-6.97c1.25-2.34 2.77-3.37 4.84-3.37 1.6 0 2.68.61 3.72 2.08v4.2h-2.51c-.09-1.3-.17-1.95-.35-2.42-.3-.78-.99-1.21-1.9-1.21-1.38 0-2.68 1.17-3.16 2.86-.35 1.25-.43 2.68-.43 6.19v6.66h3.55v2.34h-9.86v-2.34h3.07v-15.75h-3.07v-2.34h6.1v3.11zM479.4 121l.56-4.33c1.86-1.6 4.15-2.47 6.58-2.47 2.59 0 4.76.91 5.84 2.51.74 1.08.91 2.08.91 5.8v10.21h3.03v2.34h-5.93v-3.03c-1.12 2.25-3.16 3.46-5.75 3.46-3.68 0-6.27-2.47-6.27-5.93 0-2.73 1.56-4.85 4.41-6.06 1.77-.78 2.68-.99 7.27-1.9v-.78c0-1.64-.13-2.38-.52-2.9-.56-.82-1.69-1.25-3.2-1.25-1.77 0-3.2.61-3.85 1.56-.35.56-.43.87-.78 2.77h-2.29zm10.68 2.77c-6.36 1.25-8.44 2.6-8.44 5.49 0 2.16 1.47 3.59 3.63 3.59 1.9 0 3.55-1.04 4.28-2.64.35-.78.52-2.42.52-4.63v-1.82zm19.21-9.13v2.38h-4.84v9.56c0 2.98.04 3.68.26 4.5.3 1.08 1.17 1.73 2.38 1.73.82 0 1.51-.22 2.55-.78v2.68c-1.43.52-2.16.65-3.33.65-2.25 0-3.85-.87-4.54-2.47-.56-1.21-.56-1.43-.56-6.27v-9.6h-2.9v-2.38h2.9v-6.01h3.25v6.01h4.84zm5.67 10.42v.65c0 4.54 1.99 7.31 5.28 7.31 2.59 0 4.24-1.51 4.76-4.24h2.99c-.3 3.98-3.46 6.71-7.79 6.71-5.19 0-8.52-4.07-8.52-10.38s3.55-10.9 8.69-10.9c4.8 0 8 4.02 8 10.04l-.04.82h-13.37zm9.91-2.29c-.09-4.02-1.6-6.1-4.5-6.1s-4.84 2.29-5.28 6.1h9.78zm33.78-9.95v-4.02H549v9.86h9.99v2.64H549v11.12h9.95v-4.67h2.64v7.31h-19.55v-2.6h3.59V108.8h-3.59v-2.6h19.25v6.62h-2.64z" class="cls-1"/></svg>