<svg xmlns="http://www.w3.org/2000/svg" id="Layer_1" viewBox="0 0 693.33 63.2" width="693.33" height="63.2"><defs><style>.cls-1{fill:#b3b4b4}.cls-2{fill:#505150}</style></defs><path d="M21.85 8.32c-.79 0-2.01-.06-3.66-.19-1.61-.12-2.82-.17-3.66-.16h-1.14c.03 1.48.18 3.87.43 7.19.24 3.09.35 5.49.35 7.2 0 .37.04.94.11 1.7s.11 1.33.11 1.72c0 .73-.12 1.35-.35 1.88-.3.71-.76 1.06-1.4 1.06-.43 0-.81-.15-1.16-.45-.34-.3-.51-.68-.51-1.16 0-.16.03-.4.08-.72.05-.32.08-.56.08-.72 0-.52-.04-1.31-.1-2.36-.07-1.05-.11-1.84-.11-2.38 0-1.53-.12-3.68-.37-6.45-.26-3-.4-5.15-.43-6.45l-1.46.02c-2.34 0-4.18-.17-5.52-.51-.87-.22-1.3-.75-1.3-1.59 0-.44.14-.82.42-1.16.32-.37.73-.55 1.24-.51.37.02 1.23.12 2.57.29 1.07.13 1.94.19 2.6.19s1.62-.01 2.92-.04c1.31-.03 2.28-.04 2.92-.04.82 0 2.05.06 3.67.18s2.84.18 3.67.18c.46 0 .85.16 1.16.47.31.32.47.71.47 1.18s-.16.85-.47 1.16c-.31.32-.7.47-1.16.47zM38 29.59c-.76 0-1.26-.41-1.49-1.22-.25-.88-.47-2.12-.67-3.74-.19-1.55-.29-2.82-.29-3.82 0-.28.01-.7.04-1.27.03-.57.04-.99.04-1.27 0-2.01-.5-3.02-1.51-3.02-1.36 0-2.57.62-3.64 1.85-.55.63-1.29 1.83-2.25 3.61 0 4.08-.17 6.49-.51 7.24-.3.66-.77 1-1.4 1-.44 0-.82-.15-1.16-.45s-.5-.66-.5-1.09c0-.15.05-.39.14-.71.08-.27.14-1.05.18-2.34l.05-2.38.05-11.79c.08-1.33.11-2.22.11-2.68 0-.55-.05-1.06-.15-1.55s-.15-.99-.15-1.52c0-.45.15-.82.46-1.12.31-.29.69-.44 1.14-.44.88 0 1.39.47 1.54 1.41.17 1.04.26 1.97.26 2.81 0 1.12-.04 2.29-.11 3.51-.06 1.17-.09 2.34-.08 3.51l.02 1.41c.88-1.18 1.82-2.06 2.82-2.64s2.06-.87 3.19-.87c1.78 0 2.99.58 3.66 1.73.47.81.74 2.18.8 4.11l.13 3.06.32 3.34c.15 1.25.33 2.35.54 3.31.04.18.06.34.06.47 0 .44-.16.8-.48 1.1-.32.29-.71.44-1.16.44zm13.04-.26c-2.42 0-4.38-.6-5.87-1.81-1.64-1.34-2.46-3.21-2.46-5.62 0-2.78.67-5.11 2.02-7 1.46-2.05 3.42-3.08 5.87-3.08 1.78 0 3.22.3 4.35.9 1.38.74 2.07 1.87 2.07 3.4 0 1.07-.6 2.04-1.81 2.92-.54.38-1.67.98-3.4 1.8l-6.13 2.9c.6.89 1.34 1.56 2.24 2.01s1.93.67 3.12.67c.74 0 1.6-.14 2.6-.42 1.26-.35 2.08-.82 2.44-1.39.36-.57.75-.86 1.17-.86.37 0 .71.14 1 .43.29.28.44.61.44.99 0 1.19-.96 2.21-2.87 3.06-1.64.73-3.23 1.09-4.78 1.09zm-.43-14.62c-1.31 0-2.39.51-3.26 1.52-.87 1.01-1.51 2.53-1.94 4.57l4.93-2.34c1.94-.94 3.32-1.76 4.14-2.46-.92-.86-2.21-1.28-3.87-1.28zm33.12 8.83l-.74 6.16c-.27 2.29-.4 4.36-.4 6.21 0 .47-.14.86-.43 1.16-.29.3-.67.45-1.14.45-.98 0-1.51-.54-1.57-1.62-.03-.47 0-1.06.08-1.78l.21-1.78.3-3.55c-.92.25-1.57.37-1.94.37-2.33 0-4.22-.6-5.66-1.81-1.55-1.29-2.33-3.09-2.33-5.38 0-3.13.88-5.65 2.65-7.54 1.81-1.95 4.27-2.91 7.38-2.89.59 0 1.03.23 1.33.69.46-.41.87-.61 1.22-.61.43 0 .8.17 1.12.51.31.34.47.73.47 1.17 0 3.16-.18 6.57-.54 10.24zM79 14.31c-1.97.35-3.46 1.35-4.46 3-.81 1.34-1.22 2.91-1.22 4.72 0 1.26.38 2.29 1.15 3.08.85.88 2.02 1.29 3.51 1.25 1.02-.03 1.76-.58 2.23-1.65.51-1.2.79-3.24.82-6.11l.22-4.28c-.21.08-.59.09-1.12.05-.59-.06-.97-.08-1.14-.05zm22.56 4.91c0 .77 0 1.93.02 3.47 0 1.54.02 2.7.02 3.47 0 .24.02.59.06 1.08.04.48.06.84.06 1.07 0 .46-.16.84-.47 1.13s-.69.44-1.14.44c-.82 0-1.35-.51-1.57-1.52-1.34.7-2.88 1.04-4.62 1.04-1.4 0-2.56-.31-3.48-.93-1.02-.68-1.62-1.69-1.81-3-.42-2.83-.63-5.36-.63-7.57 0-1.47.16-3.13.48-5.01.15-.93.66-1.4 1.52-1.4.46 0 .84.15 1.16.44.31.29.47.67.47 1.13 0 .49-.08 1.28-.23 2.36-.16 1.08-.23 1.9-.23 2.47 0 1.79.06 3.32.18 4.59s.29 2.29.53 3.06c.35.19.7.34 1.04.44s.68.15 1.01.15c1.43 0 2.95-.23 4.54-.69l-.02-3.26-.03-3.11c0-2.31.1-4.32.3-6.02.12-.98.64-1.48 1.56-1.48.46 0 .85.15 1.16.45.31.3.45.67.43 1.12l-.29 6.07zm7.78 2.09c0 .64.02 1.6.06 2.88s.06 2.24.06 2.88c0 .47-.14.86-.43 1.16-.29.3-.67.45-1.14.45s-.84-.15-1.13-.45c-.29-.3-.44-.68-.44-1.16 0-.64-.02-1.6-.06-2.88s-.06-2.24-.06-2.88c0-1.01.05-2.26.16-3.76s.16-2.76.16-3.76c0-.48.15-.87.44-1.17.29-.3.67-.45 1.13-.45s.84.15 1.13.45c.29.3.44.69.44 1.17 0 1.01-.05 2.26-.16 3.76s-.16 2.76-.16 3.76zm-.72-13.03c-.51 0-.96-.18-1.33-.55-.37-.36-.56-.8-.56-1.32s.19-.95.56-1.32.82-.55 1.33-.55.95.18 1.32.55.55.8.55 1.32-.19.95-.55 1.32c-.37.36-.81.55-1.32.55zm13.4 21.32c-2.19 0-4.02-.66-5.49-1.99-1.54-1.39-2.31-3.23-2.31-5.5s.72-4.41 2.17-6.72c1.6-2.57 3.41-3.85 5.42-3.85 1.05 0 2.22.25 3.51.74 1.64.63 2.46 1.4 2.46 2.31 0 .41-.13.77-.4 1.08s-.6.47-1 .47c-.31 0-.58-.09-.81-.28l-.67-.55c-.63-.5-1.66-.75-3.1-.75-1.09 0-2.17.97-3.24 2.92-.97 1.79-1.46 3.33-1.46 4.64 0 1.41.48 2.52 1.44 3.34.9.76 2.05 1.14 3.47 1.14.64 0 1.33-.17 2.05-.51l1.86-1c.32-.17.55-.26.69-.26.4 0 .74.16 1.03.47s.43.68.43 1.08c0 .78-.82 1.54-2.47 2.26-1.44.64-2.64.96-3.59.96zm22.99-.35c-.59 0-1.04-.31-1.37-.93-.56-1.08-1.4-2.36-2.52-3.83l-2.84-3.87c-.62.49-1.58 1.18-2.89 2.07-.12 1.66-.18 3.27-.18 4.85 0 .48-.15.87-.44 1.17-.29.3-.67.45-1.13.45-1.08 0-1.62-.73-1.62-2.18 0-.89.06-2.22.19-3.99.12-1.77.18-3.1.18-3.99 0-1.63.02-3.48.07-5.58.05-2.09.07-3.94.07-5.54 0-.48-.02-1.05-.07-1.7-.05-.65-.07-1.22-.07-1.7s.15-.87.44-1.17c.29-.3.67-.45 1.13-.45s.84.15 1.13.45c.29.3.44.69.44 1.17s.03 1.07.08 1.74.08 1.25.08 1.74l-.11 5.17c-.05 1.86-.07 3.72-.05 5.58 1.45-1.11 2.86-2.33 4.2-3.66l3.53-3.64c.35-.36.73-.55 1.14-.55s.79.17 1.13.5c.34.33.51.72.51 1.16 0 .36-.16.72-.47 1.08-1.32 1.54-2.94 3.19-4.86 4.96l3.5 4.77c1.64 2.24 2.46 3.69 2.46 4.36 0 .43-.17.8-.51 1.11-.34.31-.72.47-1.16.47zm21.7.01c-1.64 0-3.12-.32-4.46-.96-.34.51-.76.77-1.25.77-.41 0-.75-.14-1.04-.43-.28-.28-.43-.64-.43-1.07 0-.28.01-.69.04-1.24s.04-.96.04-1.24c0-1.13-.03-2.83-.09-5.09s-.09-3.96-.09-5.09c0-.78 0-2.26.02-4.44 0-2.18.02-3.66.02-4.45 0-.64.13-1.22.4-1.73.35-.65.84-.98 1.46-.98.8 0 1.2.47 1.2 1.4 0 .15-.03.37-.08.66-.05.29-.08.51-.08.66l-.05 3.51-.03 4.09c.93-.63 1.82-1.1 2.66-1.42.84-.32 1.63-.47 2.37-.47 2.3 0 4.17.88 5.6 2.65 1.35 1.66 2.02 3.7 2.02 6.11s-.79 4.51-2.36 6.21c-1.57 1.7-3.53 2.55-5.87 2.55zm.61-14.49c-.88 0-1.78.25-2.7.74-.45.25-1.22.78-2.31 1.59l-.03 2.78.02 2.5.02 2.63c.51.24 1.24.53 2.17.9.66.2 1.41.3 2.23.3 1.55 0 2.82-.55 3.82-1.64.99-1.09 1.49-2.45 1.49-4.08s-.4-2.93-1.2-4c-.87-1.16-2.03-1.73-3.5-1.73zm23.87 1.96c-.08 1.34-.61 2.01-1.6 2.01-.92 0-1.38-.53-1.38-1.59 0-.2-.02-.58-.05-1.12l-.05-1.35c-1.69.2-3.04.68-4.06 1.43-.95.7-1.74 1.74-2.37 3.15l.03 8.79c0 1.08-.53 1.62-1.59 1.62-.94 0-1.41-.54-1.41-1.62V16.79c0-.35.01-.88.04-1.59.03-.71.04-1.24.04-1.59 0-1.08.47-1.62 1.41-1.62 1.05 0 1.58.89 1.59 2.66 2.05-1.98 4.33-2.97 6.84-2.97.87 0 1.51.33 1.94.98.43.65.64 1.64.64 2.95 0 .56 0 .93-.02 1.12zm9.32 12.81c-1.8 0-3.34-.66-4.64-1.99-1.44-1.48-2.2-3.46-2.28-5.95-.06-2.42.54-4.55 1.83-6.39 1.5-2.17 3.58-3.26 6.26-3.26 2.14 0 3.76.98 4.86 2.94.88 1.58 1.3 3.49 1.27 5.71-.03 2.38-.65 4.4-1.86 6.08-1.37 1.9-3.18 2.86-5.44 2.86zm.96-14.33c-1.57-.01-2.8.74-3.67 2.25-.7 1.21-1.04 2.59-1.04 4.14s.42 2.76 1.27 3.63c.71.72 1.53 1.08 2.49 1.08 1.11 0 2.07-.41 2.87-1.22.91-.9 1.39-2.11 1.44-3.64.15-4.14-.97-6.22-3.35-6.23zm29.52-.98c-.83 3.49-1.93 7.43-3.27 11.83-.3.97-.8 1.97-1.49 3-.38.57-.88.84-1.52.83-1.17-.02-2.08-1.47-2.73-4.35-.21-.92-.43-2.17-.66-3.75l-.53-3.58-1.32 3.06-2.44 6.63c-.14.41-.34.72-.61.93-.32.62-.83.94-1.54.96-.81.03-1.6-1.56-2.36-4.78-.38-1.66-.77-3.9-1.15-6.74l-.39-2.41c-.14-.96-.21-1.77-.21-2.42 0-.45.16-.82.47-1.12.32-.29.7-.44 1.15-.44.81 0 1.32.44 1.51 1.33.14.63.25 1.41.34 2.34l.24 2.36.95 7.21c1.19-3.29 2.42-7.09 3.69-11.39.35-1.19.97-1.78 1.85-1.78s1.42.66 1.72 1.99c.28 1.25.62 3.18 1.04 5.78.43 2.7.81 4.8 1.14 6.31l1.17-4.36 2.07-8.75c.16-.65.62-.98 1.38-.98.45 0 .84.15 1.17.46s.5.67.5 1.1c0 .05-.05.3-.16.74zm15.58 15.5c-.92 0-1.44-.5-1.56-1.51l-.45-3.51a29.5 29.5 0 0 1-.22-3.51c0-.3.02-.81.06-1.52.04-.72.06-1.22.06-1.52 0-2.31-.43-3.47-1.28-3.47-1.2 0-2.34.71-3.43 2.13-.98 1.29-1.75 2.93-2.31 4.91-.02.42-.07.94-.14 1.57-.06.54-.1 1.05-.1 1.56 0 .32.03.8.1 1.44.06.64.1 1.12.1 1.44 0 .48-.15.87-.44 1.17s-.67.45-1.13.45-.85-.15-1.14-.45-.43-.69-.43-1.17c0-.32-.04-.8-.1-1.44-.07-.64-.11-1.12-.11-1.44 0-1.1.08-2.63.23-4.58s.23-3.48.23-4.58c0-.34-.02-.85-.06-1.52-.04-.67-.06-1.18-.06-1.52 0-.46.15-.84.46-1.13.3-.29.68-.44 1.13-.44.98 0 1.53.7 1.62 2.09l.05 1.88c1.8-2.4 3.64-3.59 5.54-3.59 1.71 0 2.9.75 3.58 2.26.46 1.01.71 2.49.75 4.46v1.62l-.02 1.49c0 .89.12 2.04.35 3.44.23 1.41.34 2.55.34 3.43 0 .47-.15.85-.46 1.15-.3.29-.69.44-1.15.44zm25.5-23.7c-2.59 0-4.04 1.8-4.35 5.39l-.05.99c1.82-.13 3-.19 3.53-.19 1.7 0 2.55.54 2.55 1.6 0 .78-.42 1.25-1.25 1.4-.36.06-.79.09-1.28.07-.49-.02-1.72.06-3.7.22l-.13 3.66c0 .66.02 1.66.06 2.98.04 1.33.06 2.32.06 2.97 0 2.03-.12 3.62-.35 4.75-.18.86-.68 1.28-1.49 1.28-.44 0-.81-.14-1.12-.43-.31-.28-.47-.64-.47-1.07 0-.09.01-.19.03-.32.22-1.39.34-2.9.34-4.54l-.05-4.38v-4.65c-1.34.11-2.18.16-2.54.16-1.08 0-1.62-.52-1.62-1.56s.94-1.61 2.81-1.67l1.54-.05c.03-.6.11-1.41.24-2.44.28-2.38.88-4.12 1.8-5.25 1.11-1.36 2.85-2.04 5.21-2.04 1.53 0 2.29.52 2.29 1.56s-.7 1.54-2.09 1.54zM284 29.54c-1.8 0-3.34-.66-4.64-1.99-1.45-1.48-2.2-3.46-2.28-5.95-.06-2.42.55-4.55 1.83-6.39 1.5-2.17 3.58-3.26 6.26-3.26 2.14 0 3.76.98 4.86 2.94.88 1.58 1.3 3.49 1.27 5.71-.03 2.38-.65 4.4-1.86 6.08-1.37 1.9-3.18 2.86-5.44 2.86zm.96-14.33c-1.57-.01-2.8.74-3.67 2.25-.7 1.21-1.04 2.59-1.04 4.14s.42 2.76 1.27 3.63c.71.72 1.53 1.08 2.49 1.08 1.11 0 2.07-.41 2.87-1.22.91-.9 1.39-2.11 1.44-3.64.15-4.14-.97-6.22-3.35-6.23zm25.05-.39l-2.34 2.2-2.86 2.84 5.23 6.84c.27.34.4.68.4 1.01 0 .42-.16.79-.48 1.11-.32.32-.68.48-1.09.48s-.78-.2-1.11-.59c-.98-1.14-2.72-3.35-5.2-6.61l-3.13 3.23c-.63.57-1.55 1.45-2.76 2.65-.34.39-.71.58-1.11.58s-.77-.16-1.08-.48c-.31-.32-.47-.69-.47-1.11 0-.33.13-.67.4-1.01.3-.4.77-.87 1.4-1.43.74-.65 1.22-1.1 1.46-1.35l3.42-3.58-2.1-3.03c-.84-1.21-1.58-2.09-2.21-2.65-.41-.36-.61-.76-.61-1.19s.15-.81.46-1.14c.31-.33.66-.5 1.05-.5.63 0 1.58.82 2.86 2.47l2.78 3.84 3.15-2.89c1.3-1.23 2.19-2.19 2.65-2.89.34-.5.75-.75 1.22-.75.42 0 .79.15 1.11.47.32.31.48.67.48 1.07 0 .59-.5 1.4-1.49 2.42zm19.61 17.49c.01-1.25-.17-4.46-.55-9.61l-.54-8.84c0-.53.15-1.01.46-1.43.3-.42.69-.63 1.16-.63.36 0 .73.13 1.09.4.36.27.55.54.58.82l.53 9.24.43 9.88c0 1.49-.44 2.83-1.33 4.04-.96 1.32-2.13 1.97-3.51 1.97-2.3 0-4.23-1.77-5.78-5.31a1.92 1.92 0 0 1-.19-.77c0-.43.17-.8.51-1.11.34-.31.72-.47 1.15-.47.63 0 1.29.69 1.97 2.09.17.36.47.89.9 1.57.42.54.9.8 1.44.8.47 0 .87-.35 1.2-1.06.26-.53.42-1.07.48-1.6zm.13-24.02c-.51 0-.95-.18-1.32-.55-.37-.36-.55-.8-.55-1.3s.18-.95.55-1.32c.37-.36.81-.55 1.32-.55s.96.18 1.33.55c.38.36.56.8.56 1.32s-.19.94-.56 1.3c-.37.36-.82.55-1.33.55zm21.09 10.93c0 .77 0 1.93.02 3.47 0 1.54.02 2.7.02 3.47 0 .24.02.59.06 1.08s.06.84.06 1.07c0 .46-.16.84-.47 1.13-.31.29-.69.44-1.14.44-.82 0-1.35-.51-1.57-1.52-1.34.7-2.88 1.04-4.62 1.04-1.4 0-2.56-.31-3.48-.93-1.02-.68-1.62-1.69-1.81-3-.42-2.83-.63-5.36-.63-7.57 0-1.47.16-3.13.48-5.01.15-.93.66-1.4 1.52-1.4.46 0 .85.15 1.16.44.31.29.46.67.46 1.13 0 .49-.08 1.28-.23 2.36-.16 1.08-.23 1.9-.23 2.47 0 1.79.06 3.32.18 4.59s.29 2.29.53 3.06c.35.19.7.34 1.04.44s.68.15 1.01.15c1.43 0 2.95-.23 4.54-.69l-.02-3.26-.03-3.11c0-2.31.1-4.32.3-6.02.12-.98.64-1.48 1.56-1.48.46 0 .85.15 1.16.45.31.3.46.67.43 1.12l-.29 6.07zm24.37 10.7c-.88 0-1.39-.47-1.54-1.4-.19-1.18-.38-2.83-.58-4.97l-.55-4.97c-.11-.74-.29-1.46-.54-2.17-.36-.96-.76-1.44-1.19-1.44-.4 0-1.13.34-2.21 1.01-1.03.62-1.7 1.12-2.02 1.49 0 1.01.02 2.01.08 3.02l.48 4.28c.2 1.69.3 3.09.3 4.19 0 .47-.15.86-.44 1.16-.29.31-.67.46-1.13.46s-.84-.15-1.13-.46c-.29-.3-.44-.69-.44-1.16 0-1.29-.13-3.21-.39-5.74-.26-2.53-.39-4.44-.39-5.74 0-1.13-.16-2.02-.48-2.65-.75.34-1.51.9-2.28 1.67l-1.89 2.12c-.17.26-.44.59-.82 1.01 0 .64-.06 1.59-.18 2.84-.12 1.25-.18 2.18-.18 2.78 0 .32.05.77.15 1.35s.15 1 .15 1.25c0 .44-.16.81-.49 1.11-.33.3-.71.45-1.15.45-1.21 0-1.81-1.37-1.81-4.12 0-.64.06-1.6.18-2.87s.18-2.23.18-2.87c0-.57-.05-1.42-.15-2.55-.1-1.13-.15-1.99-.15-2.57 0-2.43.54-3.64 1.64-3.64.42 0 .8.18 1.15.55s.52.76.52 1.19c0 .2-.03.52-.08.95-.05.43-.08.75-.08.98l.03 1.69c.55-1.15 1.37-2.18 2.46-3.1 1.08-.93 2-1.39 2.76-1.39 1.68 0 2.83.83 3.46 2.5.59-.78 1.29-1.37 2.1-1.76.81-.39 1.74-.59 2.79-.59 1.79 0 3.01.96 3.66 2.89.13.39.35 1.89.66 4.51.3 1.84.69 4.91 1.16 9.19.03.43-.11.79-.43 1.09-.32.3-.71.45-1.17.45zm11.97-.77c-1.07 0-2.25-.17-3.53-.51l-.03 7.67c0 .47-.15.86-.44 1.16-.29.3-.67.45-1.13.45s-.84-.15-1.13-.45-.44-.68-.44-1.16l.05-6.42v-6.4c-.03-2.34-.11-4.48-.24-6.4l-.24-3.26c0-.76.14-1.4.42-1.93.32-.63.79-.95 1.4-.95.42 0 .77.15 1.05.44.28.29.43.66.43 1.08 0 .1-.02.27-.05.53-.05.33-.09.64-.11.91.92-.63 1.81-1.1 2.66-1.42s1.67-.47 2.46-.47c2.19 0 3.8.97 4.81 2.92.8 1.54 1.2 3.58 1.2 6.11 0 2.31-.62 4.21-1.86 5.71-1.32 1.58-3.07 2.38-5.26 2.38zm1.11-13.91c-.98 0-1.87.22-2.66.66-.57.31-1.28.88-2.15 1.7.14 2.43.21 4.98.21 7.65 1.17.45 2.33.67 3.5.67 1.34 0 2.36-.5 3.07-1.49.61-.87.91-1.99.91-3.37 0-1.95-.24-3.4-.71-4.37-.47-.97-1.2-1.45-2.16-1.45zm20.47 1c-.59 0-1-.2-1.23-.59-.16-.28-.3-.86-.42-1.73-.8.2-2.04.58-3.71 1.12-1.72.68-2.59 1.53-2.6 2.54.32.12.64.2.95.26 2.46.44 4.29 1.04 5.49 1.81 1.74 1.12 2.62 2.75 2.62 4.88 0 1.74-.75 3.06-2.26 3.95-1.25.73-2.84 1.09-4.75 1.09-1.4 0-2.74-.24-4.01-.71-1.65-.6-2.47-1.43-2.47-2.5 0-.43.17-.8.5-1.12.34-.32.72-.48 1.15-.48.33 0 .76.26 1.28.77.26.25.83.45 1.73.61.72.13 1.32.19 1.81.19.9 0 1.69-.11 2.38-.32.99-.31 1.49-.8 1.49-1.48 0-1.45-1.02-2.44-3.05-2.95l-1.67-.37c-1.42-.31-2.43-.67-3.03-1.09-.87-.6-1.3-1.5-1.3-2.71 0-2.24 1.05-3.83 3.16-4.78.64-.29 1.67-.63 3.08-1.04 1.41-.4 2.42-.74 3.03-1.02.44-.19.91-.29 1.43-.29.46 0 .84.15 1.13.45s.44.69.44 1.17c0 .31.07.76.2 1.36.13.6.2 1.05.2 1.36 0 .48-.15.87-.44 1.17-.29.3-.67.45-1.13.45zm21.01 13.3c-1.8 0-3.34-.66-4.64-1.99-1.44-1.48-2.2-3.46-2.28-5.95-.06-2.42.54-4.55 1.83-6.39 1.5-2.17 3.58-3.26 6.26-3.26 2.14 0 3.76.98 4.86 2.94.88 1.58 1.3 3.49 1.27 5.71-.03 2.38-.65 4.4-1.86 6.08-1.37 1.9-3.18 2.86-5.44 2.86zm.96-14.33c-1.57-.01-2.8.74-3.68 2.25-.7 1.21-1.04 2.59-1.04 4.14s.42 2.76 1.27 3.63c.71.72 1.54 1.08 2.49 1.08 1.11 0 2.07-.41 2.87-1.22.91-.9 1.39-2.11 1.45-3.64.15-4.14-.97-6.22-3.35-6.23zm17.7 12.55c-.03.98-.52 1.48-1.46 1.48-.78 0-1.35-.46-1.7-1.38l-2.46-6.51-2.86-7.37a2.02 2.02 0 0 1-.16-.74c0-.44.16-.81.5-1.12.33-.31.72-.47 1.16-.47.64 0 1.1.33 1.38.98l4.08 11.22c.8-1.71 1.81-4.19 3.03-7.45.29-.86.74-2.06 1.36-3.63.33-.68.8-1.03 1.41-1.03.44 0 .82.16 1.16.47.33.31.5.68.5 1.11s-.88 2.7-2.65 6.87l-3.29 7.57zm16.08 1.57c-2.42 0-4.38-.6-5.87-1.81-1.64-1.34-2.46-3.21-2.46-5.62 0-2.78.67-5.11 2.02-7 1.47-2.05 3.42-3.08 5.87-3.08 1.78 0 3.23.3 4.35.9 1.38.74 2.07 1.87 2.07 3.4 0 1.07-.6 2.04-1.81 2.92-.54.38-1.67.98-3.4 1.8l-6.13 2.9c.6.89 1.35 1.56 2.24 2.01s1.93.67 3.12.67c.74 0 1.61-.14 2.6-.42 1.26-.35 2.07-.82 2.44-1.39.36-.57.75-.86 1.17-.86.38 0 .71.14 1 .43.29.28.44.61.44.99 0 1.19-.96 2.21-2.87 3.06-1.64.73-3.23 1.09-4.78 1.09zm-.43-14.62c-1.3 0-2.39.51-3.26 1.52-.87 1.01-1.51 2.53-1.94 4.57l4.93-2.34c1.94-.94 3.32-1.76 4.14-2.46-.92-.86-2.21-1.28-3.87-1.28zm23.42 2.02c-.07 1.34-.61 2.01-1.61 2.01-.92 0-1.38-.53-1.38-1.59 0-.2-.02-.58-.05-1.12l-.05-1.35c-1.69.2-3.04.68-4.06 1.43-.95.7-1.74 1.74-2.38 3.15l.03 8.79c0 1.08-.53 1.62-1.59 1.62-.94 0-1.41-.54-1.41-1.62V16.79c0-.35.01-.88.04-1.59.03-.71.04-1.24.04-1.59 0-1.08.47-1.62 1.41-1.62 1.05 0 1.58.89 1.59 2.66 2.05-1.98 4.33-2.97 6.84-2.97.87 0 1.51.33 1.94.98.43.65.64 1.64.64 2.95 0 .56 0 .93-.02 1.12zm23.86-1.81c-.22 0-.49-.01-.79-.03s-.57-.03-.79-.03c-.25 0-.97.08-2.18.24l.3 9.48.02.71.02.82c.04 2.34-.52 3.51-1.68 3.51-.43 0-.8-.14-1.12-.42-.32-.28-.47-.63-.47-1.04s.02-1.02.05-1.83c.03-.81.05-1.42.05-1.83l-.32-9.37c-.78-.03-1.97-.12-3.56-.27-.95-.13-1.43-.66-1.43-1.59 0-.47.14-.86.43-1.17.29-.31.66-.47 1.11-.47l3.37.27c0-.55-.02-1.28-.07-2.19-.05-.91-.07-1.58-.07-1.98 0-.45.16-.82.47-1.12.31-.29.69-.44 1.14-.44.96 0 1.52.79 1.69 2.36.03.4.05.87.05 1.43l-.03.93-.02 1c1.33-.17 2.09-.26 2.28-.26 1.11 0 1.84.05 2.18.16.65.21.98.72.98 1.51 0 .47-.15.86-.44 1.16-.29.31-.67.46-1.13.46zm18.18 14.67c-.76 0-1.26-.41-1.49-1.22-.25-.88-.47-2.12-.67-3.74-.19-1.55-.29-2.82-.29-3.82 0-.28.01-.7.04-1.27.03-.57.04-.99.04-1.27 0-2.01-.5-3.02-1.51-3.02-1.36 0-2.57.62-3.64 1.85-.54.63-1.29 1.83-2.25 3.61 0 4.08-.17 6.49-.51 7.24-.3.66-.77 1-1.4 1-.44 0-.82-.15-1.15-.45-.33-.3-.5-.66-.5-1.09 0-.15.05-.39.14-.71.09-.27.14-1.05.18-2.34l.05-2.38.05-11.79c.07-1.33.11-2.22.11-2.68 0-.55-.05-1.06-.15-1.55s-.15-.99-.15-1.52c0-.45.15-.82.46-1.12.31-.29.69-.44 1.14-.44.88 0 1.39.47 1.54 1.41.17 1.04.26 1.97.26 2.81 0 1.12-.04 2.29-.11 3.51-.06 1.17-.09 2.34-.08 3.51l.02 1.41c.88-1.18 1.82-2.06 2.82-2.64s2.06-.87 3.19-.87c1.78 0 3 .58 3.66 1.73.47.81.74 2.18.8 4.11l.13 3.06.32 3.34c.15 1.25.33 2.35.54 3.31.04.18.06.34.06.47 0 .44-.16.8-.48 1.1-.32.29-.71.44-1.16.44zm13.05-.26c-2.42 0-4.38-.6-5.87-1.81-1.64-1.34-2.46-3.21-2.46-5.62 0-2.78.67-5.11 2.02-7 1.46-2.05 3.42-3.08 5.87-3.08 1.78 0 3.22.3 4.35.9 1.38.74 2.07 1.87 2.07 3.4 0 1.07-.61 2.04-1.81 2.92-.54.38-1.67.98-3.4 1.8l-6.13 2.9c.6.89 1.35 1.56 2.24 2.01.89.45 1.93.67 3.12.67.74 0 1.61-.14 2.6-.42 1.26-.35 2.08-.82 2.44-1.39.36-.57.75-.86 1.17-.86.38 0 .71.14 1 .43.29.28.44.61.44.99 0 1.19-.96 2.21-2.87 3.06-1.64.73-3.23 1.09-4.78 1.09zm-.43-14.62c-1.31 0-2.39.51-3.26 1.52-.87 1.01-1.51 2.53-1.94 4.57l4.93-2.34c1.94-.94 3.32-1.76 4.14-2.46-.92-.86-2.21-1.28-3.87-1.28zM567 15.98l-.24 7.98c0 .85-.04 2.09-.13 3.72-.11 1.07-.63 1.6-1.57 1.6-1.05 0-1.57-.55-1.57-1.64 0-1.29.06-3.24.18-5.83s.18-4.54.18-5.83c0-1.69.03-3.62.08-5.8s.08-4.11.08-5.8c0-1.07.52-1.6 1.57-1.6s1.59.53 1.59 1.6c0 1.69-.03 3.62-.08 5.8-.05 2.18-.08 4.11-.08 5.8zm17.45 13.67c-.2 0-.57-.24-1.11-.71-.48-.44-.84-.83-1.07-1.17-1.03.56-1.93.98-2.71 1.26s-1.43.43-1.96.43c-2.5 0-4.33-.71-5.47-2.12-1.08-1.33-1.62-3.36-1.62-6.1 0-2.59.89-4.8 2.67-6.64s3.91-2.76 6.38-2.76c.93 0 1.97.24 3.13.72 1.46.6 2.18 1.32 2.18 2.17 0 .29-.11.55-.32.77-.11.41-.19 1.08-.25 2.01s-.09 2.12-.1 3.58c-.01 1.33.08 2.38.27 3.15.11.47.45 1.41 1.01 2.82.07.19.2.48.37.85l.1.27c0 .43-.15.78-.45 1.06-.3.28-.65.42-1.04.42zm-3.34-11.15c0-.46.03-.96.09-1.5s.15-1.12.26-1.73c-.4-.2-.74-.35-1.02-.45-.28-.1-.51-.14-.68-.14-1.66 0-3.09.68-4.29 2.03-1.21 1.35-1.81 2.91-1.81 4.68s.31 3.07.93 3.95c.62.88 1.55 1.32 2.79 1.32 1.03 0 1.9-.19 2.62-.56.39-.2.93-.61 1.62-1.22-.34-2.83-.51-4.96-.51-6.37zm20.87-2.89c-.95 1.14-2.17 2.8-3.66 4.97-1.72 2.52-2.99 4.31-3.79 5.36 1.12-.05 2.1-.08 2.94-.08.42 0 1.04.08 1.86.24.82.16 1.45.24 1.86.24.47 0 .85.15 1.15.46.29.3.44.69.44 1.16s-.15.87-.44 1.17c-.29.3-.68.45-1.15.45-.42 0-1.04-.08-1.86-.24-.82-.16-1.44-.24-1.86-.24-2.41 0-4.69.22-6.85.66-.22.04-.42.06-.59.06-1.04 0-1.56-.45-1.56-1.36 0-.53.27-1.05.8-1.54 2.79-2.52 5.83-6.46 9.11-11.79-1.42.09-2.46.13-3.1.13-1.58 0-3.21-.12-4.88-.37-.95-.14-1.43-.67-1.43-1.59 0-.47.14-.86.43-1.18.29-.32.65-.47 1.09-.47.53 0 1.32.06 2.38.18 1.06.12 1.86.18 2.41.18.73 0 1.82-.05 3.27-.15 1.46-.1 2.54-.15 3.27-.15.91 0 1.36.37 1.36 1.12 0 .87-.41 1.79-1.22 2.78zm18.44-1.33l-5.55 12c-1.37 2.92-2.42 5.36-3.14 7.33l-1.06 3.11c-.28.77-.76 1.16-1.45 1.16-.45 0-.84-.15-1.16-.44-.33-.29-.49-.66-.49-1.1 0-1.07 1.16-4.17 3.47-9.29l-5.75-11.06-.72-1.17c-.29-.49-.43-.9-.43-1.24 0-.44.17-.82.51-1.16.34-.33.71-.5 1.13-.5.49 0 .87.19 1.14.56 1.82 2.52 3.77 6.12 5.86 10.78l2.38-5.54c.86-1.92 1.68-3.56 2.47-4.94.34-.6.79-.9 1.35-.9.44 0 .83.15 1.16.47.34.31.51.68.51 1.11 0 .24-.07.5-.21.8zm27.71.14c-.13 1.57-.19 3.15-.19 4.72 0 3.56.17 6.25.5 8.07.02.15.03.27.03.37 0 .43-.15.78-.45 1.06-.3.28-.65.42-1.04.42-.66 0-1.15-.48-1.46-1.44-.77.57-1.57 1-2.4 1.28-.83.29-1.69.43-2.59.43-2.21 0-4.05-.74-5.5-2.21-1.5-1.51-2.25-3.44-2.25-5.81 0-2.86.76-5.15 2.27-6.87 1.51-1.72 3.48-2.58 5.9-2.58 1.24 0 2.2.19 2.87.58l1.51 1.11c.15-4.5.33-7.54.53-9.1.14-.95.62-1.43 1.46-1.43.97 0 1.46.52 1.46 1.56 0 1.49-.21 4.77-.64 9.85zm-7.12.42c-1.8 0-3.15.53-4.04 1.6-.9 1.06-1.35 2.67-1.35 4.81 0 1.38.49 2.57 1.47 3.56.98 1 2.12 1.49 3.44 1.49.9 0 1.66-.17 2.28-.5.36-.19.96-.64 1.78-1.33.16-.14.31-.3.46-.5l-.05-2.78.02-1.86.03-1.89c-.41-.87-.95-1.52-1.62-1.95-.67-.43-1.48-.65-2.42-.65zm17.66 14.7c-1.8 0-3.34-.66-4.64-1.99-1.45-1.48-2.21-3.46-2.28-5.95-.06-2.42.54-4.55 1.83-6.39 1.5-2.17 3.58-3.26 6.26-3.26 2.14 0 3.76.98 4.86 2.94.88 1.58 1.3 3.49 1.27 5.71-.03 2.38-.65 4.4-1.86 6.08-1.37 1.9-3.18 2.86-5.44 2.86zm.96-14.33c-1.57-.01-2.8.74-3.67 2.25-.7 1.21-1.04 2.59-1.04 4.14s.42 2.76 1.27 3.63c.71.72 1.54 1.08 2.49 1.08 1.11 0 2.07-.41 2.87-1.22.91-.9 1.39-2.11 1.44-3.64.15-4.14-.97-6.22-3.35-6.23zm23.51 6.46l-.37 5.39c-.06 2.14-.28 3.89-.66 5.25-.48 1.73-1.25 3.01-2.31 3.83-1.28 1-3.14 1.49-5.57 1.49-1.42 0-2.62-.1-3.58-.29-1.35-.27-2.02-.82-2.02-1.67 0-.95.46-1.43 1.4-1.43.38 0 1.03.09 1.92.28.9.19 1.89.27 2.99.25 2.05-.03 3.47-1.03 4.25-2.98.51-1.31.79-3.31.82-6.02-.58 1.07-1.27 1.87-2.06 2.41-.8.54-1.71.8-2.74.8-1.94 0-3.51-.66-4.72-1.98-1.21-1.32-1.82-3.04-1.82-5.14 0-2.89.83-5.21 2.49-6.98 1.71-1.82 4.04-2.73 7-2.73.99 0 1.83.13 2.5.39s1.19.64 1.54 1.16c1.14.03 1.72.67 1.72 1.91 0 .76-.11 1.78-.34 3.05-.25 1.48-.39 2.48-.43 3.02zm-5.15-6.95c-2.03 0-3.61.7-4.72 2.1-.99 1.26-1.49 2.87-1.49 4.81 0 1.55.29 2.72.88 3.5.59.78 1.47 1.17 2.65 1.17 1.08 0 2.13-.61 3.14-1.83.92-1.12 1.44-2.24 1.57-3.34.22-1.16.46-2.97.72-5.44a4.76 4.76 0 0 0-1.33-.74c-.46-.16-.94-.24-1.43-.24zm11.44 15.36c-.56 0-1.03-.19-1.41-.58-.38-.39-.58-.86-.58-1.41s.19-1.01.58-1.4c.39-.39.86-.59 1.41-.59s1.01.2 1.4.59.59.86.59 1.4-.2 1.03-.59 1.41-.86.58-1.4.58z" class="cls-2"/><path d="M13.71 45.43l-1.21 1.4c-.72-.58-1.46-.88-2.3-.88-1.73 0-3.06 1.26-3.06 4.63s1.3 4.61 3.06 4.61c1.08 0 1.82-.47 2.54-1.01l1.12 1.4c-.76.77-2.05 1.51-3.75 1.51-3.22 0-5.47-2.29-5.47-6.52s2.38-6.46 5.44-6.46c1.58 0 2.61.47 3.64 1.31zm9.76 6.63c0 3.01-1.67 5.04-4.48 5.04s-4.48-1.91-4.48-5.04 1.67-5.02 4.5-5.02 4.47 1.91 4.47 5.02zm-6.54 0c0 2.29.7 3.29 2.05 3.29s2.05-1.03 2.05-3.29-.7-3.28-2.04-3.28-2.07 1.03-2.07 3.28zm21.28-2.13v6.9h-2.3v-6.54c0-1.19-.47-1.53-1.04-1.53-.79 0-1.28.56-1.8 1.44v6.63h-2.3v-6.54c0-1.19-.49-1.53-1.04-1.53-.81 0-1.3.56-1.82 1.44v6.63h-2.3v-9.52h2l.18 1.24c.68-.95 1.55-1.51 2.75-1.51 1.12 0 1.94.59 2.3 1.6.72-.99 1.6-1.6 2.86-1.6 1.51 0 2.52 1.1 2.52 2.9zm5.18-6.05c0 .77-.59 1.39-1.46 1.39s-1.44-.61-1.44-1.39.59-1.4 1.44-1.4 1.46.61 1.46 1.4zm-.29 12.95h-2.3v-9.52h2.3v9.52zm9.67-8.68l-1.03 1.39c-.63-.47-1.21-.68-1.93-.68-1.33 0-2.14.97-2.14 3.26s.85 3.11 2.14 3.11c.72 0 1.22-.23 1.93-.68l1.03 1.46c-.86.7-1.85 1.1-3.08 1.1-2.75 0-4.47-1.91-4.47-4.95s1.71-5.11 4.45-5.11c1.24 0 2.2.34 3.1 1.12zm13.93-2.5L65.53 47c-.9-.74-1.76-1.06-2.79-1.06-1.12 0-1.93.5-1.93 1.48 0 .9.49 1.3 2.56 1.94 2.18.68 3.69 1.58 3.69 3.93s-1.75 3.82-4.72 3.82c-1.98 0-3.46-.7-4.48-1.71l1.22-1.37c.92.77 1.91 1.24 3.21 1.24s2.29-.65 2.29-1.85c0-1.04-.52-1.51-2.47-2.11-2.61-.81-3.75-1.85-3.75-3.75 0-2.07 1.78-3.44 4.23-3.44 1.82 0 3.03.54 4.11 1.53zm10.03 9.88l-.49 1.53c-1.06-.09-1.75-.45-2.11-1.39-.68 1.01-1.71 1.42-2.86 1.42-1.89 0-3.06-1.21-3.06-2.94 0-2.07 1.55-3.19 4.32-3.19h1.21v-.54c0-1.24-.56-1.66-1.78-1.66-.65 0-1.57.18-2.54.5l-.52-1.57c1.17-.45 2.38-.68 3.44-.68 2.56 0 3.67 1.17 3.67 3.28v4c0 .77.25 1.04.72 1.22zm-2.99-1.28v-1.93h-.95c-1.49 0-2.23.54-2.23 1.66 0 .92.47 1.44 1.35 1.44.79 0 1.4-.41 1.84-1.17zm12.8-4.32v6.9h-2.3v-6.54c0-1.19-.45-1.53-1.17-1.53-.83 0-1.44.56-2 1.44v6.63h-2.3v-9.52h2l.18 1.24c.74-.95 1.69-1.51 2.9-1.51 1.71 0 2.7 1.08 2.7 2.9zm9.01-1.76l-.9 1.35c-.79-.5-1.55-.77-2.39-.77-.92 0-1.44.38-1.44.95 0 .63.38.92 2 1.37 1.94.52 3.04 1.31 3.04 3.01 0 1.98-1.84 3.02-4.01 3.02-1.64 0-2.92-.56-3.8-1.35l1.15-1.3c.74.56 1.62.94 2.59.94 1.03 0 1.69-.43 1.69-1.15 0-.79-.38-1.04-2.16-1.55-1.96-.54-2.83-1.48-2.83-2.88 0-1.58 1.46-2.77 3.67-2.77 1.37 0 2.48.43 3.38 1.13z" class="cls-1"/></svg>