<svg xmlns="http://www.w3.org/2000/svg" id="Layer_1" viewBox="0 0 888.5 294.77" width="888.5" height="294.77"><defs><style>.cls-1{fill:#b3b4b4}.cls-2{fill:#231f20}.cls-3,.cls-4{fill:#ffcb05;stroke:#231f20;stroke-miterlimit:10}.cls-4{fill:none;stroke-width:8px}.cls-5{fill:#010101;fill-rule:evenodd}</style></defs><path d="M372.36 160.27h-7.97l-9.12-27.56h7.24l5.89 22.19 6.04-22.19h6.88l-8.96 27.56zm35.22-11.72h-17.3c.52 5.63 3.13 7.45 6.77 7.45 2.45 0 4.48-.78 6.88-2.45l2.76 3.8c-2.71 2.19-6.04 3.7-10.21 3.7-8.54 0-13.13-5.68-13.13-14.38s4.43-14.74 12.24-14.74 12.14 5.21 12.14 13.91c0 .89-.1 1.98-.16 2.71zm-6.46-4.64c0-4.53-1.62-7.24-5.37-7.24-3.13 0-5.11 2.08-5.47 7.55h10.84v-.31zm28.85-11.56l-1.15 6.46c-.83-.21-1.46-.31-2.45-.31-3.33 0-5.05 2.45-6.09 7.08v14.69h-6.67v-27.56h5.78l.62 5.42c1.3-3.96 3.96-6.15 7.19-6.15.99 0 1.88.1 2.76.37zm21.99 2.87l-2.6 3.91c-2.29-1.46-4.48-2.24-6.93-2.24-2.66 0-4.17 1.09-4.17 2.76 0 1.82 1.09 2.66 5.78 3.96 5.63 1.51 8.8 3.8 8.8 8.7 0 5.73-5.31 8.75-11.62 8.75-4.74 0-8.44-1.61-10.99-3.91l3.33-3.75c2.14 1.61 4.69 2.71 7.5 2.71 2.97 0 4.9-1.25 4.9-3.33 0-2.29-1.09-3.02-6.25-4.48-5.68-1.56-8.18-4.27-8.18-8.33 0-4.58 4.22-8.02 10.63-8.02 3.96 0 7.19 1.25 9.79 3.28zm28.02 25.05h-5.78l-.36-3.85c-2.03 3.12-4.64 4.64-8.44 4.64-5 0-7.66-3.23-7.66-8.54v-19.8h6.67v18.96c0 3.23 1.04 4.32 3.33 4.32s4.17-1.51 5.57-3.91v-19.38h6.67v27.56zm26.41-25.05l-2.61 3.91c-2.29-1.46-4.48-2.24-6.93-2.24-2.66 0-4.17 1.09-4.17 2.76 0 1.82 1.09 2.66 5.78 3.96 5.63 1.51 8.8 3.8 8.8 8.7 0 5.73-5.31 8.75-11.62 8.75-4.74 0-8.44-1.61-10.99-3.91l3.33-3.75c2.14 1.61 4.69 2.71 7.5 2.71 2.97 0 4.9-1.25 4.9-3.33 0-2.29-1.09-3.02-6.25-4.48-5.68-1.56-8.18-4.27-8.18-8.33 0-4.58 4.22-8.02 10.63-8.02 3.96 0 7.19 1.25 9.79 3.28z" class="cls-1"/><path d="M619.22 146.7c-6.49 2.54-14.78 3.81-24.87 3.81-1.24 0-2.42-.58-3.53-1.75s-1.67-2.37-1.67-3.61v-12.59c0-4.12.26-10.01.78-17.65.58-8.25.89-14.22.95-17.91-.03-2.65.13-6.6.48-11.85.2-1.44.68-2.39 1.43-2.85 3.92-1.21 8.38-1.82 13.37-1.82s9.95 1.73 14.62 5.19c5.39 3.98 8.09 8.9 8.09 14.75 0 7.41-2.88 13.25-8.65 17.52 4.33 1.85 7.56 3.89 9.71 6.14 2.15 2.25 3.22 4.7 3.22 7.35 0 3.49-1.89 6.86-5.67 10.12-2.62 2.31-5.38 4.02-8.26 5.15zM611 123.95l-4.58-.74c-.38 0-.94.02-1.71.06-.76.04-1.35.07-1.75.07-1.56 0-3.22-.13-4.97-.39-.17 3.63-.26 6.88-.26 9.73v8.95c7.55-.26 13.71-1.33 18.47-3.2 2.02-.78 3.95-1.99 5.8-3.63 1.76-1.5 2.64-2.62 2.64-3.37 0-1.36-1.85-2.88-5.54-4.59-2.77-1.3-5.46-2.26-8.09-2.9zm-4.84-34.65c-3.14 0-5.35.1-6.62.3l-.09 7.57-.87 16.74c4.09.35 6.29.5 6.58.48 4.35-.35 7.92-1.7 10.68-4.07 2.97-2.57 4.46-5.87 4.46-9.91 0-2.74-1.51-5.28-4.54-7.61-3.03-2.34-6.23-3.5-9.6-3.5zm52.82 61.68c-4.84 0-9.01-1.79-12.5-5.36-3.89-3.98-5.94-9.33-6.14-16.05-.17-6.52 1.47-12.26 4.93-17.22 4.04-5.85 9.66-8.78 16.87-8.78 5.77 0 10.14 2.64 13.11 7.92 2.36 4.27 3.5 9.4 3.42 15.4-.09 6.4-1.76 11.87-5.02 16.39-3.69 5.13-8.58 7.7-14.66 7.7zm2.6-38.63c-4.24-.03-7.54 1.99-9.91 6.06-1.88 3.26-2.81 6.98-2.81 11.16s1.14 7.44 3.42 9.78c1.9 1.93 4.14 2.9 6.71 2.9 3 0 5.58-1.1 7.74-3.29 2.45-2.42 3.75-5.7 3.89-9.82.4-11.16-2.61-16.75-9.04-16.78zm43.98 38.63c-4.84 0-9.01-1.79-12.5-5.36-3.89-3.98-5.94-9.33-6.14-16.05-.17-6.52 1.47-12.26 4.93-17.22 4.04-5.85 9.66-8.78 16.87-8.78 5.77 0 10.14 2.64 13.11 7.92 2.36 4.27 3.5 9.4 3.42 15.4-.09 6.4-1.76 11.87-5.02 16.39-3.69 5.13-8.58 7.7-14.66 7.7zm2.6-38.63c-4.24-.03-7.54 1.99-9.91 6.06-1.88 3.26-2.81 6.98-2.81 11.16s1.14 7.44 3.42 9.78c1.9 1.93 4.14 2.9 6.71 2.9 3 0 5.58-1.1 7.74-3.29 2.45-2.42 3.75-5.7 3.89-9.82.4-11.16-2.61-16.75-9.04-16.78zm82.7 39.67c-2.37 0-3.75-1.25-4.15-3.76-.52-3.17-1.04-7.64-1.56-13.41l-1.47-13.41c-.29-1.99-.78-3.94-1.47-5.84-.98-2.6-2.05-3.89-3.2-3.89-1.07 0-3.06.91-5.97 2.72-2.77 1.67-4.58 3.01-5.45 4.02-.03 2.71.04 5.42.22 8.13l1.3 11.55c.55 4.56.82 8.32.82 11.29 0 1.27-.4 2.31-1.19 3.14-.79.82-1.81 1.23-3.05 1.23s-2.26-.41-3.05-1.23-1.19-1.87-1.19-3.14c0-3.49-.35-8.64-1.06-15.46-.71-6.82-1.06-11.97-1.06-15.46 0-3.06-.43-5.44-1.3-7.14-2.02.92-4.07 2.42-6.14 4.5l-5.1 5.71c-.46.69-1.2 1.6-2.21 2.72 0 1.73-.16 4.28-.48 7.66s-.48 5.87-.48 7.48c0 .87.14 2.08.41 3.63.27 1.56.41 2.68.41 3.37 0 1.18-.44 2.18-1.32 2.99-.88.81-1.91 1.21-3.09 1.21-3.26 0-4.89-3.71-4.89-11.12 0-1.73.16-4.31.48-7.74.32-3.43.48-6.01.48-7.74 0-1.53-.14-3.82-.41-6.88s-.41-5.36-.41-6.92c0-6.55 1.47-9.82 4.41-9.82 1.12 0 2.16.49 3.09 1.47s1.41 2.05 1.41 3.2c0 .55-.07 1.4-.22 2.55s-.22 2.03-.22 2.64l.09 4.54c1.5-3.09 3.71-5.88 6.62-8.37 2.91-2.49 5.39-3.74 7.44-3.74 4.53 0 7.64 2.25 9.34 6.75 1.59-2.1 3.48-3.68 5.67-4.74 2.19-1.05 4.7-1.58 7.53-1.58 4.82 0 8.1 2.6 9.86 7.79.35 1.04.94 5.09 1.77 12.16.81 4.96 1.85 13.22 3.11 24.79.09 1.15-.3 2.13-1.17 2.94s-1.92 1.21-3.16 1.21zm22.24-4.58c0 1.04-.41 1.94-1.23 2.7-.82.76-1.75 1.15-2.79 1.15-1.15 0-2.31-.75-3.46-2.25-1.12-1.41-1.69-2.71-1.69-3.89 0-1.04.41-1.93 1.23-2.68.82-.75 1.77-1.12 2.83-1.12 1.12 0 2.28.75 3.46 2.25 1.1 1.41 1.64 2.7 1.64 3.85zm-.04-64.58V131c0 2.57-1.28 3.85-3.85 3.85s-3.85-1.28-3.85-3.85c0-1.18-.04-2.95-.11-5.3s-.11-4.1-.11-5.26c0-4.18.04-10.45.11-18.79s.11-14.61.11-18.79c0-2.57 1.28-3.85 3.85-3.85s3.85 1.28 3.85 3.85z" class="cls-2"/><path d="M145.92 9.06L2.82 256.92c-6.59 11.42 1.65 25.69 14.83 25.69h286.2c13.19 0 21.43-14.27 14.83-25.69L175.59 9.06c-6.59-11.42-23.07-11.42-29.67 0z" class="cls-3"/><path d="M67.96 241.06c-1.07-.02-1.97-.38-2.69-1.1s-1.09-1.58-1.09-2.6c0-1.81.08-4.53.26-8.16.17-3.62.26-6.34.26-8.16 0-2.01-.04-5.03-.12-9.05-.08-4.02-.12-7.04-.12-9.05 0-1 .48-1.99 1.44-2.98s1.98-1.48 3.07-1.48c.6 0 2.1.56 4.51 1.68 2.81 1.34 4.48 2.09 5 2.26 5.31 1.72 9.84 4.39 13.59 7.99 4.48 4.3 6.71 9.04 6.71 14.25 0 3.14-.77 6.12-2.31 8.94-1.54 2.88-3.65 5.19-6.33 6.93-3.01 1.96-7.24 2.94-12.7 2.94-1.32 0-2.85-.19-4.57-.57-2.08-.47-3.72-1.09-4.92-1.85zm15.28-27.95c-1.76-1.11-5.53-2.84-11.31-5.22v26.91c.71.45 1.52.79 2.43 1.02.92.23 1.93.34 3.06.34 3.92 0 6.72-.54 8.43-1.63 1.61-1.03 2.9-2.44 3.85-4.21.95-1.78 1.43-3.62 1.43-5.55 0-4.49-2.63-8.38-7.88-11.66zm43.46 29.18c-.83 0-2.16-.81-3.97-2.42-1.67.8-3.14 1.4-4.4 1.81-1.27.41-2.35.61-3.24.61-4.37 0-7.64-1.17-9.83-3.51s-3.28-5.84-3.28-10.49c0-4.37 1.61-8.1 4.84-11.21 3.23-3.11 7.09-4.66 11.58-4.66 1.72 0 3.71.49 5.98 1.45 2.74 1.17 4.1 2.52 4.1 4.06 0 .65-.21 1.21-.62 1.7-.18.72-.32 1.62-.42 2.71-.1 1.09-.15 2.36-.15 3.81 0 3.43.25 5.89.73 7.4.05.16.47 1.09 1.25 2.8.71 1.54 1.06 2.42 1.06 2.64 0 .95-.37 1.74-1.1 2.37-.73.63-1.58.94-2.54.94zm-6.74-18.35c0-.58.04-1.25.12-2 .08-.75.2-1.59.37-2.51-.36-.18-.68-.31-.96-.39a2.69 2.69 0 0 0-.72-.12c-2.46 0-4.62.96-6.47 2.89-1.85 1.93-2.77 4.16-2.77 6.7s.43 4.25 1.3 5.48c.87 1.22 2.17 1.83 3.91 1.83 1.12 0 2.19-.19 3.19-.56s1.95-.92 2.84-1.64c-.54-4.31-.82-7.54-.82-9.68zm35.64 18.78c-2.23 0-3.47-1.1-3.72-3.29-.25-1.87-.51-3.74-.76-5.63-.27-1.99-.41-3.87-.41-5.63 0-.47.03-1.28.1-2.42.06-1.14.09-1.95.09-2.42 0-.13.02-.45.05-.96s.05-.94.05-1.26c0-1.5-.36-2.26-1.09-2.26-1.55 0-3.08 1-4.57 2.99-1.49 2-2.66 4.53-3.51 7.59-.03.61-.11 1.43-.23 2.45-.1.84-.15 1.65-.15 2.45 0 .52-.06 1.3-.18 2.35s-.18 1.83-.18 2.35c0 1.06-.36 1.93-1.07 2.63-.72.7-1.62 1.04-2.71 1.04s-1.98-.35-2.69-1.04c-.71-.69-1.06-1.56-1.06-2.62 0-.52-.05-1.3-.16-2.34-.11-1.04-.16-1.82-.16-2.34 0-1.77.13-4.24.38-7.39s.38-5.62.38-7.39c0-.55-.03-1.38-.09-2.48s-.1-1.92-.1-2.45c0-1.03.37-1.89 1.1-2.56.73-.67 1.63-1.01 2.71-1.01 2.37 0 3.64 1.42 3.81 4.27l.03.3c2.65-2.66 5.44-4 8.37-4 3.42 0 5.79 1.43 7.09 4.29.87 1.92 1.3 4.79 1.3 8.62v1.93c-.02.83-.03 1.42-.03 1.77 0 1.41.19 3.24.58 5.46s.58 4.04.58 5.44c0 1.02-.36 1.86-1.09 2.53s-1.62 1.01-2.69 1.01zm32.92-18.13c-.76 4.26-1.21 8.75-1.36 13.48-.18 5.85-1.16 10.1-2.94 12.75-2.37 3.53-6.58 5.3-12.61 5.3-7.05 0-10.58-1.4-10.58-4.19 0-1 .32-1.8.95-2.42s1.47-.92 2.5-.92c.82 0 1.98.15 3.51.46 1.52.31 2.87.46 4.05.46 2.7 0 4.69-.83 5.98-2.47 1.23-1.61 1.96-4.18 2.17-7.69-.92.94-1.97 1.65-3.13 2.12-1.16.47-2.43.71-3.81.71-3.61 0-6.54-1.17-8.79-3.52-2.26-2.35-3.38-5.35-3.38-9.01 0-4.93 1.5-8.92 4.51-11.96 3.12-3.15 7.33-4.73 12.64-4.73 1.7 0 3.17.21 4.4.62 1.23.42 2.23 1.05 2.99 1.9 2.3.27 3.45 1.63 3.45 4.08 0 1.21-.19 2.89-.57 5.03zm-10.55-5.44c-3.06 0-5.45 1.01-7.15 3.02-1.52 1.83-2.28 4.21-2.28 7.12 0 2.16.41 3.78 1.22 4.87.82 1.09 2.04 1.63 3.67 1.63 1.49 0 2.98-.86 4.49-2.58 1.41-1.63 2.22-3.24 2.42-4.84.34-1.74.74-4.45 1.2-8.13-.62-.36-1.22-.63-1.82-.82-.6-.18-1.18-.27-1.74-.27zm28.6 22.89c-4.33 0-7.88-1.03-10.63-3.1-3.04-2.28-4.57-5.5-4.57-9.65 0-4.58 1.21-8.46 3.62-11.63 2.68-3.52 6.3-5.27 10.85-5.27 3.15 0 5.77.51 7.86 1.52 2.74 1.34 4.11 3.43 4.11 6.25 0 1.99-1.12 3.76-3.34 5.3-1.02.71-3.05 1.74-6.12 3.1l-9.16 4.05c.87.94 1.92 1.65 3.15 2.12 1.23.47 2.65.71 4.24.71 2.43 0 4.49-.5 6.17-1.5 1.5-.89 2.71-1.33 3.62-1.33 1.88 0 2.83.92 2.83 2.75 0 2.07-1.51 3.75-4.54 5.06-2.54 1.09-5.23 1.63-8.07 1.63zm-.73-23.08c-1.69 0-3.13.56-4.32 1.69-1.2 1.12-2.16 2.81-2.88 5.06 2.05-.89 4.09-1.77 6.12-2.64 2.45-1.11 4.39-2.13 5.84-3.07-1.21-.69-2.8-1.03-4.76-1.03zm40.94 2.23c-.16 2.77-1.42 4.16-3.78 4.16s-3.42-1.18-3.42-3.53l-.14-2.75c-4.08.65-7 2.75-8.75 6.28l.03 13.67c0 1.03-.35 1.89-1.06 2.57s-1.6 1.02-2.69 1.02-1.99-.36-2.61-1.09c-.58-.65-.87-1.49-.87-2.5v-17.81c0-.56.02-1.4.05-2.51.04-1.12.05-1.95.05-2.51 0-1.01.3-1.86.91-2.54.61-.68 1.47-1.02 2.6-1.02 2.01 0 3.21 1.03 3.59 3.1 3.21-2.39 6.77-3.59 10.68-3.59 3.62 0 5.44 2.41 5.44 7.23 0 .92 0 1.53-.03 1.82zm7.69 21.4c-1.09 0-2.1-.58-3.04-1.74-.85-1.07-1.28-2.07-1.28-2.99s.37-1.73 1.12-2.37c.74-.63 1.58-.95 2.53-.95 1.09 0 2.09.58 3.02 1.74.85 1.07 1.28 2.06 1.28 2.96s-.37 1.71-1.1 2.37c-.73.65-1.57.98-2.51.98zm.08-9.87c-1.02 0-1.85-.32-2.51-.95-.66-.63-.99-1.43-.99-2.39 0-.71-.02-1.76-.07-3.17s-.07-2.46-.07-3.17c0-2.5.02-6.25.07-11.25s.07-8.75.07-11.25c0-.96.33-1.76 1.01-2.41.67-.64 1.5-.97 2.5-.97s1.83.32 2.5.97c.67.64 1.01 1.45 1.01 2.41v28.84c0 .96-.33 1.76-.99 2.39-.66.63-1.5.95-2.51.95z" class="cls-2"/><path d="M152.97 21.06L16.73 257.03c-3.46 5.99.87 13.49 7.79 13.49h272.47c6.92 0 11.25-7.49 7.79-13.49L168.54 21.06c-3.46-5.99-12.11-5.99-15.57 0z" class="cls-4"/><path d="M162.31 148.57h-3.12l-7.22-66.46c-.33-2.9-.49-5.06-.49-6.48 0-3.45.92-6.21 2.75-8.29 1.83-2.08 4.03-3.12 6.6-3.12s4.75 1.04 6.52 3.12c1.78 2.08 2.67 5.17 2.67 9.27 0 1.31-.11 3.15-.33 5.5l-7.38 66.46zm-1.64 13.62c2.52 0 4.66.89 6.44 2.67 1.78 1.78 2.67 3.9 2.67 6.36s-.89 4.66-2.67 6.44c-1.78 1.78-3.93 2.67-6.44 2.67s-4.66-.89-6.44-2.67c-1.78-1.78-2.67-3.92-2.67-6.44s.89-4.58 2.67-6.36c1.78-1.78 3.92-2.67 6.44-2.67z" class="cls-2"/><path d="M656.16 12.55c-23.32.43-41.27 2.7-52.66 6.7-18.29 6.42-33.77 25.29-38.01 46.33-.97 4.73-2.15 15.29-2.76 24.47-.24 3.9-.66 9.84-.91 13.17-1.63 21.68-2.57 37.25-2.57 42.7 0 11.54.85 29.17 1.7 34.88 1.21 8.26 3.57 13.5 8.2 18.11 2 1.97 2.66 2.84 3.3 4.39 3.42 8.42 7.81 13.23 15.71 17.17 3.88 1.97 6.54 2.78 12.66 3.9 10.39 1.88 13.26 2.06 36.64 2 15.93-.04 20.87.06 20.95.33.06.21.55 1.85 1.1 3.7 2.51 8.63 5.62 15.63 9.9 22.11 5.46 8.32 8.36 11.26 18.68 18.77 2.66 1.94 6.36 4.7 8.18 6.09 5.99 4.67 18.92 11.66 25.53 13.87 4.09 1.34 5.97 1.42 7.15.33 1.24-1.15 1.03-2.03-.97-4.33-2.7-3.09-4.49-5.75-6.09-9.2-2.97-6.27-3.72-8.6-4.57-13.72-1.6-9.87-1.97-20.44-.91-26.68.61-3.45 1.94-7.96 3.03-10.11l.54-1.09 7.09-.37c3.87-.21 9.38-.36 12.2-.36 4.75 0 16.89-.49 30.89-1.22 8-.42 17.75-1.42 22.42-2.29 2.18-.39 7.26-1.34 11.35-2.09 12.87-2.4 23.62-5.36 29.53-8.15 5.48-2.6 8.75-4.93 14.66-10.57 7.26-6.88 9.36-10.72 11.35-20.65.85-4.21 2.09-17.02 2.6-26.8.18-3.24.55-8.69.79-12.12 1.03-14.29 1.24-34.88.43-43.3-.15-1.76-.52-5.54-.76-8.45-.55-6.03-2.36-16.14-4.12-23.02-1.46-5.78-4.39-13.2-6.57-16.65-4.24-6.78-7.33-9.42-17.78-15.26-2.67-1.48-5.3-3.06-5.85-3.48-4.67-3.72-11.3-7.21-17.62-9.3-7.21-2.33-12.42-3.27-25.74-4.54-4.43-.43-10.42-1.06-13.32-1.4-27.23-3.12-35.01-3.54-74.65-3.88-15.66-.15-28.68-.24-28.93-.21-.24 0-5.57.12-11.81.21zm56.17 7.84c24.65.49 32.87.98 52.7 3.19 6.66.73 15.17 1.63 18.93 1.97 15.75 1.45 22.29 2.94 30.55 6.84 9.24 4.39 13.72 9.24 16.65 18.11 1.09 3.27 4 15.08 6.39 25.78 1.91 8.56 4.51 25.29 5.64 35.88.63 6.21.94 29.89.45 37.1-.39 6.11-.91 9.5-2.3 14.98-2.96 11.84-7.78 20.69-13.78 25.29-6.66 5.11-15.47 8.54-28.8 11.17-11.35 2.23-22.08 3.18-45.55 3.96-21.17.69-29.35 1.21-39.22 2.45-8.36 1.04-12.18 2.36-14.09 4.88-1.63 2.15-3.14 6.75-3.33 10.05-.03.93-.36 2.78-.69 4.12-1.21 4.79-1.42 6.96-1.4 15.29.04 9.14.43 13.17 2.09 21.07.61 2.82 1.18 5.51 1.28 6.03.18.85.18.88-.43.45-.33-.24-2.51-1.72-4.81-3.3-9.9-6.72-15.87-13.54-21.05-24.11-2.03-4.12-4.42-10.94-7.08-20.14-2.85-9.87-6.76-14.6-13.12-15.9-2.9-.61-8.3-1-15.96-1.22-10.75-.27-22.71-.75-27.1-1.05-12.08-.88-23.86-3.37-29.95-6.3-1.66-.79-2.88-1.66-4.42-3.21-5.72-5.75-6.94-13.02-6.96-41.98 0-14.14.03-14.59 1.15-27.55 1.58-18.39 2.27-26.92 2.78-34.83 1.04-15.53 2.15-23.65 4.09-29.5 1.48-4.42 5.09-11.51 7.81-15.29 5.42-7.63 13.99-14.65 21.42-17.62 8.93-3.57 27.59-6.21 47.24-6.72 8.57-.24 47.91-.18 60.87.09zm126.26 22.84c2.29 1.76 6.21 5.66 6.78 6.76.24.42-1.03-.31-3.7-2.06-3.9-2.63-4.06-2.78-4.81-4.51-.42-.99-.69-1.81-.57-1.81.09 0 1.12.73 2.3 1.63zm3.63 8.06c1.42.85 3.27 1.81 4.08 2.18 1.61.64 1.73.85 3.09 4.73l.55 1.58-4.15-3.15c-5.51-4.21-6.02-4.69-6.27-5.88-.12-.51-.12-.97-.06-.97.09 0 1.34.69 2.76 1.52zm6.27 9.66l2.3 1.24.94 3.54c.54 1.94.91 3.57.87 3.61-.03.03-2.03-1.52-4.45-3.43-2.42-1.91-4.75-3.66-5.21-3.9-.45-.21-.88-.67-.97-.94-.18-.67-1.1-4.6-1.1-4.81 0-.06 1.18.67 2.67 1.63 1.45.99 3.66 2.36 4.93 3.06zm-1.54 7.39c1.76 1.18 3.9 2.45 4.79 2.82.85.39 1.57.81 1.57.93 0 .15.33 2.16.73 4.49.39 2.33.7 4.27.67 4.27 0 .03-2.39-2.24-5.24-5.03l-5.21-5.05-.57-2.46c-.37-1.58-.45-2.39-.25-2.27.19.09 1.76 1.16 3.52 2.3zm2.15 11.39c1.21 1.05 3.03 2.48 4.03 3.12 1.03.67 1.94 1.34 2.03 1.54.12.21.31 1.67.43 3.25l.24 2.88-1.94-1.81c-1.06-1-3.21-3.15-4.79-4.76-2.52-2.57-2.85-3.08-3.09-4.39-.15-.78-.33-1.78-.42-2.18q-.19-.7.54-.15c.43.33 1.76 1.46 2.97 2.52zm1.79 9.66c1.57 1.24 3.36 2.54 3.99 2.88.91.55 1.16.85 1.16 1.58 0 .48.09 1.66.21 2.57l.19 1.67-4.21-4.09c-2.3-2.23-4.3-4.21-4.39-4.38-.12-.15-.27-.88-.39-1.61-.24-1.54-.45-1.63 3.46 1.4zm.42 7.45c1.4 1.06 3.15 2.3 3.94 2.76l1.39.81v2.7c0 2.3-.06 2.7-.42 2.48-.24-.15-1.94-1.58-3.76-3.18l-3.33-2.94-.18-1.76c-.12-.97-.27-2-.36-2.29-.09-.27-.09-.51 0-.51.12 0 1.33.87 2.72 1.94zm2.82 10.35c1 .7 2 1.3 2.18 1.37.24.09.33 1.09.27 3.08l-.09 2.94-2.94-2.27c-1.61-1.24-3-2.36-3.06-2.48-.09-.12-.25-1.46-.37-2.96l-.24-2.7 1.18.87c.67.51 2.03 1.49 3.06 2.15zm.61 7.94l1.9 1.12v3.39c0 1.88-.06 3.43-.15 3.43s-1.28-.88-2.66-1.97l-2.55-1.94-.21-1.88c-.09-1.03-.18-2.48-.18-3.21v-1.36l.99.63c.51.37 1.81 1.16 2.85 1.79zm-.76 8.66l2.52 1.63-.09 2.95c-.12 3.36.06 3.3-2.96 1.27l-1.94-1.27v-2.42c0-1.34-.09-2.73-.18-3.12-.12-.36-.12-.66-.04-.66.13 0 1.34.72 2.7 1.63zm.06 9.27l2 .91-.04 2.05c-.03 1.12-.12 2.91-.24 4l-.18 1.97-1.04-1.81c-.57-1-1.51-2.48-2.05-3.33-.82-1.24-1-1.79-1-3.09 0-.88.12-1.6.27-1.6.12 0 1.15.42 2.27.91zm.12 11.75c1.28 1.58 1.31 1.7 1.12 3.12l-.21 1.48-1.79-2.39c-1.67-2.24-1.79-2.51-1.76-4.03v-1.61l.67.88c.36.48 1.24 1.63 1.96 2.54zm.94 8.69c-.06 3.12-.24 3.15-2.21.39-1-1.36-1.81-2.7-1.81-2.94 0-.27.03-.94.06-1.48l.06-1.04 1.97 1.79c1.91 1.73 1.94 1.79 1.94 3.27zm-.51 7.87c-.12 2.4-.43 2.97-.97 1.94-.21-.39-1.06-1.58-1.85-2.6-1.52-1.91-1.76-2.82-1.3-4.57.18-.64.33-.58 2.21 1.21l2 1.91-.09 2.12zm-1.34 4.09c.94.69.98.85.76 1.88l-.25 1.12-1.96-2.76c-2.67-3.75-2.76-3.94-1.04-2.36.82.76 1.94 1.7 2.48 2.12zm-.6 4.79l1.03.97-.21 2.27-.21 2.3-2.84-2.97c-1.54-1.63-2.82-3.15-2.85-3.36 0-.25.21-1.18.49-2.12l.51-1.7 1.55 1.79c.85.99 2 2.27 2.54 2.82zm-3.82 4.18c1.06.93 2.42 2.05 3.03 2.51l1.15.79-.18 1.76c-.45 4.09-.21 4.06-3.45.19-1.58-1.91-3.07-3.7-3.3-4-.33-.43-.36-.76-.06-1.73.18-.67.49-1.21.63-1.21.15 0 1.16.75 2.18 1.7zm1.42 9.45c1.7 1.18 1.7 1.16.55 3.79l-.67 1.46-3.03-3.69c-4.24-5.18-3.96-4.7-3.36-5.94l.51-1.09 2.21 2.21c1.22 1.22 2.91 2.66 3.79 3.27zm-4.97 3.66c3.21 3.12 3.51 3.51 3.19 4.09-.43.78-1.82 2.41-1.94 2.27-.03-.06-.39-.61-.81-1.18-.39-.57-1.79-2.33-3.09-3.9l-2.39-2.82.54-1.04c.31-.57.67-.99.79-.97.09.06 1.79 1.63 3.72 3.54zm-3.42 4.49c1.81 1.78 3.27 3.39 3.27 3.57s-.45.79-1 1.3l-1.03 1-1.16-1.46c-.63-.79-2.05-2.46-3.12-3.64-1.22-1.39-1.85-2.33-1.7-2.57.33-.61 1.09-1.46 1.3-1.46.09 0 1.63 1.46 3.43 3.25zm-4.49 2.75c1.18 1.12 2.7 2.48 3.37 3.03l1.21.97-.93.94-.94.91-2.94-3.63c-2.7-3.34-3.18-4.27-2.24-4.27.18 0 1.3.93 2.48 2.05zm-1.94 3.79l3.15 3.27-.91.73c-.49.43-1.04.73-1.22.67-.18-.03-1.66-1.58-3.27-3.39l-2.9-3.33.85-.67c.45-.39.91-.67.99-.61.09.04 1.58 1.55 3.3 3.33zm-4.39 3.12c2.7 2.54 3.24 3.21 2.88 3.45-1.3.87-1.7.73-5.45-2.27-2.03-1.61-3.6-3-3.51-3.09.49-.49 1.91-1.28 2.3-1.28.24 0 1.97 1.43 3.79 3.19zm-7.78 1.78c1.22.91 3.03 2.09 4 2.64 1 .55 1.81 1.09 1.81 1.22 0 .18-3.12 1.45-3.61 1.45-.12 0-.36-.3-.54-.69-.19-.37-1.37-1.85-2.64-3.3-1.28-1.45-2.3-2.72-2.3-2.81 0-.55 1.36.06 3.27 1.51zm-3.15 3l3.09 3.19-1.79.48c-.97.27-1.81.45-1.88.39-.55-.54-4.69-6.15-4.69-6.33 0-.21 1.34-.79 1.94-.85.15-.03 1.63 1.4 3.33 3.12zm-239.18-.99c.36.12 1.36 1.48 2.33 3.12 1.04 1.79 1.49 2.78 1.16 2.64-.82-.45-4.49-4.45-5.03-5.51q-.49-.94.21-.73c.39.12.98.33 1.34.49zm231.4.48c.33.49 1.55 1.88 2.67 3.12 2.23 2.48 2.23 2.29-.37 2.82-.91.18-1.06.06-3.39-2.7-1.36-1.58-2.45-3-2.45-3.12 0-.25 1.6-.86 2.45-.92.24-.03.73.33 1.09.79zm-225.76 1c.87.24 1.18.55 1.46 1.34.18.54 1.11 2.36 2.12 4.06s1.81 3.14 1.81 3.24-.79-.24-1.76-.73c-1.76-.87-1.78-.91-3.48-4.42-.93-1.94-1.72-3.58-1.72-3.66 0-.18.36-.15 1.58.18zm221.9 2.85c2.66 2.66 2.82 2.88 2.12 3.02-2.57.61-3.48.73-3.63.55-.09-.12-1.03-1.24-2.12-2.48-3.02-3.51-2.9-3.27-1.72-3.61 2.12-.61 2.36-.49 5.36 2.52zm-215.54-1.28c.25.21.92 1.15 1.46 2.05.55.92 1.94 2.95 3.12 4.49 1.15 1.54 2.05 2.84 2 2.9-.18.19-4.61-.99-4.85-1.27-.12-.12-1.03-2.09-2.03-4.39l-1.81-4.14h.81c.45 0 1.04.18 1.3.36zm211.3 5.51c-.07.09-1.04.24-2.09.33l-1.97.21-2.36-2.84-2.34-2.82 1.58-.33 1.61-.33 2.88 2.82c1.58 1.54 2.78 2.88 2.7 2.97zm-203.84-4.12c.81 1.03 5.51 8.93 5.39 9.05-.12.12-3.54-.42-3.66-.57-.15-.18-3.45-5.97-4.36-7.6l-.97-1.76 1.6.21c.94.09 1.76.39 2 .67zm193.72 2.39c1.4 1.48 2.42 2.76 2.34 2.88-.12.09-.98.27-1.91.39l-1.67.21-2.18-2.88c-2.3-3.09-2.3-3.12-.12-3.21.87-.04 1.3.3 3.54 2.6zm-187.45.55c.85 1.48 2.12 3.57 2.84 4.63.69 1.06 1.21 2 1.15 2.09-.33.3-2.63-.27-2.63-.67 0-.21-.97-2.3-2.12-4.69-1.94-3.88-2.05-4.27-1.46-4.18.49.06 1.1.85 2.22 2.82zm4.21-1.76c.51.91 5.12 6.9 6.21 8.08.7.75.88 1.12.55.97-.31-.09-1.36-.18-2.36-.18h-1.79l-1.78-3.58c-1-1.94-2.18-4.14-2.64-4.87l-.82-1.34 1.18.25c.67.09 1.3.42 1.46.67zm176.44 2.05c1.39 1.61 2.42 2.97 2.33 3.06-.09.09-.69.25-1.34.33l-1.18.15-2.18-2.91c-1.22-1.58-2.18-2.96-2.18-3.02 0-.12.82-.33 1.73-.45.18 0 1.45 1.27 2.82 2.84zm-170.96-2.27c.79 0 1.04.21 1.79 1.6.51.85 1.76 2.91 2.82 4.55 1.06 1.63 1.91 3.02 1.91 3.09 0 .09-.94.15-2.09.15-1.91 0-2.09-.06-1.94-.57.09-.39-.69-2-2.29-4.67-1.37-2.21-2.46-4.14-2.46-4.3 0-.12.3-.15.69-.03.37.09 1.1.18 1.58.18zm6.15.18c.45.12.97.75 1.49 1.76.42.85 1.51 2.79 2.39 4.33.91 1.52 1.63 2.84 1.63 2.94s-.61.18-1.34.18c-1.15 0-1.39-.12-1.58-.69-.12-.37-1.15-2.4-2.27-4.51-1.15-2.09-2.09-3.9-2.09-4 0-.24.85-.21 1.76 0zm158.99 2.76c2.63 3.12 2.66 3.33.63 3.39-.67.04-1.18-.45-2.97-2.84-1.21-1.61-2.09-3.03-2-3.19.09-.18.57-.3 1.03-.3.69 0 1.28.51 3.3 2.94zm-153.3-2.4c.21.13 1.48 1.79 2.85 3.7 1.36 1.91 2.75 3.79 3.08 4.12q.58.63-.12.85c-.39.09-1.4.18-2.24.18h-1.54l-1.76-4.03c-.97-2.18-1.88-4.15-2-4.33-.15-.18-.19-.42-.07-.51.27-.27 1.37-.27 1.79.04zm148.36 3.43l2.27 2.66-1.6.19c-.88.12-1.91.15-2.27.09-.39-.06-1.49-1.24-2.91-3.12l-2.27-3.03 1.72-.15c2.06-.19 2-.21 5.06 3.36zm-139.88-.42c1.12 1.63 2.42 3.45 2.91 4.06 1 1.33.81 1.48-1.81 1.48l-1.73-.04-.97-2.03c-.51-1.12-1.52-3.02-2.21-4.24l-1.28-2.18h3.06l2.03 2.94zm5.67.45c3.36 5.15 3.27 4.78 1.3 4.78h-1.7l-.79-1.6c-.45-.85-1.4-2.6-2.12-3.88-.73-1.27-1.33-2.39-1.33-2.48 0-.12.54-.21 1.18-.21 1.21 0 1.21.03 3.45 3.39zm4.39-2.48c.06.18 1.05 1.88 2.21 3.79 1.15 1.91 2.09 3.54 2.09 3.63 0 .09-.79.15-1.73.09l-1.76-.09-2.18-4.06-2.18-4.06 1.72.19c.94.09 1.76.33 1.82.51zm119.99-.37c0 .12 1.15 1.52 2.54 3.09l2.57 2.88-2.03.24c-1.76.25-2.05.21-2.33-.24-.15-.3-1.21-1.73-2.33-3.21-1.16-1.46-2.06-2.76-2.06-2.84 0-.09.82-.15 1.81-.15s1.82.12 1.82.24zm-12.08 2.4c1.03 1.3 2.36 2.88 2.96 3.48 1.03 1.12 1.06 1.16.33 1.16-.42 0-1.46.09-2.3.18l-1.54.18-2.3-3.42c-2.51-3.72-2.54-3.91-.3-3.91 1.21 0 1.33.09 3.15 2.34zm6.69.91l2.94 3.27-1.88.15c-1.03.09-1.94.06-1.97-.06-.06-.15-.97-1.52-1.97-3.06-1.03-1.54-2-2.97-2.12-3.18-.19-.27.06-.37.91-.37 1.12 0 1.33.19 4.08 3.25zm-12.6.39c1.48 1.84 2.76 3.48 2.78 3.63.06.18-.67.3-1.81.3l-1.91-.03-1.88-2.18c-1.03-1.18-2.42-2.82-3.12-3.63l-1.28-1.42h4.55l2.66 3.33zm-95.92-1.85c1 .79 2.73 3.51 3.33 5.24.31.85.27.85-.97.85h-1.27l-1.91-3.66q-1.91-3.66-1.06-3.48c.45.12 1.3.61 1.88 1.06zm88.68 2.21c1.88 1.88 3.42 3.51 3.42 3.64 0 .15-.87.24-1.97.24H741l-1.12-1.76c-.61-.94-1.7-2.52-2.42-3.45-.73-.94-1.33-1.79-1.33-1.88 0-.09.45-.18.97-.18.85 0 1.46.49 4.39 3.39zm-8.85-2.45c.12.36 1.3 1.9 2.6 3.48l2.42 2.85h-1.46c-1.42 0-1.52-.06-3.02-1.91-.88-1.03-2.22-2.6-3-3.48l-1.43-1.58h1.85c1.6 0 1.88.09 2.03.64zm-3.96 3.14l3.57 3.48h-3.54l-2.63-3.3c-1.49-1.79-2.67-3.37-2.67-3.48 0-.09.37-.18.85-.18.64 0 1.61.79 4.43 3.48zm-5.79.15l2.94 3.3-1.03.18c-.55.12-1.28.15-1.6.09-.67-.12-6.52-6.27-6.28-6.66.09-.12.79-.24 1.58-.21q1.43 0 4.39 3.3zm-7.69-.81c1.09 1.03 2.78 2.57 3.75 3.39l1.73 1.52-2.03.03c-2.03.04-2.05.04-2.84-1.06-.45-.6-1.58-2.09-2.52-3.27-.94-1.21-1.7-2.27-1.7-2.36 0-.09.36-.15.81-.15.58 0 1.37.55 2.79 1.91zm-2.97 3.39l2.34 2.42-.82 1.63-.85 1.6-.67-.85c-.36-.48-2.39-2.66-4.45-4.87-2.29-2.46-3.63-4.06-3.42-4.21.18-.09 1.03-.3 1.91-.42q1.54-.21 2.6 1.03c.57.69 2.09 2.33 3.36 3.66zm-.85 7.06l.85.61-.69 2.29c-.36 1.28-.75 2.3-.85 2.3s-.33-.3-.57-.69c-.25-.37-2.03-2.88-4-5.54-2.97-4.03-3.61-5.1-3.61-5.94 0-.57.06-1.11.15-1.21.09-.09 1.91 1.58 4.03 3.69s4.24 4.12 4.69 4.49zm-5.6 2.54c1.21 1.46 2.76 3.09 3.39 3.66l1.22 1.03-.43 2.18c-.24 1.21-.49 2.23-.55 2.29-.06.07-1.9-2.33-4.08-5.33l-4.03-5.46.36-1.57.33-1.58.79 1.05c.42.58 1.79 2.24 3 3.7zm-4.48 2.3c0 .73 6.81 8.24 7.47 8.24.3 0 .39.79.37 3.24v3.27l-.67-.88c-3.82-5.15-5.67-7.54-6.78-8.87l-1.34-1.58.21-1.81c.09-1.03.33-1.85.45-1.85.15 0 .27.13.27.25zm4.18 13.02c1.78 1.79 2.39 2.22 2.96 2.09.73-.12.73-.09.73 2.34 0 1.33.09 3.21.21 4.12l.18 1.66-1.15-1.52c-1.3-1.7-3.66-4.48-6.27-7.38l-1.76-1.94v-4.91l1.43 1.67c.75.91 2.42 2.66 3.66 3.87zm3.27 10.85c.75.18.85.45 1.18 3.87l.15 1.79-2.64-2.46c-1.48-1.33-3.45-3.24-4.42-4.24-1.63-1.66-1.79-1.91-2.03-3.72-.15-1.05-.3-2.18-.3-2.48 0-.36 1.3.79 3.66 3.25 2.03 2.09 4 3.9 4.39 4zm-3.37 4.03c1.67 1.34 3.45 2.6 3.96 2.78.91.33.94.45 1.28 2.94.18 1.43.3 2.64.24 2.7-.06.06-1.94-1.66-4.18-3.85-3.48-3.33-4.14-4.12-4.3-5.06-.12-.63-.3-1.39-.39-1.72-.21-.7-.24-.73 3.39 2.21zm4.79 10.6c.93.69 1.72 1.42 1.72 1.63s.39 1.15.88 2.09c.73 1.42.79 1.7.36 1.45-.66-.33-7.6-5.35-8.14-5.88-.33-.33-1.21-3.3-1.28-4.21 0-.15 1.06.61 2.36 1.66 1.28 1.1 3.12 2.52 4.09 3.25zm-1.85 4.36c1.4.91 3.54 2.21 4.85 2.91 1.94 1.05 2.58 1.63 3.94 3.45.87 1.18 1.7 2.33 1.84 2.54.27.45-3.42-1.24-7.54-3.45-2.3-1.22-3.3-1.91-3.9-2.82-.45-.67-.94-1.22-1.1-1.22-.12 0-.39-.51-.54-1.15-.37-1.22-.43-1.88-.19-1.88.06 0 1.28.72 2.64 1.6z" class="cls-5"/></svg>