<svg xmlns="http://www.w3.org/2000/svg" id="Layer_1" viewBox="0 0 581.1 292.7" width="581.1" height="292.7"><style>.st0{fill:#2997ff}.st1{fill:#444}.st2{fill:#7f7f7f}.st3{fill:#fff}</style><path d="M112.5 248H62.2c1.5 16.4 9.1 21.7 19.7 21.7 7.1 0 13-2.3 20-7.1l8 11.1c-7.9 6.4-17.6 10.8-29.7 10.8-24.9 0-38.2-16.5-38.2-41.8s12.9-42.9 35.6-42.9 35.3 15.2 35.3 40.5c.1 2.4-.2 5.6-.4 7.7zm-18.8-13.5c0-13.2-4.7-21.1-15.6-21.1-9.1 0-14.8 6.1-15.9 22h31.5v-.9z" class="st0"/><path d="M565.9 0H15.2C6.8 0 0 6.8 0 15.2v150.2c0 8.4 6.8 15.2 15.2 15.2h31.1l31 32.5 31-32.5h457.6c8.4 0 15.2-6.8 15.2-15.2V15.2c0-8.4-6.8-15.2-15.2-15.2z" class="st1"/><path d="M23.6 128.5v-4.2c3.9-.4 6.7-1 8.2-1.9 1.6-.9 2.7-3 3.5-6.4h4.3v43.2h-5.8v-30.7H23.6zm82.3 20.9c1.3-2.8 4-5.3 7.9-7.5l5.8-3.4c2.6-1.5 4.4-2.8 5.5-3.9 1.7-1.7 2.5-3.6 2.5-5.8 0-2.5-.8-4.5-2.3-6s-3.5-2.2-6.1-2.2c-3.7 0-6.3 1.4-7.8 4.2-.8 1.5-1.2 3.6-1.3 6.3h-5.5c.1-3.8.8-6.8 2.1-9.2 2.4-4.2 6.5-6.3 12.5-6.3 5 0 8.6 1.3 10.9 4 2.3 2.7 3.4 5.7 3.4 9 0 3.5-1.2 6.4-3.7 8.9-1.4 1.4-3.9 3.2-7.6 5.2L118 145c-2 1.1-3.5 2.1-4.7 3.1-2 1.8-3.3 3.7-3.8 5.8h23.7v5.1h-29.8c.4-3.5 1.1-6.8 2.5-9.6zm84.6 6.8c-2.3-2.8-3.5-6.2-3.5-10.3h5.7c.2 2.8.8 4.8 1.6 6.1 1.4 2.3 4 3.4 7.7 3.4 2.9 0 5.2-.8 6.9-2.3s2.6-3.5 2.6-5.9c0-3-.9-5.1-2.7-6.3s-4.4-1.8-7.6-1.8h-1.1c-.4 0-.8 0-1.1.1v-4.8c.6.1 1 .1 1.4.1h1.2c2 0 3.7-.3 5-1 2.3-1.1 3.4-3.1 3.4-6.1 0-2.2-.8-3.8-2.3-5-1.5-1.2-3.3-1.8-5.4-1.8-3.6 0-6.1 1.2-7.5 3.6-.8 1.3-1.2 3.2-1.3 5.7h-5.4c0-3.2.6-6 1.9-8.2 2.2-4 6.1-6.1 11.7-6.1 4.4 0 7.8 1 10.3 2.9 2.4 2 3.6 4.8 3.6 8.6 0 2.7-.7 4.8-2.1 6.5-.9 1-2 1.8-3.4 2.4 2.3.6 4.1 1.8 5.3 3.6s1.9 4 1.9 6.6c0 4.1-1.4 7.5-4.1 10.1s-6.6 3.9-11.6 3.9-8.8-1.2-11.1-4zm99.6 3v-10.6h-19v-5.3l19.9-27.6h4.6v28.1h6.4v4.8h-6.4v10.6h-5.5zm-.1-15.4v-19.7l-13.9 19.7H290zm71.1 4.3c.4 3.1 1.8 5.3 4.3 6.4 1.3.6 2.8.9 4.5.9 3.2 0 5.6-1 7.2-3.1 1.5-2.1 2.3-4.3 2.3-6.8 0-3-.9-5.4-2.8-7-1.9-1.6-4.1-2.5-6.6-2.5-1.9 0-3.5.4-4.8 1.1s-2.5 1.7-3.4 3l-4.7-.3 3.3-23.3h22.5v5.3h-18.4l-1.9 12c1-.8 2-1.3 2.9-1.7 1.6-.7 3.5-1 5.6-1 4 0 7.4 1.3 10.1 3.8 2.8 2.6 4.1 5.8 4.1 9.8s-1.3 7.7-3.8 10.8-6.6 4.7-12.1 4.7c-3.5 0-6.7-1-9.4-3s-4.2-5-4.6-9.2l5.7.1zm104.6-28.7c1.9 2.5 2.9 5.1 2.9 7.8h-5.4c-.3-1.7-.8-3.1-1.5-4-1.3-1.8-3.3-2.7-6-2.7-3 0-5.5 1.4-7.3 4.2-1.8 2.8-2.8 6.9-3 12.1 1.2-1.8 2.8-3.2 4.7-4.1 1.7-.8 3.7-1.2 5.8-1.2 3.6 0 6.8 1.2 9.5 3.5s4.1 5.8 4.1 10.4c0 3.9-1.3 7.4-3.8 10.5-2.6 3-6.2 4.6-11 4.6-4.1 0-7.6-1.5-10.5-4.6-3-3.1-4.4-8.3-4.4-15.6 0-5.4.7-10 2-13.7 2.5-7.2 7.1-10.8 13.8-10.8 4.8-.1 8.2 1.1 10.1 3.6zm-4.1 33.2c1.4-1.9 2.1-4.2 2.1-6.8 0-2.2-.6-4.3-1.9-6.3s-3.6-3-6.9-3c-2.3 0-4.4.8-6.2 2.3s-2.6 3.9-2.6 7c0 2.8.8 5.1 2.4 6.9s3.8 2.8 6.7 2.8 5-1 6.4-2.9zm92.2-36v4.8c-1.4 1.3-3.2 3.7-5.6 7.1-2.3 3.4-4.3 7-6.1 10.8-1.8 3.8-3.1 7.2-4 10.3-.6 2-1.3 5.2-2.3 9.7h-6c1.4-8.3 4.4-16.5 9.1-24.7 2.8-4.8 5.7-8.9 8.7-12.4h-24v-5.5l30.2-.1z" class="st2"/><path d="M48.7 39.1c2.8 1.4 4.9 3.2 6.3 5.4 1.4 2.1 2.3 4.6 2.8 7.4.4 1.9.6 5 .6 9.2H28c.1 4.3 1.1 7.7 3 10.2s4.7 3.9 8.6 3.9c3.6 0 6.5-1.2 8.7-3.7 1.2-1.4 2.1-3.1 2.6-4.9h6.9c-.2 1.5-.8 3.2-1.8 5.1s-2.2 3.4-3.4 4.6c-2.1 2.1-4.7 3.5-7.9 4.2-1.7.4-3.6.6-5.7.6-5.2 0-9.6-1.9-13.2-5.7s-5.4-9.1-5.4-15.9 1.8-12.2 5.4-16.4c3.6-4.2 8.4-6.3 14.2-6.3 3.1.2 5.9.9 8.7 2.3zm2.5 16.5c-.3-3-.9-5.5-2-7.3-1.9-3.4-5.1-5.1-9.6-5.1-3.2 0-5.9 1.2-8.1 3.5S28.2 52 28 55.6h23.2zm-6.5-23.2h-5.3L28.9 21.2h8.7s7.1 11.3 7.1 11.2zm86.7 6.7c2.8 1.4 4.9 3.2 6.3 5.4 1.4 2.1 2.3 4.6 2.8 7.4.4 1.9.6 5 .6 9.2h-30.4c.1 4.3 1.1 7.7 3 10.2s4.7 3.9 8.6 3.9c3.6 0 6.6-1.2 8.7-3.7 1.2-1.4 2.1-3.1 2.6-4.9h6.9c-.2 1.5-.8 3.2-1.8 5.1-1 1.9-2.2 3.4-3.4 4.6-2.1 2.1-4.7 3.5-7.9 4.2-1.7.4-3.6.6-5.7.6-5.2 0-9.6-1.9-13.2-5.7s-5.4-9.1-5.4-15.9 1.8-12.2 5.4-16.4c3.6-4.2 8.4-6.3 14.2-6.3 3.1.2 5.9.9 8.7 2.3zm2.5 16.5c-.3-3-.9-5.5-2-7.3-1.9-3.4-5.1-5.1-9.6-5.1-3.2 0-5.9 1.2-8.1 3.5s-3.3 5.3-3.4 8.9h23.1zm-2.8-34.4l-10.4 11.3h-5.4l7.2-11.3h8.6zm83 17.9c2.8 1.4 4.9 3.2 6.3 5.4 1.4 2.1 2.3 4.6 2.8 7.4.4 1.9.6 5 .6 9.2h-30.4c.1 4.3 1.1 7.7 3 10.2s4.7 3.9 8.6 3.9c3.6 0 6.6-1.2 8.7-3.7 1.2-1.4 2.1-3.1 2.6-4.9h6.9c-.2 1.5-.8 3.2-1.8 5.1-1 1.9-2.2 3.4-3.4 4.6-2.1 2.1-4.7 3.5-7.9 4.2-1.7.4-3.6.6-5.7.6-5.2 0-9.6-1.9-13.2-5.7s-5.4-9.1-5.4-15.9 1.8-12.2 5.4-16.4c3.6-4.2 8.4-6.3 14.2-6.3 3.1.2 5.9.9 8.7 2.3zm2.5 16.5c-.3-3-.9-5.5-2-7.3-1.9-3.4-5.1-5.1-9.6-5.1-3.2 0-5.9 1.2-8.1 3.5s-3.3 5.3-3.4 8.9h23.1zm-6.9-34.4l8 11.3h-6.4L206 25l-5.3 7.5h-6.4l7.9-11.3h7.5zm87.1 17.9c2.8 1.4 4.9 3.2 6.3 5.4 1.4 2.1 2.3 4.6 2.8 7.4.4 1.9.6 5 .6 9.2h-30.4c.1 4.3 1.1 7.7 3 10.2 1.9 2.6 4.7 3.9 8.6 3.9 3.6 0 6.5-1.2 8.7-3.7 1.2-1.4 2.1-3.1 2.6-4.9h6.9c-.2 1.5-.8 3.2-1.8 5.1s-2.2 3.4-3.4 4.6c-2.1 2.1-4.7 3.5-7.9 4.2-1.7.4-3.6.6-5.7.6-5.2 0-9.6-1.9-13.2-5.7s-5.4-9.1-5.4-15.9 1.8-12.2 5.4-16.4c3.6-4.2 8.4-6.3 14.2-6.3 3.1.2 6 .9 8.7 2.3zm2.6 16.5c-.3-3-.9-5.5-2-7.3-1.9-3.4-5.1-5.1-9.6-5.1-3.2 0-5.9 1.2-8.1 3.5-2.2 2.3-3.3 5.3-3.5 8.9h23.2zm-20.9-32.2h7.3v8.1h-7.3v-8.1zm12.9 0h7.3v8.1h-7.3v-8.1zm88.2 15.7c2.8 1.4 4.9 3.2 6.3 5.4 1.4 2.1 2.3 4.6 2.8 7.4.4 1.9.6 5 .6 9.2h-30.4c.1 4.3 1.1 7.7 3 10.2 1.9 2.6 4.7 3.9 8.6 3.9 3.6 0 6.5-1.2 8.7-3.7 1.2-1.4 2.1-3.1 2.6-4.9h6.9c-.2 1.5-.8 3.2-1.8 5.1s-2.2 3.4-3.4 4.6c-2.1 2.1-4.7 3.5-7.9 4.2-1.7.4-3.6.6-5.7.6-5.2 0-9.6-1.9-13.2-5.7s-5.4-9.1-5.4-15.9 1.8-12.2 5.4-16.4c3.6-4.2 8.4-6.3 14.2-6.3 3 .2 5.9.9 8.7 2.3zM359 27.9h25v4.6h-25v-4.6zm23.1 27.7c-.3-3-.9-5.5-2-7.3-1.9-3.4-5.1-5.1-9.6-5.1-3.2 0-5.9 1.2-8.1 3.5-2.2 2.3-3.3 5.3-3.5 8.9h23.2zm80.2-16.5c2.8 1.4 4.9 3.2 6.3 5.4 1.4 2.1 2.3 4.6 2.8 7.4.4 1.9.6 5 .6 9.2h-30.4c.1 4.3 1.1 7.7 3 10.2 1.9 2.6 4.7 3.9 8.6 3.9 3.6 0 6.5-1.2 8.7-3.7 1.2-1.4 2.1-3.1 2.6-4.9h6.9c-.2 1.5-.8 3.2-1.8 5.1s-2.2 3.4-3.4 4.6c-2.1 2.1-4.7 3.5-7.9 4.2-1.7.4-3.6.6-5.7.6-5.2 0-9.6-1.9-13.2-5.7s-5.4-9.1-5.4-15.9 1.8-12.2 5.4-16.4c3.6-4.2 8.4-6.3 14.2-6.3 3 .2 5.9.9 8.7 2.3zm2.5 16.5c-.3-3-.9-5.5-2-7.3-1.9-3.4-5.1-5.1-9.6-5.1-3.2 0-5.9 1.2-8.1 3.5-2.2 2.3-3.3 5.3-3.5 8.9h23.2zm-14.3-31.1h7.3v8.1h-7.3v-8.1zM545 39.1c2.8 1.4 4.9 3.2 6.3 5.4 1.4 2.1 2.3 4.6 2.8 7.4.4 1.9.6 5 .6 9.2h-30.4c.1 4.3 1.1 7.7 3 10.2s4.7 3.9 8.6 3.9c3.6 0 6.5-1.2 8.7-3.7 1.2-1.4 2.1-3.1 2.6-4.9h6.9c-.2 1.5-.8 3.2-1.8 5.1s-2.2 3.4-3.4 4.6c-2.1 2.1-4.7 3.5-7.9 4.2-1.7.4-3.6.6-5.7.6-5.2 0-9.6-1.9-13.2-5.7s-5.4-9.1-5.4-15.9 1.8-12.2 5.4-16.4c3.6-4.2 8.4-6.3 14.2-6.3 3.1.2 5.9.9 8.7 2.3zm2.5 16.5c-.3-3-.9-5.5-2-7.3-1.9-3.4-5.1-5.1-9.6-5.1-3.2 0-5.9 1.2-8.1 3.5s-3.3 5.3-3.5 8.9h23.2zm-6.2 24.8l-2.3 1.9c-1.9 1.6-3.2 2.8-3.7 3.6s-.8 1.7-.8 2.8c0 1 .3 1.8 1 2.5s1.7 1.1 3 1.1c.7 0 1.3-.1 1.7-.2.4-.1.9-.3 1.5-.6v5.1c-.9.4-1.6.6-2.3.8-1.3.3-2.6.5-4 .5-2.5 0-4.4-.7-5.8-2.2s-2-3.1-2-4.9c0-2.1.8-4 2.3-5.7 1.2-1.3 3.1-2.9 5.6-4.6l5.8-.1z" class="st3"/></svg>