<svg xmlns="http://www.w3.org/2000/svg" id="Layer_1" viewBox="0 0 463 488" width="463" height="488"><style>.st0{fill:#b3b4b4}.st1{fill:#505150}.st2{fill:#b3b3b3}</style><path d="M10.2 222.6H7.8l-1.5-7.7-1.5 7.7H2.4l-1.8-9.7h1.8l1.2 8.2 1.6-8.2h2l1.6 8.2 1.3-8.2h1.8l-1.7 9.7zm8.7-1l-.4 1.2c-.8-.1-1.4-.4-1.6-1.1-.5.8-1.3 1.1-2.2 1.1-1.5 0-2.4-.9-2.4-2.3 0-1.6 1.2-2.5 3.4-2.5h.9v-.4c0-1-.4-1.3-1.4-1.3-.5 0-1.2.1-2 .4l-.4-1.2c.9-.4 1.9-.5 2.7-.5 2 0 2.9.9 2.9 2.6v3.1c-.1.6.1.8.5.9zm-2.3-1v-1.5h-.7c-1.2 0-1.7.4-1.7 1.3 0 .7.4 1.1 1.1 1.1.5 0 .9-.3 1.3-.9zm8.3-5.5l-.3 1.7c-.2-.1-.4-.1-.7-.1-.9 0-1.4.7-1.6 1.9v3.9h-1.8v-7.4H22l.2 1.5c.4-1.1 1.1-1.6 1.9-1.6.3 0 .5.1.8.1zm7.1 2.1v5.4h-1.8v-5.1c0-.9-.4-1.2-.9-1.2-.6 0-1.1.4-1.5 1.1v5.2H26v-7.4h1.5l.1 1c.6-.7 1.3-1.2 2.2-1.2 1.5 0 2.2.8 2.2 2.2zm8.6 1.7c0 2.3-1.3 3.9-3.5 3.9s-3.5-1.5-3.5-3.9 1.3-3.9 3.5-3.9 3.5 1.5 3.5 3.9zm-5.1 0c0 1.8.5 2.6 1.6 2.6s1.6-.8 1.6-2.6-.5-2.6-1.6-2.6-1.6.9-1.6 2.6zm12.1-3l-.8 1.1c-.5-.4-.9-.5-1.5-.5-1 0-1.7.8-1.7 2.5s.7 2.4 1.7 2.4c.6 0 1-.2 1.5-.5l.8 1.1c-.7.6-1.4.9-2.4.9-2.1 0-3.5-1.5-3.5-3.9s1.3-4 3.5-4c1 0 1.7.3 2.4.9zm3.1 6.7h-1.8v-10.4l1.8-.2v10.6zm2-4.1l2.7 4.1h-2.1l-2.5-4.1 2.5-3.4h1.9l-2.5 3.4zm13.8-4.8l-.9 1.1c-.6-.4-1.1-.7-1.8-.7-1.3 0-2.4 1-2.4 3.6s1 3.6 2.4 3.6c.8 0 1.4-.4 2-.8l.9 1.1c-.6.6-1.6 1.2-2.9 1.2-2.5 0-4.3-1.8-4.3-5.1s1.8-5 4.2-5c1.2 0 2 .4 2.8 1zm7.2 7.9l-.4 1.2c-.8-.1-1.4-.4-1.6-1.1-.5.8-1.3 1.1-2.2 1.1-1.5 0-2.4-.9-2.4-2.3 0-1.6 1.2-2.5 3.4-2.5h.9v-.4c0-1-.4-1.3-1.4-1.3-.5 0-1.2.1-2 .4l-.4-1.2c.9-.4 1.8-.5 2.7-.5 2 0 2.9.9 2.9 2.6v3.1c-.1.6.1.8.5.9zm-2.3-1v-1.5h-.7c-1.2 0-1.7.4-1.7 1.3 0 .7.4 1.1 1.1 1.1.5 0 .9-.3 1.3-.9zm10.4-1.7c0 2.3-1.1 3.9-2.9 3.9-.8 0-1.4-.3-1.9-.8v3.5l-1.8.2v-10.5h1.6l.1.9c.6-.8 1.4-1.1 2.2-1.1 1.9 0 2.8 1.5 2.7 3.9zm-1.8 0c0-1.9-.5-2.6-1.4-2.6-.6 0-1.2.4-1.5 1v3.3c.3.5.8.8 1.4.8.9 0 1.5-.7 1.5-2.5zm7.8 3.4c-.5.4-1.2.6-1.9.6-1.5 0-2.2-.8-2.2-2.4v-3.9h-1.2v-1.3h1.2v-1.6l1.8-.2v1.9h1.7l-.2 1.3h-1.5v3.9c0 .7.2 1 .8 1 .3 0 .6-.1.9-.3l.6 1zm3-9.8c0 .6-.5 1.1-1.1 1.1s-1.1-.5-1.1-1.1.5-1.1 1.1-1.1 1.1.5 1.1 1.1zm-.2 10.1h-1.8v-7.4h1.8v7.4zm8.6-3.7c0 2.3-1.3 3.9-3.5 3.9s-3.5-1.5-3.5-3.9 1.3-3.9 3.5-3.9 3.5 1.5 3.5 3.9zm-5.1 0c0 1.8.6 2.6 1.6 2.6s1.6-.8 1.6-2.6-.6-2.6-1.6-2.6-1.6.8-1.6 2.6zm12.8-1.7v5.4h-1.8v-5.1c0-.9-.3-1.2-.9-1.2-.6 0-1.1.4-1.6 1.1v5.2h-1.8v-7.4h1.6l.1 1c.6-.7 1.3-1.2 2.2-1.2 1.4 0 2.2.8 2.2 2.2zm-96.7 92.2H7.8l-1.5-7.7-1.5 7.7H2.4l-1.8-9.7h1.8l1.2 8.2 1.6-8.2h2l1.6 8.2 1.3-8.2h1.8l-1.7 9.7zm8.7-1l-.4 1.2c-.8-.1-1.4-.4-1.6-1.1-.5.8-1.3 1.1-2.2 1.1-1.5 0-2.4-.9-2.4-2.3 0-1.6 1.2-2.5 3.4-2.5h.9v-.4c0-1-.4-1.3-1.4-1.3-.5 0-1.2.1-2 .4l-.4-1.2c.9-.4 1.9-.5 2.7-.5 2 0 2.9.9 2.9 2.5v3.1c-.1.6.1.9.5 1zm-2.3-1v-1.5h-.7c-1.2 0-1.7.4-1.7 1.3 0 .7.4 1.1 1.1 1.1.5 0 .9-.3 1.3-.9zm8.3-5.5l-.3 1.7c-.2-.1-.4-.1-.7-.1-.9 0-1.4.7-1.6 1.9v4h-1.8V302H22l.2 1.5c.4-1.1 1.1-1.6 1.9-1.6.3-.1.5 0 .8 0zM32 304v5.4h-1.8v-5.1c0-.9-.4-1.2-.9-1.2-.6 0-1.1.4-1.5 1.1v5.2H26V302h1.5l.1 1c.6-.7 1.3-1.2 2.2-1.2 1.5 0 2.2.8 2.2 2.2zm8.6 1.7c0 2.3-1.3 3.9-3.5 3.9s-3.5-1.5-3.5-3.9 1.3-3.9 3.5-3.9 3.5 1.5 3.5 3.9zm-5.1 0c0 1.8.5 2.6 1.6 2.6s1.6-.8 1.6-2.6-.5-2.5-1.6-2.5-1.6.7-1.6 2.5zm12.1-3l-.8 1.1c-.5-.4-.9-.5-1.5-.5-1 0-1.7.8-1.7 2.5s.7 2.4 1.7 2.4c.6 0 1-.2 1.5-.5l.8 1.1c-.7.5-1.4.9-2.4.9-2.1 0-3.5-1.5-3.5-3.9s1.3-4 3.5-4c1 0 1.7.3 2.4.9zm3.1 6.7h-1.8V299l1.8-.2v10.6zm2-4.1l2.7 4.1h-2.1l-2.5-4 2.5-3.4h1.9l-2.5 3.3zm10.3.2h-1.2v3.9H60v-9.7h2.9c2.5 0 3.8.9 3.8 2.8 0 1.3-.6 2.1-2 2.6l2.5 4.2h-2.1l-2.1-3.8zm-1.2-1.3H63c1.1 0 1.8-.5 1.8-1.6 0-1-.6-1.5-2-1.5h-1v3.1zm12.6 2.1h-4.7c.1 1.5.8 2 1.8 2 .7 0 1.2-.2 1.8-.7l.7 1c-.7.6-1.6 1-2.8 1-2.3 0-3.5-1.5-3.5-3.9s1.2-4 3.3-4 3.3 1.4 3.3 3.7c.1.4.1.6.1.9zm-1.8-1.3c0-1.2-.4-2-1.4-2-.8 0-1.4.6-1.5 2h2.9zm9.9-2.6c-.6.2-1.3.2-2.1.2.9.4 1.3 1 1.3 1.9 0 1.4-1.1 2.5-3 2.5-.3 0-.6 0-.9-.1-.2.1-.3.3-.3.5 0 .3.2.5.9.5h1.1c1.6 0 2.7.9 2.7 2.1 0 1.5-1.3 2.4-3.7 2.4-2.6 0-3.4-.8-3.4-2.3h1.6c0 .7.3 1.1 1.8 1.1s1.9-.4 1.9-1c0-.5-.4-.9-1.3-.9H78c-1.5 0-2.1-.7-2.1-1.4 0-.5.3-1 .9-1.4-.9-.5-1.3-1.1-1.3-2.1 0-1.6 1.3-2.7 3.1-2.7s2.6-.4 3.5-.8l.4 1.5zm-5.2 2c0 .9.5 1.5 1.3 1.5s1.3-.5 1.3-1.5-.4-1.4-1.3-1.4c-.8 0-1.3.6-1.3 1.4zm12 5h-1.6l-.1-1c-.6.8-1.2 1.2-2.3 1.2-1.3 0-2.1-.9-2.1-2.3V302H85v5.1c0 .9.3 1.2.9 1.2s1.1-.4 1.5-1V302h1.8c.1 0 .1 7.4.1 7.4zm2-1.7V299l1.8-.2v8.8c0 .4.1.5.4.5.2 0 .3 0 .4-.1l.4 1.3c-.3.1-.7.2-1.2.2-1.1.1-1.8-.6-1.8-1.8zm10.2.7l-.4 1.2c-.8-.1-1.4-.4-1.6-1.1-.5.8-1.3 1.1-2.2 1.1-1.5 0-2.4-.9-2.4-2.3 0-1.6 1.2-2.5 3.4-2.5h.9v-.4c0-1-.4-1.3-1.4-1.3-.5 0-1.2.1-2 .4l-.4-1.2c.9-.4 1.8-.5 2.7-.5 2 0 2.9.9 2.9 2.5v3.1c0 .6.2.9.5 1zm-2.3-1v-1.5h-.7c-1.2 0-1.7.4-1.7 1.3 0 .7.4 1.1 1.1 1.1.5 0 1-.3 1.3-.9zm8.3-5.5l-.3 1.7c-.2-.1-.4-.1-.7-.1-.9 0-1.4.7-1.6 1.9v4h-1.8V302h1.6l.2 1.5c.3-1.1 1.1-1.6 1.9-1.6.2-.1.5 0 .7 0zm-97.3 94.3H7.8l-1.5-7.7-1.5 7.7H2.4l-1.8-9.7h1.8l1.2 8.2 1.6-8.2h2l1.6 8.2 1.3-8.2h1.8l-1.7 9.7zm8.7-1l-.4 1.2c-.8-.1-1.4-.4-1.6-1.1-.5.8-1.3 1.1-2.2 1.1-1.5 0-2.4-.9-2.4-2.3 0-1.6 1.2-2.5 3.4-2.5h.9v-.4c0-1-.4-1.3-1.4-1.3-.5 0-1.2.1-2 .4l-.4-1.2c.9-.4 1.9-.5 2.7-.5 2 0 2.9.9 2.9 2.5v3.1c-.1.7.1.9.5 1zm-2.3-1v-1.5h-.7c-1.2 0-1.7.4-1.7 1.3 0 .7.4 1.1 1.1 1.1.5 0 .9-.3 1.3-.9zm8.3-5.5l-.3 1.7c-.2-.1-.4-.1-.7-.1-.9 0-1.4.7-1.6 1.9v4h-1.8v-7.4H22l.2 1.5c.4-1.1 1.1-1.6 1.9-1.6.3-.1.5 0 .8 0zm7.1 2.2v5.4h-1.8v-5.1c0-.9-.4-1.2-.9-1.2-.6 0-1.1.4-1.5 1.1v5.2H26v-7.4h1.5l.1 1c.6-.7 1.3-1.2 2.2-1.2 1.5-.1 2.2.8 2.2 2.2zm8.6 1.6c0 2.3-1.3 3.9-3.5 3.9s-3.5-1.5-3.5-3.9 1.3-3.9 3.5-3.9 3.5 1.5 3.5 3.9zm-5.1 0c0 1.8.5 2.6 1.6 2.6s1.6-.8 1.6-2.6-.5-2.5-1.6-2.5-1.6.8-1.6 2.5zm12.1-3l-.8 1.1c-.5-.4-.9-.5-1.5-.5-1 0-1.7.8-1.7 2.5s.7 2.4 1.7 2.4c.6 0 1-.2 1.5-.5l.8 1.1c-.7.5-1.4.9-2.4.9-2.1 0-3.5-1.5-3.5-3.9s1.3-4 3.5-4c1 0 1.7.3 2.4.9zm3.1 6.7h-1.8v-10.4l1.8-.2v10.6zm2-4.1l2.7 4.1h-2.1l-2.5-4 2.5-3.4h1.9l-2.5 3.3zm13.2-4.6l-.9 1c-.7-.6-1.4-.8-2.2-.8-.9 0-1.5.4-1.5 1.1 0 .7.4 1 2 1.5 1.7.5 2.9 1.2 2.9 3s-1.4 3-3.7 3c-1.5 0-2.7-.5-3.5-1.3l1-1.1c.7.6 1.5 1 2.5 1s1.8-.5 1.8-1.4c0-.8-.4-1.2-1.9-1.6-2-.6-2.9-1.4-2.9-2.9 0-1.6 1.4-2.7 3.3-2.7 1.3 0 2.3.4 3.1 1.2zm7.7 8.7H72l-.1-1c-.6.8-1.2 1.2-2.3 1.2-1.3 0-2.1-.9-2.1-2.3v-5.3h1.8v5.1c0 .9.3 1.2.9 1.2s1.1-.4 1.5-1v-5.2h1.8l.1 7.3zm8.7-3.7c0 2.3-1.1 3.9-2.9 3.9-.8 0-1.5-.4-2-1l-.1.8h-1.6v-10.4l1.8-.2v4c.5-.7 1.2-1 2-1 1.7 0 2.8 1.4 2.8 3.9zm-1.9 0c0-2-.6-2.6-1.4-2.6-.6 0-1.1.4-1.5 1v3.3c.3.5.8.9 1.4.9.9 0 1.5-.7 1.5-2.6zm9.6-1.6v5.4h-1.8v-5.1c0-.9-.4-1.2-.9-1.2-.6 0-1.1.4-1.6 1.1v5.2h-1.8v-10.4l1.8-.2v4c.6-.7 1.3-1.1 2.2-1.1 1.3 0 2.1.9 2.1 2.3zm8.1 2.2h-4.7c.1 1.5.8 2 1.8 2 .7 0 1.2-.2 1.8-.7l.7 1c-.7.6-1.6 1-2.8 1-2.3 0-3.5-1.5-3.5-3.9s1.2-4 3.3-4 3.3 1.4 3.3 3.7c.1.4.1.7.1.9zm-1.8-1.3c0-1.2-.4-2-1.4-2-.8 0-1.4.6-1.5 2h2.9zm9.3 3.4l-.4 1.2c-.8-.1-1.4-.4-1.6-1.1-.5.8-1.3 1.1-2.2 1.1-1.5 0-2.4-.9-2.4-2.3 0-1.6 1.2-2.5 3.4-2.5h.9v-.4c0-1-.4-1.3-1.4-1.3-.5 0-1.2.1-2 .4l-.4-1.2c.9-.4 1.8-.5 2.7-.5 2 0 2.9.9 2.9 2.5v3.1c-.1.7.1.9.5 1zm-2.3-1v-1.5h-.7c-1.2 0-1.7.4-1.7 1.3 0 .7.4 1.1 1.1 1.1.5 0 .9-.3 1.3-.9zm10.1-8.4v10.4h-1.6l-.1-.9c-.4.7-1.2 1.1-2.1 1.1-1.8 0-2.8-1.5-2.8-3.9s1.2-3.9 3-3.9c.8 0 1.4.3 1.9.8v-3.8l1.7.2zm-1.8 8.3v-3.4c-.4-.5-.8-.8-1.4-.8-.9 0-1.5.8-1.5 2.6 0 1.9.6 2.6 1.4 2.6.6 0 1.1-.3 1.5-1zM10.2 483H7.8l-1.5-7.7-1.5 7.7H2.4l-1.8-9.7h1.8l1.2 8.2 1.6-8.2h2l1.6 8.2 1.3-8.2h1.8l-1.7 9.7zm8.7-1l-.4 1.2c-.8-.1-1.4-.4-1.6-1.1-.5.8-1.3 1.1-2.2 1.1-1.5 0-2.4-.9-2.4-2.3 0-1.6 1.2-2.5 3.4-2.5h.9v-.4c0-1-.4-1.3-1.4-1.3-.5 0-1.2.1-2 .4l-.4-1.2c.9-.4 1.9-.5 2.7-.5 2 0 2.9.9 2.9 2.5v3.1c-.1.7.1.9.5 1zm-2.3-1v-1.5h-.7c-1.2 0-1.7.4-1.7 1.3 0 .7.4 1.1 1.1 1.1.5 0 .9-.3 1.3-.9zm8.3-5.5l-.3 1.7c-.2-.1-.4-.1-.7-.1-.9 0-1.4.7-1.6 1.9v4h-1.8v-7.4H22l.2 1.5c.4-1.1 1.1-1.6 1.9-1.6.3-.1.5 0 .8 0zm7.1 2.2v5.4h-1.8V478c0-.9-.4-1.2-.9-1.2-.6 0-1.1.4-1.5 1.1v5.2H26v-7.4h1.5l.1 1c.6-.7 1.3-1.2 2.2-1.2 1.5-.1 2.2.8 2.2 2.2zm8.6 1.6c0 2.3-1.3 3.9-3.5 3.9s-3.5-1.5-3.5-3.9 1.3-3.9 3.5-3.9 3.5 1.5 3.5 3.9zm-5.1 0c0 1.8.5 2.6 1.6 2.6s1.6-.8 1.6-2.6-.5-2.5-1.6-2.5-1.6.8-1.6 2.5zm12.1-3l-.8 1.1c-.5-.4-.9-.5-1.5-.5-1 0-1.7.8-1.7 2.5s.7 2.4 1.7 2.4c.6 0 1-.2 1.5-.5l.8 1.1c-.7.5-1.4.9-2.4.9-2.1 0-3.5-1.5-3.5-3.9s1.3-4 3.5-4c1 0 1.7.3 2.4.9zm3.1 6.7h-1.8v-10.4l1.8-.2V483zm2-4.1l2.7 4.1h-2.1l-2.5-4 2.5-3.4h1.9l-2.5 3.3zm14.6-.8c0 3.9-2.4 4.9-4.7 4.9H60v-9.7h2.4c2.5.1 4.9.8 4.9 4.8zm-5.5-3.4v6.9h.9c1.4 0 2.6-.6 2.6-3.5s-1.3-3.4-2.7-3.4h-.8zm9.1-1.7c0 .6-.5 1.1-1.1 1.1s-1.1-.5-1.1-1.1.5-1.1 1.1-1.1 1.1.4 1.1 1.1zm-.2 10h-1.8v-7.4h1.8v7.4zm7.1-6.7l-.7 1c-.6-.4-1.2-.6-1.9-.6s-1.1.3-1.1.7c0 .5.3.7 1.6 1.1 1.5.4 2.4 1 2.4 2.3 0 1.5-1.4 2.4-3.1 2.4-1.3 0-2.3-.4-3-1l.9-1c.6.4 1.3.7 2 .7.8 0 1.3-.3 1.3-.9 0-.6-.3-.8-1.7-1.2-1.5-.4-2.2-1.1-2.2-2.2 0-1.2 1.1-2.2 2.9-2.2 1.1 0 1.9.3 2.6.9zm8.2 3c0 2.3-1.1 3.9-2.9 3.9-.8 0-1.4-.3-1.9-.8v3.5l-1.8.2v-10.5H81l.1.9c.6-.8 1.4-1.1 2.2-1.1 1.9 0 2.8 1.6 2.7 3.9zm-1.8 0c0-1.9-.5-2.6-1.4-2.6-.6 0-1.2.4-1.5 1v3.3c.3.5.8.8 1.4.8.9.1 1.5-.7 1.5-2.5zm3.4 2v-8.7l1.8-.2v8.8c0 .4.1.5.4.5.2 0 .3 0 .4-.1l.4 1.3c-.3.1-.7.2-1.2.2-1.1.1-1.8-.5-1.8-1.8zm10.2.7l-.4 1.2c-.8-.1-1.4-.4-1.6-1.1-.5.8-1.3 1.1-2.2 1.1-1.5 0-2.4-.9-2.4-2.3 0-1.6 1.2-2.5 3.4-2.5h.9v-.4c0-1-.4-1.3-1.4-1.3-.5 0-1.2.1-2 .4l-.4-1.2c.9-.4 1.8-.5 2.7-.5 2 0 2.9.9 2.9 2.5v3.1c-.1.7.1.9.5 1zm-2.3-1v-1.5h-.7c-1.2 0-1.7.4-1.7 1.3 0 .7.4 1.1 1.1 1.1.5 0 .9-.3 1.3-.9zm7.4 2.1c-.6 1.7-1.7 2.9-3.8 3l-.2-1.3c1.5-.2 1.9-.7 2.4-1.8h-.6l-2.3-7.4h1.9l1.6 6.2 1.7-6.2h1.8l-2.5 7.5z" class="st0"/><path d="M7.4 188.2l-4.2-.1c-.3.6-1.1 2.1-1.4 2.5l-.5.1c-.1-.9-.1-3.1-.1-4l.1-.1c.3 0 1.4.3 1.9.4h11.2c.5 0 1.2-.1 1.7-.3v-.5l2.1-.4.1.1c0 2.1-.1 4.8-.1 7.3 1.6-1.2 2.5-1.4 3.4-1.4 2.5 0 3.6 2.1 3.6 3.6v5.4c0 .4.1.5.5.6l1.3.6-.3.7c-1 0-2.5 0-3.8-.2.1-1 .2-2.6.2-6.2 0-2.7-1.4-3.1-2.6-3.1-.9 0-1.6.3-2.4.9v7.1l1.8.7-.3.7h-5.2l.2-.7 1.3-.7v-5.5c0-2.5 0-4.6-.1-7.4-.5-.2-1.2-.4-1.7-.4l-4.7.1v5.8c0 6 .1 6.6.1 7.3l2.5.7-.3.8H4.6l.2-.8 2.2-.7c.1-.8.1-1.3.1-6.5l.3-6.4zm23.4 9.1v.3c0 2.5 1.6 4.1 3.7 4.1.4 0 .7-.1.9-.2.7-.5 1.5-1 2-1.2l.2.5c-.2.5-1.2 1.5-1.5 1.8-.4.2-1.6.5-2.5.5-3 0-5.1-2-5.1-5.4s2.5-5.8 5.2-5.8c2.2 0 4.2 1.4 4.2 4.3 0 .3-.1.7-.3.8-.2.1-1.2.4-2.3.4h-4.5zm4.7-1.1c0-.2.1-.4.1-.7 0-1.5-.8-2.7-2.1-2.7-1.9 0-2.7 2.3-2.7 3.4h4.7zm20.2 3.4v7.1l2.1.6-.2.8h-6l.2-.8 1.7-.6c0-1.5.1-3.3.1-4.5-.9.6-2 1-2.6 1-2.9 0-5.2-2.2-5.2-5.4s2.8-5.8 5.9-5.8c.8 0 1.6.3 2.3.8.5-.4 1.8-.8 2.5-.9l.1.2c-.1.6-.5 1.4-.8 1.8l-.1 5.7zm-2.1-5.9c-.4-.3-1-.6-1.7-.6-2.2 0-3.9 1.9-3.9 4.2 0 2.5 1.7 4.2 3.7 4.2.7 0 1.4-.2 1.9-.5v-7.3zm5-.6l.3-.7c.6-.2 2.3-.4 3.3-.4-.1 1.1-.2 3-.2 7 0 1 .2 1.4.5 1.7.3.4.8.7 1.7.7 1 0 2.1-.5 2.6-1.4v-5.9c-.1-.5-.4-.6-1.7-1.1l.3-.7c.7-.2 2.6-.4 3.5-.4-.1 1.1-.1 2.6-.1 8.8.5.9 1.2 1.2 1.9 1.4l-.2.6c-.2.1-.8.3-1.4.3-.9 0-1.9-.4-2.3-1.8h-.1c-.8.9-2 1.8-3.5 1.8-.8 0-1.8-.3-2.5-.9-.7-.6-1-1.6-1-3.1s.1-3.8.1-5.4l-1.2-.5zm13.8-.6c.4-.1 1.9-.6 3.3-.7v9.5l1.8.7-.2.8h-5.2l.2-.8 1.4-.7v-7.6l-1.3-.6v-.6zm2.3-5.6c.4.1 1.1.9 1.3 1.5l-.1.2c-.2.5-1 1.3-1.4 1.5l-.2.1c-.5-.3-1.1-1-1.3-1.5l.1-.2c.4-.6 1-1.2 1.4-1.5l.2-.1zm10.5 5c1.4 0 2.7.5 3.1.9-.1.6-.4 1.8-.9 2.6l-.5.2c-.2-.5-.5-1.4-.8-2.5-.1-.1-.4-.2-.9-.2-2.5 0-4 2.1-4 4.4 0 2.6 1.7 4.4 4.3 4.4.2 0 .5-.2.7-.2.8-.6 1.6-1.1 2-1.3l.2.5c-.2.7-1.1 1.8-1.6 2.1-.3.1-1.5.4-2.3.4-2.3 0-5.6-1.3-5.6-5.4s3.5-5.9 6.3-5.9zm10 10.1l-.2.8h-5.3l.3-.8 1.3-.7c0-.6.1-2.1.1-5.5 0-3 0-5.8-.1-8l-1.4-.6.3-.6c.6-.2 2.6-.7 3.3-.8-.1 2.4-.1 5.2-.1 8.1v7.4l1.8.7zm6 1.2c-1.5-.1-2.4-.3-3.4-1.2-1.2-1.1-2.8-3.1-3.9-4.7l-.1-.1c1.1-1.2 2.5-2.9 3.3-3.9l.5-1.3c1 0 2.8.2 3.4.3l-.5.7c-.3.2-1.9.7-2.4.9-.9.8-1.2 1.1-2.3 2.4v.1c1.2 1.6 4.6 5.7 5.4 6.7v.1zm8.3-9.6c0-2.2 0-4.1-.1-5.7l-1.4-.6.3-.7c.7-.2 1.8-.5 3.4-.7-.1 2.5-.1 4.9-.1 7.1.7-.4 2-1.1 2.8-1.1 2.4 0 5.2 1.8 5.2 5.3 0 4.4-3.6 5.9-5.9 5.9-.7 0-1.6-.4-2.4-.8-.6.4-1.3.7-1.7.8l-.1-9.5zm2 7.8c.3.1 1.1.4 1.7.4 2.4 0 3.9-1.9 3.9-4.4 0-2.2-1.5-4.1-3.7-4.1-.6 0-1.3.2-1.9.5v7.6zm10.3-8.7c.4-.2 2.1-.8 2.8-.8.2.6.2 1.6.2 2.3h.1c1-1.6 2.3-2.3 3.4-2.3.5 0 1 .1 1.3.5-.1.8-.6 2.2-.8 2.7l-.4.2c-.2-.3-.5-.8-.9-1.5-.1-.1-.2-.1-.4-.1-.7 0-1.8.9-2.2 2v5.9l2.5.6-.2.7h-6.1l.2-.7 1.3-.7c.1-1.8.1-6.3.1-7.3l-1.3-.6.4-.9zm20.2 4.6c0 3.5-2.4 5.7-5.4 5.7-2.7 0-5.5-1.9-5.5-5.5s3.1-5.8 5.5-5.8c2.9.2 5.4 2.4 5.4 5.6zm-8.5.1c0 2.2 1.1 4.6 3.2 4.6s2.9-2.5 2.9-4.5c0-2.3-1-4.7-3.1-4.7s-3 2.2-3 4.6zM148 193l-1 .5c.3 1.1.9 3 2 6.4h.1c.8-2 1.5-3.7 2.1-5.5l-.2-1.4c.2-.2 1.4-.8 1.9-.9l.2.1.1 1.8c.6 1.8 1.4 3.8 2.3 6.1h.1c.8-2.5 1.3-4.1 2-6.6l-1.3-.6.3-.8h4l-.2.8c-.8.3-1.1.5-1.4.9-.4.9-1.5 4.1-2.9 8.2-.3.4-.7.8-1.1 1.1h-.2c-.9-2.3-1.6-4.2-2.7-7h-.1c-.8 2-1.3 3.1-2.4 5.9-.3.4-.7.9-1 1.1h-.2c-.9-2.5-2.3-6.7-3.3-9.3-.3-.5-.6-.6-1.6-.9l.3-.8h4.7l-.5.9zm14.9 1l-1.3-.5.2-.7c.4-.2 2.4-.9 3.2-.9l-.1 1.9h.1c1.9-1.5 2.9-1.9 3.8-1.9 2.6 0 3.3 2.1 3.3 4v5.2c0 .2.2.4.4.4l1.4.6-.2.8h-5l.2-.9 1.1-.6c0-.6.1-2.2.1-5.3 0-1.8-1-2.5-2.2-2.5-.9 0-2 .6-2.7 1.3v6.7l1.4.6-.2.8h-4.8l.2-.8 1.3-.6c0-.4.1-2.5.1-5.5l-.3-2.1zm18.2 8.1l1.6-.7c0-.3.1-1.9.1-4.8v-3.2l-1.6-.4.4-.9h1.2c0-1.9.4-3.7 1.7-5 .9-.9 1.9-1.4 3.2-1.4.8 0 1.4.2 1.8.5-.3 1-.5 1.7-.8 2.2l-.5.3c-.2-.4-.5-.9-1-1.9-.1 0-.2-.1-.3-.1-1 0-1.8 1-1.9 3.5-.1.6-.1 1.3-.1 1.8h3.2l-.5 1-2.7.3c0 .4-.1 1.4-.1 3v4.9l2.4.7-.2.8h-6.1l.2-.6zm18.6-4.8c0 3.5-2.4 5.7-5.4 5.7-2.7 0-5.5-1.9-5.5-5.5s3.1-5.8 5.5-5.8c3 .2 5.4 2.4 5.4 5.6zm-8.5.1c0 2.2 1.1 4.6 3.2 4.6s2.9-2.5 2.9-4.5c0-2.3-1-4.7-3.1-4.7s-2.9 2.2-3 4.6zm15.5-1.7c.6-.9.9-1.2 1.3-2 .3-.6.3-1 .3-1.5h3.7l-.2.8c-1.6.5-2 .7-2.4 1.1-.5.6-1 1.1-2 2.6.7 1.2 2.1 3.5 2.5 4.1.3.4.6.6.9.7l1.8.5-.3.8c-.6 0-2.5.1-3.8.1-.7-1.4-1.1-2-2.4-4.3h-.1c-1.1 1.7-1.3 2-1.6 2.7 0 .1.1.3.6.7l-.2.7h-4.1l.2-.8 1.3-.6c.4-.2.8-.4 1.1-.8.6-.8 1.1-1.3 2.3-3.1-1.5-2.6-1.9-3.3-2.3-3.7-.2-.2-.7-.5-2.3-.9l.3-.8h4l-.1 1 1.5 2.7zm12.9-3.1c.6-.2 2.5-.7 3.3-.7v8.5c0 1.3-.2 2.8-.9 4.1-1.2 2.2-2.2 3.3-3.3 4.1l-.7-.6v-.3c2.6-1.9 2.9-4.9 2.9-7.5 0-1.8 0-5.4-.1-6.6-.4-.1-.9-.3-1.4-.5l.2-.5zm2.3-5.7c.4.1 1.1.9 1.3 1.5l-.1.2c-.2.5-1 1.3-1.4 1.5l-.2.1c-.5-.3-1.1-1-1.3-1.5l.1-.2c.4-.6 1-1.2 1.4-1.5l.2-.1zm3.8 6.2l.3-.7c.6-.2 2.3-.4 3.3-.4-.1 1.1-.2 3-.2 7 0 1 .2 1.4.5 1.7.3.4.8.7 1.7.7 1 0 2.1-.5 2.6-1.4v-5.9c-.1-.5-.4-.6-1.7-1.1l.3-.7c.7-.2 2.6-.4 3.5-.4-.1 1.1-.1 2.6-.1 8.8.5.9 1.2 1.2 1.9 1.4l-.2.6c-.2.1-.8.3-1.4.3-.9 0-1.9-.4-2.3-1.8h-.1c-.8.9-2 1.8-3.5 1.8-.8 0-1.8-.3-2.5-.9-.6-.6-1-1.6-1-3.1s.1-3.8.1-5.4l-1.2-.5zm15.1.8l-1.3-.5.2-.7c.5-.3 2.4-.9 3.2-.9l-.1 1.9h.1c1.5-1.2 2.7-1.9 3.8-1.9 1.3 0 2.4.8 2.9 2 1.6-1.4 2.8-2 4-2 2 0 3.3 1.6 3.3 3.7v5.5c0 .2.2.3.5.5l1.3.5-.2.8h-5l.2-.8 1.1-.7c0-.8.1-2.3.1-4.9 0-1.5-.4-3-2.3-3-.8 0-1.7.5-2.8 1.4.1.5.2 1.1.2 1.9v4.6l1.4.7-.2.8h-4.7l.2-.8 1.1-.6v-5.2c0-1.2-.3-2.8-2.3-2.8-.8 0-1.8.6-2.6 1.4v6.6l1.5.6-.2.8h-4.9l.2-.8 1.3-.6v-7.5zm22.2-.6c1.5-1 2.6-1.5 3.2-1.5 2.1 0 4.8 1.7 4.8 5.2 0 4.3-3.6 6.1-5.9 6.1-.5 0-1.5-.4-2-.7v.1c0 2 0 3.3.1 4.2l2.3.6-.3.8h-5.7l.3-.9 1.2-.5c0-.6.1-2.6.1-6.3v-6.6l-1.4-.7.3-.6c.4-.2 2.3-.6 3.2-.6l-.2 1.4zm.1 7.9c.5.3 1.1.6 1.8.6 2 0 3.9-1.8 3.9-4.3 0-2.2-1.4-4-3.5-4-.6 0-1.3.3-2.2.9v6.8zm15.8-8.8c.4-.2.8-.5 1.2-.6l.3.2c0 .3-.4 2.4-.6 3l-.4.2c-.3-.5-.5-1.2-.9-1.9-.1-.1-.6-.4-1.4-.4-1.2 0-1.8.7-1.8 1.6 0 .6.2.8.8 1.2.6.4 2.2 1 3.1 1.5 1.3.7 1.7 1.6 1.7 2.5 0 2.7-2.9 3.4-4.4 3.4-1.3 0-2.7-.4-3.5-1 0-.4.4-2.4.5-2.7l.4-.2c.4.6.9 1.9 1.2 2.6.4.1.9.3 1.5.3 1.3 0 2.2-.7 2.2-1.6 0-.6-.2-1-.9-1.4-.7-.4-1.5-.7-2.4-1.2-1.3-.6-2.2-1.5-2.2-2.9s1.1-3.1 3.7-3.1c.6-.1 1.3.1 1.9.5zm20.9 4.9c0 3.5-2.4 5.7-5.4 5.7-2.7 0-5.5-1.9-5.5-5.5s3.1-5.8 5.5-5.8c3 .2 5.4 2.4 5.4 5.6zm-8.5.1c0 2.2 1.1 4.6 3.2 4.6s2.9-2.5 2.9-4.5c0-2.3-1-4.7-3.1-4.7s-3 2.2-3 4.6zm9.8-5.3h4.7l-.3.9-.8.5c.5 1.3 1.4 3.6 2.5 6.5.4-1.1 1-2.4 2.4-6.4l-1.2-.6.2-.8h4l-.2.8c-.9.3-1.1.5-1.5 1.1-.3.6-2.5 5.6-3.4 7.8-.2.5-.7 1-1 1.3h-.2c-.2-.5-1.7-4.3-3.7-9.1-.4-.7-.9-.9-1.8-1.2l.3-.8zm14.5 5.2v.3c0 2.5 1.6 4.1 3.7 4.1.4 0 .7-.1.9-.2.7-.5 1.5-1 2-1.2l.2.5c-.2.5-1.1 1.5-1.5 1.8-.4.2-1.6.5-2.5.5-3 0-5.1-2-5.1-5.4s2.5-5.8 5.2-5.8c2.2 0 4.1 1.4 4.1 4.3 0 .3-.1.7-.3.8-.2.1-1.1.4-2.3.4h-4.4zm4.8-1.1c0-.2.1-.4.1-.7 0-1.5-.8-2.7-2.1-2.7-1.9 0-2.7 2.3-2.7 3.4h4.7zm4.4-3.5c.4-.2 2.1-.8 2.8-.8.2.6.2 1.6.2 2.3 1-1.6 2.3-2.3 3.4-2.3.5 0 1 .1 1.3.5-.1.8-.6 2.2-.8 2.7l-.4.2c-.2-.3-.5-.8-.9-1.5-.1-.1-.2-.1-.4-.1-.7 0-1.8.9-2.2 2v5.9l2.5.6-.2.7h-6l.2-.7 1.3-.7c0-1.8.1-6.3.1-7.3l-1.3-.6.4-.9zm22.3-.5l-.5 1-3.3.3v6.3c0 .8.2 1.1.4 1.3.2.2.6.4 1.2.4.9 0 1.6-.3 2-.6l.1.1v.9c-.6.7-1.6 1.2-2.9 1.2-1 0-1.8-.4-2.4-1-.4-.6-.6-1.1-.6-2.6v-6l-1.6-.3.4-1h1.2c.1-.8.4-2.1.6-2.8.4-.4 1.2-.7 1.5-.7l-.1 3.5h4zm11.5 8.7c0 .4.1.5.5.6l1.3.6-.2.7c-1 0-2.5 0-3.8-.2.1-1 .2-2.5.2-6.1 0-2.7-1.4-3.2-2.6-3.2-.9 0-1.6.3-2.4.9v7.1l1.8.7-.2.8H348l.2-.8 1.3-.7v-5.4c0-3.1 0-5.7-.1-8l-1.4-.6.2-.7c.7-.2 1.9-.5 3.5-.7 0 2.1-.1 4.9-.1 7.4 1.6-1.2 2.5-1.4 3.4-1.4 2.5 0 3.6 2.1 3.6 3.6v5.4zm5.5-3.6v.3c0 2.5 1.6 4.1 3.7 4.1.4 0 .7-.1.9-.2.7-.5 1.5-1 2-1.2l.2.5c-.2.5-1.1 1.5-1.5 1.8-.4.2-1.6.5-2.5.5-3 0-5.1-2-5.1-5.4s2.5-5.8 5.2-5.8c2.2 0 4.1 1.4 4.1 4.3 0 .3-.1.7-.3.8-.2.1-1.1.4-2.3.4h-4.4zm4.8-1.1c0-.2.1-.4.1-.7 0-1.5-.8-2.7-2.1-2.7-1.9 0-2.7 2.3-2.7 3.4h4.7zm15.3 5.8l-.3.8h-5.3l.2-.8 1.5-.6v-8.2c0-2.2 0-4.2-.1-5.4l-1.4-.5.3-.7c.9-.3 2.3-.6 3.3-.7 0 2.4-.1 4.6-.1 7.2v8.4l1.9.5zm7.6-6c0-2.4-1.1-2.9-2.4-2.9-.5 0-1.1.2-1.4.4-.1.7-.2 1.8-.4 2.4l-.4.2c-.3-.2-1.3-1.5-1.5-2.1.5-.4 1.9-1.2 3-1.7.5-.2 1.1-.4 1.7-.4 2.5 0 3.4 2.2 3.4 3.6v5.3c.5.9 1.5 1.3 1.9 1.4l-.2.5c-.2.1-.6.3-1.2.3-1.6 0-2.1-.7-2.3-1.4-1 1-2.1 1.4-3 1.4-2.1 0-3.1-1.6-3.1-2.9 0-1 .5-1.8 1-2 1.1-.6 3.2-1.3 5.1-1.7l-.2-.4zm-1.9 5.6c.5 0 1.2-.3 1.6-.7.1-.2.2-.4.2-.6v-2.9c-1.1.3-2.3.7-3 1.1s-.9.7-.9 1.3c.1 1.3 1.3 1.8 2.1 1.8zm16.2-9.2c-1.2 2-4.7 7.1-6 9.2v.1c1.7 0 4-.1 4.2-.2.9-1.1 1.4-1.8 1.7-2.2l.5-.1c-.1 1-.3 2.9-.6 3.7-1.2 0-2.9-.1-5-.1h-4v-.2c1.9-2.7 4.3-6.2 6.3-9.3v-.1c-.3 0-1.3 0-3.9.1-.2.5-.9 1.5-1.2 1.9l-.5.1c-.1-.4-.2-2.8-.1-3.3l.1-.1 1.9.2h6.6v.3zm9.2-.3h3.9l-.1.8c-.9.3-1.3.7-1.6 1.1-.7 1.4-2.8 6.6-4.9 11.6-.2 1.1-.4 1.9-.6 2.8-.1.1-.4.1-.6.1-.8 0-1.7-.6-1.9-.9.2-.5 1.2-1.6 2.2-2.7.3-.7.7-1.5 1-2.3-.2-.5-2.5-6.8-3.3-8.5-.3-.6-.5-.7-1.8-1.1l.3-.8h4.8l-.2.8-.8.5c.3 1 1 3 2.3 6.5.9-2.4 1.9-5.1 2.3-6.4l-1.1-.5.1-1zm20.6 8.7c.5.8 1.4 1.3 1.9 1.5l-.2.6c-.2.1-.6.2-1.2.2-.8 0-1.9-.4-2.4-1.4-.4.3-1.8 1.3-2.9 1.3-1.9 0-5.1-1.5-5.1-5.4s3.4-5.9 5.8-5.9c.4 0 1.2.2 2 .7 0-1.7 0-3-.1-4.7l-1.6-.6.3-.7c.5-.2 1.9-.5 3.5-.7 0 2.4-.1 4.7-.1 7.3v7.8zm-2.1-7.1c-.6-.4-1.3-.5-1.8-.5-2.2 0-3.8 1.9-3.8 4.2s1.6 4.2 3.7 4.2c.5 0 1.1-.1 1.9-.7v-7.2zm16.3 3.7c0 3.5-2.4 5.7-5.4 5.7-2.7 0-5.5-1.9-5.5-5.5s3.1-5.8 5.5-5.8c3 .1 5.4 2.3 5.4 5.6zm-8.5.1c0 2.2 1.1 4.6 3.2 4.6s2.9-2.5 2.9-4.5c0-2.3-1-4.7-3.1-4.7s-3 2.1-3 4.6zm18.6-4.1c.2.3.8 1.1.8 2.2 0 2.2-1.9 3.7-4.3 3.7-.8 0-1.4-.2-2-.4-.4.4-.6.9-.6 1 0 .5.5 1.1 1.2 1.1 1-.1 3.4-.2 4.9-.1.8.1 1.2.3 1.7.7.5.4.9 1.1.9 2 0 1.4-.9 2.6-2.1 3.4-1 .8-2.5 1.4-4.3 1.4-2.5 0-4.2-1.2-4.2-2.8 0-.3.2-.6.4-.8l1.9-2v-.1c-.4-.2-.7-.4-1.1-.8-.5-.4-.8-1.1-.8-1.6 0-.3 1-1.3 1.7-1.9-.8-.5-1.5-1.5-1.5-2.8 0-2 1.7-3.9 4.6-3.9.7 0 1.2.1 1.8.2.8.1 1.3.2 1.8.3l2.1-.8.1.3-1 1.5-2 .2zm-5.1 9.7c-.4.3-1.2 1.4-1.2 1.9 0 1.6 1.7 2.1 3.1 2.1 1.9 0 3.7-.9 3.7-2.6 0-.7-.4-1.3-1.2-1.5-.5-.1-1.1-.2-2.4-.2-1.1.1-1.6.2-2 .3zm-.5-7.5c0 1.3.7 2.7 2.2 2.7 1.3 0 2.1-1.1 2.1-2.7 0-1.3-.7-2.8-2.2-2.8s-2.1 1.4-2.1 2.8z" class="st1"/><path d="M34.1 99.2l-.9 1.1c-.6-.4-1.1-.7-1.8-.7-1.3 0-2.4 1-2.4 3.6s1 3.6 2.4 3.6c.8 0 1.4-.4 2-.8l.9 1.1c-.6.6-1.6 1.2-2.9 1.2-2.5 0-4.3-1.8-4.3-5.1s1.9-5 4.2-5c1.2-.1 2 .3 2.8 1zm7.3 7.8l-.4 1.2c-.8-.1-1.4-.3-1.6-1.1-.5.8-1.3 1.1-2.2 1.1-1.5 0-2.4-.9-2.4-2.3 0-1.6 1.2-2.5 3.4-2.5h.8v-.4c0-1-.4-1.3-1.4-1.3-.5 0-1.2.1-2 .4l-.4-1.2c.9-.3 1.8-.5 2.7-.5 2 0 2.9.9 2.9 2.6v3.1c0 .6.2.8.6.9zm-2.4-1v-1.5h-.7c-1.2 0-1.7.4-1.7 1.3 0 .7.4 1.1 1 1.1s1.1-.3 1.4-.9zm10.5-1.7c0 2.3-1 3.9-2.9 3.9-.8 0-1.4-.3-1.9-.8v3.5l-1.8.2v-10.5h1.6l.1.9c.6-.8 1.4-1.1 2.2-1.1 1.9 0 2.7 1.6 2.7 3.9zm-1.9 0c0-1.9-.5-2.6-1.4-2.6-.6 0-1.2.4-1.5 1v3.3c.3.5.8.8 1.4.8 1 .1 1.5-.7 1.5-2.5zm7.8 3.4c-.5.4-1.2.6-1.9.6-1.5 0-2.2-.8-2.2-2.4V102h-1.2v-1.3h1.2V99l1.8-.2v1.8h1.7l-.2 1.3h-1.5v3.9c0 .7.2 1 .8 1 .3 0 .6-.1.9-.3l.6 1.2zm3-9.7c0 .6-.5 1.1-1.1 1.1s-1.1-.5-1.1-1.1.5-1.1 1.1-1.1 1.1.5 1.1 1.1zm-.2 10h-1.8v-7.4h1.8v7.4zm8.6-3.7c0 2.3-1.3 3.9-3.5 3.9s-3.5-1.5-3.5-3.9 1.3-3.9 3.5-3.9c2.3 0 3.5 1.5 3.5 3.9zm-5 0c0 1.8.5 2.6 1.6 2.6s1.6-.8 1.6-2.6-.6-2.6-1.6-2.6-1.6.9-1.6 2.6zm12.7-1.6v5.4h-1.8V103c0-.9-.3-1.2-.9-1.2-.6 0-1.1.4-1.6 1.1v5.2h-1.8v-7.4H70l.1 1c.6-.7 1.3-1.2 2.2-1.2 1.5-.1 2.2.8 2.2 2.2zm193.9-3.4l-.9 1.1c-.7-.6-1.4-.8-2.2-.8-.9 0-1.5.4-1.5 1.2 0 .7.4 1 2 1.5 1.7.5 2.9 1.2 2.9 3.1s-1.4 3-3.7 3c-1.5 0-2.7-.6-3.5-1.3l1-1.1c.7.6 1.5 1 2.5 1s1.8-.5 1.8-1.4c0-.8-.4-1.2-1.9-1.6-2-.6-2.9-1.4-2.9-2.9 0-1.6 1.4-2.7 3.3-2.7 1.3-.3 2.3.1 3.1.9zm7.7 8.7h-1.5l-.1-1c-.5.8-1.2 1.2-2.3 1.2-1.3 0-2.1-.9-2.1-2.3v-5.3h1.8v5.1c0 .9.3 1.2.9 1.2s1.1-.4 1.5-1.1v-5.2h1.8v7.4zm8.7-3.7c0 2.3-1.1 3.9-2.9 3.9-.8 0-1.5-.4-2-1l-.1.8h-1.6V97.7l1.8-.2v4c.5-.7 1.2-1.1 2-1.1 1.7 0 2.8 1.4 2.8 3.9zm-1.9 0c0-2-.6-2.6-1.4-2.6-.6 0-1.1.4-1.5 1v3.3c.3.5.8.8 1.4.8.8.1 1.5-.6 1.5-2.5zm9.6-1.6v5.4h-1.8V103c0-.9-.4-1.2-.9-1.2-.6 0-1.1.4-1.5 1.1v5.2h-1.8V97.7l1.8-.2v4c.6-.7 1.3-1.1 2.2-1.1 1.2 0 2 .9 2 2.3zm8 2.2h-4.6c.1 1.5.8 2 1.8 2 .7 0 1.2-.2 1.9-.7l.7 1c-.7.6-1.6 1-2.8 1-2.3 0-3.5-1.5-3.5-3.9s1.2-4 3.3-4 3.3 1.4 3.3 3.7c0 .4 0 .7-.1.9zm-1.7-1.3c0-1.2-.4-1.9-1.4-1.9-.8 0-1.4.6-1.5 2l2.9-.1zm9.3 3.4l-.4 1.2c-.8-.1-1.4-.3-1.6-1.1-.5.8-1.3 1.1-2.2 1.1-1.5 0-2.4-.9-2.4-2.3 0-1.6 1.2-2.5 3.4-2.5h.9v-.4c0-1-.4-1.3-1.4-1.3-.5 0-1.2.1-2 .4l-.4-1.2c.9-.3 1.9-.5 2.7-.5 2 0 2.9.9 2.9 2.6v3.1c-.1.6.1.8.5.9zm-2.3-1v-1.5h-.8c-1.2 0-1.7.4-1.7 1.3 0 .7.4 1.1 1 1.1.7 0 1.1-.3 1.5-.9zm10.1-8.4V108h-1.6l-.1-.9c-.5.7-1.2 1.2-2.1 1.2-1.9 0-2.8-1.6-2.8-3.9s1.1-3.9 3-3.9c.8 0 1.4.3 1.9.8v-3.8l1.7.1zm-1.8 8.3v-3.4c-.4-.5-.8-.8-1.4-.8-.9 0-1.5.8-1.5 2.6 0 1.9.5 2.6 1.4 2.6.6 0 1.1-.3 1.5-1zm79.3-2.8c0 3.9-2.4 4.9-4.7 4.9H386v-9.7h2.4c2.6 0 5 .8 5 4.8zm-5.5-3.4v6.9h.9c1.4 0 2.6-.6 2.6-3.5s-1.3-3.4-2.7-3.4h-.8zm9.2-1.7c0 .6-.5 1.1-1.1 1.1s-1.1-.5-1.1-1.1.5-1.1 1.1-1.1 1.1.4 1.1 1.1zm-.3 10H395v-7.4h1.8v7.4zm7.1-6.7l-.7 1.1c-.6-.4-1.2-.6-1.9-.6s-1.1.3-1.1.7c0 .5.3.7 1.6 1.1 1.5.4 2.4 1 2.4 2.3 0 1.5-1.4 2.3-3.1 2.3-1.3 0-2.3-.4-3-1.1l.9-1c.6.4 1.3.7 2 .7.8 0 1.3-.3 1.3-.9 0-.6-.3-.8-1.7-1.2-1.5-.4-2.2-1.2-2.2-2.2 0-1.2 1.1-2.2 2.9-2.2 1.1.1 1.9.4 2.6 1zm8.2 3c0 2.3-1 3.9-2.9 3.9-.8 0-1.4-.3-1.9-.8v3.5l-1.8.2v-10.5h1.6l.1.9c.6-.8 1.4-1.1 2.2-1.1 1.9 0 2.8 1.5 2.7 3.9zm-1.8 0c0-1.9-.5-2.6-1.4-2.6-.6 0-1.2.4-1.5 1v3.3c.4.5.8.8 1.4.8.9.1 1.5-.7 1.5-2.5zm3.4 2v-8.7l1.8-.2v8.8c0 .3.1.5.4.5.1 0 .3 0 .4-.1l.4 1.3c-.3.1-.7.2-1.2.2-1.1.1-1.8-.6-1.8-1.8zm10.2.7l-.4 1.2c-.8-.1-1.4-.3-1.6-1.1-.5.8-1.3 1.1-2.2 1.1-1.5 0-2.4-.9-2.4-2.3 0-1.6 1.2-2.5 3.4-2.5h.9v-.4c0-1-.4-1.3-1.4-1.3-.5 0-1.2.1-2 .4l-.4-1.2c.9-.3 1.9-.5 2.7-.5 2 0 2.9.9 2.9 2.6v3.1c-.1.6.1.8.5.9zm-2.3-1v-1.5h-.7c-1.2 0-1.7.4-1.7 1.3 0 .7.4 1.1 1 1.1s1-.3 1.4-.9zm7.4 2.1c-.6 1.7-1.6 2.9-3.9 3l-.2-1.3c1.5-.2 2-.7 2.4-1.8h-.6l-2.4-7.4h1.9l1.6 6.2 1.7-6.2h1.9l-2.4 7.5z" class="st0"/><path d="M2.8 16.6c3.5.1 7 .1 10.6.1h9.3l-.9 3.3-2.8 1.8C20.8 26.6 23.9 34 38.7 70h.3c3.2-6.4 6-12.2 11.1-23.1-3.9-9.1-7.8-18-10.4-23.2-1.1-1.6-2.7-2.5-8-3.8l1.2-3.2c2.9.1 6.7.1 10 .1h5.7l.1.3.5 5c.8 2.4 1.5 4.1 6.6 15.7h.2c3.9-8.7 5.2-10.7 7-15.8l.2-4.9.2-.3H68c3.3 0 6.7 0 9.7-.1l-1 3.2c-5.9 1.7-7.6 2.6-9.2 4.9-1.2 2.1-3.4 5.6-9.7 18.2.9 2 4.5 10.7 11.5 26.5h.2c4.3-11.4 11.3-29.9 17.3-47.4L83.6 20l1.1-3.2h6c3.7 0 7.3 0 10.9-.1l-.9 3.2c-5.5 1.5-7.1 2.5-8.4 4.3-2.4 4.3-12.5 30.5-21.4 52.7-1.1 2.2-3 4.7-4.5 6.2h-.9c-1.9-3.8-7.5-17.9-13.1-30.4h-.2c-5.9 11.8-9.2 18.6-12 24.6-1.2 1.9-3.1 4.4-4.7 5.8h-.8c-2.8-6.5-20-48.5-25.1-59.1-1.1-1.9-2.4-2.6-8.1-4.1l1.3-3.3zm118.9 1.9c3.1 0 6.7.1 10.7.1 2.8 0 6-.1 8.8-.1l-.6 2.2-2.8 2.5c1.9 5.1 5.1 12.8 20.1 49.5h.3c2.8-5.8 5.8-11.8 11.1-23.5-3.8-9.3-8-18.7-10.9-24.6-1.4-1.5-3.1-2.6-7.5-3.8l.9-2.2c2.8 0 6.8.1 10 .1 1.9 0 3.6-.1 5.3-.1l.2.4.4 4.4c.9 2.6 1.8 4.8 7 16.6h.2c3.9-8.7 5.3-11.3 7.1-16.5l.2-4.5.2-.4c1.5 0 3 .1 4.5.1 3.3 0 6.5-.1 9.4-.1l-.8 2.2c-4.8 1.6-7 2.6-8.9 4.7-1.3 2.2-3.9 6.6-10 19 .9 2.2 4.7 11.2 11.9 27.7h.2C193 60.9 200 42 206.3 23.6l-3.2-2.8.9-2.2c1.8 0 3.7.1 5.7.1 3.9 0 7.5-.1 10.8-.1l-.5 2.2c-4.6 1.4-6.6 2.5-8.5 4.2-2.6 4.8-13 31.9-21.6 53.8-1 2.2-2.9 4.7-4.3 6.2h-.8c-1.9-3.8-7.5-17.8-13.3-31h-.1c-6 12.3-9.3 19.2-12.1 25.2-1.2 1.9-3 4.4-4.5 5.8h-.7c-2.8-6.4-20-48.7-25.4-60.2-1.5-1.7-3.1-2.5-7.7-4l.7-2.3zm118.8-.1c2.7 0 6.4.2 10.8.2 2.8 0 5.9-.1 8.3-.2l-.4 1.1-2.7 3c1.9 5.5 5.4 13.7 20.6 51.1h.3c2.5-5.1 5.5-11.6 11.2-24.1-3.9-9.5-8.3-19.5-11.5-26.3-1.9-1.4-3.9-2.6-7-3.8l.5-1.1c2.5 0 6.8.2 10 .2 1.8 0 3.4-.1 4.8-.2l.3.3.4 3.9c1 2.9 2 5.6 7.4 17.7h.2c3.9-8.8 5.5-12 7.5-17.4l.1-4.2.2-.3c1.1.1 2.5.2 4.1.2 3.4 0 6.3-.2 9-.2l-.4 1.1c-3.6 1.4-6.2 2.7-8.7 4.4-1.5 2.5-4.4 7.8-10.4 20.1 1.1 2.7 5.1 11.9 12.4 29.1h.2c4.2-11.2 11.4-30.5 17.9-50.1l-3.1-3.5.5-1.1c1.6.1 3.4.2 5.5.2 3.9 0 7.6-.2 10.6-.2l-.2 1.1c-3.4 1.3-5.9 2.6-8.4 4.1-2.9 5.6-13.7 33.8-22 55.2-.9 2.1-2.7 4.8-4 6.2h-.8c-1.8-3.8-7.4-17.7-13.4-31.5h-.3c-6.1 12.6-9.5 19.8-12.2 25.7-1 2-2.8 4.5-4.3 5.9h-.6c-2.7-6.4-19.9-48.9-25.6-61.5-2.1-1.4-4.1-2.6-7.4-3.9l.6-1.2zm119-1.9c2.4.1 6.1.3 10.7.3 2.7 0 5.7-.2 7.9-.2l-.2.3-2.7 3.4c2 5.8 5.6 14.2 21 52.1h.3c2.2-4.7 5.3-11.3 11.2-24.5-3.8-9.6-8.4-19.9-11.8-27.1-2.2-1.4-4.3-2.7-6.6-3.9l.2-.4c2.5.1 6.9.3 10 .3 1.7 0 3.2-.2 4.5-.2l.3.3.3 3.4c1.1 3.2 2.2 6.2 7.6 18.5h.2c4-8.9 5.7-12.5 7.6-18l.1-3.9.2-.3c.9 0 2.2.2 3.9.2 3.4 0 6.1-.2 8.7-.3l-.2.4c-2.8 1.4-5.7 2.7-8.6 4.2-1.5 2.6-4.6 8.6-10.6 20.9 1.2 2.8 5.2 12.2 12.8 30h.2c4.2-11.2 11.5-30.7 18.1-51.1l-3.1-3.9.3-.3c1.5 0 3.2.2 5.3.2 4.1 0 7.8-.2 10.6-.3v.4c-2.7 1.3-5.6 2.7-8.4 4.1-3 6-14.1 35-22.2 56-.7 2.1-2.6 4.7-3.8 6.1h-.6c-1.9-3.8-7.4-17.6-13.6-31.9h-.1c-6.2 13-9.6 20.2-12.4 26.2-.9 1.9-2.6 4.5-4.1 5.8h-.5c-2.7-6.3-19.9-49-25.8-62.3-2.4-1.3-4.6-2.6-7-3.9l.3-.6zM7.1 274.9l-4.4-.1c-.3.6-1.1 2-1.4 2.4H1c-.1-.8-.1-2.9-.1-3.7l.1-.1c.3 0 1.3.2 1.7.4H14c.5 0 1.2-.1 1.6-.3v-.5l2-.4.1.1c0 2.3-.1 4.9-.1 7.5 1.5-1.2 2.5-1.4 3.4-1.4 2.5 0 3.6 2 3.6 3.6v5.5c0 .4.1.5.5.7l1.3.6-.2.5c-1 0-2.5 0-3.8-.2.1-1 .2-2.6.2-6.2 0-2.7-1.4-3.2-2.6-3.2-.9 0-1.7.3-2.4.9 0 2.4 0 6.9.1 7.4l1.7.7-.2.5h-5.1l.2-.5 1.3-.7c.1-.4.1-2.5.1-5.6 0-2.5 0-4.8-.1-7.7-.4-.2-1.1-.4-1.6-.4l-4.7.1v6c0 6.2.1 6.8.1 7.5l2.5.8-.2.5H4.6l.2-.5 2.2-.8c.1-.8.1-1.3.1-6.7v-6.7zm22.8 9.1v.4c0 2.7 1.7 4.3 3.8 4.3.3 0 .6 0 .8-.1.8-.5 1.5-1 2-1.3l.1.4c-.1.5-1.1 1.5-1.4 1.7-.5.2-1.7.6-2.5.6-3 0-5.1-2.1-5.1-5.4s2.5-5.8 5.2-5.8c2.2 0 4.1 1.5 4.1 4.1 0 .3-.1.7-.2.8-.2.1-1.1.3-2.3.3h-4.5zm4.8-.9c.1-.2.1-.4.1-.7 0-1.4-.7-2.8-2.1-2.8-2 0-2.8 2.5-2.8 3.5h4.8zm19.4 3.3v7.4l2.1.7-.2.5h-5.9l.1-.5 1.7-.7c0-1.8.1-3.6.1-4.9-.9.5-1.9 1-2.7 1-2.8 0-5.1-2.1-5.1-5.4 0-3.1 2.7-5.8 5.8-5.8.8 0 1.6.4 2.3.9.5-.4 1.8-.9 2.4-.9l.1.1c-.1.6-.5 1.4-.8 1.8l.1 5.8zm-2-5.9c-.3-.3-.9-.6-1.8-.6-2.2 0-3.8 1.9-3.8 4.4 0 2.6 1.7 4.3 3.7 4.3.7 0 1.4-.2 1.9-.5v-7.6zm4.7-.7l.2-.5c.6-.2 2.3-.4 3.3-.4-.1 1.1-.2 3-.2 7 0 .9.2 1.4.5 1.8.3.4.9.7 1.7.7 1 0 2.1-.5 2.6-1.4v-6.3c-.2-.4-.5-.5-1.6-1l.2-.5c.8-.2 2.6-.4 3.5-.3-.1 1.1-.1 2.7-.1 8.9.5.8 1.2 1.2 1.9 1.4l-.2.4c-.2.1-.8.3-1.4.3-.8 0-2-.3-2.3-1.8h-.1c-.9 1-2 1.9-3.5 1.9-.8 0-1.8-.3-2.4-.9-.7-.6-.9-1.6-.9-3v-5.7l-1.2-.6zm13.4-.4c.4-.1 1.8-.5 3.2-.7v4.9c0 2.7 0 4.1.1 4.8l1.7.7-.2.5h-5.2l.2-.5 1.4-.7c0-.8.1-2.9.1-4.8v-3l-1.3-.6v-.6zm2.3-5.6c.3.1 1 .8 1.2 1.3l-.1.2c-.2.5-.9 1.2-1.3 1.4h-.2c-.4-.2-1-.9-1.2-1.4l.1-.2c.3-.6.9-1.1 1.3-1.4l.2.1zm10.1 4.9c1.4 0 2.7.5 3.1.9-.1.6-.5 1.8-.9 2.5l-.4.2c-.2-.5-.5-1.4-.8-2.6-.1-.1-.4-.2-.9-.2-2.7 0-4.1 2.2-4.1 4.6 0 2.7 1.7 4.6 4.3 4.6.2 0 .5-.1.7-.2.8-.7 1.6-1.2 2-1.4l.2.3c-.2.7-1.1 1.8-1.5 2-.4.1-1.5.4-2.3.4-2.3 0-5.5-1.3-5.5-5.5s3.3-5.6 6.1-5.6zm9.7 10.4l-.1.5h-5.3l.1-.5 1.4-.7c.1-.5.1-2 .1-5.5 0-3 0-5.9-.1-8.5l-1.3-.6.2-.5c.6-.2 2.4-.6 3.3-.7-.1 2.5-.1 5.4-.1 8.3 0 2.4 0 7 .1 7.5l1.7.7zm5.9.9c-1.3-.1-2.4-.4-3.3-1.2-1.1-1-2.8-3.1-3.9-4.7v-.1c1-1.1 2.4-2.8 3.3-4l.5-1.2c1 0 2.7.2 3.2.3l-.3.5c-.4.2-1.9.7-2.5.9-.8.8-1.2 1.2-2.3 2.5v.1c1.4 1.9 4.3 5.4 5.5 6.8l-.2.1zm7.6-9.6c0-2.2 0-4.2-.1-6l-1.4-.6.2-.5c.6-.3 1.9-.6 3.3-.8-.1 2.6-.1 5-.1 7.3.7-.4 2-1.1 2.8-1.1 2.4 0 5.1 1.8 5.1 5.2 0 4.3-3.6 5.9-5.8 5.9-.6 0-1.6-.4-2.3-.8-.6.4-1.3.6-1.7.7v-9.3zm2 8c.3.1 1.1.4 1.7.4 2.4 0 4-1.9 4-4.5 0-2.3-1.4-4.2-3.8-4.2-.6 0-1.3.2-1.9.5v7.8zm10-8.8c.4-.2 2-.8 2.8-.8.1.5.2 1.6.2 2.4h.1c1-1.7 2.4-2.4 3.3-2.4.5 0 .9.1 1.2.4-.1.7-.5 2-.8 2.6l-.3.2c-.2-.3-.5-.8-.9-1.6-.1 0-.2-.1-.4-.1-.7 0-1.7.9-2.2 2.1v6.1l2.4.7-.1.5h-5.9l.1-.5 1.4-.7c.1-2.5.1-6.5.1-7.6l-1.2-.7.2-.6zm19.6 4.6c0 3.4-2.4 5.7-5.4 5.7-2.7 0-5.4-1.9-5.4-5.4s3-5.7 5.5-5.7c2.9-.1 5.3 2.2 5.3 5.4zm-8.5.1c0 2.3 1.1 4.8 3.3 4.8s2.9-2.6 2.9-4.6c0-2.3-1-4.9-3.1-4.9s-3.1 2.3-3.1 4.7zm14-4.7l-.9.6c.3 1.1 1 3.2 2.2 6.6h.1c.8-2.1 1.5-3.8 2.2-5.6l-.2-1.4c.2-.2 1.2-.7 1.7-.8l.2.1.1 1.8c.6 1.7 1.4 3.8 2.3 6.1h.1c.8-2.5 1.3-4.2 2.1-6.7l-1.2-.6.2-.6h3.8l-.1.6c-.7.3-1.1.5-1.4.9-.4.8-1.6 4.3-3 8.4-.3.4-.7.8-1 1.1h-.2c-.9-2.2-1.8-4.7-2.8-7.1h-.1c-.9 2.1-1.4 3.2-2.5 6-.2.4-.7.9-.9 1.1h-.2c-.9-2.5-2.6-7.6-3.4-9.5-.3-.4-.7-.6-1.5-.9l.2-.6h4.6l-.4.5zm14.9 1.1l-1.3-.5.2-.5c.4-.2 2.4-.9 3.1-.9l-.1 1.9h.1c1.8-1.5 2.8-1.9 3.8-1.9 2.5 0 3.2 2 3.2 3.8v5.4c0 .3.1.4.3.5l1.4.6-.2.5h-4.8l.2-.6 1-.7c.1-.7.1-2.4.1-5.5 0-1.8-1-2.6-2.3-2.6-1 0-2.1.7-2.7 1.3 0 1.8 0 6.4.1 6.9l1.3.6-.1.6h-4.8l.2-.5 1.3-.7c.1-.4.1-2.6.1-5.6l-.1-2.1zm17.4 8.4l1.6-.7c0-.3.1-2 .1-4.9v-3.3l-1.6-.3.4-.8h1.2c0-1.9.4-3.7 1.7-5 1-1 2.1-1.5 3.3-1.5.8 0 1.4.2 1.7.5-.3.9-.5 1.7-.8 2.2l-.3.2c-.2-.3-.6-1-.9-1.9h-.3c-1.2 0-2 1.3-2.1 3.6-.1.7-.1 1.4-.1 2h3.1l-.4.8-2.7.3c0 .5-.1 1.6-.1 3.2 0 3.7 0 4.7.1 5l2.3.7-.2.5h-5.9l-.1-.6zm18.1-4.9c0 3.4-2.4 5.7-5.4 5.7-2.7 0-5.4-1.9-5.4-5.4s3-5.7 5.5-5.7c2.9-.1 5.3 2.2 5.3 5.4zm-8.5.1c0 2.3 1.1 4.8 3.3 4.8s2.9-2.6 2.9-4.6c0-2.3-1-4.9-3.1-4.9s-3.1 2.3-3.1 4.7zm15.1-1.6c.6-.9 1-1.5 1.4-2.3.2-.5.2-.9.2-1.4h3.5l-.2.6c-1.4.5-1.9.7-2.4 1.1-.6.7-1.1 1.3-2 2.8.7 1.3 2.1 3.6 2.5 4.2.3.4.6.6.9.7l1.7.6-.2.6c-.7 0-2.5.1-3.7.1-.6-1.2-1-2-2.4-4.4h-.1c-1.1 1.7-1.3 2.2-1.7 3 0 .2.2.4.6.8l-.1.5H194l.1-.5 1.3-.6c.4-.2.7-.4 1-.8.6-.9 1.1-1.4 2.3-3.2-1.5-2.6-2-3.5-2.4-4-.3-.2-.8-.5-2.1-.9l.2-.6h4l-.1.9 1.6 2.8zm12.2-3.3c.6-.2 2.5-.6 3.3-.7v8.7c0 1.2-.2 2.7-.9 4-1.1 2.2-2.2 3.2-3.2 3.9l-.6-.4v-.2c2.5-1.9 2.7-4.6 2.7-7.4 0-1.9 0-5.5-.1-6.9-.4-.2-.9-.4-1.3-.6l.1-.4zm2.3-5.6c.3.1 1 .8 1.2 1.3l-.1.2c-.2.4-.9 1.1-1.3 1.3l-.2.1c-.4-.3-1-.9-1.2-1.4l.1-.2c.4-.5.9-1.1 1.3-1.4l.2.1zm3.5 6l.2-.5c.6-.2 2.3-.4 3.3-.4-.1 1.1-.2 3-.2 7 0 .9.2 1.4.5 1.8.3.4.9.7 1.7.7 1 0 2.1-.5 2.6-1.4v-6.3c-.2-.4-.5-.5-1.6-1l.2-.5c.8-.2 2.6-.4 3.5-.3-.1 1.1-.1 2.7-.1 8.9.5.8 1.2 1.2 1.9 1.4l-.2.4c-.2.1-.8.3-1.4.3-.8 0-2-.3-2.3-1.8-.9 1-2 1.9-3.5 1.9-.8 0-1.8-.3-2.4-.9-.6-.6-.9-1.6-.9-3 0-1.6.1-4 .1-5.7l-1.4-.6zm14.7.8l-1.3-.5.2-.5c.5-.3 2.4-.9 3.1-.9l-.1 1.9h.1c1.5-1.2 2.7-2 3.8-2 1.3 0 2.4.8 2.9 2 1.7-1.4 2.8-2 4-2 2 0 3.2 1.5 3.2 3.6v5.7c0 .2.2.3.5.5l1.3.5-.1.5h-4.9l.1-.5 1.1-.7c.1-.9.1-2.5.1-5.2 0-1.4-.3-3-2.2-3-.9 0-1.8.4-2.7 1.3.1.4.1 1.1.1 2v4.9l1.4.7-.2.5h-4.6l.1-.6 1.1-.7c0-1.4.1-3.3.1-5.4 0-1.2-.3-2.7-2.3-2.7-.8 0-1.8.6-2.5 1.3v6.8l1.4.7-.1.6h-4.8l.1-.6 1.3-.7c0-.5.1-2.6.1-4.9l-.3-2.6zm21.7-.4c1.6-1 2.6-1.5 3.3-1.5 2 0 4.6 1.7 4.6 5.1 0 4.3-3.6 6-5.8 6-.4 0-1.4-.4-2-.7h-.1c0 1.7.1 3.4.1 4.5l2.2.7-.2.5h-5.6l.2-.6 1.2-.6c0-.8.1-3.1.1-6.6v-6.7l-1.3-.7.2-.5c.4-.2 2.3-.6 3.1-.6v1.7zm.1 8c.4.3 1.1.5 1.8.5 2 0 3.9-1.7 3.9-4.5 0-2.2-1.3-4.1-3.4-4.1-.6 0-1.4.3-2.2.9v7.2h-.1zm15.4-8.9c.4-.2.8-.5 1.2-.6l.2.2c0 .4-.3 2.3-.6 2.9l-.3.2c-.3-.5-.6-1.3-.8-1.9-.1-.1-.6-.4-1.4-.4-1.2 0-1.8.8-1.8 1.7 0 .5.2.9.9 1.3s2.1 1 2.9 1.4c1.3.6 1.8 1.5 1.8 2.5 0 2.6-2.7 3.4-4.2 3.4-1.2 0-2.6-.5-3.5-1 0-.5.4-2.3.6-2.6l.3-.2c.3.6.9 2.1 1.1 2.7.4.1.9.2 1.5.2 1.2 0 2.2-.8 2.2-1.8 0-.6-.2-1.1-1-1.4-.6-.4-1.4-.7-2.3-1.1-1.3-.6-2.1-1.5-2.1-2.9 0-1.5 1.2-3.1 3.5-3.1.6-.1 1.3.1 1.8.5zm20.1 4.9c0 3.4-2.4 5.7-5.4 5.7-2.7 0-5.4-1.9-5.4-5.4s3-5.7 5.5-5.7c2.9-.1 5.3 2.2 5.3 5.4zm-8.4.1c0 2.3 1.1 4.8 3.3 4.8s2.9-2.6 2.9-4.6c0-2.3-1-4.9-3.1-4.9s-3.1 2.3-3.1 4.7zm9.4-5.3h4.5l-.2.6-.7.6c.5 1.4 1.4 3.7 2.6 6.7.5-1.2 1-2.5 2.5-6.6l-1-.7.2-.6h3.6l-.2.6c-.7.3-1.1.5-1.5 1.1-.4.7-2.5 5.9-3.4 8.1-.2.4-.6 1-.9 1.2h-.2c-.2-.5-2.1-5.4-3.8-9.4-.4-.6-.9-.8-1.6-1.1l.1-.5zm14.2 5v.4c0 2.7 1.7 4.3 3.8 4.3.3 0 .6 0 .8-.1.8-.5 1.5-1 2-1.3l.1.4c-.1.5-1.1 1.5-1.4 1.7-.5.2-1.7.6-2.5.6-3 0-5.1-2.1-5.1-5.4s2.5-5.8 5.2-5.8c2.2 0 4.1 1.5 4.1 4.1 0 .3-.1.7-.2.8-.2.1-1.1.3-2.3.3h-4.5zm4.8-.9c.1-.2.1-.4.1-.7 0-1.4-.7-2.8-2.1-2.8-2 0-2.8 2.5-2.8 3.5h4.8zm4.2-3.6c.4-.2 2-.8 2.8-.8.1.5.2 1.6.2 2.4 1-1.7 2.4-2.4 3.3-2.4.5 0 .9.1 1.2.4-.1.7-.5 2-.8 2.6l-.3.2c-.2-.3-.5-.8-.9-1.6-.1 0-.2-.1-.4-.1-.7 0-1.7.9-2.2 2.1v6.1l2.5.7-.1.5h-5.9l.1-.5 1.4-.7c.1-2.5.1-6.5.1-7.6l-1.1-.8.1-.5zm21.4-.5l-.5.9-3.2.3v6.7c0 .6.2 1 .4 1.1.2.2.6.4 1.2.4.9 0 1.6-.3 1.9-.5h.1v.7c-.6.7-1.6 1.2-2.8 1.2-.9 0-1.8-.4-2.3-1-.4-.5-.5-1-.5-2.6v-6.1l-1.6-.3.4-.8h1.2c.1-.7.4-1.9.6-2.8.3-.4 1.1-.7 1.5-.7l-.1 3.5h3.7zm11.1 8.8c0 .4.1.5.5.7l1.3.6-.2.5c-1 0-2.5 0-3.8-.2.1-1 .2-2.6.2-6.1 0-2.8-1.4-3.2-2.6-3.2-.9 0-1.7.3-2.4.9v7.4l1.8.7-.2.5H336l.2-.5 1.3-.7c0-.3.1-2.4.1-5.6s0-5.8-.1-8.4l-1.4-.6.1-.5c.7-.2 1.9-.5 3.4-.8 0 2.3-.1 5-.1 7.6 1.5-1.2 2.5-1.4 3.4-1.4 2.5 0 3.6 2 3.6 3.6l.1 5.5zm5.3-3.8v.4c0 2.7 1.7 4.3 3.8 4.3.3 0 .6 0 .8-.1.8-.5 1.5-1 2-1.3l.1.4c-.1.5-1.1 1.5-1.4 1.7-.5.2-1.7.6-2.5.6-3 0-5.1-2.1-5.1-5.4s2.5-5.8 5.2-5.8c2.2 0 4.1 1.5 4.1 4.1 0 .3-.1.7-.2.8-.2.1-1.1.3-2.3.3h-4.5zm4.8-.9c.1-.2.1-.4.1-.7 0-1.4-.7-2.8-2.1-2.8-2 0-2.8 2.5-2.8 3.5h4.8zm14.5 5.9l-.2.6h-5.2l.1-.5 1.5-.7c0-1 .1-2.5.1-8.3 0-2.2 0-4.5-.1-5.7l-1.4-.5.2-.5c.8-.3 2.3-.5 3.3-.7 0 2.5-.1 4.8-.1 7.4v8.4l1.8.5zm7.3-6.1c0-2.5-1.1-3-2.4-3-.5 0-1.1.2-1.5.4-.1.7-.2 1.8-.3 2.4l-.3.1c-.3-.1-1.3-1.4-1.5-2.1.5-.5 1.9-1.3 2.9-1.7.6-.2 1.1-.4 1.7-.4 2.5 0 3.3 2.2 3.3 3.7v5.4c.5.9 1.4 1.2 1.9 1.4l-.2.4c-.2.1-.6.3-1.2.3-1.6 0-2.2-.7-2.4-1.4-1.1 1-2.2 1.4-2.9 1.4-2.1 0-3-1.6-3-2.8 0-1 .4-1.7 1-1.9.9-.5 3.1-1.3 5-1.7l-.1-.5zm-1.9 5.6c.5 0 1.2-.2 1.6-.7.1-.2.2-.3.2-.6v-3c-1 .3-2.3.8-3 1.1-.6.3-.8.7-.8 1.3.1 1.5 1.3 1.9 2 1.9zm15.8-9.2c-1.2 2-4.6 7.1-6 9.4 1.7 0 4.1-.1 4.4-.2.7-1.1 1.3-1.8 1.7-2.2l.4-.1c-.1.8-.3 2.7-.5 3.5-1.2 0-2.9-.1-5-.1h-3.8v-.2c1.9-2.7 4.2-6.2 6.3-9.4-.4 0-1.4 0-4.1.1-.3.5-.9 1.6-1.2 2l-.4.1c-.1-.5-.2-2.7-.1-3.2l.1-.1 1.7.2h6.5v.2zm9-.3h3.6l-.1.6c-.7.3-1.1.6-1.5 1-.9 2-2.8 6.8-5 12.1-.2.9-.4 1.9-.6 2.7-.1.1-.3.1-.5.1-.7 0-1.5-.5-1.7-.8.2-.4 1.2-1.6 2.1-2.6.3-.6.9-1.8 1.2-2.6-.2-.5-2.5-6.5-3.5-8.8-.3-.5-.6-.7-1.7-1.1l.2-.5h4.6l-.1.6-.8.6c.3.9 1.1 3.1 2.4 6.6.9-2.5 2-5.3 2.4-6.6l-1.1-.6.1-.7zm19.8 8.8c.6.8 1.4 1.2 1.8 1.4l-.2.4c-.2.1-.6.2-1.1.2-.8 0-2-.4-2.4-1.4-.4.3-1.8 1.4-2.9 1.4-2 0-5.1-1.6-5.1-5.3s3.3-5.9 5.8-5.9c.4 0 1.2.2 2 .7 0-1.7 0-3.2-.1-5.1l-1.5-.6.2-.5c.5-.2 1.8-.5 3.5-.8 0 2.5-.1 4.9-.1 7.5l.1 8zm-2-7.4c-.5-.3-1.2-.5-1.8-.5-2.3 0-3.9 2-3.9 4.4s1.6 4.2 3.7 4.2c.5 0 1.2-.1 1.9-.7l.1-7.4zm15.9 3.8c0 3.4-2.4 5.7-5.4 5.7-2.7 0-5.4-1.9-5.4-5.4s3-5.7 5.5-5.7c2.9-.1 5.3 2.2 5.3 5.4zm-8.5.1c0 2.3 1.1 4.8 3.3 4.8s2.9-2.6 2.9-4.6c0-2.3-1-4.9-3.1-4.9s-3.1 2.3-3.1 4.7zm18.3-4.1c.3.4.8 1.2.8 2.4 0 2.3-1.9 3.7-4.2 3.7-.8 0-1.4-.2-2-.4-.4.4-.6.9-.6 1.1 0 .5.6 1.1 1.1 1.1 1-.1 3.4-.2 5 0 .7.1 1.1.3 1.5.6.4.4.8 1.1.8 1.9 0 1.3-.9 2.5-2 3.4-1 .8-2.5 1.5-4.3 1.5-2.4 0-4.1-1.2-4.1-2.8 0-.3.2-.5.4-.7l2-2.1c-.4-.2-.7-.4-1.1-.8-.4-.4-.8-1.1-.8-1.6 0-.3.9-1.2 1.7-1.9-.9-.5-1.5-1.5-1.5-2.9 0-1.9 1.6-3.9 4.5-3.9.7 0 1.2.1 1.8.2.8.1 1.3.2 1.8.3l2.1-.9.1.2-1 1.5-2 .1zm-5.1 9.9c-.4.4-1.1 1.4-1.1 1.9 0 1.6 1.7 2.2 3.1 2.2 2 0 3.7-.9 3.7-2.7 0-.8-.5-1.3-1.2-1.5-.5-.1-1.1-.1-2.4-.1s-1.8 0-2.1.2zm-.4-7.6c0 1.4.7 3 2.2 3 1.4 0 2.1-1.3 2.1-3 0-1.3-.7-2.9-2.2-2.9s-2.1 1.4-2.1 2.9zM6.7 361.4l-4.5-.2c-.3.6-1.1 2-1.3 2.4l-.2.1c-.1-.6 0-2.6 0-3.4l.1-.1c.3.1 1 .2 1.4.4h11.4c.5 0 1.3-.1 1.5-.3v-.6l1.9-.4.1.1c0 2.5-.1 5.1-.1 7.8 1.5-1.2 2.5-1.5 3.3-1.5 2.4 0 3.5 1.9 3.5 3.6v5.6c0 .5.1.6.4.7l1.3.7-.1.3c-1 0-2.5 0-3.8-.2.1-1 .3-2.6.3-6.1 0-2.8-1.4-3.3-2.6-3.3-.9 0-1.7.3-2.4.9 0 2.4 0 7.2.1 7.7l1.7.8-.1.2h-5.1l.1-.2 1.3-.8c.1-.3.1-2.6.1-5.7 0-2.5 0-4.9-.1-8.1-.3-.1-1-.3-1.6-.3l-4.8.2v6.2c0 6.3.1 7 .1 7.7l2.4.8-.1.3h-7l.1-.3 2.3-.8c.1-.8.1-1.4.1-7l.3-7.2zm22.1 9.2v.5c0 2.9 1.8 4.6 4 4.6.3 0 .5 0 .7-.1.8-.6 1.5-1.1 1.9-1.4l.1.2c-.2.6-1 1.5-1.3 1.7-.5.3-1.8.6-2.5.6-2.9 0-5-2.1-5-5.3 0-3.4 2.5-5.7 5.2-5.7 2.2 0 4 1.5 4 4 0 .3-.1.5-.2.7-.2.1-1.1.3-2.2.3l-4.7-.1zm4.9-.7c.1-.1.1-.5.1-.8 0-1.3-.7-2.9-2.1-2.9-2.1 0-2.9 2.6-2.9 3.7h4.9zm18.3 3.3v7.7l2 .8v.3c-1 0-2-.1-3-.1-.9 0-1.8 0-2.8.1l.1-.3 1.7-.8c0-2.1.1-4 .1-5.3-.9.5-2 1.1-2.7 1.1-2.7 0-5-2-5-5.4 0-3 2.5-5.7 5.6-5.7.8 0 1.6.4 2.4 1 .5-.4 1.8-.9 2.4-1v.1c-.1.6-.5 1.4-.8 1.8v5.7zm-1.9-6c-.3-.2-.9-.6-1.9-.6-2.1 0-3.8 2-3.8 4.5 0 2.7 1.8 4.4 3.7 4.4.7 0 1.4-.2 1.9-.6v-7.7h.1zm4.3-.8l.1-.2c.6-.2 2.4-.4 3.3-.4-.1 1.1-.2 3-.2 7.1 0 .9.2 1.5.4 1.8.4.4 1 .7 1.7.7 1 0 2.1-.6 2.6-1.4v-6.7c-.3-.3-.7-.5-1.6-.9l.1-.2c1-.2 2.7-.3 3.5-.3-.1 1.1-.1 2.7-.1 9 .5.8 1.3 1.1 1.8 1.3l-.1.2c-.2.1-.8.3-1.3.3-.8 0-2.1-.2-2.4-1.9-1 1.1-2.1 1.9-3.5 1.9-.8 0-1.7-.3-2.3-.8-.7-.6-.9-1.5-.9-2.8v-6l-1.1-.7zm13-.1c.4-.1 1.8-.5 3.1-.7v4.8c0 2.7.1 4.1.1 4.9l1.6.8-.1.3h-5l.1-.3 1.4-.8c0-1.1.1-3.1.1-5v-3.2l-1.2-.6c-.1.1-.1-.2-.1-.2zm2.3-5.7c.3.1.9.8 1.1 1.2l-.1.2c-.2.4-.8 1-1.1 1.2l-.2.1c-.4-.2-.8-.8-1-1.2v-.2c.3-.5.8-1 1.2-1.2l.1-.1zm9.6 5.1c1.4 0 2.7.5 3 .9-.2.7-.5 1.8-.9 2.5l-.2.1c-.2-.4-.5-1.4-.8-2.6-.2-.1-.5-.1-1-.1-2.8 0-4.1 2.3-4.1 4.7 0 2.7 1.7 4.7 4.3 4.7.2 0 .5 0 .7-.1.9-.8 1.6-1.2 2-1.4l.1.1c-.2.6-1.1 1.8-1.5 2-.4.1-1.5.4-2.2.4-2.2 0-5.5-1.4-5.5-5.4s3.3-5.9 6.1-5.8zm9.3 10.5l-.1.3h-5.3l.1-.2 1.4-.8c.1-.4.1-1.8.1-5.5 0-3 0-6-.1-9l-1.3-.6.1-.2c.7-.2 2.1-.6 3.3-.7-.1 2.8-.1 5.6-.1 8.5 0 2.2 0 6.9.1 7.6l1.8.6zm5.8.6c-1-.1-2.4-.4-3.1-1.1-.9-.8-2.8-3-4-4.7v-.1c1-1.1 2.3-2.6 3.4-4l.5-1.1c1.1 0 2.5.2 3 .3l-.2.3c-.4.2-1.9.7-2.6 1-.7.7-1.2 1.2-2.3 2.5v.1c1.7 2.2 4 4.9 5.6 6.8h-.3zm6.8-9.4c0-2.2 0-4.4-.1-6.5l-1.3-.6.1-.2c.6-.3 2-.6 3.3-.8-.1 2.7-.1 5.3-.1 7.5.7-.3 2-1.1 2.8-1.1 2.3 0 5 1.7 5 5.2 0 4.2-3.5 5.9-5.8 5.9-.5 0-1.6-.4-2.3-.7-.6.3-1.3.6-1.7.7l.1-9.4zm1.9 8.1c.3.1 1 .3 1.6.3 2.5 0 4.1-2 4.1-4.7 0-2.4-1.4-4.3-3.8-4.3-.7 0-1.4.2-1.9.5v8.2zm9.7-9c.4-.2 2.1-.8 2.7-.8.1.4.2 1.6.2 2.4 1-1.8 2.4-2.4 3.3-2.4.5 0 .8.1 1 .3-.1.5-.4 1.8-.8 2.5l-.2.1c-.2-.3-.5-.8-.9-1.7-.1 0-.1-.1-.3-.1-.8 0-1.7.9-2.2 2.2v6.4l2.3.7-.1.3h-5.7l.1-.3 1.3-.7c.2-3.4.2-6.7.2-8l-1.2-.7.3-.2zm18.8 4.6c0 3.4-2.4 5.6-5.4 5.6-2.6 0-5.3-2-5.3-5.4 0-3.6 2.9-5.7 5.4-5.7 2.9.1 5.3 2.3 5.3 5.5zm-8.5 0c0 2.4 1.2 5.1 3.3 5.1 2.1 0 2.9-2.7 2.9-4.8 0-2.3-1-5.1-3.1-5.1-2.2-.1-3.1 2.6-3.1 4.8zm13.6-4.9l-.8.8c.3 1.2 1.1 3.4 2.3 6.9h.1c.8-2.1 1.6-4 2.2-5.7l-.2-1.5c.2-.2 1-.6 1.6-.8l.1.1.2 1.8c.6 1.7 1.5 3.7 2.4 6.1h.1c.8-2.4 1.4-4.3 2.2-7l-1.1-.8.1-.3h3.5l-.1.3c-.6.3-1 .6-1.4.9-.3.6-1.7 4.5-3.1 8.6-.2.4-.6.8-.8 1.1h-.1c-.8-2.1-2.1-5.3-2.9-7.3-.9 2.2-1.4 3.4-2.5 6.1-.2.4-.6.9-.8 1.1h-.1c-.8-2.4-3.1-8.7-3.5-9.8-.4-.3-.8-.6-1.4-.9l.1-.3h4.3l-.4.6zm14.8 1.2l-1.2-.6.1-.2c.4-.2 2.3-.8 3.1-.9l-.1 1.9h.1c1.8-1.5 2.8-2 3.8-2 2.4 0 3.1 1.9 3.1 3.6v5.7c0 .3.1.4.3.5l1.4.6-.1.3h-4.7l.1-.3.8-.8c.1-.9.1-2.7.1-5.8 0-1.9-1.1-2.6-2.3-2.6-1.1 0-2.1.8-2.6 1.3 0 1.9 0 6.8.1 7.1l1.3.8-.1.3h-4.8l.1-.3 1.3-.7c.1-.3.1-2.7.1-5.8l.1-2.1zm16.4 8.8l1.5-.8c.1-.3.1-2.2.1-5v-3.5l-1.6-.3.3-.6h1.2c0-2.1.4-3.8 1.6-5.1 1-1.1 2.2-1.6 3.3-1.6.8 0 1.5.3 1.7.5-.2.7-.6 1.6-.8 2.1l-.2.1c-.2-.3-.6-1.1-.9-2h-.3c-1.4 0-2.2 1.6-2.4 3.9-.1.8-.1 1.6-.1 2.2h3l-.4.6-2.6.3c0 .5-.1 1.9-.1 3.4 0 3.6 0 4.8.1 5.1l2.1.8-.1.3h-5.8l.4-.4zm17.5-5.1c0 3.4-2.4 5.6-5.4 5.6-2.6 0-5.3-2-5.3-5.4 0-3.6 2.9-5.7 5.4-5.7 2.9.1 5.3 2.3 5.3 5.5zm-8.5 0c0 2.4 1.2 5.1 3.3 5.1s2.9-2.7 2.9-4.8c0-2.3-1-5.1-3.1-5.1-2.2-.1-3.1 2.6-3.1 4.8zm14.7-1.4c.6-.9 1.1-1.9 1.4-2.6.1-.4.1-.7.1-1.1h3.4l-.1.3c-1.2.5-1.8.7-2.4 1.1-.7.9-1.1 1.5-2.1 3 .8 1.5 2.1 3.7 2.5 4.4.3.4.5.7.8.8l1.7.7-.1.3c-.7 0-2.5.1-3.7.1-.5-1.1-.9-2-2.3-4.5h-.1c-1.1 1.8-1.4 2.4-1.9 3.3.1.3.3.5.7.9l-.1.2h-3.8l.1-.3 1.4-.7c.4-.2.6-.4.9-.7.7-.9 1.1-1.6 2.3-3.5-1.5-2.7-2.1-3.8-2.5-4.3-.4-.2-.9-.5-1.9-.8l.1-.3h3.8l-.1.8 1.9 2.9zm11.2-3.4c.6-.2 2.5-.6 3.2-.6v9c0 1-.2 2.5-1 4-1.1 2.2-2.2 3.1-3 3.8l-.4-.2v-.1c2.3-1.9 2.5-4.1 2.5-7.4 0-2.1 0-5.8-.1-7.5-.4-.2-.9-.4-1.3-.6l.1-.4zm2.3-5.7c.3.1.9.7 1.1 1.2l-.1.2c-.2.4-.8 1-1.1 1.2h-.2c-.4-.2-.9-.8-1.1-1.2l.1-.2c.3-.5.8-1 1.1-1.2h.2zm3.2 5.8l.1-.2c.6-.2 2.4-.4 3.3-.4-.1 1.1-.2 3-.2 7.1 0 .9.2 1.5.4 1.8.4.4 1 .7 1.7.7 1 0 2.1-.6 2.6-1.4v-6.7c-.3-.3-.7-.5-1.6-.9l.1-.2c1-.2 2.7-.3 3.5-.3-.1 1.1-.1 2.7-.1 9 .5.8 1.3 1.1 1.9 1.3l-.1.2c-.2.1-.8.3-1.3.3-.8 0-2.1-.2-2.4-1.9h-.1c-1 1.1-2.1 1.9-3.5 1.9-.8 0-1.7-.3-2.3-.8-.6-.6-.9-1.5-.9-2.8 0-1.7.1-4.2.1-6l-1.2-.7zm14.2.9l-1.2-.5.1-.2c.5-.2 2.4-.8 3.1-.9l-.1 1.9c1.5-1.2 2.7-2 3.7-2 1.3 0 2.4.7 2.8 2 1.7-1.4 2.8-2 3.9-2 1.9 0 3.1 1.4 3.1 3.5v5.9c0 .2.2.3.5.5l1.2.6-.1.2h-4.8l.1-.3 1-.8c.1-.9.1-2.7.1-5.6 0-1.2-.3-2.9-2.2-2.9-.9 0-1.8.4-2.7 1.3.1.4.1 1.2.1 2v5.1l1.3.8-.1.3h-4.5l.1-.3 1.1-.8c.1-1.5.1-3.6.1-5.8 0-1.2-.4-2.7-2.3-2.7-.8 0-1.8.6-2.5 1.2 0 3 0 6.5.1 7.2l1.4.7-.1.3h-4.8l.1-.3 1.3-.8c.1-.5.1-2.7.1-5l.1-2.6zm21-.1c1.7-1.1 2.6-1.6 3.4-1.6 1.9 0 4.5 1.6 4.5 5 0 4.2-3.5 6-5.8 6-.4 0-1.3-.4-2-.8h-.1c0 1.4.1 3.4.1 4.9l2.2.8-.1.3c-1.1 0-2.1-.1-3.2-.1-.8 0-1.6 0-2.4.1l.1-.3 1.3-.8c0-1.1.1-3.7.1-7v-6.8l-1.3-.7.1-.2c.4-.2 2.4-.6 3.1-.7v1.9zm.1 8.1c.4.2 1.1.5 1.8.5 2 0 3.9-1.7 3.9-4.7 0-2.2-1.3-4.2-3.4-4.2-.6 0-1.4.2-2.3.9v7.5zm15-9.1c.4-.3.9-.5 1.2-.6l.1.1c0 .6-.3 2.3-.5 2.8l-.2.1c-.3-.5-.7-1.3-.8-1.8-.1-.1-.5-.4-1.4-.4-1.2 0-1.9.8-1.9 1.7 0 .6.2 1.1 1 1.4.9.5 1.9.9 2.5 1.2 1.3.6 1.9 1.5 1.9 2.6 0 2.5-2.5 3.3-4 3.3-1.2 0-2.6-.5-3.4-1 0-.5.5-2.2.6-2.5l.2-.1c.3.6.8 2.3 1.1 2.8.3.1.8.2 1.4.2 1.2 0 2.3-.8 2.3-1.9 0-.6-.2-1.1-1-1.5-.6-.3-1.3-.7-2.2-1.1-1.2-.6-2-1.4-2-2.8 0-1.6 1.2-3 3.4-3 .5 0 1.1.2 1.7.5zm19 4.9c0 3.4-2.4 5.6-5.4 5.6-2.6 0-5.3-2-5.3-5.4 0-3.6 2.9-5.7 5.4-5.7 3 .1 5.3 2.3 5.3 5.5zm-8.4 0c0 2.4 1.2 5.1 3.3 5.1s2.9-2.7 2.9-4.8c0-2.3-1-5.1-3.1-5.1-2.2-.1-3.2 2.6-3.1 4.8zm9.2-5.2c.6 0 1.2.1 2.3.1.6 0 1.2 0 1.9-.1l-.1.3-.6.8c.5 1.5 1.4 3.7 2.7 7.1.5-1.3 1.1-2.8 2.5-7l-.7-.9.1-.3c.3 0 .9.1 1.3.1.6 0 1.4 0 1.8-.1l-.1.3c-.6.3-1 .6-1.4 1-.5.9-2.6 6.1-3.4 8.4-.2.4-.5 1-.8 1.2h-.2c-.2-.4-2.7-6.6-3.9-9.6-.4-.4-.9-.7-1.4-1v-.3zm13.7 4.7v.5c0 2.9 1.8 4.6 4 4.6.3 0 .5 0 .7-.1.8-.6 1.5-1.1 1.9-1.4l.1.2c-.2.6-1 1.5-1.3 1.7-.5.3-1.8.6-2.5.6-2.9 0-5-2.1-5-5.3 0-3.4 2.5-5.7 5.2-5.7 2.2 0 4 1.5 4 4 0 .3-.1.5-.2.7-.2.1-1.1.3-2.2.3l-4.7-.1zm4.9-.7c.1-.1.1-.5.1-.8 0-1.3-.6-2.9-2.1-2.9-2.1 0-2.9 2.6-2.9 3.7h4.9zm3.9-3.4c.4-.2 2.1-.8 2.7-.8.1.4.2 1.6.2 2.4 1-1.8 2.5-2.4 3.3-2.4.5 0 .8.1 1 .3 0 .5-.4 1.8-.8 2.5l-.2.1c-.2-.3-.5-.8-.9-1.7-.1 0-.1-.1-.3-.1-.8 0-1.7.9-2.2 2.2v6.4l2.3.7v.3h-5.7v-.3l1.3-.7c.2-3.4.2-6.7.2-8l-1.2-.7.3-.2zm20.1-.5l-.4.6-3.2.3v7.3c0 .4.2.8.4.9.3.2.6.4 1.2.4.9 0 1.5-.3 1.9-.6h.1v.5c-.5.7-1.5 1.3-2.7 1.3-.9 0-1.7-.4-2.2-1-.4-.5-.5-1.1-.5-2.6v-6.3l-1.6-.3.4-.6h1.2c.1-.6.4-1.8.7-2.7.3-.4 1-.8 1.3-.8l-.1 3.5 3.5.1zm10.8 8.8c0 .5.1.6.4.7l1.3.7-.1.3c-1 0-2.5 0-3.8-.2.1-1 .3-2.6.3-6.1 0-2.8-1.4-3.3-2.6-3.3-.9 0-1.7.3-2.4.9 0 2.5 0 7.3.1 7.7l1.7.8-.1.2h-5.2l.1-.2 1.3-.8c.1-.3.1-2.6.1-5.7s0-5.9-.1-8.8l-1.3-.6.1-.2c.7-.2 1.8-.5 3.3-.7 0 2.5-.1 5.2-.1 7.8 1.5-1.2 2.5-1.5 3.3-1.5 2.4 0 3.5 1.9 3.5 3.6l.2 5.4zm4.9-4.2v.5c0 2.9 1.8 4.6 4 4.6.3 0 .5 0 .7-.1.8-.6 1.5-1.1 1.9-1.4l.1.2c-.2.6-1 1.5-1.3 1.7-.5.3-1.8.6-2.5.6-2.9 0-5-2.1-5-5.3 0-3.4 2.5-5.7 5.2-5.7 2.2 0 4 1.5 4 4 0 .3-.1.5-.2.7-.2.1-1.1.3-2.2.3l-4.7-.1zm4.8-.7c.1-.1.1-.5.1-.8 0-1.3-.6-2.9-2.1-2.9-2.1 0-2.9 2.6-2.9 3.7h4.9zm13.5 6.3l-.1.3h-5.1l.1-.2 1.5-.8c0-1 .1-2.6.1-8.4 0-2.1 0-5-.1-6.1l-1.3-.6.1-.3c.7-.3 2.3-.5 3.3-.6 0 2.5-.1 5-.1 7.6 0 4.8 0 6.7.1 8.5l1.5.6zm6.9-6.3c0-2.6-1.1-3.2-2.3-3.2-.5 0-1.1.2-1.5.4 0 .7-.1 1.7-.2 2.5l-.1.1c-.2-.1-1.3-1.2-1.5-2 .5-.5 2-1.3 2.8-1.6.6-.3 1.2-.4 1.6-.4 2.4 0 3.2 2.1 3.2 3.7v5.4c.6.8 1.4 1.2 1.9 1.3l-.1.2c-.2.1-.6.3-1.1.3-1.7 0-2.2-.8-2.5-1.4-1.1 1-2.2 1.4-2.9 1.4-2.1 0-2.9-1.6-2.9-2.7s.4-1.6.9-1.9c.6-.4 3-1.3 4.9-1.7l-.2-.4zm-1.8 5.6c.5 0 1.2-.2 1.6-.7.1-.2.2-.3.2-.5v-3.2c-1 .3-2.4.8-3 1.1-.5.3-.8.6-.8 1.3.1 1.5 1.3 2 2 2zm15.2-9.3c-1.2 2.1-4.4 7.1-5.9 9.6 1.7 0 4.2-.1 4.6-.2.6-.9 1.3-1.9 1.6-2.3h.2c0 .6-.3 2.6-.5 3.2-1.2 0-2.9-.1-4.9-.1h-3.6v-.1c1.9-2.7 4.1-6.2 6.2-9.6-.5 0-1.6 0-4.2.1-.3.6-.9 1.7-1.2 2h-.2c-.1-.5-.2-2.6-.1-3l.1-.1 1.5.2h6.5l-.1.3zm8.8-.3c.4 0 1.1.1 1.6.1.7 0 1.4-.1 1.9-.1l-.1.3c-.5.3-1 .6-1.4.9-1.2 2.6-2.9 7.1-5.3 12.7-.2.7-.4 1.8-.6 2.5-.1.1-.2.1-.5.1-.6 0-1.3-.4-1.5-.6.2-.3 1.3-1.7 1.9-2.4.3-.5 1.1-2.2 1.4-3.1-.2-.5-2.3-6.2-3.6-9.1-.4-.4-.7-.6-1.5-1l.1-.3c.7 0 1.5.1 2.3.1.7 0 1.3 0 2-.1l-.1.3-.7.7c.3.9 1.1 3.2 2.5 6.8 1-2.5 2-5.4 2.5-6.8l-1.1-.8.2-.2zm18.7 9c.7.8 1.4 1.2 1.8 1.3l-.1.2c-.2.1-.6.2-1.1.2-.8 0-2-.4-2.5-1.4-.5.3-1.9 1.4-2.9 1.4-2.2 0-5-1.7-5-5.3s3.1-5.8 5.8-5.8c.3 0 1.1.2 1.9.8 0-1.8 0-3.5-.1-5.5l-1.3-.6.1-.2c.5-.2 1.7-.5 3.3-.7 0 2.6-.1 5.1-.1 7.7l.2 7.9zm-2-7.8c-.3-.2-1.1-.5-1.7-.5-2.4 0-3.9 2.2-3.9 4.6s1.5 4.3 3.8 4.3c.5 0 1.2-.2 1.9-.6v-7.8zm15.5 4c0 3.4-2.4 5.6-5.4 5.6-2.6 0-5.3-2-5.3-5.4 0-3.6 2.9-5.7 5.4-5.7 2.9.1 5.3 2.3 5.3 5.5zm-8.5 0c0 2.4 1.2 5.1 3.3 5.1s2.9-2.7 2.9-4.8c0-2.3-1-5.1-3.1-5.1-2.2-.1-3.1 2.6-3.1 4.8zm17.7-4.1c.4.4.9 1.4.9 2.5 0 2.3-1.9 3.8-4.1 3.8-.7 0-1.4-.2-2-.4-.4.4-.7.9-.7 1.1 0 .5.7 1.1 1.1 1.1 1-.1 3.5-.2 5.2 0 .6.1 1 .2 1.4.6.4.3.8 1 .8 1.8 0 1.3-.8 2.5-1.9 3.3-1 .8-2.6 1.6-4.4 1.6-2.3 0-4-1.1-4-2.8 0-.3.1-.5.3-.7l2.1-2.2c-.4-.2-.7-.4-1-.7-.4-.4-.9-1-.9-1.5 0-.3.8-1.1 1.7-1.9-.9-.5-1.6-1.6-1.6-3 0-1.8 1.4-3.9 4.4-3.9.7 0 1.2.1 1.8.2.8.1 1.3.2 1.6.3l2-.9v.2l-1 1.5h-1.7zm-5 10c-.5.4-1.1 1.3-1.1 1.9 0 1.6 1.7 2.4 3.2 2.4 2.1 0 3.7-.9 3.7-2.9 0-.8-.5-1.4-1.3-1.5-.6-.1-1.2-.1-2.5-.1-1.4 0-1.8.1-2 .2zm-.3-7.6c0 1.6.7 3.3 2.2 3.3 1.4 0 2.1-1.7 2.1-3.4 0-1.3-.6-3.1-2.2-3.1s-2.1 1.8-2.1 3.2zM6.5 448.1l-4.6-.2c-.2.6-1.1 2-1.3 2.3H.5c-.1-.5 0-2.5 0-3.2l.1-.1c.3.1.9.2 1.2.4h11.4c.5 0 1.3-.1 1.5-.3v-.6l1.9-.4.1.1c0 2.6-.1 5.2-.1 7.9 1.5-1.2 2.5-1.5 3.3-1.5 2.4 0 3.5 1.8 3.5 3.6v5.6c0 .5.2.6.4.7l1.3.7-.1.1c-1 0-2.4 0-3.7-.2.1-1 .3-2.6.3-6.1 0-2.9-1.5-3.3-2.6-3.3-.9 0-1.8.3-2.4.9 0 2.5 0 7.4.1 7.8l1.7.8v.1c-.9 0-1.8-.1-2.8-.1-.8 0-1.5 0-2.3.1l.1-.1 1.3-.8c.1-.3.1-2.7.1-5.8 0-2.5 0-5-.1-8.3-.3-.1-.9-.3-1.5-.3l-4.8.2v6.3c0 6.4.1 7.1.1 7.9l2.4.9v.1c-1.1 0-2.3-.1-3.4-.1s-2.3 0-3.4.1l.1-.1 2.3-.9c.1-.8.1-1.4.1-7.1l-.1-7.1zm21.6 9.2v.5c0 3 1.8 4.8 4.1 4.8.3 0 .5 0 .7-.1.8-.6 1.5-1.2 1.9-1.4v.1c-.1.6-.9 1.5-1.2 1.7-.5.3-1.8.6-2.6.6-2.9 0-5-2.1-5-5.3 0-3.4 2.6-5.7 5.2-5.7 2.1 0 3.9 1.5 3.9 3.9 0 .3-.1.5-.2.6-.2.1-1.1.3-2.2.3h-4.6zm4.9-.5c.1-.1.2-.5.2-.9 0-1.2-.6-3-2.1-3-2.1 0-2.9 2.7-3 3.8l4.9.1zm17.8 3.2v7.9l2 .9v.1c-1 0-2-.1-3-.1-.9 0-1.8 0-2.6.1v-.1l1.8-.8c0-2.3 0-4.2.1-5.6-.9.5-1.9 1.1-2.7 1.1-2.7 0-5-2-5-5.3 0-3 2.5-5.7 5.5-5.7.9 0 1.7.4 2.4 1 .5-.4 1.7-.9 2.4-1-.1.6-.5 1.4-.8 1.8l-.1 5.7zm-1.8-6c-.3-.2-.9-.6-1.9-.6-2.1 0-3.8 2-3.8 4.7 0 2.8 1.8 4.4 3.7 4.4.7 0 1.4-.2 2-.6V454zm4-.9l.1-.1c.5-.1 2.5-.4 3.3-.3-.1 1.1-.2 3-.2 7.1 0 .9.2 1.5.4 1.8.4.4 1.1.7 1.7.7.9 0 2.2-.7 2.7-1.5v-7l-1.6-.8.1-.1c1-.2 2.7-.3 3.5-.3-.1 1.1-.1 2.7-.1 9 .5.8 1.3 1.1 1.8 1.3v.1c-.2.1-.7.3-1.2.3-.8 0-2.2-.2-2.4-1.9-1 1.1-2.1 2-3.5 2-.8 0-1.7-.2-2.3-.8-.7-.6-.9-1.5-.9-2.7v-6.2l-1.4-.6zm12.9.1c.4-.1 1.7-.5 3-.7v4.8c0 2.6.1 4.1.1 5l1.6.8-.1.1c-.8 0-1.7-.1-2.6-.1-.7 0-1.5 0-2.4.1l.1-.1 1.4-.8c.1-1.2.1-3.2.1-5.1v-3.4l-1.2-.6zm2.2-5.7c.3.1.8.7 1 1.1l-.1.2c-.2.3-.8.9-1 1.1h-.2c-.3-.2-.8-.8-1-1.1l.1-.2c.3-.5.7-.9 1.1-1.1h.1zm9.4 5c1.4 0 2.6.5 3 .9-.2.7-.5 1.8-.9 2.4h-.1c-.2-.4-.5-1.4-.8-2.7-.2-.1-.5-.1-1-.1-2.9 0-4.2 2.4-4.2 4.9 0 2.7 1.7 4.8 4.3 4.8.2 0 .5 0 .7-.1.9-.8 1.6-1.3 2-1.5l.1.1c-.2.6-1.1 1.7-1.4 1.9-.4.1-1.5.4-2.2.4-2.2 0-5.4-1.4-5.4-5.4-.1-3.8 3-5.6 5.9-5.6zm9 10.7v.1c-.9 0-1.8-.1-2.7-.1-.9 0-1.7 0-2.6.1l.1-.1 1.4-.8c.1-.3.1-1.7.1-5.5 0-3.1 0-6.1-.1-9.5l-1.3-.6.1-.1c.7-.2 1.9-.5 3.3-.7-.1 3-.1 5.8-.1 8.7 0 2.1 0 6.9.1 7.7l1.7.8zm5.7.4c-.9-.1-2.3-.5-3.1-1.1-.8-.8-2.8-3-4-4.7v-.1c.9-1 2.2-2.5 3.4-4.1l.5-1.1c1.2 0 2.4.2 2.8.3l-.1.1c-.5.3-1.8.7-2.7 1-.7.7-1.2 1.2-2.3 2.6v.1c1.8 2.4 3.8 4.7 5.7 6.8l-.2.2zm6.3-9.4c0-2.2 0-4.4-.1-6.8l-1.3-.5.1-.1c.7-.3 2.1-.7 3.3-.7-.1 2.7-.1 5.4-.1 7.6.6-.3 2-1.1 2.8-1.1 2.3 0 5 1.7 5 5.1 0 4.1-3.5 5.9-5.7 5.9-.5 0-1.6-.4-2.3-.7-.6.3-1.3.6-1.7.6v-9.3zm1.9 8.3c.3.1.9.2 1.6.2 2.5 0 4.2-2.1 4.2-4.8 0-2.4-1.4-4.4-3.8-4.4-.7 0-1.4.2-1.9.5v8.5zm9.5-9.2c.4-.2 2-.8 2.7-.8.1.3.3 1.6.2 2.5 1-1.9 2.5-2.5 3.3-2.5.4 0 .7.1 1 .3-.1.4-.4 1.6-.7 2.5l-.1.1c-.2-.3-.5-.8-.8-1.7-.1 0-.1-.1-.3-.1-.8 0-1.6.9-2.3 2.3v6.5l2.3.8v.1c-.7 0-1.9-.1-3.4-.1-.7 0-1.8 0-2.2.1v-.1l1.4-.8c.2-3.9.2-6.9.2-8.2l-1.2-.8-.1-.1zm18.4 4.6c0 3.4-2.3 5.6-5.3 5.6-2.5 0-5.2-2-5.2-5.4 0-3.5 2.8-5.6 5.3-5.6 2.8 0 5.2 2.3 5.2 5.4zm-8.4 0c0 2.4 1.2 5.2 3.4 5.2s2.9-2.8 2.9-5-1-5.2-3.1-5.2c-2.3.1-3.2 2.9-3.2 5zm13.2-5l-.8.9c.4 1.2 1.2 3.5 2.4 7.1h.1c.8-2.1 1.6-4.1 2.3-5.8l-.1-1.5c.2-.2.9-.6 1.4-.7h.1l.2 1.8c.6 1.7 1.5 3.7 2.5 6.2h.1c.8-2.4 1.4-4.4 2.2-7.1l-1.1-.8.1-.1c.5 0 1 .1 1.6.1s1.2-.1 1.8-.1v.1l-1.5.9c-.3.5-1.8 4.7-3.1 8.8-.2.4-.6.8-.7 1.1h-.1c-.8-2.1-2.3-5.6-3-7.4-1 2.3-1.5 3.5-2.6 6.3-.2.4-.6.9-.8 1.1h-.1c-.8-2.4-3.3-9.3-3.6-9.9-.4-.3-.8-.6-1.3-.8l.1-.1c.7 0 1.4.1 2.2.1.5-.2 1.1-.3 1.7-.2zm14.9 1.2l-1.2-.6.1-.1c.4-.2 2.3-.8 3-.9l-.1 2h.1c1.8-1.5 2.7-2 3.8-2 2.3 0 3.1 1.9 3.1 3.5v5.9c0 .3.1.4.3.5l1.4.7-.1.1c-.4 0-1.7-.1-2.6-.1-.6 0-1.3 0-1.8.1v-.1l.8-.8c.1-1 .2-2.9.2-6 0-1.9-1.1-2.6-2.3-2.6s-2.2.9-2.6 1.3c0 1.9 0 6.9.1 7.3l1.2.8v.1c-.6 0-1.5-.1-2.3-.1-.8 0-1.8 0-2.4.1l.1-.1 1.3-.8c.1-.3.1-2.8.1-5.9v-2.3h-.2zm15.6 9.1l1.5-.9c.1-.3.1-2.3.1-5.1v-3.7l-1.6-.3.3-.5h1.2c0-2.2.4-3.9 1.6-5.2 1.1-1.2 2.3-1.7 3.4-1.7.8 0 1.5.3 1.7.5-.2.6-.6 1.6-.9 2h-.1c-.2-.3-.6-1.1-.9-2.1h-.3c-1.5 0-2.4 1.8-2.5 4.1-.1.9-.1 1.7-.1 2.3h2.9l-.4.5-2.6.3c0 .5-.1 2-.1 3.5 0 3.6 0 4.9.1 5.2l2.1.9-.1.1c-1 0-2.1-.1-3.3-.1-.4.2-1.2.2-2 .2zm17.2-5.3c0 3.4-2.3 5.6-5.4 5.6-2.5 0-5.2-2-5.2-5.4 0-3.5 2.8-5.6 5.3-5.6 2.9 0 5.3 2.3 5.3 5.4zm-8.4 0c0 2.4 1.2 5.2 3.4 5.2s2.9-2.8 2.9-5-1-5.2-3.1-5.2c-2.4.1-3.2 2.9-3.2 5zm14.3-1.3c.6-.9 1.2-2.1 1.5-2.8.1-.4.1-.6 0-1 .4 0 .7.1 1 .1.7 0 1.4 0 2.3-.1v.1c-1.1.5-1.7.7-2.4 1.1-.7 1-1.1 1.6-2.1 3.1.8 1.5 2.1 3.8 2.6 4.5.3.5.5.7.8.8l1.7.7-.1.1c-.8 0-2.5.1-3.7.1-.4-.9-.9-1.9-2.3-4.6h-.1c-1.1 1.9-1.4 2.5-1.9 3.5.2.3.4.5.8.9l-.1.1c-.3 0-1-.1-1.4-.1-.8 0-1.5 0-2.2.1v-.1l1.4-.7c.4-.2.6-.3.8-.7.7-1 1.2-1.7 2.4-3.6-1.5-2.7-2.2-4-2.6-4.5-.4-.2-1-.5-1.8-.8v-.1c.8 0 1.5.1 2.3.1.6 0 1 0 1.5-.1l-.1.7 1.7 3.2zm10.7-3.5c.6-.2 2.5-.6 3.1-.6v9.1c0 .9-.1 2.4-1 4-1.1 2.1-2.1 3.1-2.9 3.6l-.3-.2v-.1c2.2-1.9 2.4-3.8 2.4-7.3 0-2.3 0-6-.1-7.8l-1.2-.6v-.1zm2.4-5.6c.3.1.8.7 1 1.1l-.1.2c-.2.3-.7.9-1 1.1h-.1c-.3-.2-.8-.7-1-1.1l.1-.2c.3-.4.7-.9 1.1-1.1zm2.8 5.6l.1-.1c.6-.1 2.4-.4 3.3-.3-.1 1.1-.2 3-.2 7.1 0 .9.2 1.5.4 1.8.4.4 1.1.7 1.7.7.9 0 2.2-.7 2.7-1.5v-7l-1.6-.8.1-.1c1-.2 2.7-.3 3.5-.3-.1 1.1-.1 2.7-.1 9 .5.8 1.3 1.1 1.8 1.3v.1c-.2.1-.7.3-1.2.3-.8 0-2.2-.2-2.4-1.9h-.1c-1 1.1-2.1 2-3.5 2-.8 0-1.7-.2-2.3-.8-.6-.6-.9-1.5-.9-2.7 0-1.8.1-4.3.1-6.2l-1.4-.6zm14.1.9l-1.2-.5.1-.1c.5-.2 2.3-.8 3-.9l-.1 2c1.5-1.2 2.7-2 3.7-2 1.3 0 2.3.7 2.8 2 1.8-1.4 2.8-2 3.8-2 1.9 0 3.1 1.4 3.1 3.5v6c0 .1.2.3.5.5l1.1.6v.1c-.9 0-1.8-.1-2.6-.1-.7 0-1.5 0-2.1.1v-.1l1-.9c.1-.9.2-2.9.2-5.8 0-1.1-.3-2.8-2.2-2.8-1 0-1.8.4-2.7 1.3.1.4.1 1.2.1 2.1v5.3l1.3.8-.1.1c-.6 0-1.5-.1-2.2-.1s-1.6 0-2.2.1l.1-.1 1.1-.8c.1-1.5.1-3.8.1-6 0-1.1-.4-2.6-2.3-2.6-.8 0-1.8.6-2.5 1.2 0 3.1 0 6.8.1 7.5l1.4.8v.1c-.5 0-1.4-.1-2.5-.1-.7 0-1.7 0-2.2.1v-.1l1.3-.8c.1-.4.1-2.7.1-5.1V454zm20.6.2c1.7-1.1 2.6-1.6 3.4-1.6 1.9 0 4.4 1.6 4.4 5 0 4.2-3.5 6-5.8 6-.3 0-1.3-.4-1.9-.8h-.1c0 1.3.1 3.4.1 5.2l2.2.9-.1.1c-1.1 0-2.2-.1-3.2-.1-.8 0-1.6 0-2.3.1l.1-.1 1.3-.8c0-1.3.1-4 .1-7.2V454l-1.3-.7.1-.1c.4-.2 2.4-.6 3-.7v1.7zm.1 8.1c.4.2 1.1.4 1.8.4 2 0 3.9-1.7 3.9-4.9 0-2.1-1.2-4.2-3.4-4.2-.5 0-1.4.2-2.3 1v7.7zm14.6-9.2c.4-.3.9-.5 1.2-.6l.1.1c-.1.6-.3 2.2-.6 2.7l-.1.1c-.3-.5-.7-1.4-.8-1.8-.1-.1-.5-.4-1.4-.4-1.2 0-1.9.9-1.9 1.8 0 .6.2 1.1 1 1.5 1 .5 1.7.8 2.4 1.1 1.3.6 2 1.4 2 2.7 0 2.4-2.4 3.2-3.9 3.2-1.2 0-2.6-.5-3.4-1.1.1-.6.5-2.1.6-2.5l.1-.1c.3.6.8 2.4 1 2.9.3.1.8.2 1.4.2 1.2 0 2.3-.8 2.3-2 0-.6-.2-1.2-1-1.6-.6-.3-1.2-.6-2.1-1.1-1.2-.6-2-1.4-2-2.8 0-1.6 1.3-3 3.4-3 .6.1 1.2.3 1.7.7zm18.4 4.8c0 3.4-2.3 5.6-5.4 5.6-2.5 0-5.2-2-5.2-5.4 0-3.5 2.8-5.6 5.3-5.6 2.9 0 5.3 2.3 5.3 5.4zm-8.4 0c0 2.4 1.2 5.2 3.4 5.2s2.9-2.8 2.9-5-1-5.2-3.1-5.2c-2.3.1-3.2 2.9-3.2 5zm9.1-5.1c.5 0 1.2.1 2.2.1.5 0 1.1 0 1.7-.1v.1l-.5.9c.5 1.5 1.4 3.7 2.8 7.3.5-1.4 1.1-2.8 2.6-7.2l-.6-1 .1-.1c.3 0 .8.1 1.1.1.6 0 1.4 0 1.7-.1v.1c-.5.4-.9.7-1.4 1-.6 1.1-2.6 6.3-3.5 8.5-.2.4-.5.9-.7 1.2h-.2c-.2-.4-3-7.5-4-9.8-.5-.4-.9-.6-1.3-1zm13.5 4.5v.5c0 3 1.8 4.8 4.1 4.8.3 0 .5 0 .7-.1.8-.6 1.5-1.2 1.9-1.4v.1c-.1.6-.9 1.5-1.2 1.7-.5.3-1.8.6-2.6.6-2.9 0-5-2.1-5-5.3 0-3.4 2.6-5.7 5.2-5.7 2.1 0 3.9 1.5 3.9 3.9 0 .3-.1.5-.2.6-.2.1-1.1.3-2.2.3h-4.6zm4.9-.5c.1-.1.2-.5.2-.9 0-1.2-.6-3-2.1-3-2.1 0-2.9 2.7-3 3.8l4.9.1zm3.7-3.5c.4-.2 2-.8 2.7-.8.1.3.3 1.6.2 2.5 1-1.9 2.5-2.5 3.3-2.5.4 0 .7.1 1 .3 0 .4-.4 1.6-.7 2.5l-.1.1c-.2-.3-.5-.8-.8-1.7-.1 0-.1-.1-.3-.1-.8 0-1.6.9-2.3 2.3v6.5l2.3.8v.1c-.7 0-1.9-.1-3.4-.1-.7 0-1.8 0-2.2.1v-.1l1.4-.8c.2-3.9.2-6.9.2-8.2l-1.2-.8-.1-.1zm19.3-.5l-.4.5-3.1.3v7.7c0 .3.2.6.4.8.3.2.6.4 1.2.4.8 0 1.5-.3 1.9-.6h.1v.4c-.5.7-1.4 1.3-2.6 1.3-.8 0-1.7-.4-2.2-1-.4-.5-.5-1.1-.5-2.6v-6.4l-1.5-.3.3-.5h1.2c.1-.5.4-1.7.7-2.6.2-.4.9-.8 1.2-.8l-.1 3.4h3.4zm10.6 8.9c0 .5.2.6.4.7l1.3.7-.1.1c-1 0-2.4 0-3.7-.2.1-1 .3-2.6.3-6.1 0-2.9-1.5-3.3-2.6-3.3-.9 0-1.8.3-2.4.9 0 2.5 0 7.5.1 7.8l1.7.8v.1c-.9 0-1.9-.1-2.8-.1-.8 0-1.5 0-2.3.1l.1-.1 1.3-.8c.1-.3.1-2.7.1-5.8s0-6-.1-9l-1.3-.6v-.1c.7-.2 1.8-.5 3.2-.7 0 2.7-.1 5.3-.1 8 1.5-1.2 2.5-1.5 3.3-1.5 2.4 0 3.5 1.8 3.5 3.6l.1 5.5zm4.7-4.4v.5c0 3 1.8 4.8 4.1 4.8.3 0 .5 0 .7-.1.8-.6 1.5-1.2 1.9-1.4v.1c-.1.6-.9 1.5-1.2 1.7-.5.3-1.8.6-2.6.6-2.9 0-5-2.1-5-5.3 0-3.4 2.6-5.7 5.2-5.7 2.1 0 3.9 1.5 3.9 3.9 0 .3-.1.5-.2.6-.2.1-1.1.3-2.2.3h-4.6zm4.9-.5c.1-.1.2-.5.2-.9 0-1.2-.6-3-2.1-3-2.1 0-2.9 2.7-3 3.8l4.9.1zm12.8 6.4l-.1.1c-.8 0-1.7-.1-2.5-.1s-1.7 0-2.6.1l.1-.1 1.5-.9c0-1.1.1-2.7.1-8.5 0-2.1 0-5.2-.1-6.4l-1.3-.7.1-.1c.6-.3 2.2-.5 3.2-.6 0 2.6-.1 5.2-.1 7.7 0 4.8 0 6.7.1 8.6l1.6.9zm6.8-6.4c-.1-2.7-1-3.3-2.4-3.3-.5 0-1.1.2-1.6.5 0 .7 0 1.6-.1 2.5h-.1c-.2-.1-1.2-1.1-1.5-1.9.5-.5 2.1-1.3 2.8-1.6.6-.3 1.2-.4 1.6-.4 2.4 0 3.1 2.1 3.1 3.7v5.5c.6.8 1.4 1.1 1.9 1.3l-.1.1c-.2.1-.6.3-1.1.3-1.7 0-2.3-.8-2.5-1.3-1.2 1-2.1 1.4-2.9 1.4-2 0-2.8-1.6-2.8-2.6s.4-1.6.9-1.8c.5-.4 3-1.3 4.8-1.7v-.7zm-1.9 5.7c.5 0 1.2-.2 1.7-.7.1-.2.2-.3.2-.5v-3.4c-1 .2-2.5.8-3 1.1-.5.3-.7.6-.7 1.4 0 1.5 1.1 2.1 1.8 2.1zm14.9-9.5c-1.2 2.1-4.3 7.1-5.9 9.7 1.8 0 4.4-.1 4.7-.2.6-.9 1.2-1.9 1.6-2.3h.1c0 .6-.3 2.5-.5 3.1-1.2 0-2.9-.1-4.9-.1h-3.5v-.1c1.9-2.7 4-6.3 6.2-9.7-.5 0-1.7 0-4.4.1-.3.6-.9 1.7-1.2 2.1h-.1c-.1-.5-.2-2.5-.1-2.9l.1-.1 1.4.2h6.5v.2zm8.7-.2c.4 0 1 .1 1.5.1.7 0 1.3-.1 1.8-.1l-.1.1c-.4.3-.9.5-1.3.8-1.4 3-2.9 7.2-5.4 13.1-.1.5-.4 1.7-.6 2.4h-.5c-.5 0-1.2-.3-1.3-.5.2-.3 1.3-1.7 1.8-2.3.2-.4 1.2-2.5 1.6-3.4-.2-.4-2.2-6-3.7-9.3-.4-.3-.8-.5-1.4-.9v-.1c.7 0 1.5.1 2.3.1.6 0 1.2 0 1.8-.1v.1l-.7.8c.2.8 1.1 3.2 2.6 7 1-2.6 2.1-5.5 2.5-6.9l-1.1-.8.2-.1zm18 9.1c.7.8 1.4 1.1 1.8 1.3v.1c-.2.2-.6.3-1 .3-.8 0-2-.4-2.5-1.4-.5.4-1.9 1.4-2.8 1.4-2.3 0-5-1.7-5-5.2s3-5.8 5.8-5.8c.2 0 1.1.2 1.9.8 0-1.7 0-3.7-.1-5.8l-1.3-.6c.5-.2 1.6-.5 3.2-.7 0 2.7-.1 5.2-.1 7.8l.1 7.8zm-1.9-8.1c-.3-.2-1-.5-1.7-.5-2.5 0-4 2.3-4 4.7s1.5 4.4 3.8 4.4c.5 0 1.3-.2 1.9-.6v-8zm15.1 4.1c0 3.4-2.3 5.6-5.4 5.6-2.5 0-5.2-2-5.2-5.4 0-3.5 2.8-5.6 5.3-5.6 3 0 5.3 2.3 5.3 5.4zm-8.4 0c0 2.4 1.2 5.2 3.4 5.2s2.9-2.8 2.9-5-1-5.2-3.1-5.2c-2.3.1-3.2 2.9-3.2 5zm17.3-4.2c.4.4 1 1.5 1 2.6 0 2.3-1.9 3.8-4.1 3.8-.7 0-1.4-.2-1.9-.4-.4.4-.7.9-.7 1.2 0 .5.8 1.1 1 1.1 1-.1 3.5-.2 5.2 0 .5.1.9.2 1.3.6.3.3.7.9.7 1.8 0 1.3-.8 2.4-1.9 3.3-1 .9-2.6 1.7-4.4 1.7-2.2 0-3.9-1.1-3.9-2.8 0-.3.1-.4.3-.6l2.2-2.3c-.4-.2-.6-.3-1-.7-.4-.4-.9-1-.9-1.4 0-.3.8-1.1 1.7-1.9-1-.5-1.7-1.6-1.7-3.1 0-1.8 1.3-4 4.4-4 .7 0 1.2.1 1.8.2.8.1 1.3.2 1.6.3l2-.9v.1l-1 1.4h-1.7zm-4.9 10.2c-.5.4-1 1.3-1 1.9 0 1.6 1.7 2.5 3.2 2.5 2.2 0 3.8-.9 3.8-3 0-.9-.6-1.4-1.3-1.6-.6-.1-1.2-.1-2.5-.1-1.7 0-2 .2-2.2.3zm-.3-7.7c0 1.7.7 3.5 2.2 3.5s2.1-1.8 2.1-3.6c0-1.2-.6-3.2-2.2-3.2s-2.1 1.9-2.1 3.3z" class="st1"/><path d="M164 99.2h-2.7v8.8h-2v-8.8h-2.8v-1.6h7.7l-.2 1.6zm7 5.5h-5c.1 1.6.9 2.1 1.9 2.1.7 0 1.3-.2 2-.7l.8 1.1c-.8.6-1.7 1.1-2.9 1.1-2.5 0-3.8-1.6-3.8-4.1 0-2.4 1.3-4.2 3.5-4.2s3.5 1.5 3.5 4c.1.1 0 .4 0 .7zm-1.8-1.4c0-1.3-.5-2.1-1.5-2.1-.9 0-1.5.6-1.6 2.2l3.1-.1zm9.9 4.7h-2.2l-1.6-3.1-1.6 3.1h-2.1l2.6-4.2-2.4-3.7h2.2l1.3 2.7 1.3-2.7h2.1l-2.3 3.7 2.7 4.2zm5.6-.3c-.6.4-1.3.6-2 .6-1.6 0-2.4-.9-2.4-2.6v-4.2h-1.2v-1.4h1.2v-1.8l1.9-.2v2h1.8l-.2 1.4h-1.6v4.1c0 .8.3 1.1.8 1.1.3 0 .6-.1.9-.3l.8 1.3z" class="st2"/></svg>