<svg xmlns="http://www.w3.org/2000/svg" id="Layer_1" width="368.65" height="40.14" viewBox="0 0 368.65 40.14"><defs><style>.cls-1{fill:#f16722}.cls-2{fill:#b3b4b4}</style></defs><path d="M8.21 14.08c.11.14 0 .4-.07.5-1.55 1.73-2.88 3.24-4.28 4.97 1.19 1.3 2.88 3.56 3.96 4.75.07.14.07.5-.04.58l-.9.68c-.29.22-.4.14-.61-.07-.9-1.15-3.49-4.5-4.36-5.76a.645.645 0 0 1 .11-.65c1.3-1.66 2.88-3.56 4.5-5.62.14-.14.18-.22.36-.22.14 0 1.01.47 1.33.83zm6.16 0c.07.29.11.47.04.54-1.73 1.73-3.53 3.49-4.9 5.08 1.66 1.87 3.38 3.74 4.32 4.82.07.07.11.36 0 .5-.18.22-1.08.94-1.33.9-1.69-2.02-3.35-3.85-4.93-5.83-.11-.18-.11-.43.4-1.04 1.55-1.84 3.24-3.78 4.97-5.72.14-.14.18-.14.32-.14.29 0 .97.58 1.12.9z" class="cls-1"/><path d="M42.44 24.26c.14.14.14.25.11.4-.43 1.48-.83 3.02-1.08 4.57-.07.36-.32.5-.61.54-.36.04-.76.04-2.27.04s-3.24-.11-9.32-.11c-1.94 0-3.71.18-4.25.22-.36.07-.58.07-.68.04-.07-.14-.29-.9-.29-1.12 1.76-.22 2.7-.5 2.99-1.58.14-.54.25-1.87.25-5.51v-7.38c0-3.06-.11-5-.22-5.79-.11-.83-.4-.97-2.92-.94-.14 0-.25-.22-.18-.43l.29-.65c.04-.18.11-.18.18-.18 1.08 0 2.2 0 3.35-.04 1.84-.04 3.74-.11 5.62-.22.14.11.25.79.25 1.08-2.16.25-3.02.43-3.2 1.91-.11 1.04-.22 3.46-.18 6.37l.04 4.36c.04 5.69.07 6.8.11 7.45.04.5.25.79.68.9.61.22 1.73.29 3.35.29 2.38 0 4.68-.07 5.87-1.91.4-.61.68-1.29.94-2.41.04-.14.07-.18.18-.18.18 0 .83.18 1.01.29zm3.21-4.46c-.22.07-.43.11-.65.11-.14 0-.43-.29-.43-.47 0-.22.11-.5.32-.83.65-1.01 3.28-2.56 4.21-2.88.76-.29 1.4-.43 1.98-.43 1.58 0 2.41.65 2.99 1.3.61.65.68 1.3.68 1.76 0 2.52-.07 5.04-.07 7.42-.04 1.94.32 2.63.86 2.63.65 0 1.66-.47 1.76-.5.11-.07.36.22.36.36l-.07.61c0 .18-.07.32-.22.4-.43.25-2.77.9-4 .9-.65 0-1.19-.32-1.51-1.87-1.37.61-4.1 1.8-4.54 1.8-.5 0-1.22-.11-2.05-.72-.47-.43-1.04-1.37-1.04-2.81 0-.76.58-1.37 1.55-1.87 1.87-.97 4.07-1.55 6.19-1.91.11-.47.11-1.87.11-2.59 0-1.51-.29-2.34-.61-2.63-.29-.29-1.19-.58-2.02-.58-.72 0-1.22.14-1.44.25-.14.11-.25.36-.25 1.51 0 .25 0 .4-.22.47l-1.91.58zm5.51 7.74c.43-.32.72-.54.79-.97.04-.43.11-1.8.11-2.3 0-.25-.07-.4-.18-.4-2.16.32-3.46.76-4.25 1.37-.22.14-.36.4-.36 1.04 0 1.22.36 1.98 1.62 1.98.36 0 1.33-.32 2.27-.72zm30.27 2.16c-3.71 0-5.29 0-6.77.14q-.11 0-.11-.11c0-.07 0-.5.04-.68 0-.07.07-.22.14-.25 1.37-.4 1.51-.54 1.58-1.04.11-1.01.25-2.92.25-6.52 0-1.51-.14-2.02-.5-2.52-.47-.5-1.33-1.01-2.48-1.01-.83 0-2.02.47-3.28 1.33-.25.14-.4.4-.43.72-.04.68-.07 2.84-.07 4.54 0 4 .07 4.14 1.69 4.32.22 0 .29.07.29.18s-.07.9-.14.9c-.32 0-2.34.04-3.06.04-.76 0-2.38.14-2.88.18-.11-.04-.14-.65-.14-1.01.29-.07.86-.32 1.08-.43.25-.11.4-.22.43-.61.04-.47.18-1.58.18-4.46 0-2.66-.07-3.42-.14-3.85-.07-.58-.18-.61-.86-.76-.54-.07-.68-.18-.76-.29-.04-.07-.22-.58-.14-.65 1.91-1.37 2.99-2.12 3.46-2.38.29-.14.43-.18.68-.18.22 0 .29.07.29.32l-.04 2.59c.9-.47 2.74-1.76 3.96-2.34.43-.22.86-.29 1.3-.29 1.91 0 2.99 1.04 4 2.52 2.02-1.15 2.77-1.58 3.71-1.98.61-.25 1.33-.47 2.12-.47.65 0 1.62.29 2.27.86.54.54 1.26 1.3 1.33 4.57.04 1.84.04 3.53.04 5 0 1.37.04 1.76.18 1.98.22.36.65.47 2.16.68.11.04.18.07.18.25 0 .11-.18.9-.29.9h-2.45c-1.4 0-2.52.11-3.28.18-.11 0-.18-.04-.22-.11-.07-.11-.11-.54-.14-.68 0-.07 0-.14.14-.22.36-.11.79-.36.86-.79.29-1.44.29-4.03.29-4.82 0-3.02-.4-4.1-.9-4.72-.5-.72-1.22-.97-2.41-.97-1.01 0-2.12.43-3.1 1.01-.32.22-.36.29-.36.68-.04 2.09 0 6.88.14 8.21.07.54.14.58 1.94.83.14 0 .22.11.22.29v.9zm20.41-13.03c.61.65 1.08 1.4 1.4 2.38.36-.07 1.04-.22 1.15-.11.11.07.11.18.04.32-.07.32-.32.97-.65 1.08-2.48.58-7.09 1.44-8.64 1.91-.18.04-.25.25-.25.65.11 3.53 1.98 5.04 4.39 5.04 1.66 0 3.06-.68 4.28-1.76.14-.14.58-.14.58-.04-.07.86-.11 1.12-.32 1.33-1.55 1.3-3.28 2.02-4.46 2.38-.47.14-.97.18-1.33.18-2.56 0-4.14-1.51-4.61-2.02-.54-.61-1.58-2.2-1.58-4.54 0-3.17 1.84-5.54 3.74-6.95.94-.65 2.23-1.12 3.2-1.12 1.19 0 2.45.65 3.06 1.26zM96.8 7.1c.83 1.4 2.52 5.25 2.77 5.97.04.14-.68.36-1.15.4-.76-.83-2.84-3.64-4.18-5.4-.07-.11-.04-.4.11-.54.29-.22 1.55-.9 1.87-.9.22 0 .36.11.58.47zm.79 9.68c-.22 0-.58.11-.9.32-1.08.76-1.66 2.56-1.62 4.07 1.69-.47 3.35-.72 4.97-1.15.22-.04.4-.18.4-.58 0-1.01-1.37-2.66-2.84-2.66zm8.46 11.84c.86-.29 1.01-.4 1.08-.86.07-.4.11-1.37.11-4.5v-3.17c0-.86-.07-1.08-1.48-1.48-.29-.11-.47-.58-.43-.83 1.4-.86 2.88-1.58 3.96-2.34.18-.11.36-.14.47-.14.14 0 .32.25.25.58-.07.94-.14 1.58-.14 2.7.76-.32 2.95-2.12 3.38-2.45.32-.25.72-.5 1.04-.5.97 0 1.98.9 1.98 1.73 0 .54-.86 1.58-1.19 1.87-.22.14-.43.29-.61.29-.22 0-.36-.07-.47-.25-.29-.4-.79-.83-1.37-.83-.79 0-1.8.65-2.41 1.22-.25.22-.32.68-.32 2.38v4.5c0 .9.04 1.37.14 1.55.11.18.25.29.61.25l1.98-.07c.14 0 .29.18.29.32l-.22 1.12h-4.75c-.94 0-1.84.07-2.09.07-.14 0-.22-.11-.14-.32l.32-.83zm20.78-11.95c.61.65 1.08 1.4 1.4 2.38.36-.07 1.04-.22 1.15-.11.11.07.11.18.04.32-.07.32-.32.97-.65 1.08-2.48.58-7.09 1.44-8.64 1.91-.18.04-.25.25-.25.65.11 3.53 1.98 5.04 4.39 5.04 1.66 0 3.06-.68 4.28-1.76.14-.14.58-.14.58-.04-.07.86-.11 1.12-.32 1.33-1.55 1.3-3.28 2.02-4.46 2.38-.47.14-.97.18-1.33.18-2.56 0-4.14-1.51-4.61-2.02-.54-.61-1.58-2.2-1.58-4.54 0-3.17 1.84-5.54 3.74-6.95.94-.65 2.23-1.12 3.2-1.12 1.19 0 2.45.65 3.06 1.26zm-4.25.11c-.22 0-.58.11-.9.32-1.08.76-1.66 2.56-1.62 4.07 1.69-.47 3.35-.72 4.97-1.15.22-.04.4-.18.4-.58 0-1.01-1.37-2.66-2.84-2.66zm17.53 1.18c1.26-1.15 3.82-2.48 5.51-2.48.86 0 2.09.18 2.56.36.11.04.36-.11.36-.29.04-.5.07-1.22.07-2.52.04-2.99-.04-4.1-.11-4.86-.04-.5-.11-.65-1.73-.9-.18-.04-.25-.14-.29-.29l-.07-.25c-.04-.14-.04-.22.07-.29 1.66-.68 2.84-1.19 4.21-2.02.11-.04.36-.11.47-.07.14.04.25.29.25.58-.04 3.24-.22 10.62-.22 14.79v4.36c0 1.19.04 2.95.18 3.82.11.47.29.54.5.54.4 0 1.22-.32 1.62-.5.18-.04.36-.07.4.07.11.36.18.76.18 1.04s-.22.32-.47.4c-1.08.32-3.96.97-4.32.97-.25 0-.61-.32-.68-.72-.04-.54-.07-1.37-.07-1.84-2.7 1.37-4.86 2.16-5.33 2.16-1.48 0-2.92-.86-3.71-1.62-1.4-1.33-2.05-3.31-2.05-4.68 0-1.76.58-3.82 2.66-5.76zm1.37.29c-.72.68-1.3 1.94-1.3 3.42 0 .9.14 3.42 1.98 5.08 1.12.97 2.05 1.08 2.95 1.08.68 0 2.3-.4 2.88-.79.36-.22.43-.29.47-.54.18-1.55.14-6.12-.04-7.42-.04-.36-.07-.54-.58-.9-1.04-.68-2.38-1.04-3.82-1.04-.61 0-1.8.32-2.56 1.12zm17.53-2.3c.04.36.04 1.08-.04 2.52-.07 1.69-.18 5-.18 7.2-.04 1.73 1.8 2.41 2.92 2.41 1.3 0 2.41-.54 3.35-1.19.22-.11.36-.29.4-.76.14-1.08.25-2.66.25-4.43 0-2.48-.11-3.35-.36-3.78-.22-.32-.65-.43-1.87-.72-.18-.07-.22-.14-.29-.25-.04-.11-.11-.54-.11-.68 0-.04.04-.11.14-.11.07-.04 3.1-.43 4.61-.43.36 0 .47.14.54.43.04.32.07.58.04 1.58 0 1.04-.14 2.27-.14 4.5v3.49c0 1.12.14 1.98.18 2.2.04.18.14.22.29.18.18-.04 1.04-.22 1.87-.4.14-.04.4.14.36.32-.25 1.12-.36 1.22-.5 1.22-1.8.14-4.03.79-4.39.86-.22 0-.36.04-.5-.18-.18-.22-.25-.32-.25-.47l.07-1.55c-.9.43-2.3 1.19-3.24 1.66-.68.36-1.55.54-2.23.54-1.22 0-2.45-.4-3.28-1.69-.4-.58-.47-1.55-.47-2.3 0-3.71.11-6.16.07-7.38 0-.58-.04-.76-1.4-1.4-.18-.11-.29-.18-.36-.58-.04-.4 0-.43.22-.5.58-.14 3.53-.9 3.92-.9.29 0 .36.18.4.58zm29.55.11c.25.14.54.14.65.14.58 0 2.7-.43 3.42-.43.29 0 .68.32.72.47.04.14.14 1.01.14 1.15 0 .18-.18.43-.61.43-.4 0-1.48.04-3.06 0 .58.9.97 1.87.97 2.84 0 2.52-1.84 4.75-4.61 5.87-1.33.5-2.16.94-2.95 1.33-.22.11-.32.36-.32.5 0 .65.86.94 1.84.94.43 0 2.7-.07 3.02-.07 1.48 0 2.88.22 4.1 1.12.54.4 1.01 1.3 1.01 2.52 0 1.15-.32 1.76-1.3 2.92-1.87 2.23-3.53 2.88-4.43 3.24-.83.29-2.48.54-3.53.54-3.89 0-5.44-1.91-5.44-3.35 0-1.19.47-2.2 1.37-2.81.86-.65 1.58-1.12 2.7-1.84-1.58-.72-2.45-1.19-2.45-2.27 0-.32.04-.47.25-.76.36-.29 1.94-1.15 3.42-1.87-1.08-.25-1.98-.65-2.88-1.44a4.894 4.894 0 0 1-1.62-3.64c0-2.16 1.19-3.67 2.81-4.82 1.19-.79 2.52-1.48 4.03-1.48.97 0 2.09.4 2.74.76zm1.08 20.23c.72-.61 1.26-1.33 1.26-2.2 0-.5-.04-1.08-.76-1.62-.83-.54-1.84-.76-3.1-.76s-2.77.11-3.64.32c-.36.07-.83.32-1.4.86-.94.76-1.3 1.73-1.3 2.27 0 .65.79 2.48 4.39 2.48 2.12 0 3.6-.5 4.54-1.37zm-2.16-17.78c-.5-.83-1.58-1.73-3.17-1.73-.65 0-1.26.25-1.84.79-.65.54-.94 1.44-.94 2.45 0 1.4.58 3.02 1.62 3.92 1.15 1.01 2.02 1.22 2.66 1.22 1.3 0 2.56-.79 2.56-3.2 0-1.19-.29-2.48-.9-3.46zm7.6 1.29c-.22.07-.43.11-.65.11-.14 0-.43-.29-.43-.47 0-.22.11-.5.32-.83.65-1.01 3.28-2.56 4.21-2.88.76-.29 1.4-.43 1.98-.43 1.58 0 2.41.65 2.99 1.3.61.65.68 1.3.68 1.76 0 2.52-.07 5.04-.07 7.42-.04 1.94.32 2.63.86 2.63.65 0 1.66-.47 1.76-.5.11-.07.36.22.36.36l-.07.61c0 .18-.07.32-.22.4-.43.25-2.77.9-4 .9-.65 0-1.19-.32-1.51-1.87-1.37.61-4.1 1.8-4.54 1.8-.5 0-1.22-.11-2.05-.72-.47-.43-1.04-1.37-1.04-2.81 0-.76.58-1.37 1.55-1.87 1.87-.97 4.07-1.55 6.19-1.91.11-.47.11-1.87.11-2.59 0-1.51-.29-2.34-.61-2.63-.29-.29-1.19-.58-2.02-.58-.72 0-1.22.14-1.44.25-.14.11-.25.36-.25 1.51 0 .25 0 .4-.22.47l-1.91.58zm5.51 7.74c.43-.32.72-.54.79-.97.04-.43.11-1.8.11-2.3 0-.25-.07-.4-.18-.4-2.16.32-3.46.76-4.25 1.37-.22.14-.36.4-.36 1.04 0 1.22.36 1.98 1.62 1.98.36 0 1.33-.32 2.27-.72zm7.74 1.08c.86-.29 1.01-.4 1.08-.86.07-.4.11-1.37.11-4.5v-3.17c0-.86-.07-1.08-1.48-1.48-.29-.11-.47-.58-.43-.83 1.4-.86 2.88-1.58 3.96-2.34.18-.11.36-.14.47-.14.14 0 .32.25.25.58-.07.94-.14 1.58-.14 2.7.76-.32 2.95-2.12 3.38-2.45.32-.25.72-.5 1.04-.5.97 0 1.98.9 1.98 1.73 0 .54-.86 1.58-1.19 1.87-.22.14-.43.29-.61.29-.22 0-.36-.07-.47-.25-.29-.4-.79-.83-1.37-.83-.79 0-1.8.65-2.41 1.22-.25.22-.32.68-.32 2.38v4.5c0 .9.04 1.37.14 1.55.11.18.25.29.61.25l1.98-.07c.14 0 .29.18.29.32l-.22 1.12h-4.75c-.94 0-1.84.07-2.09.07-.14 0-.22-.11-.14-.32l.32-.83zm16.99 3.06c1.19.4 2.12 1.12 2.12 2.27 0 2.09-3.35 3.74-4.25 4.07l-.72-.79c1.22-.65 2.7-1.91 2.7-2.52 0-.76-.47-.97-1.91-1.37-.4-.07-.47-.14-.47-.29s.04-.32.22-.54c.14-.22 1.3-1.58 2.02-2.52-1.4-.04-2.92-.58-3.96-1.44-.79-.65-1.98-2.38-1.98-4.57 0-3.64 1.55-5 2.16-5.62.76-.79 2.38-1.8 3.2-2.23.94-.5 1.87-.86 2.95-.86 1.26 0 2.7.43 3.42 1.19.14.14.29.32.29.5 0 .54-.76 1.12-1.15 1.37-.32.18-.68.25-.83.14-.22-.07-.43-.18-.83-.47-.79-.47-1.84-.86-2.66-.86-1.15 0-1.94.43-2.41.9-.94.94-1.26 2.3-1.26 4.21 0 2.2.72 3.71 1.19 4.25 1.08 1.26 2.48 1.66 3.31 1.66 1.08 0 2.81-.83 3.6-1.37.07-.04.43.11.43.22 0 .22-.14.94-.43 1.12-.61.5-2.77 1.62-3.49 1.66l-1.26 1.91zm21.1-9.07c0 3.67-2.3 5.58-2.81 5.9-1.58.97-3.28 1.55-4.82 1.55-1.33 0-4.07-.79-5.47-2.63-1.08-1.4-1.51-3.35-1.51-4.64 0-1.44.58-3.17 1.44-4.28.72-.94 1.44-1.55 2.41-2.05 1.22-.68 2.99-1.15 4.07-1.15 2.56 0 6.7 2.38 6.7 7.31zm-10.11-5.15c-.94 1.01-1.37 2.48-1.37 4.79s.94 3.89 1.76 4.82c1.22 1.29 2.48 1.62 3.38 1.62.47 0 1.3-.18 1.76-.61.79-.79 1.55-2.09 1.55-4.28s-.65-4.54-2.16-5.9c-.68-.61-1.87-1.26-3.06-1.26-.65 0-1.37.32-1.87.83zm11.87 11.45c1.15-.43 1.55-.68 1.69-1.66.14-1.04.22-3.17.22-4.97 0-1.4-.04-2.63-.11-3.31 0-.36-.14-.47-1.76-.86-.14-.18-.22-.11-.11-.68 0-.11.11-.18.36-.29 1.51-.72 3.1-1.58 3.28-1.73.14-.07.29-.11.43-.11s.32.11.32.25c.04.61.07 1.26.07 1.91 0 .14.04.32.22.29 1.55-.9 2.16-1.19 3.13-1.62.61-.29 1.37-.5 2.02-.5 1.04 0 1.8.25 2.45.79.97.72 1.44 2.02 1.62 3.56.07.72.07 1.62.07 3.17 0 2.59.04 4.18.04 5 0 .29.04.36.14.36.32 0 1.33-.11 1.91-.14.11 0 .18.11.18.32s-.11.76-.18.9c-.07.18-.11.18-.29.18-3.2 0-4.28.14-5.65.14-.22 0-.4 0-.43-.14l-.18-.72c1.04-.4 1.44-.68 1.62-1.69.14-1.04.18-2.38.18-4.89 0-2.02 0-3.02-.86-3.92-.54-.58-1.33-.9-2.41-.9-.86 0-2.23.54-2.99.97-.32.25-.4.47-.43.9-.07 1.22-.07 6.37-.07 8.32 0 .47.11.54 1.98.83.18.04.25.11.18.29l-.18.76h-3.1c-1.4 0-2.59.18-3.28.18-.11 0-.14-.07-.11-.22l.04-.76zm25.85-9.11c-.22.07-.43.11-.65.11-.14 0-.43-.29-.43-.47 0-.22.11-.5.32-.83.65-1.01 3.28-2.56 4.21-2.88.76-.29 1.4-.43 1.98-.43 1.58 0 2.41.65 2.99 1.3.61.65.68 1.3.68 1.76 0 2.52-.07 5.04-.07 7.42-.04 1.94.32 2.63.86 2.63.65 0 1.66-.47 1.76-.5.11-.07.36.22.36.36l-.07.61c0 .18-.07.32-.22.4-.43.25-2.77.9-4 .9-.65 0-1.19-.32-1.51-1.87-1.37.61-4.1 1.8-4.54 1.8-.5 0-1.22-.11-2.05-.72-.47-.43-1.04-1.37-1.04-2.81 0-.76.58-1.37 1.55-1.87 1.87-.97 4.07-1.55 6.19-1.91.11-.47.11-1.87.11-2.59 0-1.51-.29-2.34-.61-2.63-.29-.29-1.19-.58-2.02-.58-.72 0-1.22.14-1.44.25-.14.11-.25.36-.25 1.51 0 .25 0 .4-.22.47l-1.91.58zm5.51 7.74c.43-.32.72-.54.79-.97.04-.43.11-1.8.11-2.3 0-.25-.07-.4-.18-.4-2.16.32-3.46.76-4.25 1.37-.22.14-.36.4-.36 1.04 0 1.22.36 1.98 1.62 1.98.36 0 1.33-.32 2.27-.72zm25.95-11.09c.14.14.29.32.29.5 0 .54-.76 1.12-1.15 1.37-.32.18-.68.25-.83.14-.22-.07-.43-.18-.83-.47-.79-.5-1.84-.9-2.66-.9-1.15 0-1.94.43-2.41.9-.94.94-1.26 2.3-1.26 4.25 0 2.2.72 3.71 1.19 4.25 1.08 1.26 2.48 1.66 3.31 1.66 1.08 0 2.88-.86 3.89-1.51.07-.04.43.11.43.25 0 .22-.14.94-.43 1.08-.43.43-2.09 1.26-3.28 1.69a6.9 6.9 0 0 1-2.02.36c-1.26 0-2.88-.54-4-1.44-.76-.65-1.98-2.34-1.98-4.61 0-3.64 1.55-5 2.16-5.62.76-.79 2.38-1.76 3.2-2.2.94-.5 1.87-.86 2.95-.86 1.26 0 2.7.4 3.42 1.15zm2.02 12.17c.86-.29 1.01-.4 1.08-.86.07-.4.11-1.37.11-4.5v-3.17c0-.86-.07-1.08-1.48-1.48-.29-.11-.47-.58-.43-.83 1.4-.86 2.88-1.58 3.96-2.34.18-.11.36-.14.47-.14.14 0 .32.25.25.58-.07.94-.14 1.58-.14 2.7.76-.32 2.95-2.12 3.38-2.45.32-.25.72-.5 1.04-.5.97 0 1.98.9 1.98 1.73 0 .54-.86 1.58-1.19 1.87-.22.14-.43.29-.61.29-.22 0-.36-.07-.47-.25-.29-.4-.79-.83-1.37-.83-.79 0-1.8.65-2.41 1.22-.25.22-.32.68-.32 2.38v4.5c0 .9.04 1.37.14 1.55.11.18.25.29.61.25l1.98-.07c.14 0 .29.18.29.32l-.22 1.12h-4.75c-.94 0-1.84.07-2.09.07-.14 0-.22-.11-.14-.32l.32-.83zm13.03-10.22c0-.18-.22-.29-1.94-.58-.14-.04-.18-.11-.07-.29.29-.65.32-.72.47-.76 1.4-.47 2.7-.9 4.28-1.48h.14c.07 0 .11.07.07.29-.14 2.45-.32 7.27-.32 9.14s0 2.48.04 2.92c.07.5.14.76.54.72 1.12-.07 1.37-.07 1.48-.07s.32.22.29.32l-.11.94c-.04.22-.11.22-.29.22-1.04 0-2.05-.07-3.2-.07-1.55 0-3.02.22-3.13.22-.18 0-.25-.04-.29-.18-.07-.25-.07-.61-.07-.83 0-.14.11-.18.18-.18 1.3-.14 1.62-.25 1.8-1.26.14-.58.32-3.13.25-5.4l-.11-3.67zm3.64-9.57c0 1.26-.86 1.94-1.8 1.94-.86 0-1.58-.65-1.58-1.62 0-1.26 1.01-1.94 1.8-1.94.97 0 1.58.76 1.58 1.62zm12.49 7.84c.61.65 1.08 1.4 1.4 2.38.36-.07 1.04-.22 1.15-.11.11.07.11.18.04.32-.07.32-.32.97-.65 1.08-2.48.58-7.09 1.44-8.64 1.91-.18.04-.25.25-.25.65.11 3.53 1.98 5.04 4.39 5.04 1.66 0 3.06-.68 4.28-1.76.14-.14.58-.14.58-.04-.07.86-.11 1.12-.32 1.33-1.55 1.3-3.28 2.02-4.46 2.38-.47.14-.97.18-1.33.18-2.56 0-4.14-1.51-4.61-2.02-.54-.61-1.58-2.2-1.58-4.54 0-3.17 1.84-5.54 3.74-6.95.94-.65 2.23-1.12 3.2-1.12 1.19 0 2.45.65 3.06 1.26zm-4.25.11c-.22 0-.58.11-.9.32-1.08.76-1.66 2.56-1.62 4.07 1.69-.47 3.35-.72 4.97-1.15.22-.04.4-.18.4-.58 0-1.01-1.37-2.66-2.84-2.66zm4.64-9.18c.22.11.25.36.14.54-.68.58-4.28 5.04-4.64 5.33-.18.22-.25.22-.54-.11l-.54-.65c.9-1.91 3.2-5.76 3.53-5.76.47 0 1.26.32 2.05.65zm6.41 17.92c.18.76.29.97 1.37 1.37.25.07.43.25.43.72 0 .22-.07.32-.18.36-1.33.32-1.4.4-1.87 2.12-.04.14-.14.22-.5.22-.54 0-.68-.43-1.15-1.62-.18-.36-.43-.5-1.19-.83-.36-.14-.5-.47-.5-.61 0-.29.4-.58.68-.65.97-.18 1.12-.29 1.55-1.4.11-.32.47-.54.94-.54.14 0 .22.14.43.86z" class="cls-2"/><path d="M353.62 28.37c-.07-.29-.11-.43-.07-.5 1.76-1.8 3.56-3.53 4.89-5.11-1.62-1.91-3.35-3.74-4.28-4.86-.07-.07-.11-.36 0-.5.18-.18 1.08-.9 1.3-.86 1.73 1.98 3.38 3.85 4.93 5.79.11.18.14.47-.36 1.04-1.55 1.84-3.28 3.82-5 5.72-.11.14-.18.18-.32.18-.25 0-.97-.61-1.08-.9zm6.16 0c-.07-.14.04-.43.11-.5 1.51-1.73 2.84-3.28 4.25-5-1.19-1.3-2.92-3.6-4-4.79-.07-.11-.07-.47.04-.54l.9-.65c.29-.25.4-.18.65.04.9 1.15 3.46 4.5 4.32 5.8.11.14.07.4-.11.61-1.3 1.69-2.84 3.56-4.5 5.65-.11.11-.14.18-.32.18-.14 0-1.04-.47-1.33-.79z" class="cls-1"/></svg>