<svg xmlns="http://www.w3.org/2000/svg" id="Layer_1" width="400" height="200" viewBox="0 0 400 200"><defs><style>.cls-1{fill:#f16722}.cls-2{fill:#b3b4b4}</style></defs><path d="M52.44 81.68c.69.92 0 2.53-.46 3.22-9.89 11.04-18.4 20.7-27.37 31.74 7.59 8.28 18.4 22.77 25.3 30.36.46.92.46 3.22-.23 3.68l-5.75 4.37c-1.84 1.38-2.53.92-3.91-.46-5.75-7.36-22.31-28.75-27.83-36.8-.46-1.15-.46-2.76.69-4.14 8.28-10.58 18.4-22.77 28.75-35.88.92-.92 1.15-1.38 2.3-1.38.92 0 6.44 2.99 8.51 5.29zm39.33 0c.46 1.84.69 2.99.23 3.45-11.04 11.04-22.54 22.31-31.28 32.43 10.58 11.96 21.62 23.92 27.6 30.82.46.46.69 2.3 0 3.22-1.15 1.38-6.9 5.98-8.51 5.75C69 144.47 58.42 132.74 48.3 120.09c-.69-1.15-.69-2.76 2.53-6.67 9.89-11.73 20.7-24.15 31.74-36.57.92-.92 1.15-.92 2.07-.92 1.84 0 6.21 3.68 7.13 5.75z" class="cls-1"/><path d="M261.96 146.76c.92.92.92 1.61.69 2.53-2.76 9.43-5.29 19.32-6.9 29.21-.46 2.3-2.07 3.22-3.91 3.45-2.3.23-4.83.23-14.49.23s-20.7-.69-59.57-.69c-12.42 0-23.69 1.15-27.14 1.38-2.3.46-3.68.46-4.37.23-.46-.92-1.84-5.75-1.84-7.13 11.27-1.38 17.25-3.22 19.09-10.12.92-3.45 1.61-11.96 1.61-35.19V83.51c0-19.55-.69-31.97-1.38-37.03-.69-5.29-2.53-6.21-18.63-5.98-.92 0-1.61-1.38-1.15-2.76l1.84-4.14c.23-1.15.69-1.15 1.15-1.15 6.9 0 14.03 0 21.39-.23 11.73-.23 23.92-.69 35.88-1.38.92.69 1.61 5.06 1.61 6.9-13.8 1.61-19.32 2.76-20.47 12.19-.69 6.67-1.38 22.08-1.15 40.71l.23 27.83c.23 36.34.46 43.47.69 47.61.23 3.22 1.61 5.06 4.37 5.75 3.91 1.38 11.04 1.84 21.39 1.84 15.18 0 29.9-.46 37.49-12.19 2.53-3.91 4.37-8.28 5.98-15.41.23-.92.46-1.15 1.15-1.15 1.15 0 5.29 1.15 6.44 1.84zm15.87-28.52c-1.38.46-2.76.69-4.14.69-.92 0-2.76-1.84-2.76-2.99 0-1.38.69-3.22 2.07-5.29 4.14-6.44 20.93-16.33 26.91-18.4 4.83-1.84 8.97-2.76 12.65-2.76 10.12 0 15.41 4.14 19.09 8.28 3.91 4.14 4.37 8.28 4.37 11.27 0 16.1-.46 32.2-.46 47.38-.23 12.42 2.07 16.79 5.52 16.79 4.14 0 10.58-2.99 11.27-3.22.69-.46 2.3 1.38 2.3 2.3l-.46 3.91c0 1.15-.46 2.07-1.38 2.53-2.76 1.61-17.71 5.75-25.53 5.75-4.14 0-7.59-2.07-9.66-11.96-8.74 3.91-26.22 11.5-28.98 11.5-3.22 0-7.82-.69-13.11-4.6-2.99-2.76-6.67-8.74-6.67-17.94 0-4.83 3.68-8.74 9.89-11.96 11.96-6.21 25.99-9.89 39.56-12.19.69-2.99.69-11.96.69-16.56 0-9.66-1.84-14.95-3.91-16.79-1.84-1.84-7.59-3.68-12.88-3.68-4.6 0-7.82.92-9.2 1.61-.92.69-1.61 2.3-1.61 9.66 0 1.61 0 2.53-1.38 2.99l-12.19 3.68zm35.19 49.45c2.76-2.07 4.6-3.45 5.06-6.21.23-2.76.69-11.5.69-14.72 0-1.61-.46-2.53-1.15-2.53-13.8 2.07-22.08 4.83-27.14 8.74-1.38.92-2.3 2.53-2.3 6.67 0 7.82 2.3 12.65 10.35 12.65 2.3 0 8.51-2.07 14.49-4.6z" class="cls-2"/></svg>