<svg xmlns="http://www.w3.org/2000/svg" id="Layer_1" width="693.75" height="40.14" viewBox="0 0 693.75 40.14"><defs><style>.cls-1{fill:#f16722}.cls-2{fill:#b3b4b4}</style></defs><path d="M.97 9.9c0-2.34 2.34-4.57 3.56-5.33.18-.11.47-.18.94-.07.07 0 .14.11.11.14-.97 1.26-1.8 2.41-1.8 3.56 0 .61.25 1.01.76 1.44.18.14.18.29.14.47-.04.22-.14.36-.36.43-.58.22-.97.76-1.26 1.26-.22.25-.32.32-.5.32-.83 0-1.58-1.12-1.58-2.23zm5.62-.07c0-2.23 2.27-4.5 3.49-5.29.18-.07.54-.14.97-.04.07 0 .14.11.07.14-.97 1.3-1.8 2.48-1.8 3.64.04.54.32.97.79 1.37.14.14.14.32.14.5-.04.18-.14.32-.36.4-.61.22-.97.76-1.3 1.26-.18.25-.29.32-.5.32-.79 0-1.51-1.01-1.51-2.3z" class="cls-1"/><path d="M21.85 15.48c0-6.55-.04-7.81-.18-7.81h-2.92c-3.38 0-4.97.58-5.26.76-.43.29-.68 1.01-1.19 2.48 0 .11-.14.11-.32.04-.29-.18-.79-.61-.86-.76.47-1.01 1.19-2.63 2.02-5.33.14-.07.4-.04.68.07.25.07.29.07.32.25 0 .68.07.94.36 1.01.29.07.79.14 1.62.14 1.08.04 2.34.04 5.8.04 3.92 0 7.23 0 12.17-.22.94-.04 2.16-.86 3.2-1.58.18-.07.4-.07.5.04.07.07.07.18.07.4 0 1.98-.11 4.36-.11 6.88v5.33c0 .07.14.25.25.22.72-.32 2.84-1.33 3.78-1.66.76-.22 1.37-.36 1.98-.36 3.24 0 3.96 2.74 3.96 5.76 0 1.08-.07 3.53-.11 5.83 0 1.19.14 1.3 1.55 1.73.32.07.36.07.36.22v.58c0 .22-.04.25-.25.25h-2.56c-1.73 0-3.24.18-3.64.22-.14 0-.18-.07-.18-.47-.07-.47-.04-.54.07-.61.11-.07.68-.22 1.01-.4.65-.32.79-.54.9-1.44.18-1.58.14-2.66.14-4.03 0-3.38-.61-4.28-1.37-4.9-.83-.61-1.48-.68-2.16-.68-1.04 0-2.41.43-3.38.97-.32.14-.43.4-.43 1.08v3.85c0 1.91.07 2.99.22 3.92.11.86.25 1.04 1.87 1.22.14 0 .18.11.22.9 0 .25-.04.29-.18.29-2.88 0-4.82 0-6.41.25-.22.04-.29.04-.32-.07l-.22-.58c-.07-.18-.04-.25.07-.32 1.91-.86 2.02-.97 2.02-4.39V10.24c0-1.87-.25-2.2-2.05-2.34-1.33-.11-2.88-.22-5.08-.22h-2.34c-.32 0-.47.25-.47.97-.04.58-.14 2.38-.14 7.16v3.64c0 5.15.14 6.7.25 7.34.14.61.36 1.08.83 1.3.61.36 1.98.58 2.7.65.22 0 .25.04.22.14l-.14.72c-.04.14-.07.22-.32.22-.43 0-3.17-.11-4.93-.11-1.87 0-4.72.14-5 .14s-.43-.11-.47-.29l-.11-.79c.58-.07 1.55-.22 2.09-.29.94-.18 1.4-.4 1.55-1.22.07-.5.32-2.95.32-8.13v-3.64zm39.28 1.19c.61.65 1.08 1.4 1.4 2.38.36-.07 1.04-.22 1.15-.11.11.07.11.18.04.32-.07.32-.32.97-.65 1.08-2.48.58-7.09 1.44-8.64 1.91-.18.04-.25.25-.25.65.11 3.53 1.98 5.04 4.39 5.04 1.66 0 3.06-.68 4.28-1.76.14-.14.58-.14.58-.04-.07.86-.11 1.12-.32 1.33-1.55 1.3-3.28 2.02-4.46 2.38-.47.14-.97.18-1.33.18-2.56 0-4.14-1.51-4.61-2.02-.54-.61-1.58-2.2-1.58-4.54 0-3.17 1.84-5.54 3.74-6.95.94-.65 2.23-1.12 3.2-1.12 1.19 0 2.45.65 3.06 1.26zm-4.25.11c-.22 0-.58.11-.9.32-1.08.76-1.66 2.56-1.62 4.07 1.69-.47 3.35-.72 4.97-1.15.22-.04.4-.18.4-.58 0-1.01-1.37-2.66-2.84-2.66zm24.69 12.56c-.83.47-2.02.58-2.52.58-.86 0-2.2-.07-2.66-.11-1.01-.04-1.62-.04-2.34.07-.43.11-.58.04-.76-.11-.47-.65-.47-1.84-.47-7.42v-7.42c0-2.02.04-4.14-.04-5.18-.11-1.04-.22-1.33-1.48-2.3-.32-.36-.25-.58.04-.76.61-.36 3.67-2.3 4.14-2.3.14 0 .22.25.22 1.19 0 1.48-.18 4.28-.18 11.09 0 .11.29.25.43.22 2.23-.83 4.28-1.58 4.64-1.58 1.04-.07 2.74.43 3.85 1.55 1.51 1.48 2.34 3.28 2.34 4.72 0 3.92-2.05 6.12-5.22 7.77zm.97-10.11c-1.48-1.69-2.81-1.87-3.96-1.87-1.26 0-2.48.5-2.81.76-.18.14-.29.29-.32.76-.04.61-.11 1.66-.11 4.82 0 1.22.25 2.84 1.19 3.67.76.68 1.84 1.33 2.84 1.33.61 0 1.58-.22 2.52-.97 1.51-1.22 2.16-2.56 2.16-4.64 0-1.19-.5-2.66-1.51-3.85zm20.81 3.38c0 3.67-2.3 5.58-2.81 5.9-1.58.97-3.28 1.55-4.82 1.55-1.33 0-4.07-.79-5.47-2.63-1.08-1.4-1.51-3.35-1.51-4.64 0-1.44.58-3.17 1.44-4.28.72-.94 1.44-1.55 2.41-2.05 1.22-.68 2.99-1.15 4.07-1.15 2.56 0 6.7 2.38 6.7 7.31zm-10.11-5.15c-.94 1.01-1.37 2.48-1.37 4.79s.94 3.89 1.76 4.82c1.22 1.3 2.48 1.62 3.38 1.62.47 0 1.3-.18 1.76-.61.79-.79 1.55-2.09 1.55-4.28s-.65-4.54-2.16-5.9c-.68-.61-1.87-1.26-3.06-1.26-.65 0-1.37.32-1.87.83zm20.81-1.58c.72 0 2.41 0 3.38-.07.65-.04 1.04-.04 1.22-.04.14 0 .25 0 .32.11.14.14.32.86.29.94-1.37.47-1.8 1.3-2.74 3.1-2.66 5.15-4.14 8.39-5.11 10.8-1.04 2.66-2.23 5.83-2.38 6.48-.25.94-.25 1.4-.25 1.58 0 .14 0 .25-.11.36-.25.18-.54.22-.76.22-.54 0-1.22-.18-1.62-.54-.36-.29-.36-.76-.14-1.15.14-.22 3.46-6.26 3.64-6.91.11-.29.14-.86-.04-1.37-1.08-3.6-2.12-6.66-3.71-10.94-.36-.94-.58-1.08-1.48-1.3-.25-.11-.29-.14-.29-.25s.07-.29.18-.72c.11-.25.18-.29.43-.29 2.56 0 4.03-.11 5.26-.11.29 0 .36.04.4.11.07.14.29.72.25.9-1.84.58-2.05.65-1.69 1.87.36 1.44 1.91 6.7 2.63 8.06 1.19-2.2 2.63-5.15 3.56-7.85.4-1.22.4-1.44-1.26-1.87-.14-.04-.14-.14-.14-.32 0-.25.07-.65.14-.79zm9.61-9c0 2.27-2.3 4.5-3.53 5.29-.18.07-.54.14-.97.07-.07 0-.14-.11-.11-.18 1.01-1.26 1.84-2.48 1.8-3.6 0-.58-.25-1.01-.76-1.37-.18-.18-.18-.32-.14-.54.04-.18.14-.36.36-.4.61-.22.97-.72 1.33-1.22.14-.29.25-.36.47-.36.79 0 1.55 1.01 1.55 2.3zm7.56 22.14c-1.08.76-2.45 1.01-3.64 1.01-.97 0-2.52-.22-3.1-.32-.58-.14-.76-.18-1.22.07-.04 0-.22 0-.32-.07-.11-.11-.11-.22-.07-.4.14-1.33.14-2.56 0-4 .04-.11.04-.18.11-.22.14-.07.32-.14.86-.25.32.94.94 2.05 1.62 2.81.94 1.04 1.84 1.3 2.41 1.3.83 0 2.23-.76 2.23-2.09 0-1.91-2.12-2.74-3.2-3.35-.9-.5-3.53-1.62-3.53-3.96 0-1.15.5-2.12 1.58-3.02 1.01-.79 2.27-1.12 3.1-1.12s1.62.14 2.38.14c.36 0 .54-.04.65-.07.07-.07.14-.07.25.04.11.07.11.14.11.22.04 1.08.29 2.3.68 3.6 0 .14-.25.32-.32.32-.58 0-.72-.04-1.04-.5-.47-.94-1.44-2.59-3.28-2.59-.65 0-1.58.58-1.58 1.87 0 1.62 1.48 2.38 2.95 3.13.97.5 4.1 1.69 4.1 4.54 0 1.08-.5 2.09-1.73 2.92zm26.53.68c-3.71 0-5.29 0-6.77.14q-.11 0-.11-.11c0-.07 0-.5.04-.68 0-.07.07-.22.14-.25 1.37-.4 1.51-.54 1.58-1.04.11-1.01.25-2.92.25-6.52 0-1.51-.14-2.02-.5-2.52-.47-.5-1.33-1.01-2.48-1.01-.83 0-2.02.47-3.28 1.33-.25.14-.4.4-.43.72-.04.68-.07 2.84-.07 4.54 0 4 .07 4.14 1.69 4.32.22 0 .29.07.29.18s-.07.9-.14.9c-.32 0-2.34.04-3.06.04-.76 0-2.38.14-2.88.18-.11-.04-.14-.65-.14-1.01.29-.07.86-.32 1.08-.43.25-.11.4-.22.43-.61.04-.47.18-1.58.18-4.46 0-2.66-.07-3.42-.14-3.85-.07-.58-.18-.61-.86-.76-.54-.07-.68-.18-.76-.29-.04-.07-.22-.58-.14-.65 1.91-1.37 2.99-2.12 3.46-2.38.29-.14.43-.18.68-.18.22 0 .29.07.29.32l-.04 2.59c.9-.47 2.74-1.76 3.96-2.34.43-.22.86-.29 1.3-.29 1.91 0 2.99 1.04 4 2.52 2.02-1.15 2.77-1.58 3.71-1.98.61-.25 1.33-.47 2.12-.47.65 0 1.62.29 2.27.86.54.54 1.26 1.3 1.33 4.57.04 1.84.04 3.53.04 5 0 1.37.04 1.76.18 1.98.22.36.65.47 2.16.68.11.04.18.07.18.25 0 .11-.18.9-.29.9h-2.45c-1.4 0-2.52.11-3.28.18-.11 0-.18-.04-.22-.11-.07-.11-.11-.54-.14-.68 0-.07 0-.14.14-.22.36-.11.79-.36.86-.79.29-1.44.29-4.03.29-4.82 0-3.02-.4-4.1-.9-4.72-.5-.72-1.22-.97-2.41-.97-1.01 0-2.12.43-3.1 1.01-.32.22-.36.29-.36.68-.04 2.09 0 6.88.14 8.21.07.54.14.58 1.94.83.14 0 .22.11.22.29v.9zm25.02-7.09c0 3.67-2.3 5.58-2.81 5.9-1.58.97-3.28 1.55-4.82 1.55-1.33 0-4.07-.79-5.47-2.63-1.08-1.4-1.51-3.35-1.51-4.64 0-1.44.58-3.17 1.44-4.28.72-.94 1.44-1.55 2.41-2.05 1.22-.68 2.99-1.15 4.07-1.15 2.56 0 6.7 2.38 6.7 7.31zm-10.11-5.15c-.94 1.01-1.37 2.48-1.37 4.79s.94 3.89 1.76 4.82c1.22 1.3 2.48 1.62 3.38 1.62.47 0 1.3-.18 1.76-.61.79-.79 1.55-2.09 1.55-4.28s-.65-4.54-2.16-5.9c-.68-.61-1.87-1.26-3.06-1.26-.65 0-1.37.32-1.87.83zm16.27-4.14c0 .47-.18 2.34-.18 2.7 1.73 0 3.85-.18 5.11-.18.36 0 .4.07.4.4 0 .29-.07.68-.22 1.22-.07.29-.25.32-.54.32-1.04.04-2.74.04-4.64.11-.11 0-.18.07-.22.5-.11 1.62-.07 5.36-.07 7.34 0 1.62 1.04 2.48 2.66 2.48.86 0 1.4-.29 2.27-.83.18-.11.25-.11.29.04.07.25.11.43.11.68 0 .18-.11.32-.25.4-1.37.79-2.77 1.58-4.5 1.58-.65 0-1.98-.25-2.74-1.15-.47-.58-.58-1.26-.5-2.63.07-1.94.07-6.91.14-7.92.04-.22-.14-.47-.32-.5-.5 0-1.22 0-1.48-.04-.11 0-.29-.29-.18-.36 1.33-1.19 3.56-3.35 4.36-4.18.14-.14.32-.22.4-.22s.11.07.11.22zm5.43 15.98c-.07-.18-.07-.25.07-.32 1.91-.86 2.02-.97 2.02-4.39V10.34c0-2.12-.07-2.16-1.33-3.31-.14-.11-.14-.29.04-.43.54-.47 2.66-1.62 3.64-2.16.14-.11.4-.07.5.04.04.07.07.18.07.36 0 2.27-.11 4.54-.11 7.06v5.33c0 .07.14.25.22.22.76-.32 2.88-1.33 3.82-1.66.76-.22 1.33-.36 1.98-.36 3.24 0 3.96 2.74 3.96 5.76 0 1.08-.07 3.53-.11 5.83 0 1.19.14 1.3 1.55 1.73.32.07.36.07.36.22v.58c0 .22-.04.25-.25.25h-2.56c-1.76 0-3.24.18-3.64.22-.14 0-.18-.07-.18-.47-.07-.47-.04-.54.07-.61.11-.07.65-.22 1.01-.4.65-.32.79-.54.9-1.44.18-1.58.14-2.66.14-4.03 0-3.38-.61-4.28-1.37-4.9-.83-.61-1.48-.68-2.16-.68-1.04 0-2.41.43-3.38.97-.32.14-.43.4-.43 1.08v3.85c0 1.91.07 2.99.22 3.92.11.86.25 1.04 1.87 1.22.14 0 .18.11.22.9 0 .25-.04.29-.18.29-2.88 0-4.82 0-6.41.25-.22.04-.29.04-.32-.07l-.22-.58zm28.08-12.63c.61.65 1.08 1.4 1.4 2.38.36-.07 1.04-.22 1.15-.11.11.07.11.18.04.32-.07.32-.32.97-.65 1.08-2.48.58-7.09 1.44-8.64 1.91-.18.04-.25.25-.25.65.11 3.53 1.98 5.04 4.39 5.04 1.66 0 3.06-.68 4.28-1.76.14-.14.58-.14.58-.04-.07.86-.11 1.12-.32 1.33-1.55 1.3-3.28 2.02-4.46 2.38-.47.14-.97.18-1.33.18-2.56 0-4.14-1.51-4.61-2.02-.54-.61-1.58-2.2-1.58-4.54 0-3.17 1.84-5.54 3.74-6.95.94-.65 2.23-1.12 3.2-1.12 1.19 0 2.45.65 3.06 1.26zm-4.25.11c-.22 0-.58.11-.9.32-1.08.76-1.66 2.56-1.62 4.07 1.69-.47 3.35-.72 4.97-1.15.22-.04.4-.18.4-.58 0-1.01-1.37-2.66-2.84-2.66zm8.46 11.84c.86-.29 1.01-.4 1.08-.86.07-.4.11-1.37.11-4.5v-3.17c0-.86-.07-1.08-1.48-1.48-.29-.11-.47-.58-.43-.83 1.4-.86 2.88-1.58 3.96-2.34.18-.11.36-.14.47-.14.14 0 .32.25.25.58-.07.94-.14 1.58-.14 2.7.76-.32 2.95-2.12 3.38-2.45.32-.25.72-.5 1.04-.5.97 0 1.98.9 1.98 1.73 0 .54-.86 1.58-1.19 1.87-.22.14-.43.29-.61.29-.22 0-.36-.07-.47-.25-.29-.4-.79-.83-1.37-.83-.79 0-1.8.65-2.41 1.22-.25.22-.32.68-.32 2.38v4.5c0 .9.04 1.37.14 1.55.11.18.25.29.61.25l1.98-.07c.14 0 .29.18.29.32l-.22 1.12h-4.75c-.94 0-1.84.07-2.09.07-.14 0-.22-.11-.14-.32l.32-.83zm27.29-12.74c.72 0 2.41 0 3.38-.07.65-.04 1.04-.04 1.22-.04.14 0 .25 0 .32.11.14.14.32.86.29.94-1.37.47-1.8 1.3-2.74 3.1-2.66 5.15-4.14 8.39-5.11 10.8-1.04 2.66-2.23 5.83-2.38 6.48-.25.94-.25 1.4-.25 1.58 0 .14 0 .25-.11.36-.25.18-.54.22-.76.22-.54 0-1.22-.18-1.62-.54-.36-.29-.36-.76-.14-1.15.14-.22 3.46-6.26 3.64-6.91.11-.29.14-.86-.04-1.37-1.08-3.6-2.12-6.66-3.71-10.94-.36-.94-.58-1.08-1.48-1.3-.25-.11-.29-.14-.29-.25s.07-.29.18-.72c.11-.25.18-.29.43-.29 2.56 0 4.03-.11 5.26-.11.29 0 .36.04.4.11.07.14.29.72.25.9-1.84.58-2.05.65-1.69 1.87.36 1.44 1.91 6.7 2.63 8.06 1.19-2.2 2.63-5.15 3.56-7.85.4-1.22.4-1.44-1.26-1.87-.14-.04-.14-.14-.14-.32 0-.25.07-.65.14-.79zm15.16.79c.61.65 1.08 1.4 1.4 2.38.36-.07 1.04-.22 1.15-.11.11.07.11.18.04.32-.07.32-.32.97-.65 1.08-2.48.58-7.09 1.44-8.64 1.91-.18.04-.25.25-.25.65.11 3.53 1.98 5.04 4.39 5.04 1.66 0 3.06-.68 4.28-1.76.14-.14.58-.14.58-.04-.07.86-.11 1.12-.32 1.33-1.55 1.3-3.28 2.02-4.46 2.38-.47.14-.97.18-1.33.18-2.56 0-4.14-1.51-4.61-2.02-.54-.61-1.58-2.2-1.58-4.54 0-3.17 1.84-5.54 3.74-6.95.94-.65 2.23-1.12 3.2-1.12 1.19 0 2.45.65 3.06 1.26zm-4.25.11c-.22 0-.58.11-.9.32-1.08.76-1.66 2.56-1.62 4.07 1.69-.47 3.35-.72 4.97-1.15.22-.04.4-.18.4-.58 0-1.01-1.37-2.66-2.84-2.66zm7.27 12.74c0-.25.07-.58.14-.65.22-.11.61-.25.86-.32.72-.25.86-.47.9-.94.22-4.39.32-10.65.32-13.57 0-2.52-.04-4.39-.07-5.47-.07-1.04-.36-1.12-1.98-1.26-.14-.04-.14-.07.04-.79.04-.07.11-.14.36-.22a43.87 43.87 0 0 0 4.39-1.8c.07-.04.11-.04.14-.04.11.04.11.11.11.29-.32 4.61-.43 11.66-.43 18.36 0 4.61.11 5.33 1.01 5.33.5 0 1.37-.07 1.51-.07.22 0 .22.04.22.22-.04.36-.11.68-.18.97-.04.14-.14.14-.29.14-1.22 0-5.72.11-6.95.25-.11 0-.14 0-.14-.14l.04-.29zm8.07 0c0-.25.07-.58.14-.65.22-.11.61-.25.86-.32.72-.25.86-.47.9-.94.22-4.39.32-10.65.32-13.57 0-2.52-.04-4.39-.07-5.47-.07-1.04-.36-1.12-1.98-1.26-.14-.04-.14-.07.04-.79.04-.07.11-.14.36-.22a43.87 43.87 0 0 0 4.39-1.8c.07-.04.11-.04.14-.04.11.04.11.11.11.29-.32 4.61-.43 11.66-.43 18.36 0 4.61.11 5.33 1.01 5.33.5 0 1.37-.07 1.51-.07.22 0 .22.04.22.22-.04.36-.11.68-.18.97-.04.14-.14.14-.29.14-1.22 0-5.72.11-6.95.25-.11 0-.14 0-.14-.14l.04-.29zm18.32-12.85c.61.65 1.08 1.4 1.4 2.38.36-.07 1.04-.22 1.15-.11.11.07.11.18.04.32-.07.32-.32.97-.65 1.08-2.48.58-7.09 1.44-8.64 1.91-.18.04-.25.25-.25.65.11 3.53 1.98 5.04 4.39 5.04 1.66 0 3.06-.68 4.28-1.76.14-.14.58-.14.58-.04-.07.86-.11 1.12-.32 1.33-1.55 1.3-3.28 2.02-4.46 2.38-.47.14-.97.18-1.33.18-2.56 0-4.14-1.51-4.61-2.02-.54-.61-1.58-2.2-1.58-4.54 0-3.17 1.84-5.54 3.74-6.95.94-.65 2.23-1.12 3.2-1.12 1.19 0 2.45.65 3.06 1.26zm-4.25.11c-.22 0-.58.11-.9.32-1.08.76-1.66 2.56-1.62 4.07 1.69-.47 3.35-.72 4.97-1.15.22-.04.4-.18.4-.58 0-1.01-1.37-2.66-2.84-2.66zm10.44 1.19c1.26-1.15 3.82-2.48 5.51-2.48.86 0 2.09.18 2.56.36.11.04.36-.11.36-.29.04-.5.07-1.22.07-2.52.04-2.99-.04-4.1-.11-4.86-.04-.5-.11-.65-1.73-.9-.18-.04-.25-.14-.29-.29l-.07-.25c-.04-.14-.04-.22.07-.29 1.66-.68 2.84-1.19 4.21-2.02.11-.04.36-.11.47-.07.14.04.25.29.25.58-.04 3.24-.22 10.62-.22 14.79v4.36c0 1.19.04 2.95.18 3.82.11.47.29.54.5.54.4 0 1.22-.32 1.62-.5.18-.04.36-.07.4.07.11.36.18.76.18 1.04s-.22.32-.47.4c-1.08.32-3.96.97-4.32.97-.25 0-.61-.32-.68-.72-.04-.54-.07-1.37-.07-1.84-2.7 1.37-4.86 2.16-5.33 2.16-1.48 0-2.92-.86-3.71-1.62-1.4-1.33-2.05-3.31-2.05-4.68 0-1.76.58-3.82 2.66-5.76zm1.37.29c-.72.68-1.3 1.94-1.3 3.42 0 .9.14 3.42 1.98 5.08 1.12.97 2.05 1.08 2.95 1.08.68 0 2.3-.4 2.88-.79.36-.22.43-.29.47-.54.18-1.55.14-6.12-.04-7.42-.04-.36-.07-.54-.58-.9-1.04-.68-2.38-1.04-3.82-1.04-.61 0-1.8.32-2.56 1.12zm16.49-8.36c0-2.34 2.34-4.57 3.56-5.33.18-.11.47-.18.94-.07.07 0 .14.11.11.14-.97 1.26-1.8 2.41-1.8 3.56 0 .61.25 1.01.76 1.44.18.14.18.29.14.47-.04.22-.14.36-.36.43-.58.22-.97.76-1.26 1.26-.22.25-.32.32-.5.32-.83 0-1.58-1.12-1.58-2.23zm6.69 20.41c-.11-.22-.18-.68-.22-1.3-.07-1.84-.32-3.6-.61-5.33-.07-.25-.04-.32.14-.36.22-.04.54-.11.79-.11.14 0 .25.07.36.43.14.54.4 1.44 1.04 2.3 1.15 1.69 3.56 3.1 5.94 3.1 3.2 0 5.44-2.09 5.44-5.04 0-1.26-.61-2.3-1.62-3.02-.72-.58-1.66-1.08-4.5-2.16-2.48-.94-4.25-1.76-5.4-3.13-.72-.79-1.33-2.34-1.33-3.6 0-2.63 1.3-4.21 3.02-5.18.86-.47 2.95-1.19 5.29-1.19 1.01 0 2.81.18 3.46.29.47.11.79.11 1.01.11.25 0 .58-.29.9-.72.32-.04.79 0 .86.04-.11 1.98 0 3.74.32 5.65.04.22 0 .36-.14.43-.11.11-.54.32-.83.36-.11.04-.14 0-.18-.18-.4-1.26-.72-2.48-1.73-3.35-.76-.72-2.56-1.33-4.39-1.33-2.74 0-4.5 1.76-4.5 4.14 0 1.15.47 2.05.97 2.63.9.9 1.91 1.51 4.61 2.48 2.59.94 4.28 1.8 5.4 2.81 1.44 1.3 1.91 2.66 1.91 4.39 0 2.59-1.33 4.54-3.17 5.54-1.62.9-4.75 1.3-5.98 1.3-1.58 0-3.13-.25-4.64-.54-.29-.07-.47 0-.65.07-.22.11-.47.29-.72.47-.22.18-.32.22-.47.22-.11 0-.22-.04-.4-.22zm22-16.99c0 .47-.18 2.34-.18 2.7 1.73 0 3.85-.18 5.11-.18.36 0 .4.07.4.4 0 .29-.07.68-.22 1.22-.07.29-.25.32-.54.32-1.04.04-2.74.04-4.64.11-.11 0-.18.07-.22.5-.11 1.62-.07 5.36-.07 7.34 0 1.62 1.04 2.48 2.66 2.48.86 0 1.4-.29 2.27-.83.18-.11.25-.11.29.04.07.25.11.43.11.68 0 .18-.11.32-.25.4-1.37.79-2.77 1.58-4.5 1.58-.65 0-1.98-.25-2.74-1.15-.47-.58-.58-1.26-.5-2.63.07-1.94.07-6.91.14-7.92.04-.22-.14-.47-.32-.5-.5 0-1.22 0-1.48-.04-.11 0-.29-.29-.18-.36 1.33-1.19 3.56-3.35 4.36-4.18.14-.14.32-.22.4-.22s.11.07.11.22zm20.52 9.29c0 3.67-2.3 5.58-2.81 5.9-1.58.97-3.28 1.55-4.82 1.55-1.33 0-4.07-.79-5.47-2.63-1.08-1.4-1.51-3.35-1.51-4.64 0-1.44.58-3.17 1.44-4.28.72-.94 1.44-1.55 2.41-2.05 1.22-.68 2.99-1.15 4.07-1.15 2.56 0 6.7 2.38 6.7 7.31zm-10.12-5.15c-.94 1.01-1.37 2.48-1.37 4.79s.94 3.89 1.76 4.82c1.22 1.3 2.48 1.62 3.38 1.62.47 0 1.3-.18 1.76-.61.79-.79 1.55-2.09 1.55-4.28s-.65-4.54-2.16-5.9c-.68-.61-1.87-1.26-3.06-1.26-.65 0-1.37.32-1.87.83zm10.88 20.55c2.02-.25 2.27-1.26 2.41-2.23.07-.61.29-3.13.29-8.28v-3.96c0-2.34-.14-4.18-.25-4.57-.07-.4-.22-.58-1.37-.61-.14 0-.4-.22-.47-.79.97-.86 2.66-1.98 3.82-2.74.32-.22.47-.22.65-.18.14.04.18.07.18.22v2.45c1.58-.65 4.61-1.84 5.08-1.84 1.22 0 2.74.5 3.85 1.51 1.73 1.55 2.16 3.56 2.16 5.15 0 1.94-1.08 4-2.38 5.11-.65.58-2.66 1.87-4.57 2.56-.4.14-.83.18-1.12.18-1.04 0-2.05-.18-2.63-.36-.11-.04-.29.18-.32.4-.04.43-.07 2.99-.07 3.92 0 3.1.18 3.24.83 3.31.61.04 1.08.07 2.05.07.25 0 .25.07.22.25l-.18.61c-.07.36-.11.4-.4.4-1.58.07-6.05.32-7.38.36-.07 0-.11-.04-.14-.11l-.25-.83zm12.17-18.9c-1.01-1.12-2.34-1.73-3.6-1.73-1.08 0-2.52.54-3.24 1.15-.11.07-.14.36-.14.83v2.23c0 1.98.14 3.42.29 4.93.07.32.14.47.47.68 1.04.68 2.3.97 3.42.97 1.04 0 1.91-.36 2.7-.9.83-.61 1.66-1.94 1.66-4 0-1.62-.4-2.95-1.55-4.18zm7.8 7.82c.25-.11.58-.22.94-.32.47-.18.65-.4.9-1.26.07-.29.72-.58.86-.58.25 0 .4.22.43.47.22.76.68 1.4 1.3 1.62.43.14.5.32.58.83.04.18-.07.25-.32.36-1.08.47-1.26.65-1.66 1.94-.04.18-.22.22-.4.18-.54-.04-.76-.36-.97-.97-.32-.72-.79-.9-1.51-1.22-.22-.07-.4-.54-.4-.79 0-.14.14-.22.25-.25zm3.1-19.58c.54.79 1.04 1.44 1.55 1.91.11.11.22.22.22.4s-.04.4-.18.68c-.54 1.48-.68 2.74-.9 4.39-.29 1.69-.72 6.62-.79 7.13 0 .18-.07.4-.18.43-.14.04-.5.14-.72.14-.18 0-.22 0-.22-.22 0-.25-.14-3.96-.32-6.59-.18-2.52-.5-4.54-.97-5.29-.07-.14-.22-.36-.22-.65 0-.11.04-.18.11-.25.83-.79 1.33-1.26 1.8-2.12.11-.14.29-.18.5-.18.14 0 .22.04.32.22zm7.45-.47c0 2.27-2.3 4.5-3.53 5.29-.18.07-.54.14-.97.07-.07 0-.14-.11-.11-.18 1.01-1.26 1.84-2.48 1.8-3.6 0-.58-.25-1.01-.76-1.37-.18-.18-.18-.32-.14-.54.04-.18.14-.36.36-.4.61-.22.97-.72 1.33-1.22.14-.29.25-.36.47-.36.79 0 1.55 1.01 1.55 2.3zm1.98 18.64c.18.76.29.97 1.37 1.37.25.07.43.25.43.72 0 .22-.07.32-.18.36-1.33.32-1.4.4-1.87 2.12-.04.14-.14.22-.5.22-.54 0-.68-.43-1.15-1.62-.18-.36-.43-.5-1.19-.83-.36-.14-.5-.47-.5-.61 0-.29.4-.58.68-.65.97-.18 1.12-.29 1.55-1.4.11-.32.47-.54.94-.54.14 0 .22.14.43.86z" class="cls-2"/><path d="M408.09 6.88c0 2.27-2.3 4.5-3.53 5.29-.18.07-.54.14-.97.07-.07 0-.14-.11-.11-.18 1.01-1.26 1.84-2.48 1.8-3.6 0-.58-.25-1.01-.76-1.37-.18-.18-.18-.32-.14-.54.04-.18.14-.36.36-.4.61-.22.97-.72 1.33-1.22.14-.29.25-.36.47-.36.79 0 1.55 1.01 1.55 2.3zm5.58-.07c0 2.34-2.34 4.57-3.53 5.33-.18.11-.5.18-.97.07-.11.04-.14-.07-.11-.14 1.01-1.26 1.84-2.38 1.84-3.56 0-.58-.29-1.01-.79-1.4-.14-.18-.18-.32-.11-.5.04-.22.11-.32.32-.43.61-.22.97-.72 1.3-1.22.18-.29.32-.36.5-.36.79 0 1.55 1.12 1.55 2.23z" class="cls-1"/><path d="M437.65 17.14c1.91 0 4.14 0 4.54-.04.32-.04.4-.22.4-1.3v-3.1c0-2.3 0-2.92-.04-3.53-.04-1.22-.36-1.37-2.66-1.76-.07-.07.11-1.04.18-1.12 1.26 0 2.56.04 3.85.04.43 0 1.22-.04 1.94-.11.76-.07 1.48-.07 1.66-.07.25 0 .36 0 .43.11.14.32.25.76.25.9-2.02.32-2.38.47-2.45 1.62-.04.76-.18 3.28-.18 5.65v6.48c0 3.28.07 4.57.18 6.12.07.97.29 1.26 2.56 1.48.11.18-.18 1.15-.4 1.19h-4.71c-2.02 0-2.63.11-2.88.11-.18 0-.32 0-.32-.11l.04-1.04c1.76-.25 2.23-.47 2.34-.86.14-.54.22-2.23.22-5.29v-2.95c0-.25-.07-.58-.22-.65-.18-.14-.47-.22-4.46-.22h-5.29c-4.5 0-5.11.04-5.54.11-.5.11-.54.32-.54.83 0 2.77 0 4.68.07 6.3.07 1.26.11 1.69.36 1.91.22.25.5.47 2.2.79.29.04.36.07.36.18 0 .22.04 1.01-.04 1.08-1.22-.04-3.53-.18-5.25-.18-1.84.04-2.56.14-2.66.14-.14 0-.22 0-.29-.07-.11-.11-.29-.9-.22-1.01 1.91-.47 2.23-.72 2.34-1.76.07-.54.14-1.84.14-5.51v-6.59c0-3.49-.04-4.75-.11-5.87s-.22-1.4-2.45-1.69c-.04-.11.04-.61.14-.9.07-.11.11-.14.25-.14 1.3 0 2.45.04 3.46.04.76 0 1.37 0 2.02-.04.58 0 1.22-.07 1.94-.11.07.07.14 1.04.04 1.15-1.48.18-1.98.36-2.12 1.19-.22 1.15-.22 3.1-.22 5.58 0 2.95.07 3.02.68 3.02h10.47zm21.74-.47c.61.65 1.08 1.4 1.4 2.38.36-.07 1.04-.22 1.15-.11.11.07.11.18.04.32-.07.32-.32.97-.65 1.08-2.48.58-7.09 1.44-8.64 1.91-.18.04-.25.25-.25.65.11 3.53 1.98 5.04 4.39 5.04 1.66 0 3.06-.68 4.28-1.76.14-.14.58-.14.58-.04-.07.86-.11 1.12-.32 1.33-1.55 1.3-3.28 2.02-4.46 2.38-.47.14-.97.18-1.33.18-2.56 0-4.14-1.51-4.61-2.02-.54-.61-1.58-2.2-1.58-4.54 0-3.17 1.84-5.54 3.74-6.95.94-.65 2.23-1.12 3.2-1.12 1.19 0 2.45.65 3.06 1.26zm-4.25.11c-.22 0-.58.11-.9.32-1.08.76-1.66 2.56-1.62 4.07 1.69-.47 3.35-.72 4.97-1.15.22-.04.4-.18.4-.58 0-1.01-1.37-2.66-2.84-2.66zm20.27 0c-1.51.29-1.58.47-1.37 1.37.22.86 1.69 4.79 2.88 7.74.07.22.25.11.29.04 1.01-2.12 1.76-3.78 2.66-6.05.14-.29.11-.54 0-.97-.58-1.66-.61-1.69-2.2-1.98 0-.14.07-.5.18-.76.07-.22.18-.29.4-.29 2.09.04 3.85 0 5.47-.07 0 .68 0 .97-.18 1.08-1.26.25-1.44.4-1.26 1.04.79 2.52 1.84 5.65 2.77 8.1.04.14.25.14.32 0 .68-1.37 2.05-4.61 2.63-6.26.29-.97.61-1.87.61-2.12s-.4-.5-2.23-.76c.04-.22.22-.86.32-.97 2.48-.04 3.17-.04 3.82-.07.61-.04.94-.07 1.26-.07.11 0 .18 0 .18.18v.5c0 .22 0 .29-.43.47-.58.25-.79.61-1.37 1.8-.68 1.3-2.92 6.3-3.78 8.21-.68 1.44-1.12 2.41-1.26 2.81-.11.29-.43.43-.94.43-.25 0-.4-.07-.5-.4-.94-2.81-1.94-5.62-2.99-8.17-.04-.14-.14-.18-.22-.04-1.94 4.14-2.7 5.94-3.67 8.24-.07.18-.18.36-.36.36-.25 0-.36 0-.5-.04-.22-.07-.36-.22-.47-.61-1.19-3.49-2.52-6.77-4.07-10.58-.65-1.48-.9-1.76-2.05-1.98-.14-.04-.18-.07-.14-.22l.25-.61c.04-.18.11-.22.25-.22 1.87 0 3.35-.11 5.11-.11.25 0 .29.07.32.29l.25.68zm18.69 3.02c-.22.07-.43.11-.65.11-.14 0-.43-.29-.43-.47 0-.22.11-.5.32-.83.65-1.01 3.28-2.56 4.21-2.88.76-.29 1.4-.43 1.98-.43 1.58 0 2.41.65 2.99 1.3.61.65.68 1.3.68 1.76 0 2.52-.07 5.04-.07 7.42-.04 1.94.32 2.63.86 2.63.65 0 1.66-.47 1.76-.5.11-.07.36.22.36.36l-.07.61c0 .18-.07.32-.22.4-.43.25-2.77.9-4 .9-.65 0-1.19-.32-1.51-1.87-1.37.61-4.1 1.8-4.54 1.8-.5 0-1.22-.11-2.05-.72-.47-.43-1.04-1.37-1.04-2.81 0-.76.58-1.37 1.55-1.87 1.87-.97 4.07-1.55 6.19-1.91.11-.47.11-1.87.11-2.59 0-1.51-.29-2.34-.61-2.63-.29-.29-1.19-.58-2.02-.58-.72 0-1.22.14-1.44.25-.14.11-.25.36-.25 1.51 0 .25 0 .4-.22.47l-1.91.58zm5.51 7.74c.43-.32.72-.54.79-.97.04-.43.11-1.8.11-2.3 0-.25-.07-.4-.18-.4-2.16.32-3.46.76-4.25 1.37-.22.14-.36.4-.36 1.04 0 1.22.36 1.98 1.62 1.98.36 0 1.33-.32 2.27-.72zm15.98 1.48c-1.08.76-2.45 1.01-3.64 1.01-.97 0-2.52-.22-3.1-.32-.58-.14-.76-.18-1.22.07-.04 0-.22 0-.32-.07-.11-.11-.11-.22-.07-.4.14-1.33.14-2.56 0-4 .04-.11.04-.18.11-.22.14-.07.32-.14.86-.25.32.94.94 2.05 1.62 2.81.94 1.04 1.84 1.3 2.41 1.3.83 0 2.23-.76 2.23-2.09 0-1.91-2.12-2.74-3.2-3.35-.9-.5-3.53-1.62-3.53-3.96 0-1.15.5-2.12 1.58-3.02 1.01-.79 2.27-1.12 3.1-1.12s1.62.14 2.38.14c.36 0 .54-.04.65-.07.07-.07.14-.07.25.04.11.07.11.14.11.22.04 1.08.29 2.3.68 3.6 0 .14-.25.32-.32.32-.58 0-.72-.04-1.04-.5-.47-.94-1.44-2.59-3.28-2.59-.65 0-1.58.58-1.58 1.87 0 1.62 1.48 2.38 2.95 3.13.97.5 4.1 1.69 4.1 4.54 0 1.08-.5 2.09-1.73 2.92zm25.09-6.41c0 3.67-2.3 5.58-2.81 5.9-1.58.97-3.28 1.55-4.82 1.55-1.33 0-4.07-.79-5.47-2.63-1.08-1.4-1.51-3.35-1.51-4.64 0-1.44.58-3.17 1.44-4.28.72-.94 1.44-1.55 2.41-2.05 1.22-.68 2.99-1.15 4.07-1.15 2.56 0 6.7 2.38 6.7 7.31zm-10.12-5.15c-.94 1.01-1.37 2.48-1.37 4.79s.94 3.89 1.76 4.82c1.22 1.3 2.48 1.62 3.38 1.62.47 0 1.3-.18 1.76-.61.79-.79 1.55-2.09 1.55-4.28s-.65-4.54-2.16-5.9c-.68-.61-1.87-1.26-3.06-1.26-.65 0-1.37.32-1.87.83zm11.88 11.45c1.15-.43 1.55-.68 1.69-1.66.14-1.04.22-3.17.22-4.97 0-1.4-.04-2.63-.11-3.31 0-.36-.14-.47-1.76-.86-.14-.18-.22-.11-.11-.68 0-.11.11-.18.36-.29 1.51-.72 3.1-1.58 3.28-1.73.14-.07.29-.11.43-.11s.32.11.32.25c.04.61.07 1.26.07 1.91 0 .14.04.32.22.29 1.55-.9 2.16-1.19 3.13-1.62.61-.29 1.37-.5 2.02-.5 1.04 0 1.8.25 2.45.79.97.72 1.44 2.02 1.62 3.56.07.72.07 1.62.07 3.17 0 2.59.04 4.18.04 5 0 .29.04.36.14.36.32 0 1.33-.11 1.91-.14.11 0 .18.11.18.32s-.11.76-.18.9c-.07.18-.11.18-.29.18-3.2 0-4.28.14-5.65.14-.22 0-.4 0-.43-.14l-.18-.72c1.04-.4 1.44-.68 1.62-1.69.14-1.04.18-2.38.18-4.9 0-2.02 0-3.02-.86-3.92-.54-.58-1.33-.9-2.41-.9-.86 0-2.23.54-2.99.97-.32.25-.4.47-.43.9-.07 1.22-.07 6.37-.07 8.31 0 .47.11.54 1.98.83.18.04.25.11.18.29l-.18.76h-3.1c-1.4 0-2.59.18-3.28.18-.11 0-.14-.07-.11-.22l.04-.76zm17.03.61c0-.25.07-.58.14-.65.22-.11.61-.25.86-.32.72-.25.86-.47.9-.94.22-4.39.32-10.65.32-13.57 0-2.52-.04-4.39-.07-5.47-.07-1.04-.36-1.12-1.98-1.26-.14-.04-.14-.07.04-.79.04-.07.11-.14.36-.22a43.87 43.87 0 0 0 4.39-1.8c.07-.04.11-.04.14-.04.11.04.11.11.11.29-.32 4.61-.43 11.66-.43 18.36 0 4.61.11 5.33 1.01 5.33.5 0 1.37-.07 1.51-.07.22 0 .22.04.22.22-.04.36-.11.68-.18.97-.04.14-.14.14-.29.14-1.22 0-5.72.11-6.95.25-.11 0-.14 0-.14-.14l.04-.29zm17.03-13.64c.72 0 2.41 0 3.38-.07.65-.04 1.04-.04 1.22-.04.14 0 .25 0 .32.11.14.14.32.86.29.94-1.37.47-1.8 1.3-2.74 3.1-2.66 5.15-4.14 8.39-5.11 10.8-1.04 2.66-2.23 5.83-2.38 6.48-.25.94-.25 1.4-.25 1.58 0 .14 0 .25-.11.36-.25.18-.54.22-.76.22-.54 0-1.22-.18-1.62-.54-.36-.29-.36-.76-.14-1.15.14-.22 3.46-6.26 3.64-6.91.11-.29.14-.86-.04-1.37-1.08-3.6-2.12-6.66-3.71-10.94-.36-.94-.58-1.08-1.48-1.3-.25-.11-.29-.14-.29-.25s.07-.29.18-.72c.11-.25.18-.29.43-.29 2.56 0 4.03-.11 5.25-.11.29 0 .36.04.4.11.07.14.29.72.25.9-1.84.58-2.05.65-1.69 1.87.36 1.44 1.91 6.7 2.63 8.06 1.19-2.2 2.63-5.15 3.56-7.85.4-1.22.4-1.44-1.26-1.87-.14-.04-.14-.14-.14-.32 0-.25.07-.65.14-.79zm25.05 14.07c0 .18-.14.32-.25.36-.83.07-2.59.11-2.81.11-.14 0-.25-.07-.25-.47 0-.29.25-6.37.25-7.16 0-.11-.11-.22-.25-.22-.32.04-5.87.18-7.92.18h-1.48c-.29-.04-.4-.14-.4-.32 0-.25.47-1.26.58-1.51 1.19-2.05 4.82-6.8 8.39-11.19 1.04-1.19 2.16-2.3 2.92-2.66.32-.18.68-.29.9-.29.29 0 .36.58.36 1.87l.04 12.02c2.2-.04 3.02-.07 3.56-.07.11 0 .07.36-.11 1.26-.07.43-.18.61-.43.61-.68 0-2.52.07-3.06.11l-.04 7.38zm-2.84-19.76c-2.38 2.88-5.47 6.95-7.49 10.29-.14.22.04.47.22.47 2.48 0 5.33-.07 7.09-.18.07-1.94.43-9.61.43-10.08 0-.58-.18-.65-.25-.5zm10.26-4.97c0 1.44-.76 4.9-1.19 6.48-.04.14-.22.25-1.04.47-.18.07-.29.04-.32-.29 0-2.2-.07-4.68-.32-6.19 0-.14.11-.29.79-.61.76-.32 1.33-.43 1.55-.43.32 0 .54.18.54.58zm7.34 3.75c2.16-1.66 5.33-2.81 7.59-2.81.54 0 .9.61 1.04.83.04.07-.07.18-.18.18-2.84.43-6.23 1.91-8.32 4.68-1.66 2.16-2.23 5-2.27 5.72.5-.18 3.2-1.51 4.36-1.94.43-.14.83-.22 1.12-.22 1.58 0 3.24.72 4.36 1.98 1.08 1.12 1.8 2.92 1.8 4.79 0 2.99-1.48 4.9-2.59 5.76-1.3 1.08-3.74 2.2-5.47 2.2-1.51 0-3.1-.47-4.5-1.69-1.55-1.4-2.7-4.1-2.7-7.49 0-5 2.02-9.03 5.76-11.99zm4.79 18.93c.58-.4 1.94-1.94 1.94-4.54 0-1.08-.29-2.52-1.15-3.67-1.01-1.33-2.3-2.12-4-2.12-1.26 0-2.84.79-3.89 1.4-.11.14-.32.65-.32 1.48 0 3.17.9 5.47 1.91 6.55.9 1.01 2.12 1.62 3.24 1.62.86 0 1.73-.32 2.27-.72zm9.15-22.68c0 1.44-.76 4.9-1.19 6.48-.04.14-.22.25-1.04.47-.18.07-.29.04-.32-.29 0-2.2-.07-4.68-.32-6.19 0-.14.11-.29.79-.61.76-.32 1.33-.43 1.55-.43.32 0 .54.18.54.58zm4.89 0c0 1.22-.65 4.36-1.19 6.3-.07.18-.22.29-1.08.65-.14.04-.29.04-.29-.25 0-2.12-.11-4.72-.32-6.26 0-.11.07-.25.76-.61.86-.29 1.37-.4 1.62-.4.29 0 .5.18.5.58zm13.1 8.1c0 .47-.18 2.34-.18 2.7 1.73 0 3.85-.18 5.11-.18.36 0 .4.07.4.4 0 .29-.07.68-.22 1.22-.07.29-.25.32-.54.32-1.04.04-2.74.04-4.64.11-.11 0-.18.07-.22.5-.11 1.62-.07 5.36-.07 7.34 0 1.62 1.04 2.48 2.66 2.48.86 0 1.4-.29 2.27-.83.18-.11.25-.11.29.04.07.25.11.43.11.68 0 .18-.11.32-.25.4-1.37.79-2.77 1.58-4.5 1.58-.65 0-1.98-.25-2.74-1.15-.47-.58-.58-1.26-.5-2.63.07-1.94.07-6.91.14-7.92.04-.22-.14-.47-.32-.5-.5 0-1.22 0-1.48-.04-.11 0-.29-.29-.18-.36 1.33-1.19 3.56-3.35 4.36-4.18.14-.14.32-.22.4-.22s.11.07.11.22zm7.71 6.48c-.22.07-.43.11-.65.11-.14 0-.43-.29-.43-.47 0-.22.11-.5.32-.83.65-1.01 3.28-2.56 4.21-2.88.76-.29 1.4-.43 1.98-.43 1.58 0 2.41.65 2.99 1.3.61.65.68 1.3.68 1.76 0 2.52-.07 5.04-.07 7.42-.04 1.94.32 2.63.86 2.63.65 0 1.66-.47 1.76-.5.11-.07.36.22.36.36l-.07.61c0 .18-.07.32-.22.4-.43.25-2.77.9-4 .9-.65 0-1.19-.32-1.51-1.87-1.37.61-4.1 1.8-4.54 1.8-.5 0-1.22-.11-2.05-.72-.47-.43-1.04-1.37-1.04-2.81 0-.76.58-1.37 1.55-1.87 1.87-.97 4.07-1.55 6.19-1.91.11-.47.11-1.87.11-2.59 0-1.51-.29-2.34-.61-2.63-.29-.29-1.19-.58-2.02-.58-.72 0-1.22.14-1.44.25-.14.11-.25.36-.25 1.51 0 .25 0 .4-.22.47l-1.91.58zm5.51 7.74c.43-.32.72-.54.79-.97.04-.43.11-1.8.11-2.3 0-.25-.07-.4-.18-.4-2.16.32-3.46.76-4.25 1.37-.22.14-.36.4-.36 1.04 0 1.22.36 1.98 1.62 1.98.36 0 1.33-.32 2.27-.72zm6.66 1.98c0-.25.07-.58.14-.65.22-.11.61-.25.86-.32.72-.25.86-.47.9-.94.22-4.39.32-10.65.32-13.57 0-2.52-.04-4.39-.07-5.47-.07-1.04-.36-1.12-1.98-1.26-.14-.04-.14-.07.04-.79.04-.07.11-.14.36-.22a43.87 43.87 0 0 0 4.39-1.8c.07-.04.11-.04.14-.04.11.04.11.11.11.29-.32 4.61-.43 11.66-.43 18.36 0 4.61.11 5.33 1.01 5.33.5 0 1.37-.07 1.51-.07.22 0 .22.04.22.22-.04.36-.11.68-.18.97-.04.14-.14.14-.29.14-1.22 0-5.72.11-6.95.25-.11 0-.14 0-.14-.14l.04-.29zm8.06 0c0-.25.07-.58.14-.65.22-.11.61-.25.86-.32.72-.25.86-.47.9-.94.22-4.39.32-10.65.32-13.57 0-2.52-.04-4.39-.07-5.47-.07-1.04-.36-1.12-1.98-1.26-.14-.04-.14-.07.04-.79.04-.07.11-.14.36-.22a43.87 43.87 0 0 0 4.39-1.8c.07-.04.11-.04.14-.04.11.04.11.11.11.29-.32 4.61-.43 11.66-.43 18.36 0 4.61.11 5.33 1.01 5.33.5 0 1.37-.07 1.51-.07.22 0 .22.04.22.22-.04.36-.11.68-.18.97-.04.14-.14.14-.29.14-1.22 0-5.72.11-6.95.25-.11 0-.14 0-.14-.14l.04-.29zm12.13-4c.18.76.29.97 1.37 1.37.25.07.43.25.43.72 0 .22-.07.32-.18.36-1.33.32-1.4.4-1.87 2.12-.04.14-.14.22-.5.22-.54 0-.68-.43-1.15-1.62-.18-.36-.43-.5-1.19-.83-.36-.14-.5-.47-.5-.61 0-.29.4-.58.68-.65.97-.18 1.12-.29 1.55-1.4.11-.32.47-.54.94-.54.14 0 .22.14.43.86z" class="cls-2"/></svg>