<svg xmlns="http://www.w3.org/2000/svg" id="Layer_1" width="400" height="200" viewBox="0 0 400 200"><defs><style>.cls-1{fill:#f16722}.cls-2{fill:#b3b4b4}</style></defs><path d="M207.52 28.94c0 14.49-14.72 28.75-22.54 33.81-1.15.46-3.45.92-6.21.46-.46 0-.92-.69-.69-1.15 6.44-8.05 11.73-15.87 11.5-23 0-3.68-1.61-6.44-4.83-8.74-1.15-1.15-1.15-2.07-.92-3.45.23-1.15.92-2.3 2.3-2.53 3.91-1.38 6.21-4.6 8.51-7.82.92-1.84 1.61-2.3 2.99-2.3 5.06 0 9.89 6.44 9.89 14.72z" class="cls-1"/><path d="M255.82 170.39c-6.9 4.83-15.64 6.44-23.23 6.44-6.21 0-16.1-1.38-19.78-2.07-3.68-.92-4.83-1.15-7.82.46-.23 0-1.38 0-2.07-.46-.69-.69-.69-1.38-.46-2.53.92-8.51.92-16.33 0-25.53.23-.69.23-1.15.69-1.38.92-.46 2.07-.92 5.52-1.61 2.07 5.98 5.98 13.11 10.35 17.94 5.98 6.67 11.73 8.28 15.41 8.28 5.29 0 14.26-4.83 14.26-13.34 0-12.19-13.57-17.48-20.47-21.39-5.75-3.22-22.54-10.35-22.54-25.3 0-7.36 3.22-13.57 10.12-19.32 6.44-5.06 14.49-7.13 19.78-7.13s10.35.92 15.18.92c2.3 0 3.45-.23 4.14-.46.46-.46.92-.46 1.61.23.69.46.69.92.69 1.38.23 6.9 1.84 14.72 4.37 23 0 .92-1.61 2.07-2.07 2.07-3.68 0-4.6-.23-6.67-3.22-2.99-5.98-9.2-16.56-20.93-16.56-4.14 0-10.12 3.68-10.12 11.96 0 10.35 9.43 15.18 18.86 20.01 6.21 3.22 26.22 10.81 26.22 28.98 0 6.9-3.22 13.34-11.04 18.63zM35.02 82.76c-6.9 0-18.17 2.99-25.99 7.36C5.62 91.89 2.7 93.88 0 96.29v69.95c9.37 7.49 22.15 10.82 29.04 10.82 9.89 0 20.7-3.68 30.82-9.89 3.22-2.07 17.94-14.26 17.94-37.72 0-31.51-26.45-46.69-42.78-46.69zm13.57 81.65c-2.99 2.76-8.28 3.91-11.27 3.91-5.75 0-13.8-2.07-21.62-10.35-5.29-5.98-11.27-15.87-11.27-30.82S7.19 103 13.17 96.56c3.22-3.22 7.82-5.29 11.96-5.29 7.59 0 15.18 4.14 19.55 8.05 9.66 8.74 13.8 23.69 13.8 37.72s-4.83 22.31-9.89 27.37zM400 89.81c-4.25-3.26-9.28-5.21-15.84-5.21-2.76 0-5.52.46-8.28 1.84-7.82 3.68-19.55 11.96-25.3 14.95l.23-16.56c0-1.61-.46-2.07-1.84-2.07-1.61 0-2.53.23-4.37 1.15-2.99 1.61-9.89 6.44-22.08 15.18-.46.46.69 3.68.92 4.14.46.69 1.38 1.38 4.83 1.84 4.37.92 5.06 1.15 5.52 4.83.46 2.76.92 7.59.92 24.61 0 18.4-.92 25.53-1.15 28.52-.23 2.53-1.15 3.22-2.76 3.91-1.38.69-5.06 2.3-6.9 2.76 0 2.3.23 6.21.92 6.44 3.22-.23 13.57-1.15 18.4-1.15s17.48-.23 19.55-.23c.46 0 .92-5.06.92-5.75s-.46-1.15-1.84-1.15c-10.35-1.15-10.81-2.07-10.81-27.6 0-10.81.23-24.61.46-28.98.23-2.07 1.15-3.68 2.76-4.6 8.05-5.52 15.64-8.51 20.93-8.51 7.36 0 12.88 3.22 15.87 6.44 2.3 3.22 3.22 6.44 3.22 16.1 0 23-.92 35.19-1.61 41.63-.46 3.22-1.38 4.14-10.12 6.67-.46.23-.92 1.15-.92 1.61-.23 1.15-.23 3.91-.23 4.37q0 .69.69.69c5.09-.5 10.39-.73 17.91-.83V89.81zM85.62 94.49c5.75 1.38 7.13 2.3 9.43 8.28 10.12 27.37 16.79 46.92 23.69 69.92 1.15 3.22.92 6.9.23 8.74-.49 1.77-4.63 9.82-9.28 18.57h12.39c2.29-6.08 4.82-12.65 7.23-18.8 6.21-15.41 15.64-36.11 32.66-69 5.98-11.5 8.74-16.79 17.48-19.78.23-.46-.92-5.06-1.84-5.98-.46-.69-1.15-.69-2.07-.69-1.15 0-3.68 0-7.82.23-6.21.46-17.02.46-21.62.46-.46.92-.92 3.45-.92 5.06 0 1.15 0 1.84.92 2.07 10.58 2.76 10.58 4.14 8.05 11.96-5.98 17.25-15.18 36.11-22.77 50.14-4.6-8.74-14.49-42.32-16.79-51.52-2.3-7.82-.92-8.28 10.81-11.96.23-1.15-1.15-4.83-1.61-5.75-.23-.46-.69-.69-2.53-.69-7.82 0-17.25.69-33.58.69-1.61 0-2.07.23-2.76 1.84-.69 2.76-1.15 3.91-1.15 4.6s.23.92 1.84 1.61z" class="cls-2"/></svg>