<svg xmlns="http://www.w3.org/2000/svg" id="Layer_1" viewBox="0 0 72.86 66.04" width="72.86" height="66.04"><defs><style>.cls-1{fill:#808285}</style></defs><path d="M7.12 3.14l-.91 1.05c-.7-.58-1.37-.83-2.17-.83-.87 0-1.5.39-1.5 1.15 0 .7.38 1.01 1.99 1.51 1.69.53 2.87 1.23 2.87 3.05s-1.36 2.97-3.67 2.97c-1.54 0-2.69-.55-3.49-1.33l.95-1.06c.71.6 1.48.97 2.49.97s1.78-.5 1.78-1.44c0-.81-.41-1.18-1.92-1.64C1.51 6.91.63 6.1.63 4.63c0-1.61 1.39-2.67 3.29-2.67 1.41 0 2.35.42 3.19 1.19zm7.51 7.69l-.38 1.19c-.83-.07-1.36-.35-1.64-1.08-.53.78-1.33 1.11-2.23 1.11-1.47 0-2.38-.94-2.38-2.28 0-1.61 1.2-2.48 3.36-2.48h.94v-.42c0-.97-.43-1.29-1.39-1.29-.5 0-1.22.14-1.98.39l-.41-1.22c.91-.35 1.85-.53 2.68-.53 1.99 0 2.86.91 2.86 2.55v3.11c0 .6.2.81.56.95zm-2.33-.99v-1.5h-.74c-1.16 0-1.74.42-1.74 1.29 0 .71.36 1.12 1.05 1.12.62 0 1.09-.32 1.43-.91zm7.9 1.65c-.53.38-1.2.56-1.86.56-1.46-.01-2.23-.84-2.23-2.42V5.72h-1.16V4.43h1.16V2.79l1.79-.21v1.85h1.72l-.18 1.29H17.9v3.87c0 .73.24 1.02.78 1.02.28 0 .56-.08.88-.27l.63 1.15zm2.72-9.72c0 .6-.46 1.08-1.13 1.08s-1.12-.48-1.12-1.08.46-1.09 1.12-1.09 1.13.48 1.13 1.09zm-.22 10.07h-1.79V4.43h1.79v7.41zm6.82-6.74l-.7 1.05c-.62-.39-1.21-.6-1.86-.6-.71 0-1.12.29-1.12.74 0 .49.29.71 1.56 1.06 1.51.41 2.37 1.02 2.37 2.34 0 1.54-1.43 2.35-3.12 2.35-1.27 0-2.27-.43-2.96-1.05l.9-1.01c.57.43 1.26.73 2.02.73.8 0 1.32-.34 1.32-.9 0-.62-.29-.81-1.68-1.2-1.53-.42-2.2-1.15-2.2-2.24 0-1.23 1.13-2.16 2.86-2.16 1.06 0 1.93.34 2.63.88zm3.38-1.46v.78h1.78l-.2 1.29H32.9v6.12h-1.79V5.71h-1.2V4.42h1.2v-.81c0-1.34.9-2.35 2.61-2.35.74 0 1.34.17 1.92.43l-.52 1.21c-.45-.21-.87-.28-1.22-.28-.73 0-.99.32-.99 1.02zm8.39 7.19l-.38 1.19c-.83-.07-1.36-.35-1.64-1.08-.53.78-1.33 1.11-2.23 1.11-1.47 0-2.38-.94-2.38-2.28 0-1.61 1.2-2.48 3.36-2.48h.94v-.42c0-.97-.43-1.29-1.39-1.29-.5 0-1.22.14-1.98.39l-.41-1.22c.91-.35 1.85-.53 2.68-.53 1.99 0 2.86.91 2.86 2.55v3.11c0 .6.2.81.56.95zm-2.33-.99v-1.5h-.74c-1.16 0-1.74.42-1.74 1.29 0 .71.36 1.12 1.05 1.12.62 0 1.09-.32 1.43-.91zm9.05-4.75l-.8 1.08c-.49-.36-.94-.53-1.5-.53-1.04 0-1.67.76-1.67 2.54s.66 2.42 1.67 2.42c.56 0 .95-.18 1.5-.53l.8 1.13c-.67.55-1.44.85-2.4.85-2.14 0-3.47-1.48-3.47-3.85s1.33-3.98 3.46-3.98c.97 0 1.71.27 2.41.87zm5.26 6.4c-.53.38-1.2.56-1.86.56-1.46-.01-2.23-.84-2.23-2.42V5.72h-1.16V4.43h1.16V2.79l1.79-.21v1.85h1.72l-.18 1.29h-1.54v3.87c0 .73.24 1.02.78 1.02.28 0 .56-.08.88-.27l.63 1.15zm6.99-3.37c0 2.34-1.3 3.92-3.49 3.92s-3.49-1.48-3.49-3.92 1.3-3.91 3.5-3.91 3.47 1.49 3.47 3.91zm-5.08 0c0 1.78.55 2.56 1.6 2.56s1.6-.8 1.6-2.56-.55-2.55-1.58-2.55-1.61.8-1.61 2.55zm10.85-3.79l-.31 1.74c-.22-.06-.39-.08-.66-.08-.9 0-1.36.66-1.64 1.9v3.95h-1.79V4.43h1.55l.17 1.46c.35-1.06 1.06-1.65 1.93-1.65.27 0 .5.03.74.1z" class="cls-1"/><path d="M70.45 11.87c-.56 1.74-1.65 2.86-3.85 3.03l-.18-1.3c1.47-.22 1.95-.7 2.37-1.75h-.62l-2.35-7.41h1.91l1.61 6.22 1.68-6.22h1.85l-2.41 7.44zm-24.32 8.71l-2.41 2.81c-1.44-1.15-2.92-1.76-4.61-1.76-3.46 0-6.12 2.52-6.12 9.25s2.59 9.21 6.12 9.21c2.16 0 3.64-.94 5.08-2.02l2.23 2.81c-1.51 1.55-4.1 3.02-7.49 3.02-6.44 0-10.94-4.57-10.94-13.03s4.75-12.92 10.87-12.92c3.17 0 5.22.94 7.27 2.63zM26 57.87c0 1.98-1.32 3.42-3.22 3.42-2.41 0-3.4-1.86-3.4-4.57 0-3.15 1.47-5.24 3.87-5.24.83 0 1.51.24 2.06.6l-.67 1.11c-.41-.24-.85-.38-1.36-.38-1.19 0-1.95 1.13-2.04 3.03.6-.73 1.32-1.04 2.11-1.04 1.47 0 2.66 1.06 2.66 3.07zm-1.81.03c0-1.34-.49-1.79-1.29-1.79-.64 0-1.23.38-1.67.97.03 2.02.46 2.89 1.54 2.89.95 0 1.41-.83 1.41-2.06zm9.36-1.53c0 3.15-1.15 4.92-3.38 4.92s-3.38-1.76-3.38-4.92 1.16-4.89 3.38-4.89 3.38 1.75 3.38 4.89zm-4.9 0c0 2.63.49 3.56 1.53 3.56s1.53-.9 1.53-3.56-.49-3.53-1.53-3.53-1.53.92-1.53 3.53zm5.99-.39h4.23v1.43h-4.23v-1.43zm11.91 1.89c0 1.98-1.32 3.42-3.22 3.42-2.41 0-3.4-1.86-3.4-4.57 0-3.15 1.47-5.24 3.87-5.24.83 0 1.51.24 2.06.6l-.67 1.11c-.41-.24-.85-.38-1.36-.38-1.19 0-1.95 1.13-2.04 3.03.6-.73 1.32-1.04 2.11-1.04 1.47 0 2.66 1.06 2.66 3.07zm-1.81.03c0-1.34-.49-1.79-1.29-1.79-.64 0-1.23.38-1.67.97.03 2.02.46 2.89 1.54 2.89.95 0 1.41-.83 1.41-2.06zm8.84-2.76c0 3.88-1.71 5.39-5.49 6.29l-.38-1.28c2.35-.62 3.7-1.53 3.95-3.39-.45.57-1.11.98-2.02.98-1.46 0-2.65-1.16-2.65-3.07s1.46-3.19 3.28-3.19c2.19 0 3.31 1.49 3.31 3.66zm-1.83.34c.03-1.95-.42-2.66-1.47-2.66-.91 0-1.48.63-1.48 1.83 0 1.29.59 1.79 1.34 1.79.64 0 1.19-.35 1.61-.97z" class="cls-1"/></svg>